<svg xmlns="http://www.w3.org/2000/svg" xmlns:xlink="http://www.w3.org/1999/xlink" viewBox="0 0 1538.58 563.23"><defs><style>.cls-1{fill:none;}.cls-2{clip-path:url(#clip-path);}.cls-3{fill:#f5f5ef;}</style><clipPath id="clip-path" transform="translate(0 -146.38)"><rect class="cls-1" x="132.62" width="1366" height="768"/></clipPath></defs><title>Asset 8</title><g id="Layer_2" data-name="Layer 2"><g id="Layer_1-2" data-name="Layer 1"><g class="cls-2"><path class="cls-3" d="M1538.58,707c-38.24,0-38.24-18-76.48-18s-38.23,18-76.47,18-38.24-18-76.48-18-38.24,18-76.48,18-38.24-18-76.48-18-38.24,18-76.47,18-38.24-18-76.48-18S965,707,926.76,707s-38.24-18-76.47-18-38.24,18-76.48,18-38.24-18-76.48-18-38.24,18-76.48,18-38.24-18-76.48-18-38.24,18-76.48,18-38.24-18-76.48-18-38.24,18-76.48,18-38.24-18-76.48-18S200.21,707,162,707s-38.24-18-76.48-18S42.07,719.22,6,706.49C-6.72,702,18,684.5,18,671S0,657.51,0,644s18-13.5,18-27S0,603.51,0,590s18-13.5,18-27S0,549.51,0,536s18-13.49,18-27S0,495.52,0,482s18-13.5,18-27S0,441.52,0,428s18-13.5,18-27S0,387.52,0,374s18-13.5,18-27S0,333.52,0,320s18-13.51,18-27S0,279.52,0,266s18-13.5,18-27S0,225.52,0,212s18-13.5,18-27-24.73-31-12-35.5C42.06,136.78,47.24,167,85.48,167s38.23-18,76.47-18,38.24,18,76.48,18,38.24-18,76.48-18,38.24,18,76.48,18,38.24-18,76.47-18,38.24,18,76.48,18,38.24-18,76.48-18,38.24,18,76.47,18,38.24-18,76.48-18,38.24,18,76.48,18,38.24-18,76.48-18,38.24,18,76.48,18,38.24-18,76.48-18,38.24,18,76.48,18,38.24-18,76.48-18,38.24,18,76.48,18,38.24-18,76.48-18,38.24,18,76.48,18,38.25-18,76.49-18" transform="translate(0 -146.38)"/></g></g></g></svg>