<?xml version="1.0" encoding="utf-8"?>
<!-- Generator: Adobe Illustrator 22.1.0, SVG Export Plug-In . SVG Version: 6.00 Build 0)  -->
<svg version="1.1" id="Layer_1" xmlns="http://www.w3.org/2000/svg" xmlns:xlink="http://www.w3.org/1999/xlink" x="0px" y="0px"
	 viewBox="0 0 1000 1000" style="enable-background:new 0 0 1000 1000;" xml:space="preserve">
<style type="text/css">
	.st0{fill:none;stroke:#010101;stroke-miterlimit:10;}
	.st1{fill:#1F7252;stroke:#F7F6F0;stroke-width:2;stroke-miterlimit:10;}
	.st2{fill:#40BA88;stroke:#F7F6F0;stroke-width:2;stroke-miterlimit:10;}
	.st3{fill:#F8BAC5;stroke:#F7F6F0;stroke-width:2;stroke-miterlimit:10;}
	.st4{fill:#F7F6F0;stroke:#F7F6F0;stroke-width:2;stroke-miterlimit:10;}
	.st5{fill:#FBBD1A;}
	.st6{fill:#FBBD1A;stroke:#F7F6F0;stroke-width:4;stroke-miterlimit:10;}
</style>
<g id="_x3C_sectors_x3E_">
	<path class="st0" d="M498.5,804.1L498.5,804.1"/>
	<line class="st0" x1="477" y1="416.5" x2="477" y2="416.5"/>
	<path class="st0" d="M549.4,441.8c-0.2,0.2-0.3,0.4-0.4,0.5"/>
	<line class="st0" x1="556.8" y1="482.6" x2="556.8" y2="482.6"/>
	<path class="st1" d="M660.6,82.7c-0.8,109.6-1,109.8-78.5,182c-62,57.8-53.9,120.8-54.1,165.8c-0.1-0.1-0.2-0.1-0.3-0.1
		c-8.7-3.2-18.1-4.9-27.8-4.9c-9.8,0-19.2,1.7-27.8,4.9c-0.4,0.1-0.7,0.3-1.1,0.4c-29.3-34.1-76.5-76.5-67.4-160.8
		C415,164.7,415,164.4,344.1,81c48.5-17.8,101-27.5,155.8-27.5C556.5,53.5,610.7,63.8,660.6,82.7z"/>
	<path class="st2" d="M889.4,274.6c-68.7,85.9-68.9,85.9-174.8,94.7c-84.1,7-116.9,60.9-144.7,96.1c-9.5-16-24.3-28.4-41.9-35
		c0.2-44.9-7.9-107.9,54.1-165.8c77.5-72.2,77.6-72.4,78.5-182C756.8,119.2,837.4,187.4,889.4,274.6z"/>
	<path class="st3" d="M953.3,506.9c0,26.5-2.3,52.4-6.6,77.7c-108.2,20.3-108.2,20.3-194-42c-68.5-49.7-128.6-29.8-172.6-21.4l0,0
		v-0.1c0.8-4.6,1.2-9.3,1.2-14.1c0-14.8-4-28.7-10.9-40.7c-0.2-0.3-0.3-0.5-0.5-0.7c27.8-35.2,60.6-89.1,144.7-96.1
		c105.9-8.8,106-8.8,174.8-94.7c0.1,0.1,0.2,0.3,0.3,0.4C930.1,342.8,953.3,422.1,953.3,506.9z"/>
	<path class="st3" d="M470.9,430.8c-17.6,6.7-32.2,19.3-41.5,35.4c-0.2,0.4-0.5,0.8-0.7,1.2c-44.2-7.6-107.5-10.1-154.1-80.8
		c-58.4-88.5-58.4-88.5-166.8-107.6c52.8-90.7,136.1-161.4,236-197.9c0.1,0,0.1-0.1,0.2-0.1c70.9,83.4,70.9,83.7,59.5,189
		C394.4,354.3,441.7,396.7,470.9,430.8z"/>
	<path class="st2" d="M419.7,521c0.1,0.3,0.1,0.6,0.2,0.9c-38.7,22.7-88.7,61.5-169.8,37.6c-101.7-30-101.7-30-196.9,25.3
		c-4.4-25.3-6.7-51.4-6.7-77.9c0-83.1,22.3-161,61.3-227.9c108.4,19.1,108.4,19.1,166.8,107.6c46.6,70.7,110,73.2,154.1,80.8
		c-6.5,11.7-10.2,25.1-10.2,39.5C418.5,511.7,418.9,516.4,419.7,521z"/>
	<path class="st1" d="M946.7,584.5c-18.5,107.6-74.9,202.2-155,269.6c-95.8-54.2-95.8-54.2-121.4-157.1
		c-20.4-82.2-79.3-105.6-118.4-127.5c0.1-0.1,0.2-0.2,0.3-0.2c14.3-12,24.4-28.9,27.8-48.1c44-8.4,104.1-28.3,172.6,21.4
		C838.5,604.8,838.5,604.8,946.7,584.5z"/>
	<path class="st1" d="M447.6,569.2c-14.9,42.3-27.9,104.3-105.3,138.5c-97,42.9-97,42.9-133.8,146.6
		C128.3,787,71.8,692.4,53.2,584.8c95.2-55.3,95.2-55.3,196.9-25.3c81.2,23.9,131.2-15,169.8-37.6
		C423.4,540.8,433.5,557.4,447.6,569.2z"/>
	<path class="st2" d="M791.6,854.1c-78.7,66.2-180.3,106-291.2,106.2C462.2,857.1,462.2,857.1,509,762
		c37.4-75.9,7.6-131.8-8.2-173.8c19.4-0.2,37.2-7.2,51.1-18.8c39.1,21.9,97.9,45.4,118.3,127.6C695.8,799.9,695.8,799.9,791.6,854.1
		z"/>
	<path class="st3" d="M509,762c-46.9,95.1-46.9,95.1-8.6,198.3h-0.5c-111,0-212.7-39.8-291.4-105.9
		c36.9-103.7,36.9-103.7,133.8-146.6c77.4-34.2,90.4-96.2,105.3-138.5c14.1,11.9,32.4,19,52.3,19c0.3,0,0.6,0,1,0
		C516.6,630.2,546.4,686.1,509,762z"/>
</g>
<g id="_x3C_start_x3E__1_">
	<path class="st4" d="M632.3,507.8c0,7.8-0.7,15.5-2,23c0,0,0,0.1,0,0.2l0,0c-5.5,31.2-22,58.6-45.2,78.1c-0.2,0.1-0.3,0.3-0.5,0.4
		c-22.5,18.8-51.4,30.2-83,30.5c-0.5,0-1,0-1.6,0c-32.4,0-62.1-11.6-85-30.9c-23-19.3-39.3-46.3-45-77c-0.1-0.5-0.2-0.9-0.3-1.4
		c-1.3-7.5-2-15.2-2-23c0-23.3,6-45.2,16.6-64.2c0.3-0.7,0.7-1.3,1.1-2c15.1-26.2,39-46.6,67.5-57.5c0.6-0.3,1.2-0.5,1.8-0.7
		c14.1-5.1,29.4-7.9,45.3-7.9s31.2,2.8,45.3,7.9c0.1,0,0.3,0.1,0.4,0.2c28.7,10.6,52.8,30.8,68.1,56.8c0.3,0.4,0.5,0.8,0.8,1.2
		C625.8,461.1,632.3,483.7,632.3,507.8z"/>
	<g id="_x3C_start_x3E_">
		<path class="st5" d="M425.6,478.4c6.4,0,10.5,1.9,12.4,5.8c0.4,1,0.7,2,0.7,3c0,3.7-1.8,6.2-5.4,7.8c-0.7,0.1-1.3,0.3-2.1,0.3
			c-2.6,0-5.4-1.6-8.4-4.9v-0.2c4.8-1.1,7.3-2.3,7.3-3.6c0-0.6-1.3-0.9-3.8-1h-0.4c-2.7,0-5.2,1.4-7.4,4.3c-0.6,0.9-0.8,1.6-0.9,2.3
			v0.5c0,2.2,2.8,4,8.5,5.5c4,1.4,6.8,3.6,8.4,6.6c1.1,2.3,1.7,4.6,1.7,7c0,6.6-3.6,13-10.9,19.1c-5.1,3.6-10.2,5.4-15.2,5.4h-0.7
			c-7.3,0-12-3-14.3-8.9c-0.6-1.4-0.8-3-0.8-4.8c0-5.3,2.5-10.5,7.4-15.5c2.1-2,3.8-3.2,5-3.8v0.1c-0.3,0.9-0.4,1.7-0.4,2.4v0.3
			c0,2,1.3,3.2,3.9,3.5c1,0.1,1.7,0.1,2.2,0.1c5.5-0.4,8.3-1.4,8.3-3c0-1.1-2.4-2.2-7.1-3.3c-5.4-1.9-8.1-4.7-8.1-8.5
			c0-4.3,3.5-8.8,10.4-13.4C419.6,479.5,422.9,478.4,425.6,478.4z"/>
		<path class="st5" d="M457.6,456.2c2.6,0,4.9,1.7,6.9,5c1.1,2.2,1.7,4.5,1.7,6.9v0.1c0,3.4-1.1,8.1-3.3,13.9v0.1h0.4
			c1.3,0,2.4-1.1,3.1-3.4c0.2-0.4,0.3-0.6,0.4-0.6h0.5c2.5,0,4.5,1.6,5.7,4.8l0.1,1.4c0,2.1-1.1,3.8-3.3,5.2
			c-0.5,0.3-1.4,0.4-2.7,0.6c-1.6,0-3.5-0.4-5.9-1.3c-2.7,7.6-4.1,13.2-4.1,16.6v0.8c0,1.9,0.7,3,2.1,3.3h0.3c1.8,0,3.7-1,5.7-2.9
			c1.2-1.8,1.8-2.8,1.8-3.2h0.2c0,1.6-0.6,5.4-1.8,11.2c-1.2,4.1-2.5,7.6-4,10.5c-4.3,7.2-9.1,10.7-14.4,10.7h-1.2
			c-3.1,0-5.2-1.6-6.3-4.7c-0.3-1.3-0.5-2.5-0.5-3.8c0-5.7,3.6-16.5,10.7-32.6l3.7-9.6c-2.1-1.4-3.7-2.1-4.8-2.1h-0.1
			c-0.6,0-1,0.2-1.3,0.7v0.6c0.2,0.9,0.6,1.3,1.2,1.3v0.2c-2.1,0-3.5-0.8-4.2-2.3c0-0.4-0.1-0.7-0.1-0.9c0-2.4,1.4-3.8,4.2-4.2h1
			c1,0,2.9,0.6,5.6,1.7c0.6-1.9,0.9-3.2,0.9-3.9v-0.7c0-2.1-1.4-3.7-4.2-4.6c-0.5-0.1-1.1-0.2-1.7-0.2c-0.7,0-1.6,0.2-2.8,0.5H447
			c-0.5-1.2-0.7-2.3-0.7-3.2v-0.7c0-3.1,1.6-6,4.9-8.8C453.5,457,455.5,456.2,457.6,456.2z"/>
		<path class="st5" d="M503.5,478.4c3.7,0,6.8,1.3,9.3,3.8c2.8-2.5,4.8-3.8,6.1-3.8h0.3c1.6,0,2.8,1,3.4,2.9c0,0.6,0.1,1,0.1,1.4
			c0,2-1.6,6.7-4.9,14.1c-1.8,4.8-2.8,8.2-2.8,10.2c0,1.4,0.6,2.2,1.7,2.2c1.8,0,2.6-1.7,2.4-5c1.6,5.5,1.2,12.1-1.2,19.7
			c-2.3,7.6-6.5,11.8-12.4,12.6c-4.1,0-6.6-0.9-7.6-2.8c-0.7-1.3-1-2-1-2.2c-4.4,2.9-8.5,4.3-12.5,4.3c-6.4,0-10.6-3.5-12.7-10.6
			c-0.5-1.9-0.7-3.7-0.7-5.4v-1.6c0-6.5,2.4-13.8,7.1-21.8c1.5-2.6,4.2-5.9,8-9.8C492.2,481.2,498,478.4,503.5,478.4z M487.4,503.3
			c0,2.9,1.6,4.8,4.7,5.8c1,0.3,2,0.4,2.9,0.4c5,0,8.9-3.2,11.7-9.6c0.4-1.5,0.7-2.8,0.7-3.8c0-3.8-1.8-6.1-5.3-7
			c-0.7-0.1-1.2-0.1-1.6-0.1c-5.1,0-9,2.9-11.8,8.8C487.8,499.8,487.4,501.7,487.4,503.3z"/>
		<path class="st5" d="M530.1,535.9c-3.5,0-5.8-1.8-6.8-5.5c-0.1-1.4-0.2-2.5-0.2-3.4c0-5.8,3-15.2,9-28.1c0.4-1.6,0.6-2.7,0.6-3.3
			c0-1.3-0.7-2.2-2.2-2.7c-0.4-0.3-0.6-0.4-0.6-0.5c1.1-2.9,2.7-5.7,4.6-8.4c3.3-4.1,6.1-6.1,8.4-6.1c1.5,0,2.3,1.2,2.5,3.7
			l-0.1,0.4c0,1.3-0.4,3-0.9,5.2c5.4-6.1,11-9.1,16.8-9.1c4.7,0,7.9,1.9,9.5,5.6c0.3,0.8,0.4,1.8,0.4,2.8c0,0.8-0.1,1.5-0.2,2.3
			c0.1,2.2,0.5,3.3,1.4,3.3h0.7c0.5,0,1.3-0.5,2.6-1.5h0.1l0.1,1.2c-0.2,5.5-2.6,9.5-7.1,12.2c-1.9,1-3.7,1.5-5.3,1.5
			c-3.8,0-6.3-1.7-7.5-5.2c-0.2-0.8-0.3-1.7-0.3-2.5c0.2-2.4,0.9-5.2,2.3-8.4l0.2-0.7c0-0.7-0.3-1.1-0.9-1.1
			c-2.8,0-7.2,2.9-13.1,8.6c-2.4,2.6-4.1,5.9-4.9,9.9c-0.1,0.8-0.2,1.3-0.3,1.5v0.2c0,1.3,0.5,2,1.4,2c1.2,0,2.6-0.7,4.2-2.1
			c1.5-2.1,2.3-3.4,2.3-4.1h0.2c0.8,1.8,1.2,3.6,1.2,5.5v0.7c0,0.3,0,0.5,0.1,0.6l-0.1,0.4c-0.2,6.2-2.9,12.6-7.9,19.4
			C536.7,533.9,533.3,535.9,530.1,535.9z"/>
		<path class="st5" d="M591,456.2c2.6,0,4.9,1.7,6.9,5c1.1,2.2,1.7,4.5,1.7,6.9v0.1c0,3.4-1.1,8.1-3.3,13.9v0.1h0.4
			c1.3,0,2.4-1.1,3.1-3.4c0.2-0.4,0.3-0.6,0.4-0.6h0.5c2.5,0,4.5,1.6,5.7,4.8l0.1,1.4c0,2.1-1.1,3.8-3.3,5.2
			c-0.5,0.3-1.4,0.4-2.7,0.6c-1.6,0-3.5-0.4-5.9-1.3c-2.7,7.6-4.1,13.2-4.1,16.6v0.8c0,1.9,0.7,3,2.1,3.3h0.3c1.8,0,3.7-1,5.7-2.9
			c1.2-1.8,1.8-2.8,1.8-3.2h0.2c0,1.6-0.6,5.4-1.8,11.2c-1.2,4.1-2.5,7.6-4,10.5c-4.3,7.2-9.1,10.7-14.4,10.7h-1.2
			c-3.1,0-5.2-1.6-6.3-4.7c-0.3-1.3-0.5-2.5-0.5-3.8c0-5.7,3.6-16.5,10.7-32.6l3.7-9.6c-2.1-1.4-3.7-2.1-4.8-2.1h-0.1
			c-0.6,0-1,0.2-1.3,0.7v0.6c0.2,0.9,0.6,1.3,1.2,1.3v0.2c-2.1,0-3.5-0.8-4.2-2.3c0-0.4-0.1-0.7-0.1-0.9c0-2.4,1.4-3.8,4.2-4.2h1
			c1,0,2.9,0.6,5.6,1.7c0.6-1.9,0.9-3.2,0.9-3.9v-0.7c0-2.1-1.4-3.7-4.2-4.6c-0.5-0.1-1.1-0.2-1.7-0.2c-0.7,0-1.6,0.2-2.8,0.5h-0.1
			c-0.5-1.2-0.7-2.3-0.7-3.2v-0.7c0-3.1,1.6-6,4.9-8.8C586.9,457,588.9,456.2,591,456.2z"/>
	</g>
</g>
<path id="_x3C_arrow_x3E_" class="st6" d="M505.7,128.5l63-109.1c2.5-4.4-0.6-9.9-5.7-9.9H437c-5.1,0-8.2,5.5-5.7,9.9l63,109.1
	C496.8,132.9,503.2,132.9,505.7,128.5z"/>
</svg>
