<svg xmlns="http://www.w3.org/2000/svg" viewBox="0 0 292.97 262.92"><defs><style>.cls-1,.cls-4{fill:#ffbbc6;}.cls-1,.cls-2,.cls-3,.cls-5{stroke:#dc3c4d;stroke-linecap:round;stroke-linejoin:round;stroke-width:2px;}.cls-2,.cls-6{fill:#dc3c4d;}.cls-3,.cls-7{fill:#f5f5ef;}.cls-5{fill:none;}</style></defs><title>Asset 21</title><g id="Layer_2" data-name="Layer 2"><g id="tiger-head"><path class="cls-1" d="M165.54,38.05C187.13,36.36,210.85,13.92,213,5.87s39.3-10.23,36.84,26.68c-.42,6.35-15.91,10.11-14.64,16.46s2.36,24.18-8.65,27.57S165.54,38.05,165.54,38.05Z"/><path class="cls-2" d="M165.54,38.05c31.19,7.34,51-17.5,53.49-24.56s22-7.34,23.71,4-13.26,20.33-11.85,23.43,1.06,45.84-13,35.91S165.54,38.05,165.54,38.05Z"/><path class="cls-3" d="M183.84,47.08c23,4,34.91-13.83,34.35-20.32s10.16-1.69,5.08,5.79c5.36-.43,8.22,11.43-7.32,19.05,10.7-1.13,8.45,12.7-2.56,15.24S183.84,47.08,183.84,47.08Z"/><path class="cls-1" d="M127.43,38.05C105.84,36.36,82.13,13.92,80,5.87S40.71-4.36,43.17,32.55C43.6,38.9,58.7,42.66,57.43,49s-2,24.18,9,27.57S127.43,38.05,127.43,38.05Z"/><path class="cls-2" d="M127.43,38.05c-31.19,7.34-50.95-17.5-53.49-24.56s-22-7.34-23.71,4S63.5,37.77,62.09,40.87,61,86.71,75.07,76.78,127.43,38.05,127.43,38.05Z"/><path class="cls-3" d="M109.14,47.08C86.08,51,74.22,33.25,74.79,26.76s-10.16-1.69-5.08,5.79C64.34,32.12,61.48,44,77,51.6c-10.71-1.13-8.45,12.7,2.56,15.24S109.14,47.08,109.14,47.08Z"/><path class="cls-3" d="M246.7,86.32C259.4,121.46,282,121,289.6,129.51s-6.35.88-7.2,7,7.62,20.1,5.08,23.91-16.93-6.35-13.55,3,16.39,5.93,17.94,9.74-14.12,11-17.51,8c7.62,15.25,4.66,28.8,2.12,29.22s-11-3.81-11.44-8c.43,14,0,19.91-1.69,20.33s-7.62-9.74-10.16-7.2,4.65,18.21,0,20.32-19.48-6.35-21.6-2.11,5.08,10.58,0,13.12S199.84,240,199.84,243s4.65,12.28,0,13.55-27.52-7.62-26.25-19.9S246.7,86.32,246.7,86.32Z"/><path class="cls-3" d="M45.83,86.32C33.13,121.46,11,121,3.37,129.51s6.35.88,7.2,7S3,156.61,5.49,160.42s16.94-6.35,13.55,3-16.39,5.93-17.93,9.74,14.12,11,17.51,8C11,196.41,14,210,16.5,210.38s11-3.81,11.43-8c-.42,14,0,19.91,1.69,20.33s7.63-9.74,10.17-7.2-4.66,18.21,0,20.32,19.47-6.35,21.59-2.11-5.08,10.58,0,13.12S93.14,240,93.14,243s-4.66,12.28,0,13.55,27.52-7.62,26.25-19.9S45.83,86.32,45.83,86.32Z"/><path class="cls-4" d="M243,145.6c6.35,8.89,23.71,14,12.28,32.18S232.86,204,234.55,212.07s-19.48-18.63-30.06-11.43-3,26.25-19.05,33.45-39,6.35-39,6.35-22.86.85-38.95-6.35-8.47-26.25-19.06-33.45-31.75,19.48-30.06,11.43S49.1,196,37.66,177.78s5.93-23.29,12.28-32.18S37.66,110,41.9,94.36,68.57,68.11,86.78,59.64s22.44-27.09,59.7-27.09,41.5,18.63,59.7,27.09,40.65,19.06,44.88,34.72S236.67,136.71,243,145.6Z"/><path class="cls-5" d="M146.48,32.55c37.26,0,41.5,18.63,59.7,27.09s40.65,19.06,44.88,34.72-14.39,42.35-8,51.24,23.71,14,12.28,32.18S232.86,204,234.55,212.07s-19.48-18.63-30.06-11.43-3,26.25-19.05,33.45-39,6.35-39,6.35"/><path class="cls-5" d="M146.48,32.55c-37.26,0-41.49,18.63-59.7,27.09S46.13,78.7,41.9,94.36s14.39,42.35,8,51.24-23.71,14-12.28,32.18S60.11,204,58.41,212.07s19.48-18.63,30.06-11.43,3,26.25,19.06,33.45,38.95,6.35,38.95,6.35"/><path class="cls-2" d="M183.84,43.18c-4,18.3,31.65,42.08,36.24,57.71s-1.33,48.55-9,56,6.49,19.24,0,25.45-24.56,16.88-20.81,25.58c3.13,7.27-4.85,20.15-11.86,22.09,7,8.08,10.86,5.82,17.71-5.61,8-13.32-3-18.77,13.55-29.92,7.65-5.14,11-6.21,13.26-14.11s-3.31-11.38-1.79-19.24,15.63-20,15.91-33S230.6,90.84,204.21,70,183.84,43.18,183.84,43.18Z"/><path class="cls-2" d="M108.18,43.18c4,18.3-31.65,42.08-36.25,57.71s1.34,48.55,9,56-6.49,19.24,0,25.45,24.56,16.88,20.81,25.58c-3.13,7.27,4.85,20.15,11.85,22.09-7,8.08-10.85,5.82-17.7-5.61-8-13.32,3-18.77-13.55-29.92-7.65-5.14-11-6.21-13.27-14.11s3.32-11.38,1.8-19.24-15.63-20-15.91-33S61.42,90.84,87.81,70,108.18,43.18,108.18,43.18Z"/><path class="cls-2" d="M157.48,151.53c7.36-31.06,41.23-42.63,58.45-35.57C217.06,139.67,171.86,157.74,157.48,151.53Z"/><circle class="cls-3" cx="176.62" cy="136.51" r="13.47"/><path class="cls-2" d="M215.93,116c10.16,15.78-9.32,42.06-34.16,50.53,11-8.47,27.63-33.4,26-42.95s-26.81-36.87-27.09-49.75,3.2-30.61,3.2-30.61C188.26,78.42,191.65,78.27,215.93,116Z"/><path class="cls-2" d="M135.5,151.53C128.14,120.47,94.27,108.9,77.05,116,75.92,139.67,121.12,157.74,135.5,151.53Z"/><circle class="cls-3" cx="115.25" cy="136.51" r="13.47"/><path class="cls-6" d="M146.49,64.86c10.16-.85,18.63,16.38,29.92,15.53-10.16,8.76-26-9.87-29.92-7.76-4-2.11-19.77,16.52-29.93,7.76C127.86,81.24,136.33,64,146.49,64.86Z"/><path class="cls-6" d="M173.53,60.07c-10.77,2-22.25-13-27-13s-16.28,15-27.05,13c6.72-6.49,17.44-22.31,27.05-22.31S166.81,53.58,173.53,60.07Z"/><path class="cls-6" d="M146.49,82.75c7.62,0,13.55,11.75,19,11.19-4.66,2.83-15.67-5.81-19-5.59-3.39-.22-14.4,8.42-19.06,5.59C132.94,94.5,138.87,82.75,146.49,82.75Z"/><path class="cls-6" d="M146.49,107.49c6.77,0,7.86,2.83,11,4-3.93.84-11,0-11,0s-7.07.84-11,0C138.63,110.32,139.71,107.49,146.49,107.49Z"/><path class="cls-5" d="M146.49,64.86c10.16-.85,18.63,16.38,29.92,15.53-10.16,8.76-26-9.87-29.92-7.76"/><path class="cls-5" d="M146.49,47.08c4.79,0,16.27,15,27,13-6.72-6.49-17.44-22.31-27-22.31"/><path class="cls-5" d="M146.49,82.75c7.62,0,13.55,11.75,19,11.19-4.66,2.83-15.67-5.81-19-5.59"/><path class="cls-5" d="M146.49,107.49c6.77,0,7.86,2.83,11,4-3.93.84-11,0-11,0"/><path class="cls-5" d="M146.49,64.86c-10.16-.85-18.63,16.38-29.93,15.53,10.16,8.76,26-9.87,29.93-7.76"/><path class="cls-5" d="M146.49,47.08c-4.8,0-16.28,15-27.05,13,6.72-6.49,17.44-22.31,27.05-22.31"/><path class="cls-5" d="M146.49,82.75c-7.62,0-13.55,11.75-19.06,11.19,4.66,2.83,15.67-5.81,19.06-5.59"/><path class="cls-5" d="M146.49,107.49c-6.78,0-7.86,2.83-11,4,3.92.84,11,0,11,0"/><path class="cls-2" d="M77.05,116C66.88,131.74,86.36,158,111.2,166.49c-11-8.47-27.63-33.4-25.95-42.95s26.8-36.87,27.08-49.75-3.19-30.61-3.19-30.61C104.71,78.42,101.32,78.27,77.05,116Z"/><path class="cls-7" d="M202.8,91.4C234.13,98.6,215.93,116,215.93,116c-23.29-8.89-55.91,12.19-58.45,35.57C157.5,123.58,171.47,84.2,202.8,91.4Z"/><path class="cls-6" d="M165.54,191.61s-5.79,15.25-19,16.65c-13.26-1.4-19.06-16.65-19.06-16.65a33.58,33.58,0,0,0,38.11,0Z"/><path class="cls-7" d="M90.17,91.4c31.34-7.2,45.31,32.18,45.33,60.13C133,128.15,100.34,107.07,77.05,116,77.05,116,58.84,98.6,90.17,91.4Z"/><path class="cls-5" d="M157.48,151.53c0,27.94,44.47,47.84,30.93,69.44s-41.92,6.77-41.92-12.71c13.26-1.4,19-16.65,19-16.65a31.24,31.24,0,0,1-19,5.93"/><path class="cls-5" d="M157.48,151.53c2.54-23.38,35.16-44.46,58.45-35.57,0,0,18.2-17.36-13.13-24.56S157.5,123.58,157.48,151.53Z"/><path class="cls-5" d="M135.5,151.53c0,27.94-44.48,47.84-30.93,69.44s41.92,6.77,41.92-12.71c-13.26-1.4-19.06-16.65-19.06-16.65a31.27,31.27,0,0,0,19.06,5.93"/><path class="cls-5" d="M135.5,151.53C133,128.15,100.34,107.07,77.05,116c0,0-18.21-17.36,13.12-24.56S135.48,123.58,135.5,151.53Z"/><path class="cls-7" d="M114.51,230c7.48,4.81,30.46,0,32-21.7-.49,21.17,22.19,25.41,32,21.7,11.21,10.48,10.65,13.58,8.25,14.43s-10.2-4-11.52-1.17,0,9.64-1.66,10.77-8.13-9.31-9.82-8.18,2,13-1.14,14.4-9-7.62-11.85-7.07-.28,7.08-4.24,8.78c-3.94-1.7-1.4-8.22-4.23-8.78s-8.74,8.47-11.86,7.07.58-13.28-1.12-14.4-8.19,9.32-9.84,8.18-.32-7.91-1.64-10.77-9.13,2-11.53,1.17S103.29,240.44,114.51,230Z"/><path class="cls-5" d="M178.46,230c11.21,10.48,10.65,13.58,8.25,14.43s-10.2-4-11.52-1.17,0,9.64-1.66,10.77-8.13-9.31-9.82-8.18,2,13-1.14,14.4-9-7.62-11.85-7.07-.28,7.08-4.24,8.78"/><path class="cls-5" d="M114.51,230c-11.22,10.48-10.64,13.58-8.25,14.43s10.21-4,11.53-1.17,0,9.64,1.64,10.77,8.15-9.31,9.84-8.18-2,13,1.12,14.4,9.05-7.62,11.86-7.07.29,7.08,4.23,8.78"/><path class="cls-5" d="M114.51,230c7.48,4.81,30.46,0,32-21.7-.49,21.17,22.19,25.41,32,21.7"/><path class="cls-2" d="M234.55,213.36c-1.62-11,23.56-30.68,24.31-44s-16-19.65-16.92-26.35,12.66-36.34,9.13-48.62-19.4-21.49-19.4-21.49C226.23,88.63,249.94,94.51,247,108.2c-2.37,10.92-11.23,33.68-3.18,44,7.87,10.06,3.91,23-4.73,28.79C226.27,189.49,217.34,194.29,234.55,213.36Z"/><path class="cls-2" d="M58.2,213.36c1.62-11-23.56-30.68-24.31-44s16-19.65,16.92-26.35-12.66-36.34-9.13-48.62,19.4-21.49,19.4-21.49c5.44,15.76-18.27,21.64-15.31,35.33,2.37,10.92,11.22,33.68,3.18,44-7.87,10.06-3.91,23,4.73,28.79C66.48,189.49,75.41,194.29,58.2,213.36Z"/></g></g></svg>