<?xml version="1.0" encoding="utf-8"?>
<!-- Generator: Adobe Illustrator 22.1.0, SVG Export Plug-In . SVG Version: 6.00 Build 0)  -->
<svg version="1.1" id="Layer_1" xmlns="http://www.w3.org/2000/svg" xmlns:xlink="http://www.w3.org/1999/xlink" x="0px" y="0px"
	 viewBox="0 0 875.9 985.4" style="enable-background:new 0 0 875.9 985.4;" xml:space="preserve">
<style type="text/css">
	.st0{fill:#F8BAC5;stroke:#F7F6F0;stroke-width:3;stroke-linecap:round;stroke-linejoin:round;stroke-miterlimit:10;}
	.st1{fill:#FBBD1A;}
	.st2{fill:none;stroke:#F7F6F0;stroke-width:3;stroke-linecap:round;stroke-linejoin:round;stroke-miterlimit:10;}
	.st3{clip-path:url(#SVGID_2_);}
	.st4{fill:#1F7252;}
	.st5{clip-path:url(#SVGID_4_);}
	.st6{clip-path:url(#SVGID_6_);}
</style>
<g id="_x3C_left-paw_x3E_">
	<path class="st0" d="M713.9,639.4c36,13,65.1,70.1,50.2,109.1c-9.1,23.8-24.1-55.8-51.7-50.1"/>
	<path class="st0" d="M703.3,765.3c15.6,5.9,52.6,46.9,29.9,102.9c-18.1,44.6-10.6-40.9-52.8-55.2"/>
	<path class="st0" d="M627.1,868.2c31,16.1,47.1,63.2,27.3,98.6c-19.8,35.3-3.9-47.7-56.5-63.2"/>
	<g id="XMLID_5_">
		<g>
			<path class="st1" d="M648.2,827c30.9,55.1-17.2,132.3-141.4,79C381,852.1,428.1,777.7,318.3,748.5
				c-109.7-29.1-189.1,3.7-269.1-106.6C-8.1,562.8-4,534.7-7.1,516.1c-3.1-18.6-7.5-530.7-7.5-530.7l104.8,4.3
				c6.2,141.3,75.6,277.7,224.4,329.8s217,75.6,256.7,195.9c39.6,120.3,109.6,42.5,152.5,116.6c6.8,11.8,24.8,71.9-19.6,89.6
				C742.9,774.7,701.2,829.7,648.2,827z"/>
		</g>
		<g>
			<path class="st2" d="M476.4,571.2c59.5-3.7,92.6-6.9,122,77.5c23.7,68.2,77,36,103.7,70.1c0.7,0.9,1.4,1.9,2.1,2.8
				c38.7,53.2-3,108.1-56,105.4l0,0"/>
			<path class="st2" d="M704.2,721.6c44.4-17.6,26.4-77.8,19.6-89.6c-42.9-74.1-112.9,3.7-152.5-116.5
				c-39.7-120.3-107.9-143.8-256.7-195.9S96.4,131.1,90.2-10.3l-104.8-4.3c0,0,4.3,512.1,7.4,530.7c3.1,18.6-0.9,46.7,56.4,125.9
				c80,110.3,159.3,77.5,269.1,106.6c109.7,29.1,62.6,103.5,188.5,157.5c124.2,53.2,172.3-24,141.4-79c-0.4-0.7-0.8-1.5-1.3-2.2
				c-18.4-30.3-66.3-11.2-81.2-46.5C545.3,730,524.8,645.1,425,647.6"/>
		</g>
	</g>
	<g>
		<g>
			<defs>
				<path id="SVGID_1_" d="M723.8,633.2c-42.9-74.1-112.9,3.7-152.5-116.5c-39.7-120.3-107.9-143.8-256.7-195.9S96.4,132.3,90.2-9
					l-104.8-4.4c0,0,4.3,512.1,7.4,530.7c3.1,18.6-0.9,46.7,56.4,125.9c80,110.3,159.3,77.5,269.1,106.6
					c109.7,29.1,62.6,103.5,188.5,157.5c124.2,53.2,172.3-24,141.4-79c53,2.7,94.7-52.2,56-105.4C748.6,705.1,730.6,645,723.8,633.2
					z M643.9,821.8c-20.1-24.2-64.1-8.7-78.2-42.3c-14.1-33.4-28.2-84.2-68.4-111.6l52.6,14L643.9,821.8z"/>
			</defs>
			<clipPath id="SVGID_2_">
				<use xlink:href="#SVGID_1_"  style="overflow:visible;"/>
			</clipPath>
			<g class="st3">
				<path class="st4" d="M116.4,17.1c8.7,26-1.9,54.8-17.5,77.4s-36.3,41.4-51.3,64.4c-23.2,35.6-31.5,80.5-22.6,122
					c3.7,17.2,10.2,34.1,9.8,51.7c-0.4,16.7-7.4,33.1-19.2,45c4.4,4.6,12.1,2.4,17.7-0.7c16.3-9.3,28.8-25,34.1-42.9
					c7.7-25.5,1.2-53.8,9.6-79.1c7-21.1,23.5-37.6,40.4-52.2c16.9-14.5,35-28.4,47-47.1s16.8-44.1,5.2-63.2"/>
			</g>
		</g>
		<g>
			<defs>
				<path id="SVGID_3_" d="M723.8,633.2c-42.9-74.1-112.9,3.7-152.5-116.5c-39.7-120.3-107.9-143.8-256.7-195.9S96.4,132.3,90.2-9
					l-104.8-4.4c0,0,4.3,512.1,7.4,530.7c3.1,18.6-0.9,46.7,56.4,125.9c80,110.3,159.3,77.5,269.1,106.6
					c109.7,29.1,62.6,103.5,188.5,157.5c124.2,53.2,172.3-24,141.4-79c53,2.7,94.7-52.2,56-105.4C748.6,705.1,730.6,645,723.8,633.2
					z M643.9,821.8c-20.1-24.2-64.1-8.7-78.2-42.3c-14.1-33.4-28.2-84.2-68.4-111.6l52.6,14L643.9,821.8z"/>
			</defs>
			<clipPath id="SVGID_4_">
				<use xlink:href="#SVGID_3_"  style="overflow:visible;"/>
			</clipPath>
			<g class="st5">
				<path class="st4" d="M222.5,245.5c-25.9,16.9-36.4,53.9-23.3,81.9c5.8,12.4,15.4,22.7,21.7,34.9c11.9,23,10.3,52.4-4,74
					c-4.9,7.4-11.2,14-14.7,22.1s-3.4,18.8,3.2,24.7c16-12.3,32.1-24.8,45.1-40.3s22.8-34.4,24.1-54.5c1.5-23.9-8.8-46.7-14.7-69.9
					c-5.9-23.2-6.4-50.9,10.8-67.6"/>
			</g>
		</g>
		<g>
			<defs>
				<path id="SVGID_5_" d="M723.8,633.2c-42.9-74.1-112.9,3.7-152.5-116.5c-39.7-120.3-107.9-143.8-256.7-195.9S96.4,132.3,90.2-9
					l-104.8-4.4c0,0,4.3,512.1,7.4,530.7c3.1,18.6-0.9,46.7,56.4,125.9c80,110.3,159.3,77.5,269.1,106.6
					c109.7,29.1,62.6,103.5,188.5,157.5c124.2,53.2,172.3-24,141.4-79c53,2.7,94.7-52.2,56-105.4C748.6,705.1,730.6,645,723.8,633.2
					z M643.9,821.8c-20.1-24.2-64.1-8.7-78.2-42.3c-14.1-33.4-28.2-84.2-68.4-111.6l52.6,14L643.9,821.8z"/>
			</defs>
			<clipPath id="SVGID_6_">
				<use xlink:href="#SVGID_5_"  style="overflow:visible;"/>
			</clipPath>
			<g class="st6">
				<path class="st4" d="M-30.6,542c27.6,8.9,60.3-0.8,78.5-23.4c11.7-14.6,17.3-33,22.2-51.1s9.4-36.6,19.5-52.4
					c10.1-15.7,27.2-28.4,45.9-27.8c4.4,0.1,10.1,2.8,9.1,7.1c-0.4,1.8-2,3.1-3.3,4.3c-17.2,15.3-20.3,41.1-17.8,64
					s9.5,45.4,8.2,68.4c-2.5,43-33.5,78.8-65.9,107.1c-12.2,10.6-26.2,21.2-42.3,21"/>
			</g>
		</g>
	</g>
	<g id="XMLID_6_">
		<g>
			<path class="st2" d="M476.4,571.2c59.5-3.7,92.6-6.9,122,77.5c23.7,68.2,77,36,103.7,70.1c0.7,0.9,1.4,1.9,2.1,2.8
				c38.7,53.2-3,108.1-56,105.4l0,0"/>
			<path class="st2" d="M704.2,721.6c44.4-17.6,26.4-77.8,19.6-89.6c-42.9-74.1-112.9,3.7-152.5-116.5
				c-39.7-120.3-107.9-143.8-256.7-195.9S96.4,131.1,90.2-10.3l-104.8-4.3c0,0,4.3,512.1,7.4,530.7c3.1,18.6-0.9,46.7,56.4,125.9
				c80,110.3,159.3,77.5,269.1,106.6c109.7,29.1,62.6,103.5,188.5,157.5c124.2,53.2,172.3-24,141.4-79c-0.4-0.7-0.8-1.5-1.3-2.2
				c-18.4-30.3-66.3-11.2-81.2-46.5C545.3,730,524.8,645.1,425,647.6"/>
		</g>
	</g>
</g>
</svg>
