<?xml version="1.0" encoding="utf-8"?>
<!-- Generator: Adobe Illustrator 22.1.0, SVG Export Plug-In . SVG Version: 6.00 Build 0)  -->
<svg version="1.1" id="Layer_1" xmlns="http://www.w3.org/2000/svg" xmlns:xlink="http://www.w3.org/1999/xlink" x="0px" y="0px"
	 viewBox="0 0 130 13" style="enable-background:new 0 0 130 13;" xml:space="preserve">
<style type="text/css">
	.st0{fill:#FFFFFF;}
</style>
<path class="st0" d="M130.4,13H-0.5V0h130.9V13z M35.6,7.9C36.9,6.8,39.2,5,40.1,5c0.9,0,3.2,1.8,4.5,2.9c2.5,2,4.9,4,7.7,4
	c2.8,0,5.2-1.9,7.7-4C61.4,6.8,63.7,5,64.6,5s3.2,1.8,4.5,2.9c2.5,2,4.9,4,7.7,4c3.1,0,5.6-2.1,8-4.1c1.3-1,3.4-2.8,4.2-2.8
	c0.9,0,3.2,1.8,4.5,2.9c2.5,2,4.9,4,7.7,4c2.8,0,5.2-1.9,7.7-4c1.3-1.1,3.6-2.9,4.5-2.9c1.5,0,6.5,3,10.6,6.3
	c0.9,0.7,2.3,0.7,3.2,0.1c0.9-0.7,0.9-1.8,0.1-2.5c-2.1-1.7-9.5-7.4-13.9-7.4c-2.8,0-5.2,1.9-7.7,4c-1.3,1.1-3.6,2.9-4.5,2.9
	c-0.9,0-3.2-1.8-4.5-2.9c-2.5-2-4.9-4-7.7-4c-2.8,0-5.1,1.9-7.5,3.9c-1.4,1.2-3.6,3-4.7,3c-0.9,0-3.2-1.8-4.5-2.9
	c-2.5-2-4.9-4-7.7-4c-2.8,0-5.2,1.9-7.7,4c-1.3,1.1-3.6,2.9-4.5,2.9c-0.9,0-3.2-1.8-4.5-2.9c-2.5-2-4.9-4-7.7-4s-5.2,1.9-7.7,4
	c-1.3,1.1-3.6,2.9-4.5,2.9h0c-0.9,0-3.1-1.8-4.5-2.9c-2.5-2-4.9-4-7.7-4c0,0,0,0-0.1,0c-4.3,0-11.2,5.7-13.3,7.4
	c-0.8,0.7-0.8,1.8,0.2,2.5C3.4,12,4.8,12,5.7,11.3C9.6,7.9,14.2,5,15.7,5c0,0,0,0,0,0c0.9,0,3.1,1.8,4.5,2.9c2.5,2,4.9,4,7.7,4
	c0,0,0,0,0,0C30.7,11.8,33.1,9.9,35.6,7.9z"/>
</svg>
