<?xml version="1.0" encoding="utf-8"?>
<!-- Generator: Adobe Illustrator 22.1.0, SVG Export Plug-In . SVG Version: 6.00 Build 0)  -->
<svg version="1.1" id="Layer_1" xmlns="http://www.w3.org/2000/svg" xmlns:xlink="http://www.w3.org/1999/xlink" x="0px" y="0px"
	 viewBox="0 0 1000 1000" style="enable-background:new 0 0 1000 1000;" xml:space="preserve">
<style type="text/css">
	.st0{fill:#F8BAC5;stroke:#F7F6F0;stroke-width:3;stroke-linecap:round;stroke-linejoin:round;stroke-miterlimit:10;}
	.st1{fill:#FBBD1A;}
	.st2{fill:none;stroke:#F7F6F0;stroke-width:3;stroke-linecap:round;stroke-linejoin:round;stroke-miterlimit:10;}
	.st3{clip-path:url(#SVGID_2_);}
	.st4{fill:#1F7252;}
	.st5{fill:none;}
</style>
<g id="_x3C_right-paw_x3E_">
	<path class="st0" d="M306.1,76.7C277.7,14.4,190.8,9.7,183.7,25c-7.1,15.3,73.2,37.3,67.6,80"/>
	<path class="st0" d="M199.8,139.4C182.1,82.8,96,60.3,90.1,84.8c-3.9,16.3,63.2,42.4,55.8,92.7"/>
	<path class="st0" d="M118.4,261.1c-26-61.4-95.7-83.8-106.3-61.4s59.7,49.7,45,97.1"/>
	<g id="XMLID_2_">
		<g>
			<path class="st1" d="M990.6,917.7c-368.3,107-592.9-28.3-679.9-106.2c-83.4-74.8-40.1-125.1-125.1-264.4
				c-66.2-108.5-143-96.5-143.2-203c-0.1-44.4,47-113,116.5-68.9c-54.5-91.2,12.8-159.8,78.8-128.1c0-56.1,65.2-107.5,163.5-33.5
				c78.1,58.7,49.6,144.8,103.1,153.4c72.3,11.7,155.8,56.7,188.8,146.4s99.1,160.5,297.4,37.8V917.7z"/>
		</g>
		<g>
			<path class="st2" d="M159,275.2c21.7,13.7,45.5,38.5,70.8,78.3c40.6,64.1,69.2-20.5,185.7,92.1"/>
			<path class="st2" d="M237.7,147c0-56.1,65.2-107.5,163.5-33.5c78.1,58.7,49.6,144.8,103.1,153.4
				c72.3,11.7,155.8,56.7,188.8,146.4s99.1,160.5,297.4,37.8v466.6c-368.3,107-592.9-28.3-679.9-106.2
				c-83.4-74.8-40.1-125.1-125.1-264.4c-66.2-108.5-143-96.5-143.2-203c-0.1-44.4,47-113,116.5-68.9"/>
			<path class="st2" d="M492.5,359c-20.3-104.8-156.2-42.8-184.1-120.4c-18-50-44.2-78.9-70.7-91.6
				c-65.9-31.7-133.3,36.9-78.8,128.1v0"/>
		</g>
	</g>
	<g>
		<defs>
			<path id="SVGID_1_" d="M159,275.2c-54.5-91.2,12.8-159.8,78.8-128.1c0-56.1,65.2-107.5,163.5-33.5
				c78.1,58.7,49.6,144.8,103.1,153.4c72.3,11.7,155.8,56.7,188.8,146.4s99.1,160.5,297.4,37.8v466.6
				c-368.3,107-592.9-28.3-679.9-106.2c-83.4-74.8-40.1-125.1-125.1-264.4c-66.2-108.5-143-96.5-143.2-203
				C42.3,299.7,89.5,231.1,159,275.2z"/>
		</defs>
		<clipPath id="SVGID_2_">
			<use xlink:href="#SVGID_1_"  style="overflow:visible;"/>
		</clipPath>
		<g class="st3">
			<path class="st4" d="M797.4,496.3c-28.9-1.2-58.1,10.1-78.6,30.5c-20.5,20.4-32.1,49.4-31.1,78.3c0.6,19.3,6.6,38.5,3.5,57.6
				c-3.2,20.3-16.3,37.7-31.5,51.5s-32.6,24.8-48.3,38.1c-5.4,4.5-10,14.1-3.7,17.2c1.7,0.8,3.7,0.7,5.5,0.5
				c48.1-3.9,94.8-23.5,131.3-55c13.2-11.4,25.5-25,29.8-42c5.7-22.7-4.2-46.2-5.3-69.6c-1.4-29,11.7-58.3,34.2-76.5
				c10.6-8.6,23-14.8,33.9-23.1c10.9-8.3,20.6-19.6,22.3-33.2"/>
		</g>
		<g class="st3">
			<path class="st4" d="M705.2,999.2c-13.3-9.9-26.7-20-36.6-33.2c-9.9-13.3-15.8-30.4-12-46.5c3.1-13.3,12.3-24.2,22.1-33.7
				c11.8-11.4,24.8-21.5,38.8-30.1c19.2-11.8,40.4-20.9,56.9-36.2c25.7-23.8,36.6-59,51.7-90.6c15.1-31.6,39.6-63.6,74.4-67.6
				c2.4-0.3,4.9-0.4,7.1,0.5c6.1,2.6,6.4,11.6,2.6,17c-3.8,5.4-10.1,8.3-15.5,12.1c-28.7,20-30.6,61.8-24.4,96.2
				c6.2,34.5,17.4,70.8,4.8,103.5c-8.6,22.5-27.4,39.6-37.5,61.5c-9.6,20.8-10.5,45.4-2.6,66.8c2.9,8,8,16.3,16.3,18.1"/>
		</g>
	</g>
	<g id="XMLID_4_">
		<g>
			<path class="st5" d="M990.6,917.7c-368.3,107-592.9-28.3-679.9-106.2c-83.4-74.8-40.1-125.1-125.1-264.4
				c-66.2-108.5-143-96.5-143.2-203c-0.1-44.4,47-113,116.5-68.9c-54.5-91.2,12.8-159.8,78.8-128.1c0-56.1,65.2-107.5,163.5-33.5
				c78.1,58.7,49.6,144.8,103.1,153.4c72.3,11.7,155.8,56.7,188.8,146.4s99.1,160.5,297.4,37.8V917.7z"/>
		</g>
		<g>
			<path class="st2" d="M159,275.2c21.7,13.7,45.5,38.5,70.8,78.3c40.6,64.1,69.2-20.5,185.7,92.1"/>
			<path class="st2" d="M237.7,147c0-56.1,65.2-107.5,163.5-33.5c78.1,58.7,49.6,144.8,103.1,153.4
				c72.3,11.7,155.8,56.7,188.8,146.4s99.1,160.5,297.4,37.8v466.6c-368.3,107-592.9-28.3-679.9-106.2
				c-83.4-74.8-40.1-125.1-125.1-264.4c-66.2-108.5-143-96.5-143.2-203c-0.1-44.4,47-113,116.5-68.9"/>
			<path class="st2" d="M492.5,359c-20.3-104.8-156.2-42.8-184.1-120.4c-18-50-44.2-78.9-70.7-91.6
				c-65.9-31.7-133.3,36.9-78.8,128.1v0"/>
		</g>
	</g>
</g>
</svg>
