<svg xmlns="http://www.w3.org/2000/svg" xmlns:xlink="http://www.w3.org/1999/xlink" viewBox="0 0 420.85 284.04"><defs><style>.cls-1,.cls-5{fill:none;}.cls-2{fill:#32bf89;}.cls-11,.cls-13,.cls-2,.cls-5{stroke:#ffbbc6;stroke-linecap:round;stroke-linejoin:round;}.cls-3{clip-path:url(#clip-path);}.cls-13,.cls-4{fill:#ffbbc6;}.cls-6{clip-path:url(#clip-path-2);}.cls-7{clip-path:url(#clip-path-3);}.cls-8{clip-path:url(#clip-path-4);}.cls-9{clip-path:url(#clip-path-5);}.cls-10{clip-path:url(#clip-path-6);}.cls-11{fill:#f5f5ef;}.cls-12{clip-path:url(#clip-path-7);}</style><clipPath id="clip-path"><path class="cls-1" d="M170.9,82.58c34.24-6.39,59.38,43.26,36.69,75.81s-44.65,23.73-42.48,33.6,41.51,11.76,49.72,22.48,1.45,13.86,7.48,17.43,15.45,7.69,9.9,11.61-6,.88-6,.88c2.42,5.36-2.41,10.5-9.77,6.2-.48,2.94-9.9,5.35-14.6.73s-1-8.5-3-11.65-5.31-19.11-22.45-19.64-38.61,3.36-45.61-14.07-4.07-19.57,1.89-26.29,31.54-23.24,19-36.12S118,92.45,170.9,82.58Z"/></clipPath><clipPath id="clip-path-2"><path class="cls-1" d="M127.9,84.67c-41.24-44.53-44.74,24.42-79.17,24.74s-32.18-75,7.4-77.23c50.77-2.91,63.15,28.6,113.6,30.81,41.72,1.83,74.6-16.57,78.52-26.1,6.44-15.65-2.3-20.16-15.47-17.26s-36.34,35.18-72.06,29.15S93.14,8.69,61.28,12.23s-53.1,22.22-55,61.32C4,119.41,40,145.46,80,122.29S138.19,95.79,127.9,84.67Z"/></clipPath><clipPath id="clip-path-3"><path class="cls-1" d="M364.65,121.85c15.3-5.7,31.18,5.39,26.92,30.53s-14.36,25.58-8.75,39.05,20,13.47,24,24,1.67,15.1,4.59,18.92,12.5,11.82,7.53,16.1c-3.44,3-4.71,0-4.71,0-.48,3.16-2.39,7-7.18,4.49.67,8.3-6.06,7.58-8.76,3.34s.23-10.3-4.49-13.44-13-3.37-14.81-9.65,4.71-13-1.35-17.74-26.71-8.08-29.4-16.38,1.12-17.06-.45-26S317.08,139.58,364.65,121.85Z"/></clipPath><clipPath id="clip-path-4"><path class="cls-1" d="M317.6,59C339.3,44.74,363,43.93,384,74.58s4.35,99-30.41,116.82-85.83,18.34-119.66-11.11-39.63-34.51-53.39-30.17-68,34.22-93.4,8.45C70,141.19,68.52,115.13,78.66,99.76c7-10.57,29.44-44.86,101.61-25.18S282,106.37,297.81,97.68,294.67,74,317.6,59Z"/></clipPath><clipPath id="clip-path-5"><path class="cls-1" d="M314,145.78c14.48,10.38,10.14,29,2.66,39.34s-26.7,18.1-26,29.45-5.36,26.3,7.19,32.1,31.13-4.59,36.69,1.44.31,9.6.31,9.6c10.13,1.93,5,10.44,5,10.44,5.83,2.89,2.93,14-4.79,11.1s-8.06-8.45-13-7-27.27,19.07-41.31,5.07-2.53-18.83-6.35-31.62-47.27-29-44.37-45.62,9.41-11.34,19.55-21.72,9.65-29,9.65-29"/></clipPath><clipPath id="clip-path-6"><path class="cls-1" d="M105.69,79.41c43.2-9.18,72.41,25.58,66.13,62.51s-25.58,51.41-40.55,57.2-47.06,5.31-48,12.31-6.3,33.76,10.62,43c3.7,2,12.88-6.12,20.52-2.82s5.61,8.79,5.61,8.79c6.34,1.55,5.81,9.56,2.11,9.56,9.5,1.61,1.69,17-12.31,12.95S98.05,274.42,88.55,275s-18.5,9.5-23.81-2.41,3.54-27.11,1.61-38.21-18.58-23.42-15-35.24,5.79-17.47,12.55-18.39,20.51,3.67,20.75-8.88-22.68-36.93-14.48-62S105.69,79.41,105.69,79.41Z"/></clipPath><clipPath id="clip-path-7"><path class="cls-1" d="M330.63,36.44c7.49-10.13,24.62-5.55,26.55-1.93s3.14,8.93,1.21,10.62-3.86-2.89-5.31-1.69,2.17,3.87,1,5.56-8.2,3.13-9.05,1.68c9.53,23.9-6.88,36.21-21.85,36S297.81,93.16,296.6,99.2s-30.89,8.2-32.34,0,2.66-17.62,0-24.38,0-31.13,21.72-37.41S322,34.27,330.63,36.44Z"/></clipPath></defs><title>Asset 10</title><g id="Layer_2" data-name="Layer 2"><g id="tiger8"><g id="_2paw-back_" data-name="&lt;2paw-back&gt;"><path class="cls-2" d="M170.9,82.58c34.24-6.39,59.38,43.26,36.69,75.81s-44.65,23.73-42.48,33.6,41.51,11.76,49.72,22.48,1.45,13.86,7.48,17.43,15.45,7.69,9.9,11.61-6,.88-6,.88c2.42,5.36-2.41,10.5-9.77,6.2-.48,2.94-9.9,5.35-14.6.73s-1-8.5-3-11.65-5.31-19.11-22.45-19.64-38.61,3.36-45.61-14.07-4.07-19.57,1.89-26.29,31.54-23.24,19-36.12S118,92.45,170.9,82.58Z"/><g class="cls-3"><path class="cls-4" d="M216.4,110.38c-14.49,15.45-37.34,20-34.76,23.81s42.41,1.29,44.53-5.15S216.4,110.38,216.4,110.38Z"/><path class="cls-4" d="M216.4,150c-21.57,9.33-36.91,2.09-37.62,5.11s23.87,16.41,32.67,12.89S216.4,150,216.4,150Z"/><path class="cls-4" d="M195.8,177c-9.34,7.08-19.31-8.36-21.56-6.75s-.08,22.62,7.2,20.64S195.8,177,195.8,177Z"/><path class="cls-4" d="M126.64,208.88c24.43-6.14,24.1-14.83,26.68-12.58S147.88,225.59,140,223,126.64,208.88,126.64,208.88Z"/><path class="cls-4" d="M173.39,193.73c1.17,11.91-10.42,16.41-8.17,17.7s20.72-6.85,19.37-15.49S173.39,193.73,173.39,193.73Z"/><path class="cls-4" d="M198,198.88c.05,13.19-10.89,12.69-9.28,15.35s18.55-1.93,20.86-7.67S198,198.88,198,198.88Z"/></g><path class="cls-5" d="M211.45,226.12c2.66.74,5.55,5.64,6.16,10.59s6.87,2.43,8.56,7.68"/><path class="cls-5" d="M202.76,229c5.19,2,9.42,4.41,9.9,9s-3.14,5.39-1.21,7.32,4-.92,5,5.28"/></g><g id="_tail_" data-name="&lt;tail&gt;"><path class="cls-2" d="M127.9,84.67c-41.24-44.53-44.74,24.42-79.17,24.74s-32.18-75,7.4-77.23c50.77-2.91,63.15,28.6,113.6,30.81,41.72,1.83,74.6-16.57,78.52-26.1,6.44-15.65-2.3-20.16-15.47-17.26s-36.34,35.18-72.06,29.15S93.14,8.69,61.28,12.23s-53.1,22.22-55,61.32C4,119.41,40,145.46,80,122.29S138.19,95.79,127.9,84.67Z"/><g class="cls-6"><path class="cls-4" d="M233.9,9.65c-12,10-22.64,20.4-15.09,24.52s16.25-7.46,18.82-1.67-7.41,9.4-3.06,16.29,13.83-4,15.84-6.1,16.83-13.08,8.14-23.7S233.9,9.65,233.9,9.65Z"/><path class="cls-4" d="M200.3,30.27c5,7.24,9.55,5.16,9.28,11.9s-4.86,6.26,0,12.78,13.65,4.88,6.69,9.4-21.45,18-20.16,3.07,9.33-11.36,2.57-18.63-19-8.12-14.16-14.62S200.3,30.27,200.3,30.27Z"/><path class="cls-4" d="M167.16,26.07c4.82,10.29,10.62,8,9.65,14.8s-4.83,10-6.11,13.69,3.48,6.13,2,11-.54,4.76-7.93.49-11.21-4-9.81-11.1,2.57-7.32.32-15.05S167.16,26.07,167.16,26.07Z"/><path class="cls-4" d="M137.23,32.82c6.43,7.73,13.84,8.92,8.69,13.47s-5.47-3.07-6.76,5.73,7.4,16.2-1.93,9.77-11.83-.65-14-11.11-4.71-7.38.44-13.1.32-14.09,1.29-16S137.23,32.82,137.23,32.82Z"/><path class="cls-4" d="M81.88,2.25c5.47,5.8,3.21,10.94,2.57,16.09S81.23,27,87,29.76s9.65,3.39,11.9-3.69-.64-3.22,5.15-10.3S98,0,98,0L83.49,2.25Z"/><path class="cls-4" d="M55.17,4.83c6.11,4.82,12.55,3.86,10.62,9.33s-3.22,2.51-2.9,7.21.64-1.37,3.22,8.9S79,48.3,67.4,42.17,54.84,40.93,52.59,30.76s1.61-6-6.11-13.38S55.17,4.83,55.17,4.83Z"/><path class="cls-4" d="M2.71,42.17c7.08-6.77,6.12-5.36,14.16-8s5.92-5.27,13.26-6.69S36.82,29,41,29.76s8,3.18-2.9,4.41S24,35.71,23.63,42.79,17,59.58,8.59,56.5,2.71,42.17,2.71,42.17Z"/><path class="cls-4" d="M39.08,64.35c-8.95,4.84-9.34-.21-17.06,4.89S14.6,75.66,10.76,82-1.15,79,.14,88.43s1.73,13.3,6,16.18,8.47,5.13,11.69-4.85-1.94-8.17,5.95-12.94,6.28,3.05,11.1-8.9S39.08,64.35,39.08,64.35Z"/><path class="cls-4" d="M55.17,88.43c0,.5.51.61,1.08.61,1.7,0,4-1-5.38,4.29-12.44,7.07-7.29,2.93-13.08,11.28s-9.33,1.91-12.23,5.45,6.11,9.75,11.26,7.93,19.63-6.12,18.67-13.62,13.84-12.6,9.65-16.65S58,89,58,89L72.33,76.67"/></g></g><g id="_1paw-back_" data-name="&lt;1paw-back&gt;"><path class="cls-2" d="M364.65,121.85c15.3-5.7,31.18,5.39,26.92,30.53s-14.36,25.58-8.75,39.05,20,13.47,24,24,1.67,15.1,4.59,18.92,12.5,11.82,7.53,16.1c-3.44,3-4.71,0-4.71,0-.48,3.16-2.39,7-7.18,4.49.67,8.3-6.06,7.58-8.76,3.34s.23-10.3-4.49-13.44-13-3.37-14.81-9.65,4.71-13-1.35-17.74-26.71-8.08-29.4-16.38,1.12-17.06-.45-26S317.08,139.58,364.65,121.85Z"/><g class="cls-7"><path class="cls-4" d="M389.2,174.1c-14.48,19-32.19,20.84-29.83,23.17s26.94,2.67,31.76-6.39S389.2,174.1,389.2,174.1Z"/><path class="cls-4" d="M399.82,195.66c-7.4,18-19,13.51-16.73,16.73s25.55,1.93,26.94-5.15S399.82,195.66,399.82,195.66Z"/></g><path class="cls-5" d="M406.13,236.68c-1,2.19.17,5.5,1.18,6.06s4.74,1.37,6.39,3.76c.9,1.29.54,4,.54,4"/><path class="cls-5" d="M407.06,255a3.87,3.87,0,0,0-2.56-3.29c-1.07-.28-6.06-5.61-4.32-9.09"/></g><g id="_body_" data-name="&lt;body&gt;"><path class="cls-2" d="M317.6,59C339.3,44.74,363,43.93,384,74.58s4.35,99-30.41,116.82-85.83,18.34-119.66-11.11-39.63-34.51-53.39-30.17-68,34.22-93.4,8.45C70,141.19,68.52,115.13,78.66,99.76c7-10.57,29.44-44.86,101.61-25.18S282,106.37,297.81,97.68,294.67,74,317.6,59Z"/><g class="cls-8"><path class="cls-4" d="M396,80.13C381.8,103.3,357,102.4,357.67,107.84s35.07,11.61,44.41,0S396,80.13,396,80.13Z"/><path class="cls-4" d="M395,148c-32.51,6.44-46.68-14.8-52.14-14.8s16.88,57.38,41.59,41.08S395,148,395,148Z"/><path class="cls-4" d="M294.91,85c-6.43,21.88,21.33,48.91,28.37,48.27s-31-52.09-12.32-75.76S294.91,85,294.91,85Z"/><path class="cls-4" d="M239.56,78.07c-22.85,15.9-18.09,66.1-13.39,67.71s12.84-58.85,30.13-56S239.56,78.07,239.56,78.07Z"/><path class="cls-4" d="M276.25,88.43c-22.47,19-4.59,53.49-1.33,53.81s-.72-55,21.56-51.81S276.25,88.43,276.25,88.43Z"/><path class="cls-4" d="M199.34,71.43c-25.75,16.1-20,50.62-15.45,52.51s15.47-40.85,40.55-43.81S199.34,71.43,199.34,71.43Z"/><path class="cls-4" d="M368,196.3c-23.49-16.09-25.14-37.33-30.43-37.65s-11.1,44.73-2.72,48.27S368,196.3,368,196.3Z"/><path class="cls-4" d="M163,65.56c-12.55,6.85-9.07,22-7,21.26s12.19-18.92,19.59-17.31S163,65.56,163,65.56Z"/></g></g><g id="_1paw-front_" data-name="&lt;1paw-front&gt;"><path class="cls-2" d="M314,145.78c14.48,10.38,10.14,29,2.66,39.34s-26.7,18.1-26,29.45-5.36,26.3,7.19,32.1,31.13-4.59,36.69,1.44.31,9.6.31,9.6c10.13,1.93,5,10.44,5,10.44,5.83,2.89,2.93,14-4.79,11.1s-8.06-8.45-13-7-27.27,19.07-41.31,5.07-2.53-18.83-6.35-31.62-47.27-29-44.37-45.62,9.41-11.34,19.55-21.72,9.65-29,9.65-29"/><g class="cls-9"><path class="cls-4" d="M323.28,150c-7.77,23.49-42.31,26.39-39,28.64s40.72,7.48,44.46,0S326,150,326,150Z"/><path class="cls-4" d="M320.51,192.44c-19.16,11.37-52.42,3.1-53.17,6.38s21.46,20.19,41.16,11S320.51,192.44,320.51,192.44Z"/><path class="cls-4" d="M297.81,233c-4.51,14.8-18.25,24-15.4,26.32s25.19-12,26.09-16.74S297.81,233,297.81,233Z"/><path class="cls-4" d="M244.39,160.26c18.66,16.09,37.74,21.88,38,24.46s-42.85,5.15-43.81-7.08S244.39,160.26,244.39,160.26Z"/><path class="cls-4" d="M220.9,207.24c10.3,11.27,42.41,3.36,47.11,7S250.64,237.15,238.5,229,220.9,207.24,220.9,207.24Z"/></g><path class="cls-5" d="M334.81,257.71c-4.36-2.25-6.77,2.35-11.72,1-7.62-2-6.88-6.33-11.34-4.28"/><path class="cls-5" d="M312.17,263.38c3.08,3.92,4.83,4.16,7.66,3.62s7.61-3.5,12.61-2.53a13.27,13.27,0,0,1,7.33,3.68"/></g><g id="_2paw-front_" data-name="&lt;2paw-front&gt;"><path class="cls-2" d="M105.69,79.41c43.2-9.18,72.41,25.58,66.13,62.51s-25.58,51.41-40.55,57.2-47.06,5.31-48,12.31-6.3,33.76,10.62,43c3.7,2,12.88-6.12,20.52-2.82s5.61,8.79,5.61,8.79c6.34,1.55,5.81,9.56,2.11,9.56,9.5,1.61,1.69,17-12.31,12.95S98.05,274.42,88.55,275s-18.5,9.5-23.81-2.41,3.54-27.11,1.61-38.21-18.58-23.42-15-35.24,5.79-17.47,12.55-18.39,20.51,3.67,20.75-8.88-22.68-36.93-14.48-62S105.69,79.41,105.69,79.41Z"/><g class="cls-10"><path class="cls-4" d="M168.44,97.68c-20.91,25.89-57.6,24.31-55,29s58.41,14.33,66.86,0S168.44,97.68,168.44,97.68Z"/><path class="cls-4" d="M177.78,142.88c-17.7,18.35-59.22,11.91-62.11,15.77s35.4,26.39,52.13,13.52S177.78,142.88,177.78,142.88Z"/><path class="cls-4" d="M120,60.82c2.43,27.36-25.6,48.92-22.69,51.82s52.16-18.3,48.29-34.57S120,60.82,120,60.82Z"/><path class="cls-4" d="M139.48,202.42c-21.24-6.76-29.77-26.71-31.46-24.78s-4.25,26.71,7.49,30.89S139.48,202.42,139.48,202.42Z"/><path class="cls-4" d="M66.75,142.88c31.22,1.61,47-7.4,48.76-3.86S79.19,170.24,72.33,163.8,66.75,142.88,66.75,142.88Z"/><path class="cls-4" d="M70.94,176.1c4.82,16.34,14.8,19.24,13.51,21.49s-29.61-10-27.67-18.67S70.94,176.1,70.94,176.1Z"/><path class="cls-4" d="M87,215.61c-14.81,2.25-25.11-8.3-25.75-6.08s13.74,23.78,23.28,18S87,215.61,87,215.61Z"/><path class="cls-4" d="M86.06,239.77c-8,7.06-16.07,5.45-15.44,7.38s22.84,5.15,23.32,0S86.06,239.77,86.06,239.77Z"/></g><path class="cls-5" d="M90.61,261c4-.85,4.58,2.41,8.08,2.41s6.56-3.22,11.87-3.82,6.68-.32,9.43.74"/><path class="cls-5" d="M122.1,269.92c-2.17-.81-4.66-2.74-8-1.53s-6.84,4-9.9,2.33-7.16-4.5-10.3-3.3"/></g><g id="_head_" data-name="&lt;head&gt;"><path class="cls-2" d="M295.32,37.33c-4.67-6.28-15.77-13.11-21.57-8.13s-.72,6.68-1.44,7.49-4.27.48-3.95,1.85,2.34,8.28,10.06,7.72S295.32,37.33,295.32,37.33Z"/><path class="cls-11" d="M345,50.68c15.56,3.26,25.94,23.17,24.85,26.8s-5.67-5.8-6.87-4.35,7.24,17,3,18.71-1.32-5.8-5.79-4.23-2.9,14.36-6.15,15.33-2.54-8.57-4.47-8-4.89,17.31-13.27,18.83c-2.66.48,1.2-8-.73-8.09s-2.41,7.49-7.36,8.69-5.91-8-7.72-7.84-5.55,10.14-8,10.62-5.19-7.36-6.63-6.64-4.71,9.53-8.09,9.9-3.5-1.69-4.71-1.69-.36,4.1-2.53,4-3.38-3.74-4.83-3.26-5.79,4.47-7.36,4.47-3.62-9.66-6.88-8.81-1.62,3-3.16,5.31c-1.06,1.57-18.92-11.11-17-23.66s-1.81,5.19-3,5.43-5.91-33.9,15.45-38S272,93,272,93L324.6,79.89C325.08,79.77,345,50.68,345,50.68Z"/><path class="cls-2" d="M330.63,36.44c7.49-10.13,24.62-5.55,26.55-1.93s3.14,8.93,1.21,10.62-3.86-2.89-5.31-1.69,2.17,3.87,1,5.56-8.2,3.13-9.05,1.68c9.53,23.9-6.88,36.21-21.85,36S297.81,93.16,296.6,99.2s-30.89,8.2-32.34,0,2.66-17.62,0-24.38,0-31.13,21.72-37.41S322,34.27,330.63,36.44Z"/><g class="cls-12"><path class="cls-4" d="M339.48,41.11c-4.73-1.55,2.82-8.45,7.24-7.4S349.54,44.41,339.48,41.11Z"/><path class="cls-4" d="M277.7,31.13c-4.55,2-1.85,7.41-1,7.41s10.78-2.39,9.41-4.94S281.88,29.28,277.7,31.13Z"/><path class="cls-4" d="M312.21,90.59c10-10.54,2.58-22.93,3.78-23.73s18.34,6.63,15.53,20.45S312.21,90.59,312.21,90.59Z"/><path class="cls-4" d="M339.89,86.32c8.85-14.48-10.38-31.69-10.06-33.06S352.76,56,349.38,73.13,339.89,86.32,339.89,86.32Z"/><path class="cls-4" d="M294.91,39c-13.79.12-13,4.45-12.5,5.31S288,41.87,292,42.17s8.07,2.4,9.59,1.76S303.75,38.94,294.91,39Z"/><path class="cls-4" d="M291.13,48.79c-2-.32-1,5.92-3.86,10.66s-6.16,12.07-5.09,12.72,5.73-8.13,6.62-7.49.88,8.37,2.33,8.85,0-9.49.65-13.67S294.35,49.31,291.13,48.79Z"/></g><path class="cls-11" d="M270.54,100.89c-5.31,6.59-2.58,10.86-1.77,11.18,3.05,1.21,3-1.57,4.34-1.25s1.61,5.11,2.9,5.19c3.21.2,2.81-3.54,4.1-3.38s1.05,4.67,3.62,5.31,4.18-5.47,5.71-5.47.49,3.06,2.34,3.3,10.05-11.67,2.65-16.33S270.54,100.89,270.54,100.89Z"/><path class="cls-11" d="M280.59,99.76c5.07,8.85,15.84,3.78,18.9-1,1.82-2.83,2.66-11.18-6.83-10.29S280.59,99.76,280.59,99.76Z"/><path class="cls-11" d="M280.59,99.76C278.1,92,267,82.7,262.57,90.91S266,111,280.59,99.76Z"/><path class="cls-13" d="M280.59,99.76c-.72-6.84-8.1-10.29-8.31-10.41,3.48-3.56,11.2-3.16,16.86,0C283.81,91.39,280.59,99.76,280.59,99.76Z"/><path class="cls-13" d="M320.5,49.32c.56,9.73-19,15.89-23.91,27.35C295.25,56.27,307.06,50.2,320.5,49.32Z"/><path class="cls-13" d="M275.13,78.07c.07-15.32-11.48-19.43-5.3-29.28C282.68,51.09,280.28,70.37,275.13,78.07Z"/><rect class="cls-2" x="301.61" y="54.56" width="9.79" height="9.79" rx="4.15" ry="4.15"/><rect class="cls-2" x="269.62" y="54.95" width="8.05" height="8.05" rx="3.41" ry="3.41"/><path class="cls-11" d="M300.56,93.33c-8.54-21.25-4.28-41.76,19.94-44-.49-10.46-26.07-11.75-25.59,12.06S300.56,93.33,300.56,93.33Z"/><path class="cls-11" d="M264.47,88.43c17.89-10.55,18.49-32.77,5.36-39.64,2.88-12.67,17-3.9,14,10.66S270.55,85.07,264.47,88.43Z"/><path class="cls-13" d="M277.1,32.21c-3.73,2.14-2,5.41.27,5.37s9-3.19,8.05-5.23S280.58,30.22,277.1,32.21Z"/></g></g></g></svg>