<svg xmlns="http://www.w3.org/2000/svg" xmlns:xlink="http://www.w3.org/1999/xlink" viewBox="0 0 425.51 277.93"><defs><style>.cls-1,.cls-5{fill:none;}.cls-2{fill:#ffbbc6;}.cls-11,.cls-13,.cls-2,.cls-5{stroke:#1d7151;stroke-linecap:round;stroke-linejoin:round;}.cls-3{clip-path:url(#clip-path);}.cls-13,.cls-4{fill:#1d7151;}.cls-6{clip-path:url(#clip-path-2);}.cls-7{clip-path:url(#clip-path-3);}.cls-8{clip-path:url(#clip-path-4);}.cls-9{clip-path:url(#clip-path-5);}.cls-10{clip-path:url(#clip-path-6);}.cls-11{fill:#f5f5ef;}.cls-12{clip-path:url(#clip-path-7);}</style><clipPath id="clip-path"><path class="cls-1" d="M196.32,80.69c-15.69,34.76,48.73,65.38,87.13,58.53,10.51-1.87,18.2,26.5,1.13,43.57-5.68,5.68-10.79,2.55-15.43,6-6.7,4.92-4.83,10.71-7.86,12.41s-10.46,2.11-11,6.44c-.47,3.88,2.27,5.49,3.79,5.3-1.9,4.64,1.7,8,7,6.63.38,6.07,5.87,9.29,11.74,3.41s6.63-9.66,12.12-10.79,12.13.94,19.51-5.31c4.17-3.52,6.25-15.23,5.12-27.84s12.38-56.4,12.5-64.21c.14-9.47-4-12.51-8.71-12.51S280.29,115.9,261.48,90C250.13,74.34,210.33,49.63,196.32,80.69Z"/></clipPath><clipPath id="clip-path-2"><path class="cls-1" d="M98.65,154.58c-14.84,14.28-27.38,43.24-29.54,54.93-2,10.72-2.62,20.71-12.45,25.34s-13.58-2.45-19-1.2-8.08,6.83-14.57,8.54c-7.91,2.08-8.95-4.89-6.66-7.34-8.56,6.76-14.1-2.34-9.78-6.19-5.83,1.87-9.46-10.17-1.87-11.87,3.48-.78,3.54,2.71,7.91.63s2.7-7.73,9.36-9.78c8.54-2.63,12.39,4.52,18.21,1.45,7.5-4,17.84-24.49,16.38-51.2s-8.61-25.65,4.12-30.42S107.53,146,98.65,154.58Z"/></clipPath><clipPath id="clip-path-3"><path class="cls-1" d="M198,62.7c39.88,4.71,94.52-17.62,115.55-20.27s42.42,1,41.86,9.66-17.05,22.73-9.1,29.36,60.43-.38,54.94-27.66-7.39-35-.38-39S431.53,7,418.12,60.42c-11.55,46-81.64,39.25-93.57,27.85s11.93-17,5.31-27.66-69.14,4-82.78,29.74C235,83.34,198,62.7,198,62.7Z"/></clipPath><clipPath id="clip-path-4"><path class="cls-1" d="M64.67,123.31c7.46-38.64,47.45-69.89,87.51-73.87s118.3,5.84,111.38,60.23c-5.56,43.66-49.15,1.42-84.39,12.79-22.17,7.15-41.08,73.87-78.95,79.27C60.28,207.42,54.52,175.87,64.67,123.31Z"/></clipPath><clipPath id="clip-path-5"><path class="cls-1" d="M109.78,132.1c15,6.56,46.2-12.49,55.88,1.87s-14,28.3-14.67,50.68S144.4,243,129.13,257c-11.08,10.14-26.38,20.45-41.49,15-9.22-3.34-11.2,5.78-16.74,5.47s-7.78-9.53-3.18-11.4c-6.8,4.06-10.55-8.35-4.93-9.6-6.48-.86-5-11.32.31-10.85s6.4,2.5,10.3,1.64,6.2-6.27,14.24-7.32c5.37-.71,11.8,4.89,17.37,2.09,13.72-6.87,23.71-42.54-1.06-56.76S109.78,132.1,109.78,132.1Z"/></clipPath><clipPath id="clip-path-6"><path class="cls-1" d="M196.22,70.18c-25.88,17.73,12.22,85.37,51.43,96.38s54.83-8.17,72.73,0,24.72,16.13,21,24.52-9.94,13.54-10.51,27.44-7.39,8.12-9.09,15.55.18,12,7.1,13.21c.85,6.25,8.14,8.34,11.36,5.12,4.08,5.4,15.35,3.31,15.91-5s-2.27-17.52,2-20.93,9.67-9.82,11.94-15.35c5-12.21-15.25-20.55-13.17-51.64,2.62-39-13-43-24.91-37S309,145.7,294,137.35s-15.12-45.2-38.13-60.55S211.56,59.67,196.22,70.18Z"/></clipPath><clipPath id="clip-path-7"><path class="cls-1" d="M85.24,106.66c10.86-10.26,20.21-7.84,22.92-5.13s3.92,8.14,2.11,16.89c13.57,10.86,16,22.82,10.56,33.08s-20.06,12.62-22.77,20.16S94.16,195,86.22,198.58c-14.86,6.61-45.82.57-46.22-12.3-.61-19.44-2.22-24.23-9.45-31.16s-9.45-22.72.4-31.27c-1.81-13.87.3-22.81,6.63-24.67s14.18,3.26,15.69,10.19C65.93,103,85.24,106.66,85.24,106.66Z"/></clipPath></defs><title>Asset 12</title><g id="Layer_2" data-name="Layer 2"><g id="tiger6"><g id="_2paw-back_" data-name="&lt;2paw-back&gt;"><path class="cls-2" d="M196.32,80.69c-15.69,34.76,48.73,65.38,87.13,58.53,10.51-1.87,18.2,26.5,1.13,43.57-5.68,5.68-10.79,2.55-15.43,6-6.7,4.92-4.83,10.71-7.86,12.41s-10.46,2.11-11,6.44c-.47,3.88,2.27,5.49,3.79,5.3-1.9,4.64,1.7,8,7,6.63.38,6.07,5.87,9.29,11.74,3.41s6.63-9.66,12.12-10.79,12.13.94,19.51-5.31c4.17-3.52,6.25-15.23,5.12-27.84s12.38-56.4,12.5-64.21c.14-9.47-4-12.51-8.71-12.51S280.29,115.9,261.48,90C250.13,74.34,210.33,49.63,196.32,80.69Z"/><g class="cls-3"><path class="cls-4" d="M328.3,108c-14.45.85-20.42,4.63-23,10.13s-12.51,4.07-12.79,5.49,12.18,6.41,17.88,1.93,7.69-10.65,20.19-7.86S328.3,108,328.3,108Z"/><path class="cls-4" d="M322.09,181.84c-9.66-6.82-17.9-5.11-22.16,0s-11.65,3.13-11.37,4.83,12.16,5,17,2.48,10-4.34,14.27,0S322.09,181.84,322.09,181.84Z"/><path class="cls-4" d="M331.77,156.44c-6.6-9.82-14.91-11.17-20.71-7.91s-12-1.23-12.34.47,9.59,9,15,8.37,10.89-.49,13.32,5.08S331.77,156.44,331.77,156.44Z"/><path class="cls-4" d="M292.94,94.89c-11.74,1.39-16.73,8.17-16.48,14.82s-6.57,10.12-5.22,11.2,12.37-4.44,14.29-9.52,4.54-9.92,10.61-9.54S292.94,94.89,292.94,94.89Z"/><path class="cls-4" d="M213.39,134c19.79,0,27.21-10.85,25.73-22.52s9.6-16.33,7.13-18.49-20.38,5.21-22.85,13.71-6.15,16.39-16.56,14.49S213.39,134,213.39,134Z"/><path class="cls-4" d="M251.68,146.9c13.12-6.43,15.84-16.34,12.48-24s3-14.42.95-15.12-12.46,10.22-12.36,16.91-.74,13.35-8,15.41S251.68,146.9,251.68,146.9Z"/></g><path class="cls-5" d="M261.1,219.53c1.47-4.45,2.74-5.3,7.72-5.73s8.95-1.7,9.09-5.68,1.56-6.39,3.12-6.39"/><path class="cls-5" d="M254.09,212.9c1.8-3.78,4.64-5.06,8.33-4.35s7-1.14,7.25-4,2-7.81,4.4-8.24"/></g><g id="_1paw-back_" data-name="&lt;1paw-back&gt;"><path class="cls-2" d="M98.65,154.58c-14.84,14.28-27.38,43.24-29.54,54.93-2,10.72-2.62,20.71-12.45,25.34s-13.58-2.45-19-1.2-8.08,6.83-14.57,8.54c-7.91,2.08-8.95-4.89-6.66-7.34-8.56,6.76-14.1-2.34-9.78-6.19-5.83,1.87-9.46-10.17-1.87-11.87,3.48-.78,3.54,2.71,7.91.63s2.7-7.73,9.36-9.78c8.54-2.63,12.39,4.52,18.21,1.45,7.5-4,17.84-24.49,16.38-51.2s-8.61-25.65,4.12-30.42S107.53,146,98.65,154.58Z"/><g class="cls-6"><path class="cls-4" d="M81,209.77c-20.44-7.49-18.26-17.33-20.13-15s-.16,30.6,10.07,25.29S81,209.77,81,209.77Z"/><path class="cls-4" d="M40,197.75c.16,16.55,8,26,10.33,25.95s-8.67-25.44.18-33.51A46.34,46.34,0,0,0,40,197.75Z"/><path class="cls-4" d="M53.19,147.21c14.88,5.43,20.81,13.86,19.87,16.51s-17-9.25-19.87-1.74S53.19,147.21,53.19,147.21Z"/><path class="cls-4" d="M50.38,173.5c11-4.16,22,2.24,21.78,6.45s-19-4.33-24.23,5.54S50.38,173.5,50.38,173.5Z"/></g><path class="cls-5" d="M6.67,228.66c1.77-1.95,3.9-1.17,8.25-2.11,5.07-1.09,4.84-7.1,7.57-8.27s7.1,0,7.1,0"/><path class="cls-5" d="M16.45,234.85c2.29-2.34,4.56-.65,6.27-2.68s1.49-5.23,4.3-7a12,12,0,0,1,6.71-1.4"/></g><g id="_tail_" data-name="&lt;tail&gt;"><path class="cls-2" d="M198,62.7c39.88,4.71,94.52-17.62,115.55-20.27s42.42,1,41.86,9.66-17.05,22.73-9.1,29.36,60.43-.38,54.94-27.66-7.39-35-.38-39S431.53,7,418.12,60.42c-11.55,46-81.64,39.25-93.57,27.85s11.93-17,5.31-27.66-69.14,4-82.78,29.74C235,83.34,198,62.7,198,62.7Z"/><g class="cls-7"><path class="cls-4" d="M391.42,36.94c5.39,13.63,13.35,12.5,15.34,4.54s4,5.5,8.24,5.88S425.51,35,425.51,28.13,408.46,0,408.46,0L389.14,8.52l-2.55,17.62Z"/><path class="cls-4" d="M386.59,69c12.79-2.78,19.32-1.7,19.46,2.28S416.7,76.71,418.12,79s-28.47,19.48-22.47,9.6,1.16-11.88-1.11-11.88S386.59,69,386.59,69Z"/><path class="cls-4" d="M370.91,75.58c8.86,1.7,16.24,5.68,12.55,8.81s-9.43,4.84-5.79,7.23,13.7,7,6.76,12.94-24.27,5.68-18.3-4.26,5.86-10.8,4.78-11.94-6.49-4.54-4.5-8.8S370.91,75.58,370.91,75.58Z"/><path class="cls-4" d="M352.77,78.13c3.7,3.7,8,7.39,2.85,8.53s-10.05-2.55-10.8,3.12,8.81,13.93,2.56,15.91-20.53-4.54-19.08-11.08-3.94-11.08,2.31-11.93,13.83,1.23,15.72-1.23S352.77,78.13,352.77,78.13Z"/><path class="cls-4" d="M322.09,67.49c2.27-7,10.67-6.12,13-7.26s3.76,0,2.91-6.81-3.13-12.79.28-14.78,15.92,0,17.9,2.84,9.2,7.83,8.72,11.59-11.84,12.72-11.84,12.72-5.12-6.41-6.54-3.85S347.09,71.6,340,71s-21.31,2.56-21.31,2.56Z"/><path class="cls-4" d="M325.21,37.84c-3.69,2.22-12.21,4-10.22,9.53s7.38,5.46,3.69,9.73-7.1,9.7-11.08,8.69-3.13-3.23-1.71-10.08,1.44-5.08-3.26-11.07-5.54-8.84-.71-11.68S325.21,37.84,325.21,37.84Z"/><path class="cls-4" d="M281,43.76c-.14,4.26-6.67,9.66,0,13.35s11.71-2.25,9.2,5-1.1,16-9.2,13.48-10.94-.28-11.79-9.65-1.13-9.1-6.53-12.79-10-4.26-4.71-9.37S281,43.76,281,43.76Z"/><path class="cls-4" d="M240,50.86c2.55,2.27,7.27,8.17,3.41,12.68s-10.08,11.34-3.41,12,14.28,0,16.59,3.65,1.14,11.42-.91,11.13.09-8.24-8.22-8.81-10.63,2.95-16.26-.23-13.93-7.13-8.82-13.82,9.38-6.43,9.95-12.81S240,50.86,240,50.86Z"/></g></g><g id="_body_" data-name="&lt;body&gt;"><path class="cls-2" d="M64.67,123.31c7.46-38.64,47.45-69.89,87.51-73.87s118.3,5.84,111.38,60.23c-5.56,43.66-49.15,1.42-84.39,12.79-22.17,7.15-41.08,73.87-78.95,79.27C60.28,207.42,54.52,175.87,64.67,123.31Z"/><g class="cls-8"><path class="cls-4" d="M73,84.67c31.46-21.59,73.23-23.55,75.78-18.88s-4.83,12.63-2.55,16.61,29.83,4.8,32.95,11.93c0,0-30.73,0-41.08-1.73-8.07-1.4,3.3-8.21-6.93-16.17-3.71-2.89-53.51,11.69-71.41,30.4S73,84.67,73,84.67Z"/><path class="cls-4" d="M148.49,44.89c38.64-1.7,45.08,6.23,45.41,9.79s-12.17,7.54-9.33,12.66,31,7.67,33.53,9.09-33,9.66-40.91,0,3.69-13.64-2-19-60.59-4.83-60.59-4.83Z"/></g></g><g id="_1paw-front_" data-name="&lt;1paw-front&gt;"><path class="cls-2" d="M109.78,132.1c15,6.56,46.2-12.49,55.88,1.87s-14,28.3-14.67,50.68S144.4,243,129.13,257c-11.08,10.14-26.38,20.45-41.49,15-9.22-3.34-11.2,5.78-16.74,5.47s-7.78-9.53-3.18-11.4c-6.8,4.06-10.55-8.35-4.93-9.6-6.48-.86-5-11.32.31-10.85s6.4,2.5,10.3,1.64,6.2-6.27,14.24-7.32c5.37-.71,11.8,4.89,17.37,2.09,13.72-6.87,23.71-42.54-1.06-56.76S109.78,132.1,109.78,132.1Z"/><g class="cls-9"><path class="cls-4" d="M172.68,154.58c-17.48-19.51-42.14,15.25-40.58,18.55s25.29-20.89,30.59-10.59S172.68,154.58,172.68,154.58Z"/><path class="cls-4" d="M156.45,189.23c-19.36-10.14-32.16,3.75-32.16,5.46s23.57-5.26,30.29,5.49S156.45,189.23,156.45,189.23Z"/><path class="cls-4" d="M108.53,213.58c19-3.43,21.07,9.68,20.13,12.18s-11.7-9.68-20.13,0S108.53,213.58,108.53,213.58Z"/><path class="cls-4" d="M148,245.61c-14.67-14.39-29.5-10.17-30.44-8.3s23,5.15,19.67,16.23S148,245.61,148,245.61Z"/></g><path class="cls-5" d="M62.79,256.43a13.3,13.3,0,0,1,10.88,0c2.28,1,12.13,0,14-4.34"/><path class="cls-5" d="M67.72,266c3.86-3.33,7.19-3.33,13.75-1.66s14.36-3.65,14-5.21"/></g><g id="_2paw-front_" data-name="&lt;2paw-front&gt;"><path class="cls-2" d="M196.22,70.18c-25.88,17.73,12.22,85.37,51.43,96.38s54.83-8.17,72.73,0,24.72,16.13,21,24.52-9.94,13.54-10.51,27.44-7.39,8.12-9.09,15.55.18,12,7.1,13.21c.85,6.25,8.14,8.34,11.36,5.12,4.08,5.4,15.35,3.31,15.91-5s-2.27-17.52,2-20.93,9.67-9.82,11.94-15.35c5-12.21-15.25-20.55-13.17-51.64,2.62-39-13-43-24.91-37S309,145.7,294,137.35s-15.12-45.2-38.13-60.55S211.56,59.67,196.22,70.18Z"/><g class="cls-10"><path class="cls-4" d="M183.15,108.82c8.53-20.17,62.32-12.64,61.66-6-.29,2.84-24.9-7.35-27.56,6-1.14,5.68-9.66-7.67-15.06-2.56S194,115,189.12,125.52,183.15,108.82,183.15,108.82Z"/><path class="cls-4" d="M198,155.7c4.52-43.84,46.78-37,60-34.22,4,.85-23.42-.63-20.3,12.44.71,3-6.43-4.4-14.2.52-8.21,5.19-10.51,21.8-2.28,25.64C227.13,162.84,198,155.7,198,155.7Z"/><path class="cls-4" d="M234.29,166.56c7.68-12.85,16-9.94,19.8-12.24s1.42-9.7,7-14.53,16.67-6.33,18.23-5.87-13.78,7.86-13.5,14.11,1.71,8.3-.28,10.68-14.21,1-14.49,14.32S234.29,166.56,234.29,166.56Z"/><path class="cls-4" d="M274.07,177.49c14.78-16.68,18.75-14.73,18.75-17.41s-6-4.66-4.83-7.22,20-11.66,23.87-10.5-18.18,8.3-13.92,12,9.37,2.36,7.95,5.14-9.94,3.63-11.08,12.72S274.07,177.49,274.07,177.49Z"/><path class="cls-4" d="M347.09,119.33c10,3.41,1,24.8-5.21,25.75s-1,7.78-3,12.61-7.69,7.81-6.27,8.87S346,161.25,346,154.21s.85-7.33,12.5-14.85S347.09,119.33,347.09,119.33Z"/><path class="cls-4" d="M359.88,154.21c-4.83,11.43-5.68,6-8.8,9.59S348.51,176,346,178.71s14.47-5,16.29-14.77S359.88,154.21,359.88,154.21Z"/></g><path class="cls-5" d="M340.27,252.4c-3.6-9,.38-15.06,4.74-17.9s7.39-10.42,5.49-15"/><path class="cls-5" d="M328.91,247.28c-1-7.1-1.9-10.51,6.44-16.76s6.82-13.07,5.49-15.91"/></g><g id="_head_" data-name="&lt;head&gt;"><path class="cls-11" d="M110.27,118.42c16.19,1.71,30.26,26.64,28.66,27.85s-7.44-1.81-7.44,1-3,34.45-15.49,38.2c-2,.6-.4-6.43-3.62-5.23s-9.48,17.2-17.89,20.11c-5.23,1.81,4.22-14.88-3.42-14.48s10.46-27.75,10.46-27.75L119,137.22Z"/><path class="cls-11" d="M31,123.85c-17.9,11.56-18.5,32.27-17.5,32.47s6.64-3.82,7.44-2.61,3.22,26.14,5.84,29.56,1.4-7.44,4.22-5.83,3.82,10.25,12.46,12.26S35,139.23,35,139.23Z"/><path class="cls-2" d="M85.24,106.66c10.86-10.26,20.21-7.84,22.92-5.13s3.92,8.14,2.11,16.89c13.57,10.86,16,22.82,10.56,33.08s-20.06,12.62-22.77,20.16S94.16,195,86.22,198.58c-14.86,6.61-45.82.57-46.22-12.3-.61-19.44-2.22-24.23-9.45-31.16s-9.45-22.72.4-31.27c-1.81-13.87.3-22.81,6.63-24.67s14.18,3.26,15.69,10.19C65.93,103,85.24,106.66,85.24,106.66Z"/><g class="cls-12"><path class="cls-4" d="M89.19,112.84c3.74-6,9.33-8.14,12.79-7.09s1.22,12.52,0,13.12C97.45,113.44,89.19,112.84,89.19,112.84Z"/><path class="cls-4" d="M37.73,118.87c-2.26-7.23-2.11-11.53,0-13.38s8.15,2.11,9.66,6.69C42.56,110,37.73,118.87,37.73,118.87Z"/><path class="cls-4" d="M66.69,110c11.67,0,14.67,14.86,12.06,17-1.76,1.43-8.83-8.68-14-8.08s-12.65,9.58-14.31,9.5C47.63,128.24,55.89,110,66.69,110Z"/><path class="cls-4" d="M63.54,128.12c-5.12.58-9.28,12-7,12.69s5.23-2.59,7-2,2,2.25,3.52,2.5S71.06,127.28,63.54,128.12Z"/><path class="cls-4" d="M106.65,169c1.81-11.34-9.05-20.24-7.69-22.2s17.65,2,18.4,12.69S106.65,169,106.65,169Z"/><path class="cls-4" d="M98.06,182.82c-.91-11.62-13.73-16.37-13.12-18.52s18.39-1.81,18.39,9.26S98.06,182.82,98.06,182.82Z"/><path class="cls-4" d="M25.37,155.52c1.51-11.31,10.25-14.28,10.85-12.32s-6.09,4-5.08,15.49S25.37,155.52,25.37,155.52Z"/><path class="cls-4" d="M33.66,173.09c1.51-15.44,10.82-12.59,12.2-11.24s-7.37,2.56-8.73,15.46S33.66,173.09,33.66,173.09Z"/></g><path class="cls-11" d="M64.53,187.29s-19,17.56-.61,18.5C84,206.81,64.53,187.29,64.53,187.29Z"/><path class="cls-11" d="M64.53,187.29c4.42-8.85,20.1-13.87,27.34-6.23s-3,24-11.66,22.11S64.53,187.29,64.53,187.29Z"/><path class="cls-11" d="M64.53,186.2c-3.7-7.88-16.83-12.36-22.88-5.55s2.52,21.41,9.75,19.71S64.53,186.2,64.53,186.2Z"/><path class="cls-13" d="M64.53,187.29C72,180.06,73,179.51,73,179.51c-5.28-5.29-14.51-4.22-17.13-.94C62.71,183.39,64.53,187.29,64.53,187.29Z"/><path class="cls-5" d="M73,179.51c-4.27-13.74-5.07-26.6,4-30.63"/><path class="cls-5" d="M55.89,178.57c5.42-14,1.4-27.58-1.22-28.53"/><path class="cls-11" d="M70.49,169C81.42,163,95.8,147.68,95.15,140,84.43,140.84,67.2,146,70.49,169Z"/><path class="cls-11" d="M58.07,170.43C48.44,164,39.87,149,40.52,139,56.28,142.65,59.86,156.38,58.07,170.43Z"/><path class="cls-11" d="M101.53,137.83C82,144.26,70,150.93,65.33,159.46,73,127,91.47,124.35,97.7,126.36S101.53,137.83,101.53,137.83Z"/><path class="cls-11" d="M61.11,159.46c-4.63-9.37-19.93-23.65-28.35-22.24-4-7.84.4-9.85,3.21-10.25S52.26,133.24,61.11,159.46Z"/><circle class="cls-13" cx="86.85" cy="148.42" r="3.19"/><circle class="cls-13" cx="46.5" cy="148.88" r="2.99"/></g></g></g></svg>