<?xml version="1.0" encoding="utf-8"?>
<!-- Generator: Adobe Illustrator 22.1.0, SVG Export Plug-In . SVG Version: 6.00 Build 0)  -->
<svg version="1.1" id="Layer_1" xmlns="http://www.w3.org/2000/svg" xmlns:xlink="http://www.w3.org/1999/xlink" x="0px" y="0px"
	 viewBox="0 0 1000 1000" style="enable-background:new 0 0 1000 1000;" xml:space="preserve">
<style type="text/css">
	.st0{fill:#F7F6F0;stroke:#DD3D4E;stroke-linecap:round;stroke-linejoin:round;stroke-miterlimit:10;}
	.st1{clip-path:url(#SVGID_2_);}
	.st2{fill:#DD3D4E;}
	.st3{fill:#F7F6F0;stroke:#DD3D4E;stroke-miterlimit:10;}
	.st4{fill:none;stroke:#DD3D4E;stroke-miterlimit:10;}
	.st5{clip-path:url(#SVGID_4_);}
	.st6{clip-path:url(#SVGID_6_);}
	.st7{clip-path:url(#SVGID_8_);}
	.st8{fill:none;stroke:#DD3D4E;stroke-linecap:round;stroke-linejoin:round;stroke-miterlimit:10;}
	.st9{clip-path:url(#SVGID_10_);}
	.st10{clip-path:url(#SVGID_12_);}
	.st11{fill:#DD3D4E;stroke:#DD3D4E;stroke-linecap:round;stroke-linejoin:round;stroke-miterlimit:10;}
	.st12{clip-path:url(#SVGID_14_);fill:#DD3D4E;stroke:#DD3D4E;stroke-linecap:round;stroke-linejoin:round;stroke-miterlimit:10;}
</style>
<g id="_x3C_tail_x3E_">
	<path class="st0" d="M635.3,552.5c0.9,0.9,2,1.6,2.6,2.6c32.9,54.3,69.9,84.8,54.2,115.6c-16,31.4-50.3,8.9-93.4,15.3
		s-45,54.6-85.4,51.6S466.9,700.4,435,655c-31.8-45.4-60.2-32.1-66-18.4c-10.1,27.8,23.2,32.4,40.8,56.8S473.5,796,525,793.3
		c67-3.5,50.2-55,98.8-58.4s115.7,15.3,130.9-49c12.8-54-17.7-69.6-17.7-69.6"/>
	<g>
		<defs>
			<path id="SVGID_1_" d="M635.3,552.5c0.9,0.9,2,1.6,2.6,2.6c32.9,54.3,69.9,84.8,54.2,115.6c-16,31.4-50.3,8.9-93.4,15.3
				s-45,54.6-85.4,51.6S466.9,700.4,435,655c-31.8-45.4-60.2-32.1-66-18.4c-10.1,27.8,23.2,32.4,40.8,56.8S473.5,796,525,793.3
				c67-3.5,50.2-55,98.8-58.4s115.7,15.3,130.9-49c12.8-54-17.7-69.6-17.7-69.6"/>
		</defs>
		<clipPath id="SVGID_2_">
			<use xlink:href="#SVGID_1_"  style="overflow:visible;"/>
		</clipPath>
		<g class="st1">
			<path class="st2" d="M383.8,673.6c-0.6-7.6,2.8-15.2,7.9-20.9s11.6-10,18.1-14c-4.1,3.6-5.4,9.5-5.4,15c0,5.5,1,11,0.2,16.4
				c-1,6.9-4.6,13-8.2,18.9"/>
			<g>
				<path class="st2" d="M384.6,673.6c-0.8-16.4,13.1-26.6,25.6-34.3c-0.3-0.4-0.6-0.8-0.9-1.2c-5.5,5.4-5.8,12.8-5.4,20.1
					c0.3,5.4,0.7,10.6-0.9,15.8c-1.5,5.2-4.4,9.9-7.2,14.5c-0.5,0.8,0.8,1.6,1.3,0.8c4.1-6.9,8.1-13.8,8.6-22
					c0.5-9.5-3.1-20.5,4.7-28.1c0.6-0.6-0.2-1.6-0.9-1.2c-13,8-27.1,18.6-26.3,35.6C383.1,674.5,384.6,674.5,384.6,673.6
					L384.6,673.6z"/>
			</g>
		</g>
		<g class="st1">
			<path class="st2" d="M446.4,658.2c-5.6,4.2-9.9,10.1-12.2,16.7c-2.1,6.3-2.7,13.4-7,18.4c3.8-2.7,7.2-5.9,11.2-8.3
				c3.9-2.3,8.4-3.6,12.3-5.9s7.6-5.8,8.2-10.3"/>
			<g>
				<path class="st2" d="M445.8,657.7c-5.2,4.1-9.3,9.2-11.7,15.3c-2.6,6.6-2.9,14-7.5,19.8c-0.5,0.6,0.2,1.7,0.9,1.2
					c3.3-2.4,6.3-5.1,9.8-7.4c3.4-2.2,7.1-3.5,10.8-5.3c5.4-2.6,10.2-6.2,11.5-12.4c0.2-0.9-1.2-1.3-1.4-0.4
					c-1.7,7.8-9,10.6-15.5,13.5c-6,2.7-10.6,6.7-15.8,10.5c0.3,0.4,0.6,0.8,0.9,1.2c3.7-4.7,4.7-10.2,6.3-15.8
					c2.2-7.8,6.5-14.3,12.9-19.3C447.7,658.2,446.6,657.1,445.8,657.7L445.8,657.7z"/>
			</g>
		</g>
		<g class="st1">
			<path class="st2" d="M434.9,743.5c2.1-5.5,4.2-11.3,8.3-15.5c4.4-4.6,10.5-7,15.6-10.9c-3.4,2.8-3.9,7.9-2.9,12.3
				c1,4.3,3.1,8.3,3.9,12.7c1.3,7.1-0.9,14.4-4.8,20.5"/>
			<g>
				<path class="st2" d="M435.6,743.7c2.2-5.9,4.5-12,9.2-16.3c4.2-3.9,9.6-6.3,14.3-9.6c-0.3-0.4-0.6-0.8-0.9-1.2
					c-4.5,4.4-4,10.6-2.2,16.2c1.5,4.8,3.5,9.1,3.4,14.2c-0.1,5.5-2.3,10.6-5.1,15.2c-0.5,0.8,0.8,1.6,1.3,0.8
					c3.5-5.9,5.9-12.5,5.1-19.5c-1-8.2-9-18.6-1.5-25.8c0.6-0.6-0.2-1.7-0.9-1.2c-5.2,3.7-11.3,6.3-15.7,11
					c-4.2,4.4-6.4,10.2-8.5,15.9C433.9,744.2,435.3,744.6,435.6,743.7L435.6,743.7z"/>
			</g>
		</g>
		<g class="st1">
			<path class="st2" d="M494.8,718.1c-5.1,5.7-10.5,12.2-10.6,19.8c-0.1,4,1.3,7.9,1.9,11.8c1.1,7.5-0.9,15.2-3.6,22.2
				c3.3-5.5,7.8-10.3,13.1-14c4.2-2.9,9.1-5.3,11.9-9.6c2.2-3.4,2.9-7.6,3.5-11.6c1.1-7.2,2.2-14.3,3.3-21.5"/>
			<g>
				<path class="st2" d="M494.3,717.5c-5.3,6-11,12.8-10.8,21.2c0.1,5.2,2.2,10.1,2.2,15.3c0,6.1-1.7,12-3.9,17.7
					c-0.3,0.8,0.9,1.3,1.4,0.6c3.5-5.6,8-10.4,13.4-14.1c3.7-2.5,7.8-4.7,10.6-8.2c3-3.7,3.8-8.4,4.5-13c1.1-7.2,2.2-14.3,3.3-21.5
					c0.1-0.9-1.3-1.4-1.4-0.4c-1,6.5-2,13-3,19.5c-0.9,6.2-1.8,12.1-6.6,16.6c-3.6,3.3-8.3,5.5-12,8.6c-4,3.3-7.3,7.3-10,11.7
					c0.5,0.2,0.9,0.4,1.4,0.6c3.1-8.2,4.9-16.5,3.2-25.2c-1.1-5.6-2.1-10.6,0.2-16.1c2-4.7,5.4-8.5,8.7-12.3
					C496,717.9,494.9,716.8,494.3,717.5L494.3,717.5z"/>
			</g>
		</g>
		<g class="st1">
			<path class="st2" d="M521,806.2c-4.1-9.7-0.8-20.9,4.1-30.2c4.8-9.3,11.3-18.1,13.8-28.3c3.4,17.3,0.9,35.1-1.7,52.5"/>
			<g>
				<path class="st2" d="M521.7,806c-8-21.2,12.7-39,17.9-58.1c-0.5,0-1,0-1.4,0c3.2,17.3,0.8,34.8-1.7,52.1
					c-0.1,0.9,1.3,1.4,1.4,0.4c2.5-17.6,4.9-35.3,1.7-52.9c-0.1-0.8-1.3-0.7-1.4,0c-5.2,19.4-26,37.3-17.9,58.9
					C520.6,807.3,522.1,806.9,521.7,806L521.7,806z"/>
			</g>
		</g>
		<g class="st1">
			<path class="st2" d="M554.5,701.1c-0.4,5.7-0.8,11.8,1.9,16.9c1.1,2,2.6,3.8,3.9,5.6c5.2,7.5,6.9,16.8,6.8,25.9
				c4.7-6.1,3.3-15,6.9-21.8c2-3.8,5.5-6.9,6-11.1c0.5-3.8-1.6-7.4-2.5-11.1c-1.5-6.7,1.2-13.5,3.8-19.9"/>
			<g>
				<path class="st2" d="M553.8,701.1c-0.6,8.9,0.2,14.9,5.4,22.2c5.5,7.7,7.2,16.9,7.2,26.2c0,0.8,1,1,1.4,0.4
					c2.9-4.2,3.5-8.9,4.4-13.7c0.6-3.3,1.4-6.4,3.2-9.4c1.3-2.3,3.1-4.2,4.3-6.6c2.1-4.4,0.7-8.2-0.7-12.6
					c-2.4-7.6,0.2-14.8,3.1-21.8c0.4-0.9-1.1-1.3-1.4-0.4c-2.2,5.3-4.4,10.9-4.2,16.7c0.2,6.6,4.9,12.1,1.3,18.6
					c-2.4,4.2-5.1,7.4-6.3,12.2c-1.4,5.6-1.5,11.3-4.9,16.2c0.5,0.1,0.9,0.3,1.4,0.4c0-7.3-1-14.7-4.2-21.4
					c-1.8-3.8-4.7-6.8-6.6-10.5c-2.6-5.1-2.2-11-1.8-16.5C555.4,700.1,553.9,700.1,553.8,701.1L553.8,701.1z"/>
			</g>
		</g>
		<g class="st1">
			<path class="st2" d="M617.2,683.8c-1.8,4.6-2.5,9.5-2.2,14.4c0.3,5.3,1.9,10.6,1.5,15.9c-0.3,4-1.7,7.9-4,11.2
				c3.1-1.8,5-5,7.3-7.7c3.8-4.5,8.9-7.8,13.1-11.9c8.5-8.2,13.6-19.8,14-31.5"/>
			<g>
				<path class="st2" d="M616.5,683.6c-2.1,6-2.7,11.9-1.9,18.3c1.1,8.4,2.2,15.5-2.7,23.1c-0.4,0.6,0.4,1.4,1,1
					c4.4-2.9,7-7.7,10.8-11.3c4.3-4,9.2-7.4,13-12c6.7-8.1,10.4-18.1,10.9-28.5c0.1-1-1.4-1-1.5,0c-0.6,11.1-4.9,21.8-12.6,29.9
					c-3.2,3.3-6.9,6-10.3,9.1c-4,3.6-6.7,8.6-11.1,11.6c0.3,0.3,0.7,0.7,1,1c3.6-5.5,4.6-11.3,3.8-17.8c-1-8.5-2-15.7,1-24
					C618.3,683.1,616.8,682.7,616.5,683.6L616.5,683.6z"/>
			</g>
		</g>
		<g class="st1">
			<path class="st2" d="M639.5,748.9c1.3-9,2.6-18.3,7.4-26c2.3-3.7,5.3-6.9,8.3-10.1c3.2-3.4,6.5-6.8,9.8-10.1
				c-1.7,4.3-3.3,8.6-5,12.9c-2.2,5.8-4.5,11.6-5.1,17.7c-0.8,7,0.6,14,1.9,20.9"/>
			<g>
				<path class="st2" d="M640.2,749.1c1.3-8.9,2.5-18.1,7.3-25.9c4.6-7.5,11.8-13.8,18-20c-0.4-0.2-0.8-0.5-1.3-0.7
					c-3.4,8.8-7.7,17.7-9.5,27c-1.7,8.4-0.3,16.7,1.3,24.9c0.2,0.9,1.6,0.5,1.4-0.4c-1.8-9.3-3-18.4-0.4-27.7
					c2.2-8,5.7-15.7,8.7-23.4c0.3-0.7-0.8-1.2-1.3-0.7c-6.3,6.3-13.5,12.6-18.3,20.3c-4.9,7.9-6.2,17.2-7.5,26.2
					C638.6,749.6,640,750,640.2,749.1L640.2,749.1z"/>
			</g>
		</g>
		<g class="st1">
			<path class="st2" d="M674.9,670.8c5.9,7.2,12,15,13,24.3c0.6,5.3-0.6,10.6-1.6,15.8c-0.1,0.6-0.2,1.3,0.1,1.9
				c0.7,1.3,2.7,0.8,3.9,0c8.6-5.7,10.9-17.5,9.4-27.7c-1.5-10.2-5.9-19.8-7.7-29.9c-1.2-6.4-1.8-13.9-7.2-17.4"/>
			<g>
				<path class="st2" d="M674.4,671.3c4.9,6,10,12.4,12,20c1.1,4.2,1,8.3,0.4,12.5c-0.3,2.4-1.7,5.8-1.3,8.2
					c0.5,2.9,3.1,2.6,5.2,1.5c3.7-2,6.4-6.2,7.9-10c4.6-11.3,1.2-23.3-2.2-34.4c-2-6.5-3.4-13-4.7-19.7c-1-4.9-2.5-9.2-6.6-12.2
					c-0.8-0.6-1.5,0.7-0.8,1.3c4.7,3.5,5.6,9.4,6.5,14.9c0.9,5.2,2.3,10.2,3.8,15.3c3.2,10.5,6.7,21.6,3.2,32.5
					c-0.9,2.7-2.2,5.3-4,7.5c-0.6,0.7-1.2,1.4-1.9,2c-1.3,2.1-2.4,2.1-3.3,0.2c-1.2-0.5-1.5-1.3-1.1-2.3c-0.2-1.8,0.8-4.4,1-6.4
					c0.3-2.4,0.4-4.8,0.1-7.3c-1.1-9.6-7.3-17.4-13.2-24.6C674.8,669.5,673.8,670.6,674.4,671.3L674.4,671.3z"/>
			</g>
		</g>
		<g class="st1">
			<path class="st2" d="M762.3,646c-10.2,3.8-22.6,0.1-31.9,5.9c-4.9,3.1-8,8.4-10.9,13.4c6.8-1.9,14.5-0.1,19.7,4.7
				s7.7,12.2,6.5,19.1c-0.5,2.9-1.7,5.8-1.5,8.8c0.2,3,2.5,6.2,5.5,5.9"/>
			<g>
				<path class="st2" d="M762.1,645.3c-8.8,2.9-18.2,1-27,3.7c-7.9,2.4-12.3,9-16.2,15.9c-0.3,0.6,0.2,1.3,0.8,1.1
					c13.5-3.2,26.8,7.3,25.4,21.5c-0.6,5.4-4.6,16.4,4.6,17c1,0.1,1-1.4,0-1.5c-8.1-0.5-2.5-15-3.1-19.9c-0.5-4.1-2.1-8.2-4.8-11.4
					c-5.4-6.7-14.3-9.1-22.5-7.1c0.3,0.4,0.6,0.7,0.8,1.1c4.9-8.6,10.1-14.9,20.4-16.3c7.4-1,14.7-0.3,21.9-2.7
					C763.4,646.4,763,645,762.1,645.3L762.1,645.3z"/>
			</g>
		</g>
	</g>
</g>
<g id="_x3C_1-back-leg_x3E_">
	<path class="st3" d="M197.4,387.9c-59.4,104.3-89,102.7-84.4,141.2c3.9,32.9,43.9,33.7,53.5,49.4c9.6,15.7-2.9,55.4,18.2,76.1
		c27.1,26.7,70.4,10.8,89.5,27.9c12,10.8,4.8,29.5,9.5,44.6c4.1,13.3,6.4,18.9,16.9,25c7,4.1,20.7-0.7,17.2-10.9
		c9.8,10.5,28.2-1.4,17.4-15.1c3.5,8.3,22.9,7.8,18.6-12.8c-5.6-26.5-27.1-68.6-63.3-74.8s-82.5-50.9-57.1-111.1
		S197.4,387.9,197.4,387.9z"/>
	<path class="st4" d="M295.1,700.7c9.1,0.8,6.5,18.3,10.3,24.9c3.8,6.7,11.4,7.5,12.4,15.6"/>
	<path class="st4" d="M308.5,683.8c12,0.1,5.5,23.8,15.6,27.4c10.1,3.6,11.2,14.9,11.2,14.9"/>
	<g>
		<defs>
			<path id="SVGID_3_" d="M197.4,387.9c-59.4,104.3-89,102.7-84.4,141.2c3.9,32.9,43.9,33.7,53.5,49.4c9.6,15.7-2.9,55.4,18.2,76.1
				c27.1,26.7,70.4,10.8,89.5,27.9c12,10.8,4.8,29.5,9.5,44.6c4.1,13.3,6.4,18.9,16.9,25c7,4.1,20.7-0.7,17.2-10.9
				c9.8,10.5,28.2-1.4,17.4-15.1c3.5,8.3,22.9,7.8,18.6-12.8c-5.6-26.5-27.1-68.6-63.3-74.8s-82.5-50.9-57.1-111.1
				S197.4,387.9,197.4,387.9z"/>
		</defs>
		<clipPath id="SVGID_4_">
			<use xlink:href="#SVGID_3_"  style="overflow:visible;"/>
		</clipPath>
		<g class="st5">
			<path class="st2" d="M149.8,435.4c9.8,0.7,18.7,8.1,21.1,17.6c1.8,7.3,0.1,15-0.1,22.5c-0.4,16.6,7.6,33.2,20.8,43.3
				c1.1,0.8,2.3,2.4,1.3,3.3c-0.4,0.4-1,0.5-1.6,0.5c-12,0.3-21.9-9.1-29.3-18.7c-7.3-9.5-14.2-20.4-25.2-25.2c-9-3.9-19.5-3-28.8,0
				"/>
			<g>
				<path class="st2" d="M149.8,436.2c7.5,0.7,14.2,4.9,18.1,11.5c4.4,7.4,3,16,2.4,24.1c-0.9,12.4,2.1,24.6,9,35
					c1.5,2.2,3.1,4.3,4.9,6.3c1.7,1.9,6.9,5.1,7,7.6c0.1,2.1-0.9,1.3-2.7,1.1c-1-0.1-1.8-0.2-2.8-0.4c-1.8-0.4-3.6-1.1-5.3-1.9
					c-3.3-1.6-6.3-3.8-9.1-6.3c-9.4-8.6-15.1-20.4-24.7-28.8c-11.1-9.8-25.1-10.4-38.8-6.2c-0.9,0.3-0.5,1.7,0.4,1.4
					c8.7-2.7,18.1-3.8,26.8-0.6c7.8,2.8,13.7,9,18.7,15.3c8.2,10.3,15.7,23,28.8,27.7c2.1,0.7,9.4,3.2,11.1,0.5c1-1.6-0.4-3-1.5-4
					c-2.6-2.6-5.5-4.7-7.9-7.5c-5.5-6.4-9.3-14.2-11.3-22.4c-2-8.5-0.9-16.6-0.5-25.2c0.7-14.4-7.6-27.1-22.6-28.6
					C148.8,434.6,148.8,436.1,149.8,436.2L149.8,436.2z"/>
			</g>
		</g>
		<g class="st5">
			<path class="st2" d="M237.6,547.4c-5.3,3.9-11.7,6.4-18.2,7.1c-6.2,0.6-12.6-0.3-18.7,1c-14,2.9-23.5,17.1-24.9,31.4
				c4.3-9.8,16-15,26.7-14c4.8,0.5,9.4,2,14.2,2.6c9.6,1.2,19.6-1.5,27.3-7.3"/>
			<g>
				<path class="st2" d="M237.2,546.7c-7.8,5.5-16,7.2-25.4,7.2c-6.8,0-13.4,0.3-19.4,3.8c-10.3,6-16.1,17.5-17.4,29
					c-0.1,0.7,1.1,1,1.4,0.4c3-6.3,8.5-10.5,15.1-12.5c7-2.1,13.5-0.7,20.5,0.7c11.5,2.4,22.8,0.3,32.3-6.6c0.8-0.6,0-1.9-0.8-1.3
					c-6.5,4.7-14.1,7.5-22.1,7.5c-7.2,0-14-2.9-21.1-3c-10.4-0.2-20.7,5-25.3,14.5c0.5,0.1,0.9,0.3,1.4,0.4
					c1.5-13.1,9.5-26.7,23-30.3c7.1-1.9,14.6-0.4,21.8-1.5c6.1-0.9,11.7-3.4,16.8-6.9C238.7,547.5,238,546.2,237.2,546.7
					L237.2,546.7z"/>
			</g>
		</g>
		<g class="st5">
			<path class="st2" d="M245.5,597.7c-11,2.6-21.8,7-30.5,14.2c-8.7,7.2-15.2,17.5-16.5,28.7c3-6.4,9.8-10.2,16.6-12.2
				c6.8-1.9,13.9-2.4,20.7-4.3c9.9-2.8,18.9-8.6,25.5-16.6"/>
			<g>
				<path class="st2" d="M245.3,597c-22.2,5.4-44.3,19.2-47.5,43.6c-0.1,0.8,1.1,1,1.4,0.4c7-13.3,23.4-12.6,36-15.9
					c10.5-2.8,19.6-8.8,26.7-17c0.6-0.7-0.4-1.8-1.1-1.1c-9.2,10.8-20.9,16-34.6,18.4c-10.8,1.9-22.7,4.3-28.3,14.8
					c0.5,0.1,0.9,0.3,1.4,0.4c3.2-23.7,25-37,46.4-42.2C246.6,598.2,246.2,596.8,245.3,597L245.3,597z"/>
			</g>
		</g>
		<g class="st5">
			<path class="st2" d="M300.2,632.9c-5.5,9.6-17.5,13.6-23.9,22.7c-4.1,5.7-5.5,13-5.6,20c6-5.2,12.3-10.5,19.7-13.3
				c4.8-1.8,10-2.5,14.9-4.2c4.9-1.7,9.6-4.8,11.5-9.6"/>
			<g>
				<path class="st2" d="M299.6,632.5c-5,8.2-14,12.2-20.7,18.9c-6.5,6.5-8.6,15.2-9,24.2c0,0.7,0.8,0.9,1.3,0.5
					c4.1-3.5,8.1-7,12.7-9.8c5-3,10.2-4.5,15.8-5.9c7.2-1.8,14.5-4.4,17.7-11.6c0.4-0.9-0.9-1.6-1.3-0.8c-4.5,9.9-16.2,10-25.1,13.1
					c-8,2.8-14.5,8.3-20.9,13.8c0.4,0.2,0.9,0.4,1.3,0.5c0.4-11.3,4.2-20.1,13.1-27.1c5.9-4.6,12.3-8.6,16.3-15.1
					C301.4,632.4,300.1,631.7,299.6,632.5L299.6,632.5z"/>
			</g>
		</g>
	</g>
</g>
<g id="_x3C_body_x3E__1_">
	<path class="st0" d="M437.9,569.2c-105.7,42.5-253.9-7.5-248.2-132S306.5,199.5,489.8,226S845,405.6,835.8,516.6
		S703.6,665.1,618.9,529S426,379.3,415.4,416.1c-10.6,36.9,29.7,65.4,50.3,65C486.2,480.7,521,535.8,437.9,569.2z"/>
	<g>
		<defs>
			<path id="SVGID_5_" d="M437.9,569.2c-105.7,42.5-253.9-7.5-248.2-132S306.5,199.5,489.8,226S845,405.6,835.8,516.6
				S703.6,665.1,618.9,529S426,379.3,415.4,416.1c-10.6,36.9,29.7,65.4,50.3,65C486.2,480.7,521,535.8,437.9,569.2z"/>
		</defs>
		<clipPath id="SVGID_6_">
			<use xlink:href="#SVGID_5_"  style="overflow:visible;"/>
		</clipPath>
		<g class="st6">
			<path class="st2" d="M433.3,405.9c-11.2-4.2-20.2-13.6-24-24.9c-3.8-11.3-2.3-24.3,4.1-34.4c2.1-3.4,4.8-6.5,6.6-10.1
				c2.6-5.2,3.2-11,4.4-16.7c4-19.1,14.9-36.7,30.2-48.8c6.5-5.1,15-9.4,22.7-6.5c-4.6,7.7-9.3,15.5-13.9,23.2
				c-5.8,9.7-11.8,20.6-9.2,31.6c1.3,5.7,4.8,10.5,8.2,15.3c5.4,7.5,10.8,15.1,16.3,22.6c4.2,5.8,8.4,11.9,9.3,19
				c0.7,5.3-0.7,10.7-2.5,15.7c-4.7,13-12.7,25.3-13.2,39.2"/>
			<g>
				<path class="st2" d="M433.5,405.1c-24.8-9.9-32.4-39.5-17.6-61.1c2.9-4.2,5.4-8.1,6.8-13.1c1.6-5.7,2.2-11.5,3.8-17.2
					c3.2-11,8.7-21.4,16-30.2c3.4-4.1,7.1-7.8,11.2-11.2c4.6-3.8,13.7-10.5,20.2-8c2.3,0.9,1.7,0.5,0.6,2.9c-0.5,1.1-1.3,2.2-2,3.3
					c-1.7,2.8-3.3,5.5-5,8.3c-3.5,5.9-7.2,11.6-10.2,17.8c-4.3,8.8-6.5,18.5-2.3,27.7c2.5,5.5,6.4,10.3,9.9,15.2
					c3.9,5.4,7.7,10.8,11.6,16.2c4,5.5,8.4,11.2,10,18c1.8,7.7-0.9,15.4-3.8,22.4c-4.7,11.4-10.7,22.2-11.4,34.7c-0.1,1,1.4,1,1.5,0
					c0.8-15,9.6-27.5,14-41.6c1.9-6,2.5-12.2,0.5-18.3c-2.2-6.5-6.6-12.1-10.6-17.6c-4.8-6.7-9.7-13.4-14.4-20.1
					c-5.3-7.4-9.4-14.9-7.7-24.3c1.5-8.3,6-15.6,10.3-22.7c4.3-7.2,8.6-14.4,12.9-21.6c0.3-0.4,0-1-0.4-1.1
					c-15-4.6-29.6,10.7-37.9,21.4c-4.6,6-8.4,12.5-11.3,19.5c-3.3,8-4.6,16.1-6.5,24.5c-2.1,8.9-8.6,14.9-12,23.2
					c-2.9,7.1-3.9,15.1-2.6,22.7c2.4,14.5,12.6,26.4,26.1,31.8C434,406.9,434.4,405.5,433.5,405.1L433.5,405.1z"/>
			</g>
		</g>
		<g class="st6">
			<path class="st2" d="M510.6,416.7c1.8-13.1,8.7-25.5,19-33.9c4.7-3.9,10.2-7,14.1-11.6c6.1-7.1,7.8-16.9,11-25.7
				c6.2-17,19-31.5,35.1-39.9c-7.3,2.6-11.3,10.6-12.8,18.1c-4.5,22.4,6,46.5-1.4,68.2c-2.5,7.4-6.9,13.9-11.4,20.3
				c-8.8,12.8-17.9,25.4-27.2,37.8"/>
			<g>
				<path class="st2" d="M511.3,416.9c1.8-12.1,7.5-23.3,16.5-31.6c4.4-4.1,9.8-7.1,14.1-11.2c3.6-3.4,6.1-7.5,7.9-12
					c4.6-11,6.9-22.2,13.8-32.2c6.8-9.9,15.9-17.9,26.5-23.6c0.7-0.4,0.2-1.7-0.6-1.4c-9,3.7-12.7,13.2-13.9,22.2
					c-1.9,14.1,1.2,28.2,1.8,42.2c0.3,7.3-0.1,14.6-2.3,21.6c-2.4,7.4-6.7,13.9-11.1,20.2c-9,13-18.3,25.8-27.7,38.5
					c-0.6,0.8,0.7,1.5,1.3,0.8c8.9-11.9,17.6-24,26.1-36.2c7.1-10.3,13.5-20.4,14.9-33.1c1.4-12.9-1.3-25.8-1.9-38.7
					c-0.7-12.2-0.2-30.7,13.3-36.2c-0.2-0.5-0.4-0.9-0.6-1.4c-9.7,5.2-18.2,12.3-24.9,21c-7.3,9.6-10.7,20-14.5,31.3
					c-2.3,6.8-5.5,12.7-11,17.4c-4.8,4-10.1,7.2-14.5,11.7c-7.9,8.2-13,18.8-14.7,30.1C509.8,417.4,511.2,417.8,511.3,416.9
					L511.3,416.9z"/>
			</g>
		</g>
		<g class="st6">
			<path class="st2" d="M507.4,332.2c-3.8-9.8-7.7-20.2-6.4-30.7c1.1-8.3,5.4-15.8,9.7-23.1c7.4-12.7,15.9-26.2,29.6-31.3
				c-6.1,7.1-12.6,14.8-13.4,24.2c-0.9,9.5,4.1,19.7,0,28.3c-2.4,5.1-7.4,8.3-11.1,12.5c-6.2,6.9-8.9,16.8-7.1,26"/>
			<g>
				<path class="st2" d="M508.1,332c-3.3-8.5-6.8-17.5-6.6-26.8c0.2-8.8,4.2-16.7,8.6-24.2c7.5-13,15.8-27.3,30.5-33.2
					c-0.2-0.4-0.5-0.8-0.7-1.3c-5.2,6.1-10.8,12.6-12.9,20.5c-2.5,9.3,2,18.4,0.6,27.7c-1.5,9.6-11.4,14-15.9,22
					c-3.7,6.6-4.8,14.1-3.5,21.5c0.2,0.9,1.6,0.5,1.4-0.4c-1.6-9.7,1.2-19.2,7.9-26.3c4.6-4.9,10.1-8.7,11.5-15.7
					c1.5-7.7-1.6-15.3-1.3-22.9c0.4-10.1,7.1-18.1,13.3-25.3c0.4-0.5,0-1.6-0.7-1.3c-15.1,6-23.6,20.4-31.3,33.8
					c-4.1,7.2-8.1,14.7-8.7,23.1c-0.7,10.1,3,19.8,6.6,29C507,333.3,508.5,333,508.1,332L508.1,332z"/>
			</g>
		</g>
		<g class="st6">
			<path class="st2" d="M391.4,412.7c-19.8-10.7-46-8-63.1,6.5c-4.9,4.2-9.3,9.3-15.4,11.5c-4.9,1.8-10.4,1.4-15.6,1.5
				c-14.6,0.2-29.2,4-42,11c-12.6,6.9-24.1,17.9-26.9,32c-1.3,6.8-0.6,13.8,0.5,20.6c1.7,10.7,4.9,22.1,13.5,28.5
				c-7.1-11.2-3.8-26.8,4.9-36.7c8.7-10,21.7-15.1,34.7-17.8c13-2.7,26.3-3.3,39.3-5.8c6.1-1.2,12.8-3.3,15.9-8.7
				c1.5-2.7,2-5.9,3.3-8.7c2.5-5.1,7.7-8.3,12.9-10.6c15.4-6.8,34.2-9.9,43.4-24"/>
			<g>
				<path class="st2" d="M391.8,412c-13.1-6.8-28.4-8.4-42.7-4.5c-7.3,2-14.2,5.4-20.1,10c-2.8,2.2-5.3,4.7-8,7
					c-5.1,4.3-10.1,6.4-16.8,6.8c-9,0.5-17.5,0.4-26.4,2.4c-8.5,2-16.8,5.2-24.4,9.5c-12.6,7.2-24.1,18.7-26.3,33.6
					c-1.3,8.9,0.3,18.6,2.4,27.2c2,8,5.5,15.6,12.1,20.8c0.6,0.5,1.6-0.1,1.2-0.9c-8.3-14.2-1.6-31.6,10.5-41.1
					c12.6-10,28.9-12.8,44.4-14.8c7.6-1,15.2-1.7,22.7-3.2c5.4-1,11.6-2.6,15.5-6.8c1.4-1.6,2.4-3.4,3.1-5.4c1.9-5,3.3-9,7.8-12.2
					c5.5-4,12.3-6.1,18.7-8.4c11.9-4.3,24.4-8.8,31.9-19.7c0.5-0.8-0.8-1.5-1.3-0.8c-8.4,12.2-23.3,16-36.4,21
					c-5.6,2.1-11.7,4.4-16.2,8.6c-5.3,5-4.9,13.2-10.7,17.5c-6.9,5.1-17.4,5.6-25.6,6.7c-8.2,1-16.4,1.9-24.5,3.5
					c-13.4,2.7-27.4,8-36.4,18.8c-8.6,10.2-11.5,25.2-4.6,37.1c0.4-0.3,0.8-0.6,1.2-0.9c-11.9-9.4-15.5-29.6-14.4-44
					c1.2-16.6,14-29,27.9-36.4c7.4-4,15.4-6.9,23.6-8.6c8.7-1.9,17.2-1.3,26-2.1c14.4-1.2,22.1-14.8,34.5-20.6
					c16-7.3,34.8-7.1,50.4,1.1C391.9,413.8,392.6,412.5,391.8,412L391.8,412z"/>
			</g>
		</g>
		<g class="st6">
			<path class="st2" d="M431.2,457.9c-13.9-1.9-26.9,6.9-37.1,16.5c-10.2,9.6-19.9,20.7-33.2,25.1c-7,2.3-14.5,2.6-21.8,3.9
				c-10.4,1.8-20.6,5.8-28.4,13s-12.6,17.8-11.3,28.3c7.1-13.9,24.1-19.5,39.7-20.4c15.5-0.9,31.4,1.5,46.5-2.4
				c4.3-1.1,8.6-2.7,11.6-6c2.6-2.8,4-6.5,5.8-9.9c9.2-17.3,28.7-26,46.9-33.5"/>
			<g>
				<path class="st2" d="M431.2,457.2c-31.7-3.5-45.4,35-73.1,42.4c-7.9,2.1-16.1,2.2-24,4.1c-6.8,1.7-13.4,4.4-19.1,8.4
					c-10.5,7.4-17.4,19.5-16.2,32.6c0.1,0.7,1,1.1,1.4,0.4c16.6-30.7,59.5-15.3,86.5-22.6c5.4-1.5,10.2-3.9,13.3-8.7
					c4.2-6.4,6.7-13.1,12.4-18.6c10.5-10.3,24.5-16.3,37.9-21.8c0.9-0.4,0.5-1.8-0.4-1.4c-12.4,5.1-25.1,10.5-35.4,19.2
					c-5.3,4.5-9.5,9.8-12.7,16c-2.2,4.2-4,8.3-8.2,10.9c-3.7,2.3-8.3,3.4-12.6,4.1c-26.3,4.6-66.2-7.3-82.1,22.1
					c0.5,0.1,0.9,0.3,1.4,0.4c-1.5-15.4,8.5-28.5,21.8-35.1c13.4-6.6,28.6-4.8,42.1-10.5c23.8-10.1,37.8-43.6,67-40.4
					C432.1,458.8,432.1,457.3,431.2,457.2L431.2,457.2z"/>
			</g>
		</g>
		<g class="st6">
			<path class="st2" d="M364.2,608.3c-7.9-6.5-11.5-17.9-8.8-27.8c1.8-6.4,5.8-11.8,9.3-17.4c3.8-6.3,7-12.9,11.7-18.6
				c4.6-5.7,11-10.5,18.3-11.2c-5.5,4.1-9.9,9.6-12.7,15.8c-1.4,3-2.4,6.3-1.8,9.5c0.5,2.6,2,4.9,3.1,7.2c5.7,11.9,2.7,26-0.4,38.8"
				/>
			<g>
				<path class="st2" d="M364.7,607.8c-5.8-5.1-9.4-12.3-9.5-20c-0.1-7.8,3.8-14.4,7.9-20.8c8-12.5,14.7-30.7,31.5-32.9
					c-0.2-0.4-0.4-0.9-0.5-1.3c-7.6,5.9-17.9,17.8-14,28.3c1.1,3.1,2.9,5.8,4,8.9c1.2,3.7,1.6,7.6,1.6,11.5c0,7.8-1.8,15.5-3.6,23
					c-0.2,0.9,1.2,1.3,1.4,0.4c2.7-11.4,5.6-23.8,1.9-35.3c-0.8-2.5-2-4.6-3.1-7c-2.3-4.9-1.8-9.1,0.5-13.8
					c2.8-5.9,7.1-10.9,12.3-14.9c0.5-0.4,0.1-1.4-0.5-1.3c-17.9,2.4-25.2,21.7-33.7,35.1c-4.3,6.9-7.8,14-7.1,22.3
					c0.7,7.4,4.2,14,9.8,18.9C364.4,609.4,365.4,608.4,364.7,607.8L364.7,607.8z"/>
			</g>
		</g>
		<g class="st6">
			<path class="st2" d="M257.7,570.1c-1.4-9.7-2.7-20.1,1.8-28.8c2.6-5.2,7.1-9.2,10.5-13.9c5.1-6.8,8.1-15,13.3-21.6
				c11.5-14.7,31.2-19.6,49.4-23.6c-24.1,6.3-44,26.7-49.8,51c-1,4.3-1.6,8.6-3.2,12.7c-3.7,9.5-12.4,16.7-14.7,26.7"/>
			<g>
				<path class="st2" d="M258.4,569.9c-1.8-13-2.2-24.6,6.6-35.2c2.8-3.4,5.7-6.6,8.1-10.4c2.9-4.5,5.2-9.4,8.1-14
					c11.4-17.8,32.5-23.1,51.9-27.4c-0.1-0.5-0.3-1-0.4-1.4c-18.1,5-33.7,17.1-43,33.4c-2.2,3.8-4,7.8-5.4,11.9
					c-1.9,5.6-2.6,11.5-4.4,17.2c-3.4,10.4-12.5,17.8-15.4,28.5c-0.3,0.9,1.2,1.3,1.4,0.4c2.6-9.6,10.2-16.3,14.1-25.2
					c2.2-5,2.8-10.4,4.2-15.6c1.3-4.8,3.1-9.4,5.4-13.8c9-17.1,24.9-30.1,43.5-35.2c0.9-0.3,0.5-1.7-0.4-1.4
					c-19.8,4.4-41.2,9.9-52.8,28.1c-3.2,5-5.7,10.4-9,15.4c-3.1,4.7-7.3,8.5-10.4,13.2c-6.3,9.7-5,21.3-3.5,32.1
					C257.1,571.2,258.6,570.8,258.4,569.9L258.4,569.9z"/>
			</g>
		</g>
		<g class="st6">
			<path class="st2" d="M232.4,395.8c15.4-19.3,36.6-36.2,61.2-38.1c14.3-1.1,28.4,2.8,42.8,3.1c19,0.3,37.4-5.7,55.3-11.8
				c-14.5,7.4-21.3,25.5-36.1,32.4c-15.2,7-32.6-0.1-49.1-3c-28.1-5-58.3,3.7-79.6,22.7"/>
			<g>
				<path class="st2" d="M232.9,396.3c17.1-21.2,40.5-39.1,69.1-38.1c15.4,0.5,30.2,4.3,45.7,2.7c15.2-1.6,29.8-6.5,44.2-11.3
					c-0.2-0.5-0.4-0.9-0.6-1.4c-11.9,6.5-18.3,18.8-28.4,27.4c-15.6,13.1-35,6.1-52.8,2.5c-29.8-6.1-61,2.2-83.8,22.3
					c-0.7,0.6,0.3,1.7,1.1,1.1c12.6-11.1,28.1-18.8,44.6-22.1c17.2-3.4,33-0.9,49.8,2.9c14.1,3.1,28.9,4.9,41-4.7
					c10.7-8.4,17-21.5,29.3-28.1c0.7-0.4,0.2-1.6-0.6-1.4c-16,5.4-32.4,10.9-49.5,11.7c-15.9,0.7-31.6-4.1-47.5-3.1
					c-25.8,1.7-47.1,19.1-62.7,38.4C231.3,396,232.3,397.1,232.9,396.3L232.9,396.3z"/>
			</g>
		</g>
		<g class="st6">
			<path class="st2" d="M400.1,307.3c-2.9-9.4-11-16.5-13.6-26c-1.9-6.9-0.6-14.4,2.6-20.8c3.2-6.4,8.1-11.8,13.5-16.4
				c1-0.9,3.1-1.5,3.4-0.1c-6.1,6.6-8.7,16.3-6.7,25.1c0.8,3.3,2.1,6.4,3,9.7c3,10.9,0.8,22.6-1.5,33.7"/>
			<g>
				<path class="st2" d="M400.8,307.1c-3.7-10.7-13.5-18.9-14.3-30.6c-0.5-7,1.9-14,5.8-19.8c1.8-2.7,3.9-5.2,6.1-7.5
					c1-1.1,2.3-2.6,3.6-3.4c0.9-0.4,1.7-0.8,2.6-1.2c-0.3,0.4-0.7,0.8-1,1.3c-0.8,1.8-2.3,3.5-3.1,5.3c-1,2.3-1.8,4.8-2.2,7.3
					c-0.7,4.5-0.3,8.9,1,13.3c1.9,6.5,3.8,12.4,3.8,19.3c-0.1,7.1-1.5,14.2-2.9,21.2c-0.2,0.9,1.3,1.3,1.4,0.4
					c2.2-10.9,4.4-22.2,1.7-33.2c-1.4-5.8-4-10.9-3.8-17c0.2-6.7,2.8-12.9,7.2-17.8c0.2-0.2,0.3-0.6,0.1-0.9
					c-2.7-3.6-7.7,2.7-9.4,4.5c-5,5.2-9.3,11.3-11.2,18.4c-1.8,6.6-1.4,13.3,1.4,19.5c3.4,7.5,9.2,13.6,11.9,21.5
					C399.7,308.4,401.1,308,400.8,307.1L400.8,307.1z"/>
			</g>
		</g>
	</g>
</g>
<g id="_x3C_1-front-leg_x3E_">
	<path class="st0" d="M231.4,371c11.5-76.5-15-110-51.1-109.2c-36,0.8-82.8,41.1-77,92.2c6.4,55.7-76.3,76.3-80.6,48.7
		c-2.2-14.2,10.7-16.2,10.4-17.5c-19.4-0.3-25-15-10.1-27.2c-16.7-4-24.2-20.9-8-30.9c16.6-10.1,29.7-0.6,36.2-15.8
		c12.4-28.9-10.4-73.2,23.2-93c33.2-19.5,77.7-1.9,119.9-23.2s63.4-57.6,87.6-34.6c25.1,24,0.7,72.2,75.2,105"/>
	<path class="st0" d="M32.9,385.2c10.1-0.1,12.1-0.9,19.3-8.3c7.2-7.3,15.7,2.5,22.7-9.3"/>
	<path class="st0" d="M23.2,357.9c14.8,0.9,11-12.2,21.2-15.3c9.1-2.7,18.5-0.8,20.8-10.1"/>
	<g>
		<defs>
			<path id="SVGID_7_" d="M231.4,371c11.5-76.5-15-110-51.1-109.2c-36,0.8-82.8,41.1-77,92.2c6.4,55.7-76.3,76.3-80.6,48.7
				c-2.2-14.2,10.7-16.2,10.4-17.5c-19.4-0.3-25-15-10.1-27.2c-16.7-4-24.2-20.9-8-30.9c16.6-10.1,29.7-0.6,36.2-15.8
				c12.4-28.9-10.4-73.2,23.2-93c33.2-19.5,77.7-1.9,119.9-23.2s63.4-57.6,87.6-34.6c25.1,24,0.7,72.2,75.2,105"/>
		</defs>
		<clipPath id="SVGID_8_">
			<use xlink:href="#SVGID_7_"  style="overflow:visible;"/>
		</clipPath>
		<g class="st7">
			<path class="st2" d="M120,358c-10.1-5.3-21-11.7-24.6-22.5c-2.5-7.4-0.9-15.6-2.5-23.3c-2.8-13.8-15.1-24.6-16.2-38.7
				c2.9,7.6,9,13.9,16.5,17c4.6,1.9,9.7,2.6,14.1,4.9c10.2,5.3,14.6,17.2,18.2,28.1"/>
			<g>
				<path class="st2" d="M120.5,357c-7-3.7-14.4-7.7-19.5-13.9c-6.7-8.1-5.5-17.6-6.4-27.4C93,300.1,79.5,289,77.9,273.5
					c-0.7,0.1-1.5,0.2-2.2,0.3c4.4,10.8,12.7,16.6,23.6,19.8c7.3,2.2,12.9,5.3,17.2,11.8c3.7,5.6,5.9,12,8,18.4
					c0.5,1.4,2.6,0.8,2.2-0.6c-3.3-10-7.2-21.2-16.3-27.3c-5.4-3.7-12-4.2-17.8-6.9c-6.7-3.2-11.9-8.9-14.6-15.7
					c-0.4-1.1-2.4-1.1-2.2,0.3c0.8,7.9,4.5,14.5,8.3,21.3c2.3,3.9,4.6,7.9,6.2,12.1c2,5.2,2.3,10.6,2.5,16.1
					c0.3,8.1,1.4,15.3,6.7,21.7c5.3,6.3,12.8,10.5,20,14.3C120.7,359.7,121.8,357.7,120.5,357L120.5,357z"/>
			</g>
		</g>
		<g class="st7">
			<path class="st2" d="M137,288.6c-9.9-18.7-11.7-42.4-1.6-61c2.8-5.2,6.8-10.2,12.4-12c-10,7.8-13.3,22.9-7.6,34.1
				c3,5.9,8,10.7,10.1,16.9c2.2,6.3,1,13.3-0.6,19.8"/>
			<g>
				<path class="st2" d="M138,288c-5.9-11.5-8.9-24.3-8-37.3c0.9-12.1,5.7-29.3,18.2-34.1c-0.4-0.6-0.7-1.3-1.1-1.9
					c-8.4,6.9-12.3,18.2-10.1,28.9c1.2,6,4.8,10.6,8.1,15.5c5.9,8.6,6,16.9,3.6,26.9c-0.3,1.4,1.8,2,2.2,0.6
					c1.5-6.4,2.8-13.1,0.9-19.6c-1.7-5.8-5.9-10.3-9-15.4c-7.1-11.6-4.5-26.8,6-35.4c0.8-0.7-0.1-2.3-1.1-1.9
					c-12.5,4.8-17.9,20.5-19.5,32.8c-1.8,14.5,1.3,29.1,8,41.9C136.7,290.4,138.6,289.3,138,288L138,288z"/>
			</g>
		</g>
		<g class="st7">
			<path class="st2" d="M166,269.6c0.3-9.3,1.7-19.2,7.8-26.2c5.3-6.1,13.3-9.1,19.6-14.2c8.8-7.1,13.7-17.8,21.1-26.2
				c8-9.1,19-15.5,30.9-17.9c-10.8,7.4-18.1,19.6-19.6,32.7c-0.4,3.4-0.4,6.9-1.5,10.2c-2.1,6.3-7.9,10.5-12.9,15
				c-12.1,10.8-21.1,25.2-25.4,40.9"/>
			<g>
				<path class="st2" d="M167.1,269.6c0.4-10.5,2.2-21.4,10.7-28.6c7.4-6.2,16.2-9.6,22.5-17.2c6.2-7.4,10.7-16.1,17.7-22.9
					c7.6-7.5,17.3-12.4,27.7-14.7c-0.3-0.7-0.6-1.4-0.9-2.1c-7.2,5.2-12.9,12-16.5,20.1c-4.4,9.9-2.1,22.3-9.7,30.5
					c-6.6,7.2-14.3,12.8-20.2,20.8c-6.2,8.5-10.6,17.9-13.5,28c-0.4,1.4,1.8,2,2.2,0.6c2.8-9.9,7.2-19.1,13.3-27.4
					c6-8.3,14.4-13.8,20.9-21.5c6-7.1,4.6-15.4,6.9-23.9c2.8-10.3,9.2-19.2,17.8-25.3c1-0.7,0.4-2.3-0.9-2.1
					c-10,2.2-19.3,6.8-27,13.7c-8.2,7.4-13.1,17.5-20.4,25.7c-7.1,8-17.8,11.2-24.7,19.2c-6.5,7.4-7.8,17.6-8.1,27
					C164.8,271.1,167.1,271.1,167.1,269.6L167.1,269.6z"/>
			</g>
		</g>
		<g class="st7">
			<path class="st2" d="M321.7,184.1c-2.6,7.9-9.5,13.6-16.7,17.6c-7.2,4.1-15.1,7-21.9,11.6c-14.4,9.9-22.9,27.9-21.3,45.4
				c0.8-5.8,4.9-10.5,8.8-14.9c3.5-3.9,7.1-7.9,11.9-10c3-1.3,6.2-1.8,9.3-2.5c12.1-2.7,23.4-8.8,32.3-17.5"/>
			<g>
				<path class="st2" d="M320.6,183.8c-6.8,18.6-30.4,20.8-43.6,33c-11.5,10.6-17.5,26.4-16.3,42c0.1,1.2,2,1.6,2.2,0.3
					c1.4-7.2,6.7-12.8,11.7-17.9c5.7-5.8,11.6-7.2,19.1-9.1c11.8-2.9,22.5-9,31.3-17.4c1.1-1-0.5-2.6-1.6-1.6
					c-5.4,5.2-11.5,9.4-18.3,12.6c-6.9,3.2-14.2,3.9-21.3,6.5c-5.8,2-9.9,6.4-13.9,10.9c-4.1,4.6-7.9,9.2-9.1,15.4
					c0.7,0.1,1.5,0.2,2.2,0.3c-1.4-18.2,7.3-36.2,22.9-45.8c13.3-8.2,31-12.3,36.9-28.5C323.3,183,321.1,182.4,320.6,183.8
					L320.6,183.8z"/>
			</g>
		</g>
	</g>
</g>
<g id="_x3C_2-back-leg_x3E_">
	<path class="st0" d="M635.3,552.5c88.6,129.2,199.8,35.2,182.5,94.8c-11.8,40.7-70.3,35-68.7,69c3.1,63.7,83.9,57.2,120.2,55.1
		c38.5-2.2,42.2,53.5,67.8,77.6c12.9,12.1,26-4.3,17.2-14.3c8.4,15.1,25.9,7.7,16.8-11.1c32.7,15.9,17.8-40.8-39.7-73.4
		c-21.4-12.1-61.7-15.7-49.4-42.1c12.2-26.4,52.8,0.1,54.5-86.7c1.6-86.9-63.8-170.6-111.5-195.5C777.3,401,635.3,552.5,635.3,552.5
		z"/>
	<path class="st8" d="M971.1,823.6c-4.2-8.6-4.4-13.4-14.6-17.5c-7.5-3-4-15.5-10.8-15.3"/>
	<path class="st8" d="M954.3,834.7c-5.8-11.9-11.9-7.8-12.9-17.6c-1-9.8-5.4-14.8-9.1-13.6"/>
	<g>
		<defs>
			<path id="SVGID_9_" d="M635.3,552.5c88.6,129.2,199.8,35.2,182.5,94.8c-11.8,40.7-70.3,35-68.7,69c3.1,63.7,83.9,57.2,120.2,55.1
				c38.5-2.2,42.2,53.5,67.8,77.6c12.9,12.1,26-4.3,17.2-14.3c8.4,15.1,25.9,7.7,16.8-11.1c32.7,15.9,17.8-40.8-39.7-73.4
				c-21.4-12.1-61.7-15.7-49.4-42.1c12.2-26.4,52.8,0.1,54.5-86.7c1.6-86.9-63.8-170.6-111.5-195.5
				C777.3,401,635.3,552.5,635.3,552.5z"/>
		</defs>
		<clipPath id="SVGID_10_">
			<use xlink:href="#SVGID_9_"  style="overflow:visible;"/>
		</clipPath>
		<g class="st9">
			<path class="st2" d="M882,469.3c-8.8,6.8-15.1,16.7-17.6,27.6c-4.8,20.6,3.8,43.4-4.8,62.7c-5.9,13.3-18.7,22-30.9,29.9
				c11.2-1.6,22.6-3.7,32.9-8.3c10.4-4.6,19.8-12.1,24.8-22.4c8.1-16.8,3.1-38.5,14.1-53.6c5.1-7,12.9-11.4,20.9-14.6"/>
			<g>
				<path class="st2" d="M881.4,468.8c-8,6.4-14,15-17,24.8c-3.5,11.4-2.4,23.4-1.8,35.1c0.5,12.7,0.2,25.6-7.1,36.6
					c-6.7,10.1-17.2,17-27.2,23.6c-0.7,0.5-0.2,1.5,0.6,1.4c22.8-3.4,50.1-10,59.4-33.9c4.3-11,3.9-23,6.3-34.4
					c1.4-6.8,3.8-13.3,8.4-18.5c5-5.6,11.7-9.1,18.5-11.9c0.9-0.4,0.5-1.8-0.4-1.4c-10.3,4.2-19.9,10.3-24.6,20.7
					c-4.8,10.5-4.6,22.3-6.5,33.5c-2.3,13.5-8.8,24.4-20.5,32c-12.2,7.9-26.8,10.5-41,12.6c0.2,0.5,0.4,0.9,0.6,1.4
					c9.1-6,18.5-12.2,25.4-20.9c6.6-8.3,9.3-18.1,9.8-28.6c0.5-12.4-1.6-24.8-0.2-37.1c1.5-13.4,8.1-25.3,18.5-33.8
					C883.2,469.2,882.2,468.2,881.4,468.8L881.4,468.8z"/>
			</g>
		</g>
		<g class="st9">
			<path class="st2" d="M942.2,598.4c-12.3-1.3-23.7,6-35.4,10.2c-13.3,4.9-28,5.9-41.9,3c5.6,4.9,14.4,3.2,21.1,6.4
				c7.5,3.6,10.9,12.8,18.3,16.8c4.1,2.2,8.9,2.5,13.6,2.6c11.2,0.2,22.3-0.6,33.4-2.3"/>
			<g>
				<path class="st2" d="M942.2,597.6c-12.6-0.9-23.4,5.7-34.8,9.9c-13.6,5.1-28.1,6.1-42.3,3.3c-0.7-0.1-1.4,0.7-0.7,1.3
					c5.6,4.4,12.4,3.6,18.9,5.6c8.1,2.6,11.5,10.7,17.7,15.7c5.9,4.8,13.6,4.8,20.9,4.8c9.9,0,19.8-0.9,29.6-2.4
					c1-0.1,0.5-1.6-0.4-1.4c-9.7,1.5-19.4,2.3-29.2,2.3c-9.4,0-17.2-0.8-23.8-8.2c-3.9-4.4-7.3-9.4-12.9-11.6
					c-6.5-2.6-14-1.3-19.7-5.7c-0.2,0.4-0.5,0.8-0.7,1.3c12.7,2.5,25.7,2.1,38.1-1.6c13.2-3.9,25.2-12.6,39.4-11.6
					C943.2,599.2,943.2,597.7,942.2,597.6L942.2,597.6z"/>
			</g>
		</g>
		<g class="st9">
			<path class="st2" d="M803.1,647.5c5.6-4.5,11.3-9,18-11.6s14.6-2.9,20.7,0.9c4.5,2.8,7.4,7.4,11.2,11.1c9.3,9,24.2,11.7,36,6.5
				c-9,6.6-18.5,12.6-28.2,17.9c-5.1,2.8-11.1,5.4-16.4,3.2c-3.3-1.4-5.7-4.4-8.5-6.7c-10.1-8-24.6-5-37-1.7
				c-8.6,2.3-17.2,4.6-25.8,6.9"/>
			<g>
				<path class="st2" d="M803.7,648c7.7-6.2,16.2-12.9,26.5-13.3c10.8-0.4,15.4,7,22.3,13.7c9.7,9.3,24.4,11.7,36.8,6.7
					c-0.2-0.5-0.4-0.9-0.6-1.4c-9,6.5-18.4,12.6-28.2,17.9c-7.1,3.8-13.9,5.6-20.5-0.2c-3-2.7-5.8-5.1-9.7-6.6
					c-7.9-3-16.7-1.9-24.7-0.1c-11,2.4-21.8,5.7-32.6,8.6c-0.9,0.2-0.5,1.7,0.4,1.4c10.8-2.9,21.7-6.2,32.6-8.6
					c11.8-2.6,23-2.7,32.3,5.8c6.8,6.2,13.3,5.9,21.3,1.8c10.4-5.3,20.3-11.9,29.8-18.7c0.6-0.5,0.3-1.7-0.6-1.4
					c-8.4,3.4-17.7,3.4-26-0.2c-8.4-3.6-12.3-11.2-19.3-16.4c-13.8-10.1-30,1.1-40.9,9.9C801.9,647.6,802.9,648.6,803.7,648
					L803.7,648z"/>
			</g>
		</g>
		<g class="st9">
			<path class="st2" d="M900.2,713.8c-9.9-9.7-24.8-14-38.4-11.1c-6.8,1.4-13.2,4.5-20.1,5.2c-8.3,0.8-16.5-2-24.4-4.7
				c6.1,3.4,11.7,7.5,16.7,12.4c3.4,3.2,6.6,6.9,10.9,8.7c4.5,1.9,9.5,1.6,14.4,1.2c12.9-1.1,25.8-2.4,38.7-4"/>
			<g>
				<path class="st2" d="M900.8,713.3c-9.4-8.8-22.2-13.4-35.1-12c-7.1,0.8-13.7,3.9-20.7,5.3c-9.4,1.8-18.6-1.1-27.4-4.2
					c-0.8-0.3-1.3,1-0.6,1.4c7,4,13.1,8.9,18.8,14.5c4,3.9,8.1,7.2,13.8,7.9c7.5,1,15.7-0.5,23.3-1.3c8.4-0.8,16.8-1.8,25.1-2.8
					c0.9-0.1,1-1.6,0-1.5c-7.7,1-15.4,1.8-23.2,2.6c-7.2,0.7-14.7,1.9-22,1.7c-8.8-0.2-13.5-5.6-19.5-11.1
					c-4.8-4.4-10-8.1-15.6-11.3c-0.2,0.5-0.4,0.9-0.6,1.4c6.8,2.3,13.8,4.7,21,4.8c6.9,0.1,13.1-2.4,19.6-4.2
					c14.9-4.3,30.5-0.7,41.8,9.9C900.4,715,901.5,713.9,900.8,713.3L900.8,713.3z"/>
			</g>
		</g>
		<g class="st9">
			<path class="st2" d="M753,755c6-10.8,15.8-19.5,27.3-24.2c5.2-2.1,10.6-3.4,16.1-4.6c5.6-1.2,11.2-2.4,16.8-3.4
				c-6.4,3.3-12.6,6.9-18.6,10.8c-3.8,2.5-7.6,5.2-9.7,9.3c-1.5,3-2,6.3-2.9,9.6c-2.6,9.6-9.3,17.9-18.1,22.6"/>
			<g>
				<path class="st2" d="M753.7,755.4c5.5-9.6,13.6-17.4,23.5-22.3c11.1-5.5,24.2-7.3,36.2-9.6c-0.2-0.5-0.4-0.9-0.6-1.4
					c-6.4,3.3-12.6,6.8-18.6,10.8c-4.1,2.7-8.2,5.7-10.3,10.3c-2.6,5.5-2.9,11.6-5.9,17c-3.4,6-8.4,10.7-14.4,14.1
					c-0.8,0.5-0.1,1.8,0.8,1.3c9.2-5.1,15.9-13.6,18.6-23.8c0.9-3.4,1.4-6.9,3.4-9.9c2.1-3.3,5.5-5.6,8.7-7.7
					c6-4,12.2-7.5,18.6-10.8c0.8-0.4,0.2-1.5-0.6-1.4c-12.7,2.4-26.4,4.3-38,10.4c-9.6,5.1-17.3,12.8-22.7,22.2
					C751.9,755.5,753.2,756.2,753.7,755.4L753.7,755.4z"/>
			</g>
		</g>
		<g class="st9">
			<path class="st2" d="M839,794.1c-4.4-4.9-4.9-12.4-2.7-18.5c2.3-6.2,6.9-11.2,11.8-15.5c8.4-7.3,18.9-13.4,29.9-12.6
				c-6,3.2-12.2,6.6-15.7,12.3c-6.7,11-1.4,27-9.9,36.7"/>
			<g>
				<path class="st2" d="M839.5,793.6c-8.6-10.5-1-23.5,7.3-31.3c8.5-8,19.2-14.5,31.2-14c-0.1-0.5-0.3-0.9-0.4-1.4
					c-8.4,4.4-16.1,9.4-18.7,19.1c-2.6,10-0.2,21.5-7.1,30.1c-0.6,0.7,0.5,1.8,1.1,1.1c5.3-6.5,5.4-14.7,6.2-22.6
					c0.5-5.4,1.4-10.9,4.6-15.4c3.6-5.1,9.2-8,14.6-10.9c0.7-0.4,0.3-1.4-0.4-1.4c-13.9-0.6-26.8,7.9-35.8,18
					c-7.4,8.2-11.5,20.5-3.8,29.9C839.1,795.4,840.2,794.3,839.5,793.6L839.5,793.6z"/>
			</g>
		</g>
		<g class="st9">
			<path class="st2" d="M914.7,744.1c-6.8,8.5-10.7,19.2-11.1,30.1c10.8-11.2,23.4-21.8,38.6-25.3"/>
			<g>
				<path class="st2" d="M914.1,743.7c-6.8,8.9-10.6,19.3-11.2,30.5c0,0.7,0.8,1,1.3,0.5c10.8-11.1,22.9-21.3,38.3-25.1
					c0.9-0.2,0.5-1.7-0.4-1.4c-15.6,3.8-28,14.2-38.9,25.5c0.4,0.2,0.9,0.4,1.3,0.5c0.6-10.9,4.4-21,11-29.7
					C916,743.7,914.7,743,914.1,743.7L914.1,743.7z"/>
			</g>
		</g>
	</g>
</g>
<g id="_x3C_2-front-leg_x3E_">
	<path class="st0" d="M538,436.3c74.7,44.8,60.9-160.5,211.2-127.4c91,20,139.1,93.8,171.3,38.8c32.1-55-7.6-96.2-50.7-129.2
		s-24-66.2-10.2-62.2c9,2.6,8.4,7.1,11.5,14.7c-5.3-22,16.5-21.5,20.6-7.2c-5.2-12.7,20.9-21.4,19.8-1.4c-1,18.8-7,43.8,17.3,59
		c21.3,13.3,45.9,18.6,51.7,43.9s-23.3,52.7-10,85.7c18.6,46.2,5.3,92-17.5,101.5c-30.8,12.7-91.9-39.9-120.8-18.4
		c-60.6,45.2-19.4,130-79.8,153.5c-47.1,18.3-84.1-8.9-123.8-43.8c-30.9-45.7-53-74.2-67.5-87.2C546.8,443.4,538,436.3,538,436.3z"
		/>
	<path class="st8" d="M882.1,205.7c-6.5-4.7-7.3-9.5-6.8-19.2s-2.2-10-4.2-15.6"/>
	<path class="st8" d="M895.1,201c-4.7-4.1-7.1-12.2-3.2-19.7c3.8-7.5,0.3-12.1-0.1-17.6"/>
	<g>
		<defs>
			<path id="SVGID_11_" d="M538,436.3c74.7,44.8,60.9-160.5,211.2-127.4c91,20,139.1,93.8,171.3,38.8c32.1-55-7.6-96.2-50.7-129.2
				s-24-66.2-10.2-62.2c9,2.6,8.4,7.1,11.5,14.7c-5.3-22,16.5-21.5,20.6-7.2c-5.2-12.7,20.9-21.4,19.8-1.4c-1,18.8-7,43.8,17.3,59
				c21.3,13.3,45.9,18.6,51.7,43.9s-23.3,52.7-10,85.7c18.6,46.2,5.3,92-17.5,101.5c-30.8,12.7-91.9-39.9-120.8-18.4
				c-60.6,45.2-19.4,130-79.8,153.5c-47.1,18.3-84.1-8.9-123.8-43.8c-30.9-45.7-53-74.2-67.5-87.2C546.8,443.4,538,436.3,538,436.3z
				"/>
		</defs>
		<clipPath id="SVGID_12_">
			<use xlink:href="#SVGID_11_"  style="overflow:visible;"/>
		</clipPath>
		<g class="st10">
			<path class="st2" d="M683.9,583.8c-4.2-10.2,0.2-21.9,6-31.2c5.8-9.4,13.3-18.2,15.7-28.9c3.7-16.4-5.2-33.4-3-50.1
				c1.1-8.5,5.3-16.6,11.5-22.5c-1.3,13.8-1.8,29,6.4,40.2c4.1,5.6,9.9,9.5,15.4,13.7c5.4,4.2,10.6,8.7,15.5,13.6
				c2.5,2.5,5,5.2,6.1,8.6c1.1,3.6,0.5,7.5-0.4,11.1c-3.8,14.5-12.4,27.2-18.3,41.1s-8.6,30.5-0.6,43.3"/>
			<g>
				<path class="st2" d="M684.6,583.6c-8.9-23.8,19.5-41.1,22.3-63.3c1.5-11.4-2.2-22.6-3.5-33.8c-1.5-13.2,1.6-25.5,11.2-35
					c-0.4-0.2-0.9-0.4-1.3-0.5c-1.3,14.2-2,30.3,7.6,42c5.2,6.4,12.5,10.8,18.8,16c6.7,5.6,17.7,13.3,17.6,22.9
					c-0.1,9.2-5.3,18.9-9.3,26.8c-3.6,7.3-7.6,14.4-10.6,21.9c-5.4,13.5-7.6,29.3,0.1,42.4c0.5,0.8,1.8,0.1,1.3-0.8
					c-9.4-16-3.3-34.9,4.3-50.4c3.6-7.3,7.6-14.4,10.7-22c2.7-6.3,6.1-14.2,4.8-21.2c-1.1-6.2-6.4-10.5-10.7-14.6
					c-6.4-6-13.6-10.9-20.3-16.6c-14.1-12.1-14.3-29.4-12.7-46.5c0.1-0.7-0.8-1-1.3-0.5c-7.6,7.5-12,17.5-12.1,28.2
					c-0.2,13.1,5,25.8,4.2,39c-1.5,23.6-31.8,41.3-22.5,66.3C683.5,584.9,684.9,584.5,684.6,583.6L684.6,583.6z"/>
			</g>
		</g>
		<g class="st10">
			<path class="st2" d="M792.9,525.9c-7.1-6.5-14.1-13.8-17.2-23c-4.4-12.8-0.5-27.2-3.8-40.3c-2.9-11.5-11.1-20.9-20.1-28.6
				c-10-8.6-21.5-15.5-33.7-20.5c4.6-1.1,9.3,0.6,13.7,2.4c18,7.1,37.1,15.2,47.9,31.2c6.6,9.9,9.4,21.9,15,32.4s16.1,20.1,28,18.6"
				/>
			<g>
				<path class="st2" d="M793.4,525.4c-10.5-9.6-18.2-19.8-19.1-34.5c-0.7-11.7,0.9-23.6-3.9-34.7c-9-20.7-32.1-35.1-52.1-43.4
					c0,0.5,0,1,0,1.4c7.4-1.2,15.1,3,21.7,5.8c5.4,2.3,10.8,4.7,16,7.6c11.1,6.2,20.5,14.3,26.4,25.7c8.7,16.9,15.1,47.6,40.2,45.5
					c1-0.1,1-1.6,0-1.5c-14.3,1.2-24.2-11.1-29.6-22.9c-5.1-11.2-8.4-23.2-16.6-32.8c-7.3-8.6-17.2-14.5-27.3-19.3
					c-4.7-2.2-9.6-4.2-14.4-6.2c-5.5-2.2-10.9-4.5-16.9-3.5c-0.8,0.1-0.6,1.2,0,1.4c12.1,5,23.4,11.8,33.3,20.3
					c9.3,7.9,17.7,17.8,20.3,30c2.5,11.9-0.4,24.2,2.7,36.1c2.7,10.6,10.3,18.6,18.1,25.8C793.1,527.1,794.1,526.1,793.4,525.4
					L793.4,525.4z"/>
			</g>
		</g>
		<g class="st10">
			<path class="st2" d="M593.1,413.8c7.8,4,15.3,9.4,19.6,17c8.3,14.6,3.1,32.8,4,49.5c1.2,22.6,14.9,44.2,34.9,54.8
				c-5-5.5-9.2-11.9-10.8-19.1c-2.3-10.4,1.2-21.3,5.8-30.9c4.6-9.7,10.2-18.9,12.7-29.3c2.2-9.1,1.8-18.9-1.1-27.8
				c-5.4-16.5-18.8-28.9-27.5-43.9c-9.8-16.7-13.7-36.7-11-55.8"/>
			<g>
				<path class="st2" d="M592.7,414.5c13.1,6.9,22.4,16.7,23.8,31.9c1.2,12.8-1.8,25.6-0.2,38.4c2.7,21.4,16,40.6,34.9,50.9
					c0.8,0.4,1.5-0.5,0.9-1.2c-5.2-5.9-9.6-12.6-10.9-20.5c-1.3-8.2,0.8-16.4,3.9-24c5.4-13.2,14-25.2,15.9-39.6
					c1.8-13.7-2.4-26.7-9.7-38.2c-7.4-11.5-16.8-21.7-22.9-34c-7.7-15.5-10.3-33-8.1-50.2c0.1-1-1.4-0.9-1.5,0
					c-1.9,14.5-0.3,29.2,4.8,42.9c5,13.2,13.6,23.9,21.8,35.3c9.7,13.5,16.7,28.6,13.8,45.6c-2.6,15.4-12.7,28.1-17.5,42.8
					c-5,15.4-1.4,28.9,9.2,40.8c0.3-0.4,0.6-0.8,0.9-1.2c-22.6-12.3-35.4-36.2-34.6-61.7c0.4-12.2,2.6-25.1-1.6-36.9
					c-3.8-10.7-12.7-17.6-22.4-22.7C592.6,412.7,591.9,414,592.7,414.5L592.7,414.5z"/>
			</g>
		</g>
		<g class="st10">
			<path class="st2" d="M661.2,323c-5.4,15.8-10.9,33.1-5.6,48.9c5.5,16.6,21.7,27.8,27.7,44.2c-10.3-28.5-5.8-61.9,11.8-86.5
				c4.8-6.8,10.5-12.9,14.5-20.2c4-7.3,6.1-16.2,2.9-23.9"/>
			<g>
				<path class="st2" d="M660.5,322.8c-5.7,16.5-11.6,35.2-4.5,52.2c6.4,15.3,20.6,25.8,26.6,41.4c0.3,0.9,1.8,0.5,1.4-0.4
					c-8.1-23-7-48.6,3-70.8c4.9-11,12.6-19.6,19.4-29.4c6.2-8.9,10.6-19.7,6.8-30.5c-0.3-0.9-1.8-0.5-1.4,0.4
					c5.3,14.7-5.1,27.5-13.5,38.4c-6.6,8.5-12,17.7-15.6,27.9c-7.4,20.7-7.4,43.7-0.1,64.4c0.5-0.1,1-0.3,1.4-0.4
					c-5.4-14.1-17.3-23.9-24.4-37c-9.9-17.9-3.8-37.8,2.4-55.8C662.3,322.3,660.8,321.9,660.5,322.8L660.5,322.8z"/>
			</g>
		</g>
		<g class="st10">
			<path class="st2" d="M779.3,306.9c-10.9,13.3-22.5,28.4-21.4,45.6c0.6,9.7,5.3,18.7,7.8,28.1c2.2,8.2,2.6,16.8,1.4,25.2
				c4.9-6.6,9.8-13.2,14.7-19.9c2.4-3.2,4.8-6.5,5.7-10.3c0.9-3.7,0.3-7.5-0.1-11.2c-1.1-11.2-0.3-22.8,3.8-33.3
				c4.1-10.5,11.6-19.9,21.7-24.9"/>
			<g>
				<path class="st2" d="M778.8,306.4c-10.1,12.3-21.2,26.3-21.7,42.9c-0.2,8.7,3.1,16.8,5.8,24.9c3.5,10.3,4.8,20.7,3.4,31.6
					c-0.1,0.8,1,0.9,1.4,0.4c5.9-7.9,12.5-15.7,17.7-24.1c5-8.1,2.4-16.8,2.3-25.8c-0.2-19.7,7.3-40,25.6-49.6
					c0.9-0.4,0.1-1.7-0.8-1.3c-15.1,7.9-23.6,23.6-25.7,40.2c-0.6,5-0.7,10.1-0.4,15.1c0.4,6,1.8,12-0.7,17.7c-2.2,4.8-5.9,9-9,13.2
					c-3.4,4.6-6.8,9.2-10.2,13.8c0.5,0.1,0.9,0.3,1.4,0.4c1.1-8.5,0.7-17.1-1.4-25.4c-2.3-8.8-6.6-17.1-7.6-26.2
					c-2-18.1,10.3-33.6,21-46.8C780.4,306.7,779.4,305.7,778.8,306.4L778.8,306.4z"/>
			</g>
		</g>
		<g class="st10">
			<path class="st2" d="M853.4,342.1c-9.3,10.4-18.4,21.5-22.8,34.7c-4.4,13.2-3.2,29.2,6.4,39.3c-1.4-13.4,8.1-25.3,17.4-35.2
				c9.3-9.8,19.5-20.7,19.9-34.2"/>
			<g>
				<path class="st2" d="M852.9,341.6c-10,11.3-20.3,23.6-24.1,38.6c-3.1,12.6-1.3,26.5,7.6,36.4c0.4,0.5,1.3,0.1,1.3-0.5
					c-2.2-29.2,35.6-41.1,37.2-69.4c0.1-1-1.4-1-1.5,0c-1.7,28.2-39.5,39.9-37.2,69.4c0.4-0.2,0.9-0.4,1.3-0.5
					c-9.2-10.3-10.4-25.1-6.4-37.8c4.3-13.5,13.6-24.6,22.8-35.1C854.6,341.9,853.5,340.9,852.9,341.6L852.9,341.6z"/>
			</g>
		</g>
		<g class="st10">
			<path class="st2" d="M893.5,365.9c-0.9,12.8-1.4,26.9,6.4,37c6.1,7.9,16.3,11.7,26.2,12.9c-5.9-9.2-9.5-19.8-10.6-30.6
				c-0.9-8.8,0-17.8-1.2-26.6c-1.2-8.8-4.8-17.9-12.4-22.6"/>
			<g>
				<path class="st2" d="M892.8,365.9c-0.8,11.6-1.5,24.6,4.8,34.9c6.1,9.9,17.4,14.2,28.4,15.8c0.6,0.1,1.2-0.5,0.8-1.1
					c-4.2-6.8-7.4-14.1-9.1-21.9c-2-8.7-1.6-17.5-1.9-26.3c-0.4-11.9-2.9-24.6-13.4-31.7c-0.8-0.5-1.6,0.8-0.8,1.3
					c13.7,9.3,12.4,27.3,12.8,41.9c0.4,13.5,3.9,26.2,11.1,37.6c0.3-0.4,0.6-0.7,0.8-1.1c-11.1-1.6-22.6-6-28.3-16.4
					c-5.4-9.9-4.6-21.9-3.9-32.8C894.3,364.9,892.8,364.9,892.8,365.9L892.8,365.9z"/>
			</g>
		</g>
		<g class="st10">
			<path class="st2" d="M972.7,457.2c-7.5-7.6-15.6-16.7-14.9-27.4c0.5-7.1,4.9-13.5,5.6-20.6c0.9-8-2.9-15.7-7.8-22.1
				c-4.8-6.4-10.8-11.9-15.3-18.5c17.1,3.7,32.3,15.5,40,31.3c2.2,4.6,3.9,9.5,7,13.5c4.8,6.3,12.3,9.7,19.5,12.7"/>
			<g>
				<path class="st2" d="M973.3,456.7c-5.9-6-12.3-12.7-14.2-21.1c-2.1-9.5,4.2-17.2,5.2-26.2c1.8-17.1-14.4-28.7-23.2-41.1
					c-0.3,0.4-0.6,0.7-0.8,1.1c15.8,3.6,29.7,13.6,37.8,27.6c3.7,6.4,5.6,13.9,10.9,19.3c4.9,5,11.5,7.9,17.8,10.6
					c0.9,0.4,1.3-1.1,0.4-1.4c-8.8-3.7-17.1-7.9-21.7-16.7c-3.5-6.6-6-13.4-10.7-19.4c-8.5-10.8-20.6-18.3-34-21.4
					c-0.6-0.1-1.3,0.5-0.8,1.1c5.3,7.5,12.3,13.6,17.3,21.3c3,4.6,5.5,9.9,5.8,15.5c0.2,4.8-1.4,9.1-3,13.5
					c-2.6,7.1-3.8,13.7-0.8,20.9c2.9,6.8,8.1,12.3,13.2,17.5C972.9,458.4,973.9,457.4,973.3,456.7L973.3,456.7z"/>
			</g>
		</g>
		<g class="st10">
			<path class="st2" d="M915.9,316.3c7.6,0.4,15.3,1.1,22.1,4.3c5.6,2.6,11.4,7,17.2,5.1c-6,4.6-13.6,6.4-20.9,8.2
				c-3.9,0.9-7.8,1.9-11.7,2.8c-2.7,0.6-6.4,0.7-7.2-1.9"/>
			<g>
				<path class="st2" d="M915.9,317c8.4,0.4,16.4,1.4,24,5.4c5,2.6,9.7,5.4,15.5,4c-0.2-0.5-0.4-0.9-0.6-1.4
					c-5.5,3.9-11.8,5.9-18.4,7.5c-4.1,1-17.9,6.5-20.4,1.9c-0.5-0.9-1.8-0.1-1.3,0.8c2.9,5.4,12.2,1.2,16.4,0.2
					c8.5-2,17.2-3.9,24.4-9.1c0.7-0.5,0.3-1.6-0.6-1.4c-7.5,1.8-14-4.4-20.8-6.7c-5.9-1.9-12.1-2.4-18.3-2.7
					C915,315.5,915,317,915.9,317L915.9,317z"/>
			</g>
		</g>
		<g class="st10">
			<path class="st2" d="M1004.2,265.7c-6.8-4.9-16-6.3-23.9-3.6c-4.7,1.6-8.8,4.5-13.5,6.3c-9.2,3.5-20.2,2-28.2-3.8
				c0.3,1.4,1.6,2.4,2.8,3.3c5.4,4,10.7,8,16.1,12c4.7,3.5,9.4,7,14.9,9c5.5,2,11.9,2.1,16.9-0.9"/>
			<g>
				<path class="st2" d="M1004.5,265.1c-8.4-5.7-18.5-6.5-27.7-2.4c-6.4,2.9-11.9,6.5-19.2,6.8c-6.7,0.3-13.1-1.8-18.7-5.6
					c-0.7-0.5-1.3,0.4-1,1c1.8,4,6.9,6.5,10.4,9.1c5,3.7,10,7.7,15.2,11.1c7.9,5.1,17.4,8.2,26.2,3.5c0.8-0.5,0.1-1.8-0.8-1.3
					c-9.6,5.2-19.5,0.2-27.5-5.5c-3.4-2.4-6.8-5-10.1-7.5c-3.7-2.7-10.1-6-12-10.2c-0.3,0.3-0.7,0.7-1,1c8.4,5.8,19.1,7.5,28.7,3.9
					c5.6-2.1,10.5-5.9,16.5-7.1c7.1-1.5,14.4,0.3,20.3,4.4C1004.6,266.9,1005.3,265.6,1004.5,265.1L1004.5,265.1z"/>
			</g>
		</g>
		<g class="st10">
			<path class="st2" d="M899.2,255.9c10.4-3.4,20.8-6.5,31.4-9.4c1.2-0.3,2.9-0.3,3.1,0.9c-8.8,5.3-16.2,12.7-21.5,21.5"/>
			<g>
				<path class="st2" d="M899.4,256.6c5.8-1.9,11.6-3.7,17.5-5.5c2.8-0.8,5.5-1.6,8.3-2.4c1.5-0.4,3.1-1.2,4.6-1.3
					c1.8-0.1,2.4-0.5,0.7,1.1c-3.2,3-6.9,5.2-10,8.4c-3.4,3.5-6.4,7.4-9,11.6c-0.5,0.8,0.8,1.6,1.3,0.8c5.4-8.7,12.5-15.8,21.2-21.2
					c0.4-0.2,0.5-0.7,0.3-1c-1.9-3.6-8.8,0-11.3,0.8c-8,2.3-16,4.7-23.9,7.3C898.1,255.5,898.5,256.9,899.4,256.6L899.4,256.6z"/>
			</g>
		</g>
	</g>
</g>
<g id="_x3C_head_x3E_">
	<path class="st0" d="M416.3,457.3c-13.4,10.7-13.1,17.3-11.8,19.2c1.3,1.9,12.3-5.3,14.3-2.6c2,2.7-8.2,13.5-8.6,17.8
		s18.2-9.6,20.9-6.5c2.7,3.1-10.3,13.8-9.4,16s44.6-8.5,44.6-8.5l-0.8-20.6L416.3,457.3z"/>
	<path class="st11" d="M491.2,594.2c13.4-17,59.2-10.7,83.7,27.5c24.5,38.1,51.2,14.7,65.1,23.9c13.9,9.2,13.5,15.4,13.5,20.8
		c-16.9-17.8-18.7-17.5-35.1-9.6c-16.4,7.9-40,4.8-43.6-6.2s-54.2-26.4-54.2-26.4L491.2,594.2z"/>
	<path class="st0" d="M500.6,599.9c16.7-8.5,22-6.7,22.7-5.5c0.6,1.1,1,12.4,1.6,14.6c0.5,2.2,22.9,7.7,27.4,10.9
		c4.5,3.2,7.2-5.7,9.7-5.1c2.5,0.5,4.3,13.7,4.3,13.7l-22.9,3.7L500.6,599.9z"/>
	<path class="st0" d="M542.2,558c-2.6,14.4-1.4,28.4,0.7,29.1c2.1,0.8,19.7-4.6,23-7.8c3.4-3.2-11.5-20.5-11.5-20.5L542.2,558z"/>
	<path class="st0" d="M574.2,634.1c0.6,21.5-22.5,29.6-44.1,28.9s-45.7-7.8-54.9-24.3c-9.1-16.5-6.7-28.1-12.3-32.3
		c-5.6-4.3,23.3,1.6,23.3,1.6l51.9,28.7L574.2,634.1z"/>
	<path class="st0" d="M418.2,448.5c13-29.2,80.2-23.1,149.6,34.3c63.3,52.3,74.2,132.5,54.6,137.9c-43.1,11.9-43.1-53.5-93.7-68.5
		c-21.8-6.5-48.8,6.7-49.3,24.6c-0.3,12,12.3,18.5,32.7,29.2c21.9,11.5,14.1,27,56.3,22.1c12.1-1.4,5.2,16.2-12.4,19.9
		c-34.9,7.2-72.6-41.6-93-41.5c-26.9,0.1-54.4-14.7-59.8-48.3c-7-43,45.4-72.8,69.3-70C440.4,476.4,407.7,472.1,418.2,448.5z"/>
	<path class="st8" d="M479.8,573.5c-0.6-16.8,14.3-44.3,42.7-37.3c28.4,7,58.9,28.8,71.2,78.6c-36.6-34.8-31.2-55.6-66.6-63
		C491.7,544.4,479.8,573.5,479.8,573.5z"/>
	<path class="st11" d="M631.2,600.8c2.9,4.9-19.5,13.9-35.2,12.8c-10-0.7,14.3,13.8,26.4,7C629.1,616.8,631.2,600.8,631.2,600.8z"/>
	<path class="st8" d="M619.1,610c-5.2-21.9-14-100.5-44-112.3c1.6,16.7-19.6,9.9-28.6-11.7c-2.8,20.4-27.1,26.3-42.1-2.8
		c4.7,31.4,18,37.7,44.3,39.8C574.9,525.2,598.7,540.7,619.1,610z"/>
	<path class="st11" d="M534.8,521.2c21.1,7.8,36.3,39.2,45.5,47c9.2,7.8,35.5,31.2,38.8,41.8c-16-42.7-21.6-62.4-36.8-72.5
		C567.1,527.5,571.1,525.6,534.8,521.2z"/>
	<circle class="st0" cx="581.7" cy="548" r="12.6"/>
	<g>
		<defs>
			<path id="SVGID_13_" d="M418.2,448.5c13-29.2,80.2-23.1,149.6,34.3c63.3,52.3,74.2,132.5,54.6,137.9
				c-43.1,11.9-43.1-53.5-93.7-68.5c-21.8-6.5-48.8,6.7-49.3,24.6c-0.3,12,12.3,18.5,32.7,29.2c21.9,11.5,14.1,27,56.3,22.1
				c12.1-1.4,5.2,16.2-12.4,19.9c-34.9,7.2-72.6-41.6-93-41.5c-26.9,0.1-54.4-14.7-59.8-48.3c-7-43,45.4-72.8,69.3-70
				C440.4,476.4,407.7,472.1,418.2,448.5z"/>
		</defs>
		<clipPath id="SVGID_14_">
			<use xlink:href="#SVGID_13_"  style="overflow:visible;"/>
		</clipPath>
		<path class="st12" d="M510.6,519.6c0.5,3.5-39.6,8-40.7,29.6c-1.1,21.6,5.8,36.5,3.2,37.4c-2.6,0.9-34-25.9-16.7-47.1
			C473.8,518.4,510.6,519.6,510.6,519.6z"/>
		<path class="st12" d="M400.6,522.1c22-12.9,70.5-15.8,72-12.5s-90.4,28.6-79.4,52.8C404.2,586.6,400.6,522.1,400.6,522.1z"/>
		<path class="st12" d="M455.3,611.8c-25.1-13.6-15.4-54.6-17.4-58.5c-1.9-3.9-24.9,20.9-18.8,48.4
			C425.2,629.2,455.3,611.8,455.3,611.8z"/>
		<path class="st12" d="M481,450.6c-7.3-4.1-34.1-9.2-38.3-0.4c-4.2,8.7,29.9,19.3,33.7,29S481,450.6,481,450.6z"/>
		<path class="st12" d="M491.1,428.2c18.8,9.9,28.5,56.5,31.9,55.6s13.4-31.6,7.1-40.4C523.9,434.7,491.1,428.2,491.1,428.2z"/>
	</g>
	<circle class="st8" cx="581.7" cy="548" r="3.7"/>
</g>
</svg>
