<svg xmlns="http://www.w3.org/2000/svg" xmlns:xlink="http://www.w3.org/1999/xlink" viewBox="0 0 430.94 282.3"><defs><style>.cls-1,.cls-5{fill:none;}.cls-2{fill:#32bf89;}.cls-11,.cls-12,.cls-2,.cls-5{stroke:#1d7151;stroke-linecap:round;stroke-linejoin:round;}.cls-3{clip-path:url(#clip-path);}.cls-11,.cls-4{fill:#1d7151;}.cls-6{clip-path:url(#clip-path-2);}.cls-7{clip-path:url(#clip-path-3);}.cls-8{clip-path:url(#clip-path-4);}.cls-9{clip-path:url(#clip-path-5);}.cls-10{clip-path:url(#clip-path-6);}.cls-12{fill:#f5f5ef;}</style><clipPath id="clip-path"><path class="cls-1" d="M311.65,166.93c10.21-6.38,28-4,32,13.78s-14,41.33-24.39,47.07c15.76-7.75,22.36-10,33.55-8S368,236.1,375.17,238.4s21.53-2,28.7,0,7.75,10.33,12.06,11.48,6.88-3.73,11.48,0,3.44,7.75,0,9.47c5.16,6-.58,7.47-4,5.46,4.3,9.75-9.76,9.47-12.34,7.17s-3.16-6.31-8-6.31-17.79,6.89-26.69.28S363.69,245.58,354.5,247s-50.05,15.79-60.9,4.88S279,220.93,282.93,206C286.34,193.05,284.59,183.87,311.65,166.93Z"/></clipPath><clipPath id="clip-path-2"><path class="cls-1" d="M147.85,69.06c21.06-12.67,52-.07,57.3,29.82s-9.34,57.08-35,73.42c-23.54,15-70.79,32.81-66.49,46.58s11,2.16,21.67,3.59,7.89,3.88,11.63,6.46,8.18-1.44,11.91,0,5.59,6.74,2.72,7.89c6.32-1.15,5.53,5.6,3,6.46,3.34,0,4.06,6.74-1.25,9.18s-5.89,2.59-10.91,2.73-5-4.46-9.76-4.88c-8.26-.71-22.34,7.53-34.3-1.58-13.75-10.47-6.6-15.93-10.9-22.67s-9.91-6.75-9.62-15.36,15.5-11.76,23.25-24.68,18.56-52.18,20.86-74.86S137.26,75.43,147.85,69.06Z"/></clipPath><clipPath id="clip-path-3"><path class="cls-1" d="M163.64,78.82c-14.64,2.3-8.33-5.17-24.4-11.23S63.18,97.23,35.05,74.23s-4-62.86,52-66c44.09-2.48,102.18,41.33,130.27,49.66S244.8,46.6,258.91,43.8c30.44-6,24.81,31.22-24.27,29.79S127.76,19.12,87.87,21.13,36.2,45.24,45.39,61.6s57.11-7.46,77.78-7.18,44.15,9.78,40.47,24.4"/></clipPath><clipPath id="clip-path-4"><path class="cls-1" d="M319.23,142.63c12.16,8.12-6.78,8.84,1.54,28.07s8.68,49.33-28.17,64.7c-30.41,12.69-99.11-1.3-146.76-36.32S78.11,135.61,87,98.88s54.78-42.49,75.78-25.51c13.49,10.9,7.75,25.4,21.52,39.75,10.94,11.39,62.57,37.19,87.38,13.63C285,114.09,311.21,137.28,319.23,142.63Z"/></clipPath><clipPath id="clip-path-5"><path class="cls-1" d="M255.48,182.72c-18.79-10.05-86.68,27.84-89.83,54s29.27,28.41,44.92,25.54,54.58-9.47,64.24-2.87,7.53,17.51,22.37,21.24,21.93-2.58,27-2,7.68,2.95,10.53,3.2,8.12-1.28,5.83-7.6c5.45-.38,6.79-4.78,4.3-7.56,6.12-3.25,3.83-8.42.29-8.8s-12,3.54-13.11.58-9.09-10.24-15.11-9.86-12.82,3.75-14.36,1-13.58-15.8-31.38-15.8-46.49,2.3-53.76,5.17c39-10.53,45.54-31.19,45.92-37.7S261,185.69,255.48,182.72Z"/></clipPath><clipPath id="clip-path-6"><path class="cls-1" d="M139,69.35c32,6.89,38.75,59.18,2.87,86.13s-84.67,17.19-97.29,27.81S17.32,227.4,32.76,235.82c9.47,5.16,10.33-.29,14.64,0S53.07,240.1,58,240c3.82-.08,4.49-4,8.7-1.9s4.4,8.9,2.11,9.48c7.75.47,5.07,9.47,1.62,9.56,4.69,2.49,2,8.23-2.87,9.47s-9.56-.76-16.36-5.55S34.47,269.88,26.1,269s-30.33-7-23.48-47.36c1.82-10.72,6.6-28.95,5.26-40.6s3.6-21.65,10.34-23.12c2.84-.62,5.83.88,9.75,1.91,3.71,1,27.37,1.92,38.27-19.9S79,56.42,139,69.35Z"/></clipPath></defs><title>Asset 9</title><g id="Layer_2" data-name="Layer 2"><g id="tiger9"><g id="_1paw-back_" data-name="&lt;1paw-back&gt;"><path class="cls-2" d="M311.65,166.93c10.21-6.38,28-4,32,13.78s-14,41.33-24.39,47.07c15.76-7.75,22.36-10,33.55-8S368,236.1,375.17,238.4s21.53-2,28.7,0,7.75,10.33,12.06,11.48,6.88-3.73,11.48,0,3.44,7.75,0,9.47c5.16,6-.58,7.47-4,5.46,4.3,9.75-9.76,9.47-12.34,7.17s-3.16-6.31-8-6.31-17.79,6.89-26.69.28S363.69,245.58,354.5,247s-50.05,15.79-60.9,4.88S279,220.93,282.93,206C286.34,193.05,284.59,183.87,311.65,166.93Z"/><g class="cls-3"><path class="cls-4" d="M350.28,170.53c-1.18,4.47-4.24,8.22-7.7,11.27s-7.39,5.54-11,8.44c-.91.74-1.86,2-1.11,2.93a2.24,2.24,0,0,0,1.77.54,55.48,55.48,0,0,0,17.56-2.89"/><path class="cls-4" d="M352.92,211.63a88.79,88.79,0,0,0-11.81,5.44,25.92,25.92,0,0,0-7.19,5.33c-2.58,2.95-3.9,6.78-4.92,10.57a7.54,7.54,0,0,0-.35,3.22,2.66,2.66,0,0,0,2.08,2.24c1.39.17,2.47-1.11,3.32-2.21a46.83,46.83,0,0,1,24.39-16.36"/><path class="cls-4" d="M286.23,254.14a38.17,38.17,0,0,1,26.33-16.87,25.16,25.16,0,0,0-8.42,12,16.51,16.51,0,0,0,2.07,14.21"/><path class="cls-4" d="M375.27,230.45a24,24,0,0,0-15.52,5.89c-.92.8-1.84,2-1.32,3.11s2,1.14,3.17,1c6.54-.61,13-2,19.6-2"/><path class="cls-4" d="M360.38,262.94c1.29-3.65,4.79-6.05,8.33-7.62a35.7,35.7,0,0,1,14.19-3,23.1,23.1,0,0,0-6.19,10.51,17.52,17.52,0,0,0,1.11,12"/></g><path class="cls-5" d="M400.07,250.17A11.4,11.4,0,0,1,412,252.75c2.87,2.94,2.15,5,4.95,5.24s7.46-1.15,10.48,1.36"/><path class="cls-5" d="M398.71,256.7c2.15-.58,6.45-1.87,8.89-.65s3.88,5.31,6.14,6,5.2-.57,7.35.43,2.3,2.3,2.3,2.3"/></g><g id="_2paw-back_" data-name="&lt;2paw-back&gt;"><path class="cls-2" d="M147.85,69.06c21.06-12.67,52-.07,57.3,29.82s-9.34,57.08-35,73.42c-23.54,15-70.79,32.81-66.49,46.58s11,2.16,21.67,3.59,7.89,3.88,11.63,6.46,8.18-1.44,11.91,0,5.59,6.74,2.72,7.89c6.32-1.15,5.53,5.6,3,6.46,3.34,0,4.06,6.74-1.25,9.18s-5.89,2.59-10.91,2.73-5-4.46-9.76-4.88c-8.26-.71-22.34,7.53-34.3-1.58-13.75-10.47-6.6-15.93-10.9-22.67s-9.91-6.75-9.62-15.36,15.5-11.76,23.25-24.68,18.56-52.18,20.86-74.86S137.26,75.43,147.85,69.06Z"/><g class="cls-6"><path class="cls-4" d="M214.22,80.92A56.7,56.7,0,0,0,174,90.63c-3.26,2.3-6.46,5.27-7.11,9.2a77.23,77.23,0,0,1,54.78,4.71"/><path class="cls-4" d="M212.71,149a77.45,77.45,0,0,1-33.33-6.1c-4-1.72-8-3.81-12.4-4.13,1.69,7.25,7.31,13.09,13.78,16.76s13.82,5.5,21.05,7.27"/><path class="cls-4" d="M181.59,181.15c-5.85-.75-11.77-1.52-17.26-3.69-12.08-4.8-20.48-15.72-28.13-26.24-.46,18.23,11.66,36.11,28.76,42.42"/><path class="cls-4" d="M148.13,197.31a50.48,50.48,0,0,1-29.71-7.91c-2.09-1.35-4.47-2.92-6.86-2.25a42,42,0,0,0,15,24.56"/><path class="cls-4" d="M114.55,216a38.48,38.48,0,0,1-18.85-2.29c-2-.76-3.89-1.69-6-1.75,1.29,4.42,5.48,7.51,9.9,8.77s9.13,1,13.72.73"/><path class="cls-4" d="M88.61,190.54a28.91,28.91,0,0,0,17.58,13.13c-.31-2.55-1.68-4.83-2.71-7.19a27.77,27.77,0,0,1-1.8-16"/><path class="cls-4" d="M118.33,100.34c1,8.71,8.3,15.67,16.5,18.77,3.73,1.41,7.68,2.18,11.32,3.81.95.43,2,1.06,2.13,2.09a3,3,0,0,1-.69,2c-3.1,4.59-8.53,7.11-13.93,8.33a42.45,42.45,0,0,1-22.22-1"/></g><path class="cls-5" d="M151.58,236.82c-3.92,1-6.86,5.36-9.55,3.19s-8.82-10.28-14.36-8.58"/><path class="cls-5" d="M154.56,243.28c-4.32-.77-6.33,3.35-9.1,3.44s-11.29-8.08-13.68-6.71"/></g><g id="_tail_" data-name="&lt;tail&gt;"><path class="cls-2" d="M163.64,78.82c-14.64,2.3-8.33-5.17-24.4-11.23S63.18,97.23,35.05,74.23s-4-62.86,52-66c44.09-2.48,102.18,41.33,130.27,49.66S244.8,46.6,258.91,43.8c30.44-6,24.81,31.22-24.27,29.79S127.76,19.12,87.87,21.13,36.2,45.24,45.39,61.6s57.11-7.46,77.78-7.18,44.15,9.78,40.47,24.4"/><g class="cls-7"><path class="cls-4" d="M247.83,43.9c-9.57,7.27-6.89,11.86,0,11.86s11.29-3.82,12.63,1.92-9.36,8.24-6.4,14.16,18.07,4.4,22.09-1.73,10.22-14.73,8.65-17.79-3.34-8.42-7.14-11.1S247.83,43.9,247.83,43.9Z"/><path class="cls-4" d="M227,49.64c-6.31,6.12-14,3.6-10.52,14.52s13.78,21.45,14.35,21.45-23.15,3.09-27.36-10-.19-29.39,8-29.19A47.83,47.83,0,0,1,227,49.64Z"/><path class="cls-4" d="M181.43,36.44c5.17,5.93,15.12,12.82,9.95,18.94s-13.39,11.06-18,8.78,10.52-7.06,8.22-12.8-13.46-4.18-13.77-10.89S181.43,36.44,181.43,36.44Z"/><path class="cls-4" d="M151.77,18.64c4,5.74,8.23,9,3.45,15.69s-10.91,13.4-15.5,10,1.72-3.25,1-12.82-11.64-9.85-8.79-14.2S151.77,18.64,151.77,18.64Z"/><path class="cls-4" d="M108.15,2.19c-3.64,5.16-16.07,2-7.85,13.43s27.37,12,14.16,14.8S86,24.3,85.76,16.3,87.67.65,91.12.08,108.15,2.19,108.15,2.19Z"/><path class="cls-4" d="M65.67,4.67c-4,3.26-12.82,6.13-8.61,12.25s8.82,1.67,11.78,7.15,6,12.17-3.36,11S60.89,34,50.17,27.83s-15.12,1.91-19.52-5.74S65.67,4.67,65.67,4.67Z"/><path class="cls-4" d="M17.83,61.12c1.73-8,0-11.1,9-14.74s17.79-5.49,22-1.3S54.62,59.38,44,58.63s-20-6-15.81,6.1S17.83,61.12,17.83,61.12Z"/><path class="cls-4" d="M72.75,58.25c-.22.13-.55.31-1,.52C67.41,61,53.34,67.27,56.49,73.56c3.44,6.89,4.4,12.91-1.73,15.06s15.7.26,18-3.77-1.52-8.08-1-13.59,11.86-13,11.86-13l-11.11.13Z"/><path class="cls-4" d="M122.12,49.45c-13.4,1.53-21.43,5.16-21.82,12.24s10.63,13.21,2.06,19.14,20.14,6.89,21.29-1-8-12.24-3.83-18.18,11.86-7.46,12.63-9.75S122.12,49.45,122.12,49.45Z"/></g></g><g id="_body_" data-name="&lt;body&gt;"><path class="cls-2" d="M319.23,142.63c12.16,8.12-6.78,8.84,1.54,28.07s8.68,49.33-28.17,64.7c-30.41,12.69-99.11-1.3-146.76-36.32S78.11,135.61,87,98.88s54.78-42.49,75.78-25.51c13.49,10.9,7.75,25.4,21.52,39.75,10.94,11.39,62.57,37.19,87.38,13.63C285,114.09,311.21,137.28,319.23,142.63Z"/><g class="cls-8"><path class="cls-4" d="M221.42,122.25c-18.75-2.77-10.8,17-17.79,17.2S187,134,178.18,142.63s-1.35,34.76,7.65,34.64c2,0-2.58-18.7,3.69-21.79s17.74,4.24,21.19,0-4.63-15.44,5-17.68,30-1,27.17-9.17S221.42,122.25,221.42,122.25Z"/><path class="cls-4" d="M256.06,132.62c-1.6,1.93-4.23,2.55-6.63,3.25a45.37,45.37,0,0,0-13.93,6.9c-3.45,2.53-6.81,6.24-6.29,10.49.26,2.08,1.44,4.08,1.09,6.15-.43,2.47-2.87,4-5.2,5-7,2.83-15.34,3-21.11,7.91a25.51,25.51,0,0,0-5.69,7.6c-2,3.8-3.59,8.69-1.06,12.17.89-3.74,3.9-6.61,7.06-8.81,8.74-6.07,19.48-8.61,30.07-9.6,3.71-.35,7.53-.56,10.88-2.19,1.14-.56,2.31-1.44,2.43-2.71.23-2.35-3-3.32-4.33-5.25a5,5,0,0,1,0-5.16,11.75,11.75,0,0,1,3.81-3.81c4.06-2.82,8.64-4.82,12.76-7.57s7.89-6.46,9.16-11.24a23.13,23.13,0,0,0,.27-8.34c-.41-3.74-1.19-7.63-3.58-10.53"/><path class="cls-4" d="M342.09,186.8c-.76-2.86-3.51-4.74-6.29-5.75a20.66,20.66,0,0,0-13.25-.26c-3.9,1.26-7.34,3.66-11.15,5.17a26.87,26.87,0,0,1-26.29-4c-2-1.62-3.9-3.61-6.42-4.19a54.41,54.41,0,0,0,7.52,10A21.33,21.33,0,0,0,297,193.9a21.1,21.1,0,0,0,9.69-.69c3-.88,6-2.25,9.12-2.26a18.1,18.1,0,0,1,6.17,1.36,53.88,53.88,0,0,1,7.55,3.51,42.78,42.78,0,0,0,7.11,3.68,9.44,9.44,0,0,0,7.76-.36"/><path class="cls-4" d="M325.54,224a9.6,9.6,0,0,0-1.64-4.42,7.8,7.8,0,0,0-4.59-2.3c-5.19-1.05-10.55-.17-15.82.31s-10.88.5-15.51-2.08a23.2,23.2,0,0,1-7.7-7.72c-1.08-1.61-2.24-3.44-4.13-3.9a21.22,21.22,0,0,0,4.19,11.55c3.56,4.76,9,7.79,14.38,10.23a16,16,0,0,1,5.16,3.07c2,2,2.66,5,4.53,7.15,3.22,3.65,8.9,3.7,13.63,2.58"/><path class="cls-4" d="M202.66,110.06a27.54,27.54,0,0,0-25.13,8.72,15,15,0,0,0-3.48,6.08c-.5,1.94-.44,4.06-1.41,5.81-1.29,2.34-4,3.4-6.11,5.07a12.27,12.27,0,0,0-3.93,13c.23.71.86,1.55,1.54,1.23.41-.19.52-.7.61-1.15,1-4.75,4.71-8.43,8.38-11.61,4.65-4,9.71-7.81,15.61-9.48,2.61-.73,5.34-1,7.91-1.88a3.59,3.59,0,0,0,1.53-.84c1.18-1.27.18-3.27-.21-5a6.82,6.82,0,0,1,5.31-8"/><path class="cls-4" d="M185.57,91.38a34.71,34.71,0,0,0-8.14-6.27c-3.09-1.51-6.84-2-10-.6-3.29,1.54-5.45,5-8.89,6.2-2.84,1-5.94.1-8.77-.87-3.35-1.14-6.65-2.43-10-3.46a27.15,27.15,0,0,0-9-1.45,17,17,0,0,0-15,23.7c.61-1.11,1.11-2.3,1.79-3.38,2.72-4.32,8.12-6.36,13.23-6.4s10.06,1.61,14.91,3.2,9.85,3.16,15,3c7.55-.27,14.41-4.33,20.53-8.75,2.57-1.86,5.42-3.9,8.58-3.6"/><path class="cls-4" d="M123.8,190.47c-.29-4.59,2.37-8.85,5.37-12.34a53,53,0,0,1,19.6-14.22,32.45,32.45,0,0,0-12.61,31.52"/><path class="cls-4" d="M153.47,214.79c-1.45-2.23-.9-5.2,0-7.69a31.39,31.39,0,0,1,14.44-16.62,10.24,10.24,0,0,1,5.78-1.55c-3.29,5.47-6.61,11-8.54,17.08s-2.36,12.86.11,18.74"/></g></g><g id="_1paw-front_" data-name="&lt;1paw-front&gt;"><path class="cls-2" d="M255.48,182.72c-18.79-10.05-86.68,27.84-89.83,54s29.27,28.41,44.92,25.54,54.58-9.47,64.24-2.87,7.53,17.51,22.37,21.24,21.93-2.58,27-2,7.68,2.95,10.53,3.2,8.12-1.28,5.83-7.6c5.45-.38,6.79-4.78,4.3-7.56,6.12-3.25,3.83-8.42.29-8.8s-12,3.54-13.11.58-9.09-10.24-15.11-9.86-12.82,3.75-14.36,1-13.58-15.8-31.38-15.8-46.49,2.3-53.76,5.17c39-10.53,45.54-31.19,45.92-37.7S261,185.69,255.48,182.72Z"/><g class="cls-9"><path class="cls-4" d="M170,213.25c4.87-5.9,12.6-8.74,20.19-9.7s15.28-.31,22.92-.54,15.56-1.45,21.91-5.72a5.63,5.63,0,0,0-2.6,1.64c-4.21,3.94-8.33,8.07-13.21,11.14s-10.72,5.06-16.42,4.21c-3.09-.46-6-1.72-9.12-2-4.23-.41-8.43,1-12.3,2.74a64,64,0,0,0-17.64,11.92"/><path class="cls-4" d="M266.41,213.83a17.09,17.09,0,0,1-8.12,4c-9.69,2.38-19.84,1.22-29.75,0,2.77,5,8.15,8.22,13.76,9.35s11.45.37,17-1"/><path class="cls-4" d="M162.18,253.28a11.45,11.45,0,0,1,1.31-8.37,23.26,23.26,0,0,1,5.74-6.45,49.83,49.83,0,0,1,42.23-10c-7-.9-13.82,2.64-19.79,6.47-5.33,3.42-10.57,7.3-14,12.61s-4.85,12.35-2.11,18.07"/><path class="cls-4" d="M197.7,272.75a4.64,4.64,0,0,1,.36.66c-2.81-4.69-5.93-8.7-5.16-14.62.84-6.53,5.24-12.47,10.57-16,.49,1.07-1.62,3.44-1.91,4.7a12.5,12.5,0,0,0,1.38,8.51,18.07,18.07,0,0,0,6.67,6.91c3,1.76,5.88,2.14,8.94,3.37"/><path class="cls-4" d="M231.41,267.5c-4.62-2.29-6.33-8.43-4.85-13.36s5.44-8.76,9.73-11.6a14.06,14.06,0,0,1,5.82-2.52,7.43,7.43,0,0,1-1.82,2.95,11.77,11.77,0,0,0,5.86,18.46"/><path class="cls-4" d="M273.27,228.2A15.21,15.21,0,0,0,258,247.11c3-4.26,7.8-7.06,12.81-8.58s10.28-1.88,15.51-2.05"/><path class="cls-4" d="M264.42,270.05c2.11-7.29,8.66-12.85,16-14.75,2.44-.63,5.17-.87,7.36.39a18.92,18.92,0,0,0-6.26,23.73"/><path class="cls-4" d="M307.91,239.45A33.93,33.93,0,0,0,296,268.24a54.19,54.19,0,0,1,24-27.91"/></g><path class="cls-5" d="M315.47,260.69c4.59-.76,5.45-1.82,8.42,0s3.44,6.13,6.79,5.93,8.9-4.49,14.16,0"/><path class="cls-5" d="M313.75,267.68c5.16-1.44,7.75-1.15,10.24,2.29s8.7.77,10.71.86a8.7,8.7,0,0,1,5.84,3.35"/></g><g id="_2paw-front_" data-name="&lt;2paw-front&gt;"><path class="cls-2" d="M139,69.35c32,6.89,38.75,59.18,2.87,86.13s-84.67,17.19-97.29,27.81S17.32,227.4,32.76,235.82c9.47,5.16,10.33-.29,14.64,0S53.07,240.1,58,240c3.82-.08,4.49-4,8.7-1.9s4.4,8.9,2.11,9.48c7.75.47,5.07,9.47,1.62,9.56,4.69,2.49,2,8.23-2.87,9.47s-9.56-.76-16.36-5.55S34.47,269.88,26.1,269s-30.33-7-23.48-47.36c1.82-10.72,6.6-28.95,5.26-40.6s3.6-21.65,10.34-23.12c2.84-.62,5.83.88,9.75,1.91,3.71,1,27.37,1.92,38.27-19.9S79,56.42,139,69.35Z"/><g class="cls-10"><path class="cls-4" d="M161.94,71.1c-9.06-.94-18.35-.75-27.08,1.84S118,80.65,112.8,88.16s-7,17.5-3.69,26A42.61,42.61,0,0,1,126.43,93c5-3.09,11.59-5.06,16.6-2,3.33,2,5.18,5.83,8.3,8.16a4.19,4.19,0,0,0,2,.92,4.47,4.47,0,0,0,3.23-1.32c5.67-4.74,7.74-13.29,14.35-16.61"/><path class="cls-4" d="M156.36,150.24a31,31,0,0,0,3.42-11.07c.41-3.64-.09-7.86-3.06-10-3.44-2.48-8.2-.92-12.42-1.32-5.2-.49-9.74-4.19-12.17-8.81s-3-10-2.52-15.24c-1.19-.1-2,1.11-2.56,2.17a117,117,0,0,0-7.79,19.44c-.63,2.12-1.16,4.6.12,6.41a8.2,8.2,0,0,0,3.3,2.31,49.55,49.55,0,0,1,10.16,6.71,7.24,7.24,0,0,1,2.34,2.91c.69,2-.26,4.08-1.19,5.93l-7.76,15.52"/><path class="cls-4" d="M94.75,186.19a24.21,24.21,0,0,1-10-8A12.07,12.07,0,0,1,82.18,172c-.2-3.23,1.56-6.27,3.7-8.69s4.72-4.45,6.7-7a5.59,5.59,0,0,0,1.18-2.23c.38-1.91-1-3.71-2.55-4.91s-3.35-2.15-4.38-3.8c-2.08-3.31-.08-7.7,2.54-10.61a27.84,27.84,0,0,1,16.78-8.87c-2.82,2-5.76,4.15-7.21,7.29a12.43,12.43,0,0,0,.35,10.26,23.22,23.22,0,0,0,6.72,8.06c3,2.44,6.47,4.58,8.28,8,2.18,4.14,1.38,9.35-.89,13.45s-5.81,7.32-9.28,10.46"/><path class="cls-4" d="M64.75,134.9c-4.91,5.82-8.35,13.33-7.52,20.9s6.83,14.78,14.43,15.27c-1.1-3-4.17-4.86-5.43-7.78s-.47-6.19,1.25-8.74a21.4,21.4,0,0,1,6.9-6c1-.62,2.2-1.36,2.41-2.55a4.15,4.15,0,0,0-1.08-3c-4.17-5.94-8.74-12-9.78-19.21"/><path class="cls-4" d="M76.75,96.06a22.13,22.13,0,0,0,16.74,26.38,1.81,1.81,0,0,0,.8,0,1.32,1.32,0,0,0,.78-1.63A4.08,4.08,0,0,0,94,119.21,39.15,39.15,0,0,1,86.22,79"/><path class="cls-4" d="M49.68,191.07c-4.24-3.73-6.38-9.42-6.82-15s.65-11.26,2-16.76a24.17,24.17,0,0,0,21.82,24.61"/><path class="cls-4" d="M2.92,179.55a20.94,20.94,0,0,0,9.61,7.2,32.33,32.33,0,0,0,12,1.92,1.25,1.25,0,0,1,.87.21c.32.3.22.82.06,1.23A11.25,11.25,0,0,1,19,196.19,30.21,30.21,0,0,1,10,198a35.46,35.46,0,0,1-10-.16"/><path class="cls-4" d="M33,210.24a13,13,0,0,1-7.85,5,25.27,25.27,0,0,1-5.7.28l-7.21-.18c-.67,0-1.52.1-1.7.75a1.43,1.43,0,0,0,.1.81c1.43,4.08,5.62,6.7,9.88,7.43s8.61-.11,12.82-1.07"/><path class="cls-4" d="M38.55,228.22c-9.28,3.4-18.39,9.4-21.82,18.66-1,2.76-1.48,5.87-.42,8.61a16.38,16.38,0,0,0,3.87-4.25,49,49,0,0,1,26.09-17.89"/></g><path class="cls-5" d="M42.33,243.29c2.29-1.54,10-2.48,12.82,0s1.72,5.16,4.78,5.73,1.91-2.3,8.9-1.43"/><path class="cls-5" d="M42.33,249.1c4-.85,9.37-2.18,12.05,3.17s6.89,3.55,8.42,2.92a7.51,7.51,0,0,1,7.65,2"/></g><g id="_head_" data-name="&lt;head&gt;"><path class="cls-11" d="M339.15,135c1.58-2.33-55.4,28.82-55.4,28.82l-10.61-10.19,8.32-19.81L305.14,121l15.78-3,12.78-1.27s-10.6,6.54-4.25,10.47S345.18,124.8,339.15,135Z"/><path class="cls-2" d="M330.12,106.28c-13.21.09-24.75-11.68-34.48-14.4s-24.37-6-30.4.72,0,9.18,0,9.18c-17.51,4.59-24.39,14.64-25.83,20.67-12.92-1.87-22.82,4.87-22.1,14.06s17.36,9.29,23.11,7.66c-4.6,12,2.68,31.23,38.65,27.21S344.6,143.89,343.6,135s-12.77-2.61-14.78,1.69-23,4-26.41,6.89-10,17.65-16.93,15.64-9-7.87-7.24-10.82,6.38-9.41,6.38-9.41l18.8-12.63,19.94-5,9-5.61Z"/><path class="cls-12" d="M324.18,121.78c2.87,5.74,4.21,9.56,6.31,9.18s5.36-10.91,3.83-12.63S324.18,121.78,324.18,121.78Z"/><path class="cls-12" d="M292.6,131c1.34,9.35,5.36,10.11,7.28,10.3s3.06-12.24,0-12.63S292.6,131,292.6,131Z"/><path class="cls-11" d="M315.46,123.77c-3.34-3.33-11.38-3.64-11.38-3.64,2.11-7.35,10.39-7.8,15.15-6.35C314.32,118.77,315.46,123.77,315.46,123.77Z"/><path class="cls-11" d="M252,135.65c2.26-.49.57,14.49,5,17.65s15.79,5.31,16.08,7-19.09.72-21.1-5.45S248.74,136.37,252,135.65Z"/><path class="cls-11" d="M263.81,135c1.43-.28-4.45,8.58,0,10.88s8,.45,7.75,2.52-10.19,3.65-11.91-1.52S259.21,135.85,263.81,135Z"/><path class="cls-11" d="M274.81,101.35c-5.61,3.12-5.12,7.32-3.83,7.18s10.62-4.47,15.36-2.45c-2.3-3.44-2.59-5-.72-5.88S281.51,97.62,274.81,101.35Z"/><path class="cls-11" d="M240.27,131c-8.47-1.23-14.64-2.52-15.21,2.79s9,6.17,11.77,5.46C234.67,135.79,236.54,132.64,240.27,131Z"/><circle class="cls-12" cx="278.24" cy="122.25" r="6.56"/><circle class="cls-12" cx="308.69" cy="104.36" r="5.49"/><path class="cls-12" d="M317.29,124.84c-8.17-1.44,8-21.82,16.64-18.37S338,128.47,317.29,124.84Z"/><path class="cls-12" d="M277.11,155.45c-2.22.71-5.55-11.29,5.16-24.11s26.77-13.62,33.19-7.57-19.79,7.57-25.34,12.55S281.32,154.11,277.11,155.45Z"/><path class="cls-12" d="M304.08,120.13c-21-5.15-44.15,1.62-46.3,8.5-9.33-3.6,0-16.23,15.5-17.38S304.08,120.13,304.08,120.13Z"/><path class="cls-12" d="M319.23,113.78c-18.11-3.53-20.58-11.86-7.58-14.73-2.35-5.88-14.26-5.59-17.56,1.87S304.76,112.14,319.23,113.78Z"/><circle class="cls-12" cx="278.24" cy="123.34" r="1.83"/><circle class="cls-12" cx="308.69" cy="104.36" r="1.71"/></g></g></g></svg>