<?xml version="1.0" encoding="utf-8"?>
<!-- Generator: Adobe Illustrator 22.1.0, SVG Export Plug-In . SVG Version: 6.00 Build 0)  -->
<svg version="1.1" id="Layer_1" xmlns="http://www.w3.org/2000/svg" xmlns:xlink="http://www.w3.org/1999/xlink" x="0px" y="0px"
	 viewBox="0 0 1000 189.5" style="enable-background:new 0 0 1000 189.5;" xml:space="preserve">
<style type="text/css">
	.st0{fill:#F8BAC5;}
</style>
<g>
	<path class="st0" d="M37.8,20.6c4.3,0,8,2.7,11.2,8.2c1.8,3.6,2.7,7.4,2.7,11.3v0.2c0,5.6-1.8,13.2-5.3,22.7v0.2h0.7
		c2.2,0,3.9-1.9,5.1-5.6c0.3-0.7,0.5-1,0.6-1h0.8c4.2,0,7.3,2.6,9.3,7.9l0.2,2.3c0,3.4-1.8,6.3-5.3,8.5c-0.8,0.4-2.3,0.7-4.4,0.9
		c-2.5,0-5.8-0.7-9.7-2.1C39.2,86.6,37,95.7,37,101.3v1.3c0,3.1,1.1,4.9,3.4,5.4h0.5c2.9,0,6-1.6,9.3-4.8c1.9-2.9,2.9-4.7,2.9-5.3
		h0.4c0,2.7-1,8.8-2.9,18.3c-1.9,6.7-4.1,12.4-6.6,17.1c-7,11.7-14.8,17.6-23.5,17.6h-1.9c-5.1,0-8.6-2.5-10.2-7.6
		c-0.5-2.1-0.8-4.1-0.8-6.3c0-9.3,5.8-27.1,17.5-53.3l6-15.8c-3.4-2.2-6-3.4-7.8-3.4H23c-1,0-1.7,0.4-2.1,1.1v1
		c0.4,1.4,1,2.1,1.9,2.1V69c-3.4,0-5.7-1.3-6.8-3.8c-0.1-0.6-0.1-1.1-0.1-1.5c0-3.9,2.3-6.2,6.9-6.8h1.6c1.6,0,4.7,0.9,9.2,2.8
		c1-3.1,1.5-5.3,1.5-6.4v-1.2c0-3.5-2.3-6-6.8-7.5c-0.8-0.2-1.8-0.4-2.7-0.4c-1.1,0-2.7,0.3-4.6,0.8h-0.2c-0.8-2-1.2-3.7-1.2-5.3v-1
		c0-5,2.7-9.8,8.1-14.4C31,21.9,34.4,20.6,37.8,20.6z"/>
	<path class="st0" d="M92,56h0.2c2.2,0,3.4,1.7,3.7,5v1c0,3.4-2.1,11-6.3,22.7c-4,10.5-6,17.3-6,20.3c0,1.9,0.7,2.9,2.1,2.9
		c3.2-0.7,4.8-1.8,4.8-3.3c0.4,0,0.8-2,1.2-6.1h0.1c2.5,3.7,3.7,8.5,3.7,14.1c0,10.5-3.4,20.3-10.2,29.4c-5.3,5.9-10.8,8.9-16.8,8.9
		h-0.7c-5.3,0-8.8-2.5-10.3-7.6c-0.3-1.8-0.5-3.3-0.5-4.6v-0.6c0-9.9,5.4-25.7,16.2-47.4c0.7-2.2,1.1-4.1,1.1-5.6v-0.6
		c0-1.9-1.1-3.2-3.2-3.9c-0.7-0.4-1-0.7-1-0.8c1.6-4.1,4.2-8.6,7.7-13.5C83.4,59.4,88.1,56,92,56z M85.8,23.7c5,0,8.6,2.4,11.1,7.1
		c0.8,1.6,1.2,3.3,1.2,5.2c0,5.7-3.1,10.1-9.3,13.1c-1.9,0.5-3.4,0.8-4.6,0.8H84c-5.7,0-9.6-3-11.8-9.1c-0.2-0.8-0.3-1.5-0.3-2.2
		v-1.8c0-4.3,2.4-8,7.1-11.2C81.1,24.4,83.4,23.7,85.8,23.7z"/>
	<path class="st0" d="M155.2,57c6.9,0,12.6,2.4,17,7.3c3.7-4.5,7.9-6.7,12.5-6.7c4.2,0,7.1,1.9,8.7,5.6c0.7,2.2,1,4.2,1,5.9
		c0,7.9-2.8,16.2-8.5,24.9c-2.8,3.2-5,4.8-6.6,4.8h-1.1c-0.2-0.1-0.7-1.2-1.5-3.2l-1-1c-1.3,0-2.2,1.4-2.7,4.2
		c-0.7,2.7-1.8,8.8-3.3,18.2c-3.7,18.2-7.7,32-11.9,41.4c-9,20.5-21.1,30.8-36.4,30.8h-1.6c-10.1,0-17.5-4-22.3-12.1
		c-1.9-3.6-2.9-7.5-2.9-11.7c0-8.6,4.1-16.1,12.2-22.5c0-0.2,0.1-0.4,0.5-0.5c1.4,3.6,5.9,7.4,13.7,11.2c4.3,1.9,8,2.8,11.2,2.8
		c7.9,0,13.5-5,16.9-15c0.8-2.1,1.6-4.4,2.3-6.9c-5.6,4.7-10.5,7.4-14.7,8.2c-3.6,0.7-6.7,1.1-9.4,1.1h-0.8
		c-8.8,0-15.1-3.7-19.1-11.1c-1.9-3.9-2.9-8.5-2.9-14c0-10.6,3.4-21.9,10.2-33.9c2.6-4.5,6.8-9.7,12.7-15.4
		C136.9,61.2,146.2,57,155.2,57z M131.6,91.3v1.3c0,5.7,2.2,9.5,6.5,11.4l2.9,0.4c8.3,0,14.4-4.4,18.5-13.2c1.4-3.7,2.1-6.8,2.1-9.4
		c0-5.3-2.4-8.8-7.1-10.3c-1.3-0.3-2.4-0.5-3.5-0.5h-0.2c-9.4,0-15.6,5-18.6,15C131.8,87.8,131.6,89.6,131.6,91.3z"/>
	<path class="st0" d="M241.1,57c8.9,0,15,3.3,18.2,9.8c0.7,1.9,1.1,3.9,1.1,5.8v0.7c0,6.8-4,14-11.9,21.6c-4.6,3.4-8.7,5.2-12.4,5.2
		h-1.7c-4,0-7.2-1.9-9.5-5.8c-0.7-1.3-1.1-2.9-1.1-4.8c0-4.8,2.6-9.6,7.7-14.5h0.2c0.8,2.6,2.4,4.6,4.8,6c1.2,0.5,2.3,0.8,3.4,0.9
		c3.1,0,5.2-2.4,6.4-7.1c0-1.8-1.9-3.3-5.6-4.6c-0.8-0.2-1.8-0.4-2.7-0.4h-0.8c-8.9,0-15.5,5.3-19.8,16c-0.8,2.2-1.3,4.6-1.3,7.1
		v0.5c0,6.8,3.6,11.3,10.8,13.5c2.2,0.5,4.3,0.8,6.3,0.8h3.5c6.7,0,12.5-2.7,17.5-8.1l0.9-0.7c2.3,3.6,3.4,7.6,3.4,11.9v0.8
		c0,10.2-5.9,20.2-17.7,30c-8.3,6-17.3,9-27,9H213c-11.2,0-18.9-4.3-23.1-13c-1.6-4.4-2.4-9.1-2.4-14c0-12.9,5-26.7,15.1-41.6
		c5.7-7.5,11.7-13.3,17.9-17.5C227.9,59.4,234.7,57,241.1,57z"/>
	<path class="st0" d="M275.3,151c-5.8,0-9.5-3-11.1-9.1c-0.2-2.2-0.4-4.1-0.4-5.6c0-9.5,4.9-24.8,14.8-45.9c0.7-2.5,1-4.4,1-5.4
		c0-2.1-1.2-3.6-3.5-4.4c-0.6-0.4-0.9-0.7-0.9-0.8c1.9-4.7,4.4-9.3,7.5-13.8c5.4-6.6,10-10,13.8-10c2.5,0,3.8,2,4.1,6l-0.1,0.6
		c-0.1,2.1-0.6,5-1.5,8.5c8.8-10,18-15,27.6-15c7.7,0,12.9,3.1,15.5,9.2c0.4,1.3,0.6,2.9,0.6,4.6c0,1.3-0.1,2.5-0.3,3.7
		c0.1,3.6,0.9,5.3,2.3,5.3h1.1c0.8,0,2.2-0.8,4.3-2.4h0.2l0.1,1.9c-0.3,8.9-4.2,15.6-11.7,19.9c-3.1,1.6-6,2.4-8.7,2.4
		c-6.2,0-10.3-2.8-12.2-8.5c-0.4-1.4-0.5-2.7-0.5-4.1c0.3-3.9,1.5-8.5,3.7-13.8l0.3-1.2c-0.1-1.1-0.5-1.7-1.5-1.7
		c-4.7,0-11.8,4.7-21.4,14.1c-4,4.3-6.7,9.7-8.1,16.2c-0.2,1.3-0.3,2.1-0.5,2.4v0.3c0,2.2,0.8,3.3,2.3,3.3c2,0,4.3-1.1,6.9-3.4
		c2.5-3.4,3.7-5.6,3.8-6.7h0.3c1.3,3,1.9,6,1.9,9v1.1c0,0.5,0,0.8,0.1,1l-0.2,0.7c-0.4,10.1-4.7,20.7-13,31.7
		C286.1,147.7,280.6,151,275.3,151z"/>
	<path class="st0" d="M360.4,18.5h1.5c3,0,6.7,2.7,11,8c6.2,9.1,9.5,16.2,10,21.4v0.6c-0.1,1.3-0.7,2-1.8,2h-0.8
		c-3.7,0-8.9-4.1-15.7-12.2c-1.1-1-2.4-1.5-3.7-1.5h-0.2c-1.3,0-2.1,0.6-2.4,1.9v0.4l0.2,1.1c-0.4,0.2-0.7,0.4-0.9,0.4h-0.8
		c-3.3,0-5.7-2.3-7.3-7l-0.4-2.1c0-4.1,2.4-8,7.3-11.7C357.8,18.9,359.2,18.5,360.4,18.5z"/>
	<path class="st0" d="M438.8,57c10.5,0,17.2,3.1,20.2,9.4c0.7,1.6,1.1,3.3,1.1,5c0,6-2.9,10.2-8.8,12.7c-1.1,0.2-2.2,0.4-3.4,0.5
		c-4.3,0-8.9-2.7-13.7-8.1v-0.4c7.9-1.8,11.9-3.8,11.9-5.9c0-1-2.1-1.5-6.3-1.6h-0.6c-4.5,0-8.5,2.4-12.1,7.1
		c-0.9,1.5-1.4,2.7-1.5,3.7v0.8c0,3.6,4.7,6.6,14,9c6.5,2.2,11.1,5.8,13.7,10.8c1.8,3.7,2.7,7.6,2.7,11.4c0,10.9-6,21.3-17.9,31.3
		c-8.4,5.9-16.7,8.9-24.8,8.9h-1.2c-11.9,0-19.7-4.8-23.4-14.5c-0.9-2.3-1.4-4.9-1.4-7.9c0-8.6,4-17.1,12.1-25.4
		c3.4-3.2,6.2-5.3,8.2-6.3v0.2c-0.4,1.5-0.6,2.8-0.6,4v0.5c0,3.3,2.1,5.2,6.4,5.7c1.6,0.1,2.7,0.2,3.5,0.2c9.1-0.7,13.6-2.3,13.6-5
		c0-1.8-3.9-3.6-11.7-5.4c-8.9-3.1-13.3-7.7-13.3-13.9c0-7.1,5.7-14.4,17-21.8C428.9,58.7,434.3,57,438.8,57z"/>
	<path class="st0" d="M548.2,57c6.9,0,12.6,2.4,17,7.3c3.7-4.5,7.9-6.7,12.5-6.7c4.2,0,7.1,1.9,8.7,5.6c0.7,2.2,1,4.2,1,5.9
		c0,7.9-2.8,16.2-8.5,24.9c-2.8,3.2-5,4.8-6.6,4.8h-1.1c-0.2-0.1-0.7-1.2-1.5-3.2l-1-1c-1.3,0-2.2,1.4-2.7,4.2
		c-0.7,2.7-1.8,8.8-3.3,18.2c-3.7,18.2-7.7,32-11.9,41.4c-9,20.5-21.1,30.8-36.4,30.8h-1.6c-10.1,0-17.5-4-22.3-12.1
		c-1.9-3.6-2.9-7.5-2.9-11.7c0-8.6,4.1-16.1,12.2-22.5c0-0.2,0.1-0.4,0.5-0.5c1.4,3.6,5.9,7.4,13.7,11.2c4.3,1.9,8,2.8,11.2,2.8
		c7.9,0,13.5-5,16.9-15c0.8-2.1,1.6-4.4,2.3-6.9c-5.6,4.7-10.5,7.4-14.7,8.2c-3.6,0.7-6.7,1.1-9.4,1.1h-0.8
		c-8.8,0-15.1-3.7-19.1-11.1c-1.9-3.9-2.9-8.5-2.9-14c0-10.6,3.4-21.9,10.2-33.9c2.6-4.5,6.8-9.7,12.7-15.4
		C530,61.2,539.3,57,548.2,57z M524.7,91.3v1.3c0,5.7,2.2,9.5,6.5,11.4l2.9,0.4c8.3,0,14.4-4.4,18.5-13.2c1.4-3.7,2.1-6.8,2.1-9.4
		c0-5.3-2.4-8.8-7.1-10.3c-1.3-0.3-2.4-0.5-3.5-0.5h-0.2c-9.4,0-15.6,5-18.6,15C524.9,87.8,524.7,89.6,524.7,91.3z"/>
	<path class="st0" d="M632.8,57c6,0,11.1,2.1,15.2,6.3c4.5-4.2,7.9-6.3,10-6.3h0.5c2.7,0,4.5,1.6,5.6,4.8c0.1,0.9,0.1,1.7,0.1,2.3
		c0,3.2-2.7,10.9-8,23.1c-3,7.9-4.5,13.5-4.5,16.7c0,2.4,0.9,3.5,2.7,3.5c3,0,4.3-2.7,3.9-8.2c2.5,9.1,1.9,19.8-1.9,32.2
		c-3.8,12.4-10.6,19.3-20.3,20.6c-6.6,0-10.8-1.5-12.5-4.5c-1.1-2.1-1.6-3.3-1.6-3.6c-7.1,4.7-13.9,7.1-20.4,7.1
		c-10.5,0-17.4-5.8-20.8-17.4c-0.8-3.1-1.2-6.1-1.2-8.8v-2.7c0-10.7,3.9-22.6,11.6-35.6c2.5-4.3,6.8-9.6,13.1-16
		C614.3,61.5,623.8,57,632.8,57z M606.5,97.6c0,4.7,2.5,7.9,7.6,9.5c1.7,0.4,3.3,0.6,4.8,0.6c8.2,0,14.6-5.3,19.1-15.8
		c0.7-2.5,1.1-4.6,1.1-6.3c0-6.2-2.9-10-8.7-11.4c-1.1-0.1-1.9-0.2-2.5-0.2c-8.3,0-14.8,4.8-19.3,14.3
		C607.1,91.9,606.5,95,606.5,97.6z"/>
	<path class="st0" d="M695.1,18.3h1.4c4,0,7.5,1.9,10.5,5.6c2.4,3.6,3.6,7.9,3.6,12.7c0,7.2-2.9,18.4-8.8,33.7
		c-3,7.1-6.1,18.5-9.3,34.3v1.5c0.2,1.5,0.8,2.3,1.8,2.3h0.8c3,0,4.9-2.7,5.7-8l0.2-0.7h0.4c1,5.7,1.5,10.8,1.5,15.3
		c0,14.9-5.7,26-17,33.1c-3.9,2.1-7.5,3.1-10.7,3.1h-1.5c-8,0-12.1-4.4-12.1-13.3c0-9.1,6.2-24.6,18.5-46.6
		c6.9-13.8,10.4-24.4,10.4-32c0-9.2-3-14.5-9-16c-3.6-0.9-5.4-1.5-5.6-1.8v-1.6c0-0.4-0.1-0.6-0.2-0.7c0-6.7,2.7-12.3,8.2-16.8
		C687.6,19.6,691.3,18.3,695.1,18.3z M739.9,0c4.8,0,8.9,2.4,12.1,7.1c1.9,3.5,2.9,7.5,2.9,11.9c0,6.2-2.4,16.3-7.1,30.4
		c-6.5,20.6-10.5,34.4-12.1,41.3c-1.8,8.3-2.7,12.9-2.7,13.7c0,2.1,0.8,3.2,2.4,3.2c3,0,4.8-2.1,5.6-6.3c0.4-1.5,0.5-2.3,0.5-2.5
		h0.3c1.2,5.6,1.8,10.5,1.8,14.6v1.7c0,14.3-5.5,24.9-16.4,32c-4.1,2.1-8,3.2-11.7,3.2c-8.6,0-12.9-4.4-12.9-13.1
		c0-8.2,4.8-21.8,14.3-40.8C729,71.7,735,53.9,735,42.9v-1.2c0-5.6-1.3-10.1-3.9-13.4c-0.8-1.6-4.1-3-9.8-4.4
		c-0.8,0-1.3-0.6-1.3-1.8v-2.4c0-6.3,3-11.7,9-16.4C732.8,1.1,736.4,0,739.9,0z"/>
	<path class="st0" d="M806,57c8.9,0,15,3.3,18.2,9.8c0.7,1.9,1.1,3.9,1.1,5.8v0.7c0,6.8-4,14-11.9,21.6c-4.6,3.4-8.7,5.2-12.4,5.2
		h-1.7c-4,0-7.2-1.9-9.5-5.8c-0.7-1.3-1.1-2.9-1.1-4.8c0-4.8,2.6-9.6,7.7-14.5h0.2c0.8,2.6,2.4,4.6,4.8,6c1.2,0.5,2.3,0.8,3.4,0.9
		c3.1,0,5.2-2.4,6.4-7.1c0-1.8-1.9-3.3-5.6-4.6c-0.8-0.2-1.8-0.4-2.7-0.4H802c-8.9,0-15.5,5.3-19.8,16c-0.8,2.2-1.3,4.6-1.3,7.1v0.5
		c0,6.8,3.6,11.3,10.8,13.5c2.2,0.5,4.3,0.8,6.3,0.8h3.5c6.7,0,12.5-2.7,17.5-8.1l0.9-0.7c2.3,3.6,3.4,7.6,3.4,11.9v0.8
		c0,10.2-5.9,20.2-17.7,30c-8.3,6-17.3,9-27,9h-0.8c-11.2,0-18.9-4.3-23.1-13c-1.6-4.4-2.4-9.1-2.4-14c0-12.9,5-26.7,15.1-41.6
		c5.7-7.5,11.7-13.3,17.9-17.5C792.7,59.4,799.6,57,806,57z"/>
	<path class="st0" d="M840.2,151c-5.8,0-9.5-3-11.1-9.1c-0.2-2.2-0.4-4.1-0.4-5.6c0-9.5,4.9-24.8,14.8-45.9c0.7-2.5,1-4.4,1-5.4
		c0-2.1-1.2-3.6-3.5-4.4c-0.6-0.4-0.9-0.7-0.9-0.8c1.9-4.7,4.4-9.3,7.5-13.8c5.4-6.6,10-10,13.8-10c2.5,0,3.8,2,4.1,6l-0.1,0.6
		c-0.1,2.1-0.6,5-1.5,8.5c8.8-10,18-15,27.6-15c7.7,0,12.9,3.1,15.5,9.2c0.4,1.3,0.6,2.9,0.6,4.6c0,1.3-0.1,2.5-0.3,3.7
		c0.1,3.6,0.9,5.3,2.3,5.3h1.1c0.8,0,2.2-0.8,4.3-2.4h0.2l0.1,1.9c-0.3,8.9-4.2,15.6-11.7,19.9c-3.1,1.6-6,2.4-8.7,2.4
		c-6.2,0-10.3-2.8-12.2-8.5c-0.4-1.4-0.5-2.7-0.5-4.1c0.3-3.9,1.5-8.5,3.7-13.8l0.3-1.2c-0.1-1.1-0.5-1.7-1.5-1.7
		c-4.7,0-11.8,4.7-21.4,14.1c-4,4.3-6.7,9.7-8.1,16.2c-0.2,1.3-0.3,2.1-0.5,2.4v0.3c0,2.2,0.8,3.3,2.3,3.3c2,0,4.3-1.1,6.9-3.4
		c2.5-3.4,3.7-5.6,3.8-6.7h0.3c1.3,3,1.9,6,1.9,9v1.1c0,0.5,0,0.8,0.1,1l-0.2,0.7c-0.4,10.1-4.7,20.7-13,31.7
		C850.9,147.7,845.5,151,840.2,151z"/>
	<path class="st0" d="M941.7,55.7h0.8c2.7,0,4,1.6,4,4.9V62c0,3.6-2.1,10.2-6.4,19.8c-2.1,6.1-3.2,11.4-3.2,15.9v0.6
		c0,6.5,2.4,9.7,7.3,9.7c6.9,0,12.2-4.2,15.8-12.6c0.8-1.8,2.3-7.4,4.5-16.9c3.8-13.9,9.7-20.8,17.7-20.8c4.1,0,7,1.9,8.6,5.6
		c0.8,1.9,1.2,4,1.2,6.4v0.5c0,7.9-2.6,16-7.9,24.1c-2.7,3.1-4.7,4.6-6.1,4.6h-1.4c-0.2-0.1-0.7-1.1-1.4-3c-0.5-0.9-1.1-1.4-1.6-1.4
		h-0.2c-1.4,0-2.7,6.6-4,19.9c-4.1,23.3-8.2,39.1-12.2,47.2c-6.5,13.6-14.8,22.4-24.7,26.6c-3,0.8-5.2,1.3-6.6,1.3
		c-6.9,0-12.1-4.8-15.6-14.3c-0.6-2.5-0.9-4.8-0.9-7.1v-0.2c0-7.4,2.9-13.3,8.7-17.7c2.9,5.4,7.4,8.1,13.4,8.1
		c5.8,0,10.9-3.9,15.3-11.6c2-4.1,3.8-10.2,5.4-18.3v-0.6c-7.8,14.7-15.8,22-24.1,22h-0.9c-4.4,0-8-1.3-10.8-4
		c-3.1-3.7-4.7-8.9-4.7-15.6c0-11.3,4-24.7,12.1-40.3c0.5-2.1,0.8-3.8,0.8-5c0-1.9-0.8-3.2-2.5-3.7c-1.8-0.7-2.7-1.2-2.7-1.5
		c1.8-4,4.3-8.3,7.3-12.7c4.3-5,7.8-8.3,10.4-9.8C939.4,56.2,941,55.7,941.7,55.7z"/>
</g>
</svg>
