<?xml version="1.0" encoding="utf-8"?>
<!-- Generator: Adobe Illustrator 22.1.0, SVG Export Plug-In . SVG Version: 6.00 Build 0)  -->
<svg version="1.1" id="Layer_1" xmlns="http://www.w3.org/2000/svg" xmlns:xlink="http://www.w3.org/1999/xlink" x="0px" y="0px"
	 viewBox="0 0 1000 1000" style="enable-background:new 0 0 1000 1000;" xml:space="preserve">
<style type="text/css">
	.st0{fill:none;stroke:#010101;stroke-miterlimit:10;}
	.st1{fill:#FBBD1A;}
	.st2{fill:none;stroke:#1F7252;stroke-miterlimit:10;}
	.st3{clip-path:url(#SVGID_2_);fill:#1F7252;stroke:#1F7252;stroke-miterlimit:10;}
	.st4{fill:none;}
	.st5{fill:none;stroke:#1F7252;stroke-linecap:round;stroke-linejoin:round;stroke-miterlimit:10;}
	.st6{clip-path:url(#SVGID_4_);fill:#1F7252;stroke:#1F7252;stroke-miterlimit:10;}
	.st7{fill:#FBBD1A;stroke:#1F7252;stroke-miterlimit:10;}
	.st8{fill:#1F7252;stroke:#1F7252;stroke-miterlimit:10;}
	.st9{clip-path:url(#SVGID_6_);fill:#1F7252;stroke:#1F7252;stroke-miterlimit:10;}
	.st10{fill:#40BA88;stroke:#1F7252;stroke-linecap:round;stroke-linejoin:round;stroke-miterlimit:10;}
	.st11{fill:#F7F6F0;stroke:#1F7252;stroke-miterlimit:10;}
	.st12{fill:#F7F6F0;stroke:#1F7252;stroke-linecap:round;stroke-linejoin:round;stroke-miterlimit:10;}
	.st13{fill:#1F7252;stroke:#1F7252;stroke-linecap:round;stroke-linejoin:round;stroke-miterlimit:10;}
	.st14{clip-path:url(#SVGID_8_);fill:#1F7252;stroke:#1F7252;stroke-miterlimit:10;}
	.st15{clip-path:url(#SVGID_10_);fill:#1F7252;stroke:#1F7252;stroke-miterlimit:10;}
</style>
<path class="st0" d="M442.1,31.7c-0.2-0.2-0.4-0.5-0.6-0.7"/>
<g id="_x3C_2-back-paw_x3E_">
	<path class="st1" d="M476.5,551.9c19.2,25.1,4.7,58-3.9,71.7c-8.6,13.7,56.8-5.9,83.8-2.4c27,3.5,22.7,10.6,41.5,10.2
		c18.8-0.4,40-10.6,48.2-5.9c8.2,4.7,16.5,16.5,8.6,26.2c7.4,7.8,9.8,21.5,1.6,33.3c5.9,6.7,11,26.2-11.8,34.9
		c-19.2,7.3-16.8-9.8-40.4-8.6c-23.5,1.2-36.4,11.6-52.5,11.1s-17.6-19.7-43.9-22C481.6,698,413,716.9,384,716.4s-59.2-43.9-53.3-85
		L476.5,551.9z"/>
	<path class="st2" d="M476.5,551.9c19.2,25.1,4.7,58-3.9,71.7c-8.6,13.7,56.8-5.9,83.8-2.4c27,3.5,22.7,10.6,41.5,10.2
		c18.8-0.4,40-10.6,48.2-5.9c8.2,4.7,16.5,16.5,8.6,26.2c7.4,7.8,9.8,21.5,1.6,33.3c5.9,6.7,11,26.2-11.8,34.9
		c-19.2,7.3-16.8-9.8-40.4-8.6c-23.5,1.2-36.4,11.6-52.5,11.1s-17.6-19.7-43.9-22C481.6,698,413,716.9,384,716.4s-59.2-43.9-53.3-85
		L476.5,551.9z"/>
	<g>
		<defs>
			<path id="SVGID_1_" d="M476.5,551.9c19.2,25.1,4.7,58-3.9,71.7c-8.6,13.7,56.8-5.9,83.8-2.4c27,3.5,22.7,10.6,41.5,10.2
				c18.8-0.4,40-10.6,48.2-5.9c8.2,4.7,16.5,16.5,8.6,26.2c7.4,7.8,9.8,21.5,1.6,33.3c5.9,6.7,11,26.2-11.8,34.9
				c-19.2,7.3-16.8-9.8-40.4-8.6c-23.5,1.2-36.4,11.6-52.5,11.1s-17.6-19.7-43.9-22C481.6,698,413,716.9,384,716.4
				s-59.2-43.9-53.3-85L476.5,551.9z"/>
		</defs>
		<clipPath id="SVGID_2_">
			<use xlink:href="#SVGID_1_"  style="overflow:visible;"/>
		</clipPath>
		<path class="st3" d="M507.8,616.5c2.4,30.6-36.4,65.1-31.3,68.2c5.1,3.1,78-42,70.1-68.2"/>
	</g>
	<path class="st4" d="M476.5,551.9c19.2,25.1,4.7,58-3.9,71.7c-8.6,13.7,56.8-5.9,83.8-2.4c27,3.5,22.7,10.6,41.5,10.2
		c18.8-0.4,40-10.6,48.2-5.9c8.2,4.7,16.5,16.5,8.6,26.2c7.4,7.8,9.8,21.5,1.6,33.3c5.9,6.7,11,26.2-11.8,34.9
		c-19.2,7.3-16.8-9.8-40.4-8.6c-23.5,1.2-36.4,11.6-52.5,11.1s-17.6-19.7-43.9-22C481.6,698,413,716.9,384,716.4s-59.2-43.9-53.3-85
		L476.5,551.9z"/>
	<path class="st5" d="M654.8,651.8c-11-8.1-19.1,9.1-33.4,5.7s-19.1-14.1-37.6-9.7c-18.5,4.4-21.2,4.5-21.2,4.5"/>
	<path class="st5" d="M656.3,685.1c-18.5-9.3-23.8,6.3-36,5.4c-12.3-0.9-25.1-11.6-35.8-11.6c-10.7,0-23.2,3.4-23.2,3.4"/>
</g>
<g id="_x3C_1-back-paw_x3E_">
	<path class="st1" d="M648,400c31.9,17.2,72.1,16.7,88.8-3.7c16.7-20.4,2.1-30.8,6.3-45.4s29.8-36.6,30.3-78.4
		S746.7,167,760.8,123.7c14.1-43.4,59.6-25.1,67.9-46.5s-10.4-26.6-10.4-26.6s17.8-25.6-11.5-26.6c0,0,1.6-12.5-11.5-16.2
		s-35,1.6-41.3,9.9s-19.7,4.9-29.3,12C696,51,675.1,79.3,696.5,202c9.8,56.4-44.4,50.1-44.4,50.1L648,400z"/>
	<path class="st2" d="M648,400c31.9,17.2,72.1,16.7,88.8-3.7c16.7-20.4,2.1-30.8,6.3-45.4s29.8-36.6,30.3-78.4
		S746.7,167,760.8,123.7c14.1-43.4,59.6-25.1,67.9-46.5s-10.4-26.6-10.4-26.6s17.8-25.6-11.5-26.6c0,0,1.6-12.5-11.5-16.2
		s-35,1.6-41.3,9.9s-19.7,4.9-29.3,12C696,51,675.1,79.3,696.5,202c9.8,56.4-44.4,50.1-44.4,50.1L648,400z"/>
	<g>
		<defs>
			<path id="SVGID_3_" d="M648,400c31.9,17.2,72.1,16.7,88.8-3.7c16.7-20.4,2.1-30.8,6.3-45.4s29.8-36.6,30.3-78.4
				S746.7,167,760.8,123.7c14.1-43.4,59.6-25.1,67.9-46.5s-10.4-26.6-10.4-26.6s17.8-25.6-11.5-26.6c0,0,1.6-12.5-11.5-16.2
				s-35,1.6-41.3,9.9s-19.7,4.9-29.3,12C696,51,675.1,79.3,696.5,202c9.8,56.4-44.4,50.1-44.4,50.1L648,400z"/>
		</defs>
		<clipPath id="SVGID_4_">
			<use xlink:href="#SVGID_3_"  style="overflow:visible;"/>
		</clipPath>
		<path class="st6" d="M676.7,169c29,0.1,72.9,47.4,68.2,79s7.1-24.9-56.4-38.5"/>
		<path class="st6" d="M754.3,358.7c-4.7-20.5-43.9-73.7-51.7-73.7c-7.8,0,34.8,116.8,8.4,142.6c-26.4,25.9,53.5-35.3,53.5-35.3"/>
	</g>
	<path class="st5" d="M806.8,23.9c-20.4-2.9-46.6,8.9-52.5,24.9"/>
	<path class="st5" d="M818.3,50.5c-17.4-8.7-37.4,1.8-40.5,9.3"/>
</g>
<path id="_x3C_back-ear_x3E_" class="st7" d="M367,103.1c-1.4-21.8,2.6-44.2,21.3-53.1c15.6-7.4,15.2,23.2,15.3,23.1
	C403.7,73.1,367,103.1,367,103.1z"/>
<g id="_x3C_body_x3E_">
	<path class="st7" d="M501.2,114.3c32.4,27.7,39.7,90.4-25.1,119.6s-66.3,55.4-77.8,61.1c-11.5,5.7-30.8,7.3-34.5-16.2
		s37.6-48.1,16.2-53.8c-21.4-5.7-63.1,1.5-72.6-12c-13.1-18.4-5.7-35.5,21.4-44.9c0,0,30.3-112.3,160.9-120.7
		s214.7,249.2,185.4,343.2c-29.3,94-86,186.1-264.8,224.6c-195.1,42.1-272.3,160.5,4.1,160.5c191.1,0,146.3,187.1,61.7,83.7
		c-50.4-61.6-209.2,23.5-286-94.8c-60.9-93.8-75.9-233.9,23.8-316.6C346,338.4,469,338,478.7,284.6c7.8-43.1-5.5-49.3-5.5-49.3"/>
	<path class="st8" d="M464.7,239.3c5.9-18.8-16.8-52.6-13.7-53.4c3.1-0.8,39.2,11,45.4,36.1c0,0-7.8,6.9-17.4,10.5
		C473.7,234.5,464.7,239.3,464.7,239.3"/>
	<path class="st8" d="M518,197.1c-6.8-9.6-48.3-47-65.9-49.1c-20.9-2.5,31.7-24.1,71.4,2.9C523.5,150.9,527.6,178.6,518,197.1z"/>
	<g>
		<defs>
			<path id="SVGID_5_" d="M501.2,114.3c32.4,27.7,39.7,90.4-25.1,119.6s-66.3,55.4-77.8,61.1c-11.5,5.7-30.8,7.3-34.5-16.2
				s37.6-48.1,16.2-53.8c-21.4-5.7-63.1,1.5-72.6-12c-13.1-18.4-5.7-35.5,21.4-44.9c0,0,30.3-112.3,160.9-120.7
				s214.7,249.2,185.4,343.2c-29.3,94-86,186.1-264.8,224.6c-195.1,42.1-272.3,160.5,4.1,160.5c191.1,0,146.3,187.1,61.7,83.7
				c-50.4-61.6-209.2,23.5-286-94.8c-60.9-93.8-75.9-233.9,23.8-316.6C346,338.4,469,338,478.7,284.6c7.8-43.1-5.5-49.3-5.5-49.3"/>
		</defs>
		<clipPath id="SVGID_6_">
			<use xlink:href="#SVGID_5_"  style="overflow:visible;"/>
		</clipPath>
		<path class="st9" d="M561.5,59.8c21.2,47.4,0.8,126.5,5.5,130c4.7,3.6,54-31.7,44.7-65"/>
		<path class="st9" d="M463.6,257.4c54.4-18.6,110.4,10,121.5,39c11.1,29-61.4-35.7-123.9-1.2"/>
		<path class="st9" d="M411.3,320.3c44.4,28.3,63.1,121.5,67.5,124.1c12.4,7.3,35.4-107.4-21.3-140.3"/>
		<path class="st9" d="M335.2,353.7c36.7,26.9,79.4,125.4,84.7,125.6s-10.7-157.4-32.1-156.6"/>
		<path class="st9" d="M259.8,393.2c43.1,25.1,66.1,108.1,75.3,112.8S344.5,370,313.9,362"/>
		<path class="st9" d="M181.5,463c41.5,16.5,66.6,79.1,73.7,79.1s-2.4-129.5-22.7-129.8"/>
		<path class="st9" d="M143.5,531.1c8.6,27.4,70.9,71.2,70.9,71.2l4.6,30.5c-42.7,8.2-86.8-22.3-87.6-49.8"/>
		<path class="st9" d="M131.3,660.4c24.7,15.3,64.6,29.1,78.3,24.3l-17.1,24.1c0,0-43.9,6.1-49-2.9"/>
		<path class="st9" d="M343.3,762.3c0.4,18-7.4,58.9-29.3,83.2c-23.1,25.6-29.4-9.9-29.4-9.9c28.2-34.9,39.2-61.9,36-73.3"/>
		<path class="st9" d="M391.5,762.3c5.1,18,3.9,64.7-21.9,85l43.2,2.7c15.5-8.2,29.6-75,17.5-83.7"/>
		<path class="st9" d="M527.3,803.8c6.4,36.4-9.3,73.3-49.3,73.3s55.2,29.4,55.2,29.4l25.5-37.2l-7.2-42.7"/>
		<path class="st9" d="M431.4,620.8c11.4-59.6-1.6-94.6,1.6-96.7c3.1-2.1,34.1,53.6,37.6,78.3"/>
	</g>
	<path class="st10" d="M363.8,272.5c10.9,10.7,43.7-14.5,51.6-29.4c7.8-14.9,1.6-27.4,13.3-41.1c11.8-13.7-4.3-31-21.2-22.3
		c-16.8,8.6-13.7-5.1-13.7-5.1c-9,8.2-90.2,15-86.5,38.4c9.7,15.4,74.6,5,77.8,14.9C388.9,239.1,359.6,266,363.8,272.5z"/>
	<path class="st5" d="M591,315.9c89.9,19.7,78,93.1,78,93.1c8.8-17.9,21.4-102.8-1.6-157.6"/>
	<path class="st5" d="M512.1,399c27,22.1-51.7,115.3-1.3,184"/>
	<path class="st5" d="M484.6,593.8c-30.4,10.2-59.7,21.3-72.5,21.1"/>
	<path class="st5" d="M389.9,510.7c16.1,23.5,25.6,76.1,22.2,104.1c-6.5,54.6-23,69.9-49.4,94"/>
	<path class="st5" d="M302.3,766.3c-16.2,17.9-35.1,37.4-40.8,54.9"/>
	<path class="st5" d="M173.7,735.9c7-21.8,30.3-31,38.5-58.1s14.3-57.8-15-130.3"/>
	<path class="st5" d="M367,103.1c8.2-10.4,36.6-30,36.6-30"/>
	<path class="st5" d="M430.7,60c-6.5,11.8-7.5,16-7.5,16"/>
	<path class="st5" d="M488.7,47.5c-0.4,9.6-9.8,25.2-9.8,25.2"/>
	<path class="st11" d="M340.2,182c0,0-10.2,26.7,16.6,17.1s50-30.6,43.9-40.7c-6.1-10.2-32.5-17.5-49.2,6
		C334.9,187.9,340.2,182,340.2,182z"/>
	<path class="st12" d="M313.9,215.7c0,0,17.5,16.1,20.1,14.8c2.6-1.3,0-27.1,0-27.1L313.9,215.7z"/>
	<path class="st12" d="M340.2,182c1.2,28.1-26.9,44.5-36,25.7c-10.6-21.9,15.4-39.3,24.6-38.7L340.2,182z"/>
	<path class="st11" d="M304.1,207.7c-10.6-21.9,10.6-40,24.6-38.7"/>
	<path class="st13" d="M328.8,168.1c9.1-4.4,16.6-5.4,20.7-5.5c1.6,0,2.6,1.6,1.8,3l-8,14.4c-1.5,2.7-5.4,2.8-7,0.2L328.8,168.1z"/>
	<path class="st12" d="M371.9,192.3c0,0,6.5,11.5,11.5,11c5-0.5,10.2-27,10.2-27L371.9,192.3z"/>
	<path class="st12" d="M363.6,271.7c0,0,1.9-22.1,5.6-23.7c3.7-1.6,12.2,24.5,12.2,24.5s-7.1,2.6-9.6,2.6
		C366.6,275.1,363.6,271.7,363.6,271.7z"/>
	<path class="st12" d="M392.3,266.4c0,0,0.3-25.9,3.9-27.4c3.7-1.6,11.2,14.7,11.2,14.7L392.3,266.4z"/>
	<path class="st12" d="M351.5,162.5c21.4-42.5,60-88.2,99.5-78.8c18.7,4.4,6.1,25.1-9.2,24.8C426.5,108.3,386.6,97.7,351.5,162.5z"
		/>
	<path class="st12" d="M453.9,116.1c-14.6-2.9-27-11.8-44.3-6.5c-21.3,6.5-36.5,18.4-46.9,35c25.9-10.4,44.2-17.9,62.5-18.7
		C443.4,125.1,453.9,116.1,453.9,116.1z"/>
	<path class="st13" d="M388.3,119.1c-5.1,3.4-6.1,17.7-3.8,16.9c2.2-0.8,28.2-10.7,31.9-9.7c3.7,1,5.2-18,0.9-18
		C405.5,108.2,388.3,119.1,388.3,119.1z"/>
</g>
<g id="_x3C_2-front-paw_x3E_">
	<path class="st1" d="M197.1,547.6c38.4,76.8,24.3,136.3-12.5,172.4c-36.8,36,18.1,62.7,17.7,107.4c-0.4,44.7-32.6,72.9-35.7,93.2
		c-3.1,20.4-18,48.6,8.2,59.2c0,0,3.5,3.9,11,0c5.5,12.1,18.8,11.8,22.7,9c5.1,7.4,25.1,8.6,29-3.5c3.9-12.1-5.9-11.4,0-23.5
		c5.9-12.1,14.5-6.7,21.2-20.8c6.7-14.1-8.5-69.7-2.7-102.3c8.6-48.6,83.5-105.4,120.3-143s51.7-92.1,13.7-184.9L197.1,547.6z"/>
	<path class="st2" d="M197.1,547.6c38.4,76.8,24.3,136.3-12.5,172.4c-36.8,36,18.1,62.7,17.7,107.4c-0.4,44.7-32.6,72.9-35.7,93.2
		c-3.1,20.4-18,48.6,8.2,59.2c0,0,3.5,3.9,11,0c5.5,12.1,18.8,11.8,22.7,9c5.1,7.4,25.1,8.6,29-3.5c3.9-12.1-5.9-11.4,0-23.5
		c5.9-12.1,14.5-6.7,21.2-20.8c6.7-14.1-8.5-69.7-2.7-102.3c8.6-48.6,83.5-105.4,120.3-143s51.7-92.1,13.7-184.9"/>
	<g>
		<defs>
			<path id="SVGID_7_" d="M197.1,547.6c38.4,76.8,24.3,136.3-12.5,172.4c-36.8,36,18.1,62.7,17.7,107.4
				c-0.4,44.7-32.6,72.9-35.7,93.2c-3.1,20.4-18,48.6,8.2,59.2c0,0,3.5,3.9,11,0c5.5,12.1,18.8,11.8,22.7,9c5.1,7.4,25.1,8.6,29-3.5
				c3.9-12.1-5.9-11.4,0-23.5c5.9-12.1,14.5-6.7,21.2-20.8c6.7-14.1-8.5-69.7-2.7-102.3c8.6-48.6,83.5-105.4,120.3-143
				s51.7-92.1,13.7-184.9"/>
		</defs>
		<clipPath id="SVGID_8_">
			<use xlink:href="#SVGID_7_"  style="overflow:visible;"/>
		</clipPath>
		<path class="st14" d="M206.5,645.1c72.4,19.3,83.8-3.4,87.8,2.4c8.9,13.1-70.1,47.4-87.8,34.5"/>
		<path class="st14" d="M341.3,743.1c-23.9-0.4-96.4-38.4-99.5-36.4c-3.1,2,31.7,59.9,65,70.1"/>
		<path class="st14" d="M159.5,732.1c41.1,41.5,83,41.1,85.8,44.7s-54.9,23.1-67,12.5"/>
		<path class="st14" d="M266.9,830.8c-25.5,14.1-55.6,11-55.6,15.3s36.8,26.6,50.3,26.2"/>
		<path class="st14" d="M420.9,619.3c-64.3,20.4-109.3-3.1-111.3,0c-2,3.1,49,60.7,93.6,57.6"/>
	</g>
	<path class="st5" d="M224.6,921c2.4,9-1.6,18.4-8.2,31.7c-4.3,8.8,5.2,35.7-7.8,36"/>
	<path class="st5" d="M208.5,910.8c-14.9,11.4-13.2,40.7-11.8,49c2.7,15.7-11,20-11,20"/>
</g>
<g id="_x3C_1-front-paw_x3E_">
	<path class="st1" d="M591,315.9c30.8-2.6,136.8,53,37.1,173.6c72.6-41.9,140.6-45,166.2-31.5c25.6,13.6,52.8-16.2,60.6,23.5
		c19.3,8.4,16.2,38.7-2.1,37.6c13.3,6.8,12.1,31-6.3,27.7c-12.2-2.2-8.1-14.5-28.2-13.1c-14.1,1-17.9,11.3-37.6,11.5
		c-26.2,0.2-16.2-25.6-64.8-17.8c-48.6,7.8-157.7,100-199,61.6c-64.3-59.6,22.5-156.2-4.7-190.1L591,315.9z"/>
	<path class="st2" d="M591,315.9c30.8-2.6,136.8,53,37.1,173.6c72.6-41.9,140.6-45,166.2-31.5c25.6,13.6,52.8-16.2,60.6,23.5
		c19.3,8.4,16.2,38.7-2.1,37.6c13.3,6.8,12.1,31-6.3,27.7c-12.2-2.2-8.1-14.5-28.2-13.1c-14.1,1-17.9,11.3-37.6,11.5
		c-26.2,0.2-16.2-25.6-64.8-17.8c-48.6,7.8-157.7,100-199,61.6c-64.3-59.6,22.5-156.2-4.7-190.1"/>
	<g>
		<defs>
			<path id="SVGID_9_" d="M591,315.9c30.8-2.6,136.8,53,37.1,173.6c72.6-41.9,140.6-45,166.2-31.5c25.6,13.6,52.8-16.2,60.6,23.5
				c19.3,8.4,16.2,38.7-2.1,37.6c13.3,6.8,12.1,31-6.3,27.7c-12.2-2.2-8.1-14.5-28.2-13.1c-14.1,1-17.9,11.3-37.6,11.5
				c-26.2,0.2-16.2-25.6-64.8-17.8c-48.6,7.8-157.7,100-199,61.6c-64.3-59.6,22.5-156.2-4.7-190.1"/>
		</defs>
		<clipPath id="SVGID_10_">
			<use xlink:href="#SVGID_9_"  style="overflow:visible;"/>
		</clipPath>
		<path class="st15" d="M492.6,460.6c24.7,9.8,78.3-30.6,84.6-24.3c6.3,6.3-64.3,105.8-90.1,85"/>
		<path class="st15" d="M518,598.4c26.3-8.9,54.9-82.9,59.6-83.3c4.7-0.4,16.1,62.3-3.9,87.4"/>
		<path class="st15" d="M702.9,449c-15.7,21.9-20.7,65-18.4,65.4c2.3,0.4,49.4-69.7,67.8-69"/>
	</g>
	<path class="st5" d="M854.8,481.5c-19.1,0.3-16.7,8.9-29.6,7.3c-12.9-1.6-15.7-14.6-35.7-7.3"/>
	<path class="st5" d="M852.7,519.1c-17.4-10.3-21.3-19.3-53.8-15.8"/>
</g>
<g id="_x3C_front-ear_x3E_">
	<path class="st1" d="M422.4,76c6.7-19.7,40-61.2,58.8-48.7s-2.4,45.4-2.4,45.4L422.4,76z"/>
	<path class="st2" d="M422.4,76c6.7-19.7,40-61.2,58.8-48.7s-2.4,45.4-2.4,45.4"/>
	<path class="st10" d="M469.4,42.8c-8-2.5-23.5,18.2-27.6,32.1l28.6-2.1C470.4,72.7,477.5,45.3,469.4,42.8z"/>
</g>
</svg>
