<svg xmlns="http://www.w3.org/2000/svg" viewBox="0 0 394.68 61.68"><defs><style>.cls-1{fill:#1d7151;}</style></defs><title>Asset 7</title><g id="Layer_2" data-name="Layer 2"><g id="Layer_1-2" data-name="Layer 1"><path class="cls-1" d="M11.1,0q2.36,0,4.11,3a9,9,0,0,1,1,4.14v.07a25.09,25.09,0,0,1-2,8.28v.07h.27c.79,0,1.41-.69,1.85-2.06q.16-.36.24-.36h.29q2.3,0,3.42,2.88l.06.83A3.62,3.62,0,0,1,18.43,20a4.93,4.93,0,0,1-1.63.33,11.34,11.34,0,0,1-3.54-.76q-2.46,6.86-2.45,9.94V30c0,1.13.4,1.79,1.22,2h.17a5.11,5.11,0,0,0,3.41-1.76,6.48,6.48,0,0,0,1.06-1.92h.13A45.83,45.83,0,0,1,15.74,35a32.64,32.64,0,0,1-2.42,6.26q-3.84,6.44-8.58,6.43H4A3.66,3.66,0,0,1,.3,44.88,8.89,8.89,0,0,1,0,42.59q0-5.1,6.4-19.49l2.18-5.77a6,6,0,0,0-2.85-1.22h0a.8.8,0,0,0-.76.4v.36c.13.51.36.76.69.76v.1a2.45,2.45,0,0,1-2.48-1.39c0-.22,0-.4,0-.53,0-1.44.84-2.27,2.51-2.49h.6a11.19,11.19,0,0,1,3.35,1A10.09,10.09,0,0,0,10.11,12v-.43c0-1.28-.83-2.2-2.49-2.75a3.53,3.53,0,0,0-1-.14A6.61,6.61,0,0,0,4.94,9H4.87a5.3,5.3,0,0,1-.43-1.92V6.69q0-2.74,2.95-5.27A6.25,6.25,0,0,1,11.1,0Z"/><path class="cls-1" d="M30.93,12.93H31c.79,0,1.25.6,1.36,1.82v.36c0,1.24-.77,4-2.29,8.32-1.46,3.85-2.19,6.32-2.19,7.43,0,.7.25,1.06.76,1.06,1.17-.24,1.76-.64,1.76-1.19.13,0,.28-.75.43-2.23h0a9.17,9.17,0,0,1,1.36,5.17,17.51,17.51,0,0,1-3.74,10.74c-1.92,2.17-4,3.25-6.13,3.25h-.27a3.63,3.63,0,0,1-3.78-2.78,10.13,10.13,0,0,1-.16-1.69V43q0-5.44,5.93-17.34a7.09,7.09,0,0,0,.4-2.05v-.24a1.46,1.46,0,0,0-1.16-1.42c-.25-.16-.37-.26-.37-.3a24.08,24.08,0,0,1,2.82-4.94C27.79,14.17,29.52,12.93,30.93,12.93ZM28.68,1.13a4.29,4.29,0,0,1,4,2.58,4.16,4.16,0,0,1,.43,1.89q0,3.12-3.41,4.81a6.34,6.34,0,0,1-1.69.3H28c-2.08,0-3.51-1.11-4.31-3.32a4,4,0,0,1-.1-.79V5.93q0-2.35,2.59-4.11A5.06,5.06,0,0,1,28.68,1.13Z"/><path class="cls-1" d="M54,13.29A8.08,8.08,0,0,1,60.27,16a5.86,5.86,0,0,1,4.57-2.46A3.21,3.21,0,0,1,68,15.58a7.76,7.76,0,0,1,.36,2.15,16.92,16.92,0,0,1-3.12,9.12c-1,1.17-1.84,1.75-2.42,1.75h-.39a4.69,4.69,0,0,1-.53-1.16l-.37-.36c-.48,0-.82.51-1,1.52s-.67,3.22-1.2,6.67A78.16,78.16,0,0,1,55,50.41Q50.1,61.69,41.71,61.68h-.6A8.8,8.8,0,0,1,33,57.27,8.89,8.89,0,0,1,31.9,53q0-4.71,4.47-8.22c0-.07.06-.13.17-.2.51,1.33,2.17,2.7,5,4.11a10.65,10.65,0,0,0,4.11,1c2.87,0,4.93-1.83,6.17-5.47a24,24,0,0,0,.83-2.52,12.12,12.12,0,0,1-5.37,3,17.33,17.33,0,0,1-3.45.4h-.3a7.39,7.39,0,0,1-7-4A11.31,11.31,0,0,1,35.48,36a25.37,25.37,0,0,1,3.71-12.39,27.58,27.58,0,0,1,4.64-5.64Q49.13,13.3,54,13.29ZM45.42,25.85v.47q0,3.15,2.39,4.17l1.06.14c3,0,5.28-1.62,6.76-4.84a10.06,10.06,0,0,0,.76-3.45,3.6,3.6,0,0,0-2.58-3.78,5.69,5.69,0,0,0-1.3-.16h-.06q-5.14,0-6.8,5.5A8.79,8.79,0,0,0,45.42,25.85Z"/><path class="cls-1" d="M85.47,13.29q4.86,0,6.66,3.58a6.12,6.12,0,0,1,.4,2.12v.27q0,3.7-4.35,7.89A7.91,7.91,0,0,1,83.64,29H83a3.91,3.91,0,0,1-3.48-2.12,3.65,3.65,0,0,1-.39-1.75c0-1.75.93-3.52,2.81-5.31H82A3.68,3.68,0,0,0,83.78,22a3.44,3.44,0,0,0,1.22.33c1.13,0,1.91-.86,2.36-2.58,0-.64-.69-1.21-2.06-1.69a3.53,3.53,0,0,0-1-.14H84q-4.87,0-7.23,5.84a7.23,7.23,0,0,0-.46,2.58v.17q0,3.7,3.94,4.94a9.68,9.68,0,0,0,2.29.3h1.29a8.46,8.46,0,0,0,6.4-2.95l.33-.27a8,8,0,0,1,1.26,4.34v.3q0,5.61-6.46,11a16.51,16.51,0,0,1-9.88,3.28h-.3q-6.16,0-8.45-4.74a14.57,14.57,0,0,1-.9-5.13q0-7.07,5.54-15.22A28.56,28.56,0,0,1,77.91,16,14,14,0,0,1,85.47,13.29Z"/><path class="cls-1" d="M98,47.66q-3.18,0-4.08-3.31a19.17,19.17,0,0,1-.13-2.06q0-5.2,5.4-16.8a8.8,8.8,0,0,0,.37-2,1.62,1.62,0,0,0-1.3-1.59q-.33-.24-.33-.3a24.93,24.93,0,0,1,2.75-5q3-3.64,5-3.64c.91,0,1.4.73,1.49,2.18l0,.24a14.19,14.19,0,0,1-.56,3.11Q111.42,13,116.66,13q4.25,0,5.67,3.35a5.76,5.76,0,0,1,.23,1.69,8.71,8.71,0,0,1-.1,1.36c.05,1.3.32,2,.83,2h.4a3.48,3.48,0,0,0,1.56-.9h.06l0,.7a8.22,8.22,0,0,1-4.28,7.29,7.05,7.05,0,0,1-3.18.89,4.31,4.31,0,0,1-4.48-3.11,6,6,0,0,1-.19-1.49,17,17,0,0,1,1.35-5l.1-.43c0-.42-.2-.63-.53-.63q-2.55,0-7.82,5.17a12.24,12.24,0,0,0-2.95,5.93,6.81,6.81,0,0,1-.16.9v.1c0,.79.27,1.19.82,1.19a4.09,4.09,0,0,0,2.52-1.26,7.08,7.08,0,0,0,1.4-2.45H108a8.13,8.13,0,0,1,.7,3.28v.4a1.48,1.48,0,0,0,0,.36l-.06.26c-.13,3.7-1.71,7.56-4.74,11.61Q100.88,47.66,98,47.66Z"/><path class="cls-1" d="M155.32,13.29A8.06,8.06,0,0,1,161.55,16a5.86,5.86,0,0,1,4.58-2.46,3.21,3.21,0,0,1,3.18,2.06,7.76,7.76,0,0,1,.36,2.15,17,17,0,0,1-3.11,9.12c-1,1.17-1.85,1.75-2.42,1.75h-.4a5.16,5.16,0,0,1-.53-1.16l-.37-.36c-.48,0-.81.51-1,1.52s-.66,3.22-1.19,6.67a78.89,78.89,0,0,1-4.34,15.14Q151.37,61.69,143,61.68h-.6A8.56,8.56,0,0,1,133.18,53q0-4.71,4.48-8.22c0-.07.05-.13.16-.2q.77,2,5,4.11a10.56,10.56,0,0,0,4.11,1c2.87,0,4.92-1.83,6.16-5.47a21.9,21.9,0,0,0,.83-2.52,12,12,0,0,1-5.37,3,17.17,17.17,0,0,1-3.45.4h-.3a7.39,7.39,0,0,1-7-4A11.31,11.31,0,0,1,136.76,36a25.48,25.48,0,0,1,3.71-12.39,27.58,27.58,0,0,1,4.64-5.64Q150.42,13.3,155.32,13.29ZM146.7,25.85v.47q0,3.15,2.39,4.17l1.06.14c3,0,5.28-1.62,6.76-4.84a10.06,10.06,0,0,0,.76-3.45,3.6,3.6,0,0,0-2.58-3.78,5.61,5.61,0,0,0-1.29-.16h-.07q-5.14,0-6.79,5.5A8.26,8.26,0,0,0,146.7,25.85Z"/><path class="cls-1" d="M186.75,13.29q4.88,0,6.66,3.58a5.9,5.9,0,0,1,.4,2.12v.27q0,3.7-4.34,7.89A7.94,7.94,0,0,1,184.93,29h-.63a3.91,3.91,0,0,1-3.48-2.12,3.54,3.54,0,0,1-.4-1.75q0-2.62,2.82-5.31h.06A3.68,3.68,0,0,0,185.06,22a3.43,3.43,0,0,0,1.23.33c1.12,0,1.91-.86,2.35-2.58,0-.64-.69-1.21-2.06-1.69a3.53,3.53,0,0,0-1-.14h-.3q-4.87,0-7.22,5.84a7.24,7.24,0,0,0-.47,2.58v.17q0,3.7,4,4.94a9.6,9.6,0,0,0,2.28.3h1.3a8.44,8.44,0,0,0,6.39-2.95l.33-.27a8,8,0,0,1,1.26,4.34v.3q0,5.61-6.46,11a16.51,16.51,0,0,1-9.88,3.28h-.3q-6.16,0-8.45-4.74a14.79,14.79,0,0,1-.89-5.13q0-7.07,5.53-15.22A28.56,28.56,0,0,1,179.19,16,14,14,0,0,1,186.75,13.29Z"/><path class="cls-1" d="M205.35,12.93h.07c1,.17,1.52.9,1.52,2.18v.47a12.83,12.83,0,0,1-.4,2.82q4.11-5.17,9.38-5.18c2.68,0,4.52,1.08,5.54,3.22a4.94,4.94,0,0,1,.33,1.79v.17q0,3.27-2.45,9.44a7.49,7.49,0,0,0-.47,2.35v.47a.77.77,0,0,0,.57.83c1.15-.25,1.72-1.09,1.72-2.52l-.07-.23h.07a8.35,8.35,0,0,1,1.82,5.5q0,5.67-4.47,10.77-2.69,2.66-5.24,2.65h-.16a3.57,3.57,0,0,1-3.72-2.88,9,9,0,0,1-.16-1.76q0-5.57,5.83-17.3a4.87,4.87,0,0,0,.23-1.29c0-1-.86-1.68-2.58-2a8,8,0,0,1-1-.07,8.06,8.06,0,0,0-6.4,2.79,8.13,8.13,0,0,0-1.59,5c0,.75.23,1.2.7,1.36.9,0,1.43-.71,1.59-2.12v0l0-.59h0a9.54,9.54,0,0,1,2.18,6.53,15.32,15.32,0,0,1-3.87,9.84c-1.71,1.7-3.33,2.55-4.88,2.55h-.16c-2.26,0-3.69-1.18-4.31-3.54a11.47,11.47,0,0,1-.17-1.76v-.7q0-5.29,4.58-16.11a8.59,8.59,0,0,0,.23-1.45v-.77q0-1-1.62-1.59c.17-1.15,1.05-2.93,2.61-5.33Q203.33,12.93,205.35,12.93Z"/><path class="cls-1" d="M245.63,13.29q4.88,0,6.66,3.58a5.9,5.9,0,0,1,.4,2.12v.27q0,3.7-4.34,7.89A7.94,7.94,0,0,1,243.8,29h-.62a3.91,3.91,0,0,1-3.48-2.12,3.54,3.54,0,0,1-.4-1.75q0-2.62,2.82-5.31h.06A3.68,3.68,0,0,0,243.94,22a3.44,3.44,0,0,0,1.22.33c1.13,0,1.92-.86,2.36-2.58,0-.64-.69-1.21-2.06-1.69a3.53,3.53,0,0,0-1-.14h-.3q-4.87,0-7.23,5.84a7.23,7.23,0,0,0-.46,2.58v.17q0,3.7,3.94,4.94a9.68,9.68,0,0,0,2.29.3H244a8.45,8.45,0,0,0,6.4-2.95l.33-.27A8,8,0,0,1,252,32.91v.3q0,5.61-6.46,11a16.51,16.51,0,0,1-9.88,3.28h-.3q-6.16,0-8.45-4.74a14.56,14.56,0,0,1-.89-5.13q0-7.07,5.53-15.22A28.56,28.56,0,0,1,238.07,16,14,14,0,0,1,245.63,13.29Z"/><path class="cls-1" d="M258.13,47.66q-3.18,0-4.08-3.31a19.17,19.17,0,0,1-.13-2.06q0-5.2,5.4-16.8a8.8,8.8,0,0,0,.37-2,1.62,1.62,0,0,0-1.29-1.59c-.23-.16-.34-.26-.34-.3a25.43,25.43,0,0,1,2.75-5q3-3.64,5-3.64c.91,0,1.41.73,1.49,2.18l0,.24a14.19,14.19,0,0,1-.56,3.11Q271.58,13,276.82,13q4.24,0,5.67,3.35a5.44,5.44,0,0,1,.23,1.69,8.71,8.71,0,0,1-.1,1.36c.05,1.3.32,2,.83,2h.4a3.48,3.48,0,0,0,1.56-.9h.06l0,.7a8.22,8.22,0,0,1-4.28,7.29,7.05,7.05,0,0,1-3.18.89,4.29,4.29,0,0,1-4.47-3.11,5.61,5.61,0,0,1-.2-1.49,16.75,16.75,0,0,1,1.36-5l.09-.43c0-.42-.19-.63-.53-.63q-2.55,0-7.82,5.17a12.24,12.24,0,0,0-3,5.93,5.39,5.39,0,0,1-.16.9v.1c0,.79.27,1.19.83,1.19a4.09,4.09,0,0,0,2.51-1.26,7.08,7.08,0,0,0,1.4-2.45h.1a8.29,8.29,0,0,1,.69,3.28v.4a1,1,0,0,0,0,.36l-.07.26c-.13,3.7-1.71,7.56-4.74,11.61Q261,47.66,258.13,47.66Z"/><path class="cls-1" d="M303.91,13.29a7.57,7.57,0,0,1,5.57,2.29c1.65-1.53,2.87-2.29,3.64-2.29h.2c1,0,1.66.59,2.06,1.76,0,.33,0,.61,0,.83,0,1.17-1,4-2.92,8.45a20.69,20.69,0,0,0-1.65,6.1q0,1.29,1,1.29c1.08,0,1.56-1,1.43-3,.92,3.31.69,7.24-.72,11.78s-3.87,7-7.4,7.54q-3.64,0-4.58-1.66a5.61,5.61,0,0,1-.6-1.32,13.61,13.61,0,0,1-7.45,2.58q-5.75,0-7.63-6.36a13.67,13.67,0,0,1-.43-3.22v-1q0-5.86,4.25-13a31.34,31.34,0,0,1,4.77-5.84Q299,13.29,303.91,13.29Zm-9.65,14.85a3.48,3.48,0,0,0,2.79,3.48,7.45,7.45,0,0,0,1.75.23q4.51,0,7-5.77a8.55,8.55,0,0,0,.4-2.28A3.87,3.87,0,0,0,303,19.62c-.39,0-.7-.06-.92-.06q-4.57,0-7.06,5.23A9.3,9.3,0,0,0,294.26,28.14Z"/><path class="cls-1" d="M326.49,0q2.36,0,4.11,3a9.14,9.14,0,0,1,1,4.14v.07a25.28,25.28,0,0,1-1.95,8.28v.07h.26c.8,0,1.42-.69,1.86-2.06.11-.24.18-.36.23-.36h.3q2.28,0,3.41,2.88l.07.83a3.61,3.61,0,0,1-2,3.12,4.91,4.91,0,0,1-1.62.33,11.39,11.39,0,0,1-3.55-.76q-2.44,6.86-2.45,9.94V30c0,1.13.41,1.79,1.23,2h.16A5.15,5.15,0,0,0,331,30.19a6.76,6.76,0,0,0,1.06-1.92h.13a47.35,47.35,0,0,1-1.06,6.7,34,34,0,0,1-2.42,6.26q-3.85,6.44-8.59,6.43h-.69a3.67,3.67,0,0,1-3.75-2.78,8.89,8.89,0,0,1-.3-2.29q0-5.1,6.4-19.49L324,17.33a6,6,0,0,0-2.85-1.22h0a.81.81,0,0,0-.76.4v.36c.14.51.37.76.7.76v.1a2.46,2.46,0,0,1-2.49-1.39c0-.22,0-.4,0-.53q0-2.16,2.52-2.49h.6a11.16,11.16,0,0,1,3.34,1,9.57,9.57,0,0,0,.53-2.35v-.43c0-1.28-.83-2.2-2.48-2.75a3.55,3.55,0,0,0-1-.14,6.61,6.61,0,0,0-1.69.3h-.06a5.3,5.3,0,0,1-.43-1.92V6.69q0-2.74,2.95-5.27A6.2,6.2,0,0,1,326.49,0Z"/><path class="cls-1" d="M354.2,13.29a7.25,7.25,0,0,1,7.33,5.2,18.38,18.38,0,0,1,.66,4.84v.93q0,7.5-5.63,16.34a15.26,15.26,0,0,1-13.16,7.06q-6.11,0-7.92-7.36a22.52,22.52,0,0,1-.3-3.24q0-6.63,4.57-14a32.22,32.22,0,0,1,3.95-4.78Q349,13.29,354.2,13.29Zm-8.28,14.92a4.9,4.9,0,0,0,3.48,4.93,4.54,4.54,0,0,0,1.09.17h.43q3.34,0,5-4h-.07a5.68,5.68,0,0,1-3.58,1.39,3.14,3.14,0,0,1-3.11-2.39,5,5,0,0,1-.1-.89V27a5.26,5.26,0,0,1,.69-2.62,3.74,3.74,0,0,0,2.66,1.53h.23q2.11,0,3.74-3.78a5.6,5.6,0,0,0,.14-.93v-.06a2.37,2.37,0,0,0-1.83-2.36,5.55,5.55,0,0,0-1.06-.16q-3.57,0-6.33,4.7A10.17,10.17,0,0,0,345.92,28.21Z"/><path class="cls-1" d="M367.3,47.66q-3.18,0-4.08-3.31c-.08-.82-.13-1.5-.13-2.06q0-5.2,5.4-16.8a8.8,8.8,0,0,0,.37-2,1.62,1.62,0,0,0-1.29-1.59c-.23-.16-.34-.26-.34-.3a25,25,0,0,1,2.76-5q3-3.64,5-3.64c.91,0,1.41.73,1.49,2.18l0,.24a14.19,14.19,0,0,1-.56,3.11Q380.75,13,386,13q4.25,0,5.67,3.35a5.44,5.44,0,0,1,.23,1.69,8.71,8.71,0,0,1-.1,1.36c0,1.3.33,2,.83,2h.4a3.48,3.48,0,0,0,1.56-.9h.07l0,.7a8.22,8.22,0,0,1-4.28,7.29,7.05,7.05,0,0,1-3.18.89,4.29,4.29,0,0,1-4.47-3.11,5.61,5.61,0,0,1-.2-1.49,16.75,16.75,0,0,1,1.36-5l.1-.43c0-.42-.2-.63-.53-.63-1.71,0-4.31,1.72-7.83,5.17a12.33,12.33,0,0,0-2.95,5.93,5.39,5.39,0,0,1-.16.9v.1c0,.79.27,1.19.83,1.19a4.11,4.11,0,0,0,2.52-1.26,7.16,7.16,0,0,0,1.39-2.45h.1a8.29,8.29,0,0,1,.69,3.28v.4a1,1,0,0,0,0,.36l-.07.26c-.13,3.7-1.71,7.56-4.74,11.61Q370.23,47.66,367.3,47.66Z"/></g></g></svg>