<svg xmlns="http://www.w3.org/2000/svg" xmlns:xlink="http://www.w3.org/1999/xlink" viewBox="0 0 347.66 368.9"><defs><style>.cls-1,.cls-6{fill:none;}.cls-2{fill:#f5f5ef;}.cls-11,.cls-2,.cls-6{stroke:#1d7151;stroke-linecap:round;stroke-linejoin:round;}.cls-3{clip-path:url(#clip-path);}.cls-11,.cls-4{fill:#1d7151;}.cls-5{clip-path:url(#clip-path-2);}.cls-7{clip-path:url(#clip-path-3);}.cls-8{clip-path:url(#clip-path-4);}.cls-9{clip-path:url(#clip-path-5);}.cls-10{clip-path:url(#clip-path-6);}.cls-12{clip-path:url(#clip-path-7);}</style><clipPath id="clip-path"><path class="cls-1" d="M238,187.43c38.32-42,24.45,36.62,55.46,27.78,20.67-5.89,23.11-49.38-9-61.72-35.89-13.81-50.38-28.72-51.35-47.22-.94-17.78,16.18-32.82,26.29-29.53,25.68,8.35-12.67,38.24,26.39,52.92s54.67,60.05,37,86.3-47.88,34.69-78.5-5.46A31.22,31.22,0,0,1,238,187.43Z"/></clipPath><clipPath id="clip-path-2"><path class="cls-1" d="M173.5,155.15C128.06,147.06,105,177.79,120.29,209c8.22,16.73,24.85,28.56,15.12,33.7s-23.71,1.58-28.31,11.93S101,278.43,95,280.28s-13.61,8.08-7.9,15c2.6,3.16,5.66,2.34,9,.63-5.26,8.2,6.59,14.52,9.08,4.27,1.75,12,14.83,5.15,16.06-3.17s-1-17.69,9.66-22.77,25.75,6.12,33.54-6.65c5.91-9.68-2.66-19-1.81-31.23s8.84-24.76,28.95-30.48S200.32,159.92,173.5,155.15Z"/></clipPath><clipPath id="clip-path-3"><path class="cls-1" d="M127.77,124.4c-7.54-35.27-36.89-18.87-45.56-36.24S81.47,51.61,60.68,38s-34.11-.63-40.48-3.6c-12.95-6.06-24,1.88-15,6.41C-2,43.26-.2,51,5.73,52,.46,54.5,2.19,62.12,8.28,62.44s7-4.48,13.32-7.09,8.61-1.78,12.91,4.48S46,64.16,52.06,61.33s-4,31.68,5.53,57.56c9.73,26.51,40.18,50.27,61,32.06C123.44,146.75,130.94,139.22,127.77,124.4Z"/></clipPath><clipPath id="clip-path-4"><path class="cls-1" d="M127.53,35.09c10.19-19.58,41-5.09,56.64,24.74,12.7,24.2-9.17,59.08-.82,72.24,17,26.89,61.29,14.76,71.12,41.31,11.6,31.36-6,54.14-34.34,57.38s-43.61-28.36-65.08-26.46-65.66-18.14-71.36-61.7C78.48,102.8,112.42,64.1,127.53,35.09Z"/></clipPath><clipPath id="clip-path-5"><path class="cls-1" d="M223.1,162.47c-46.32-8.48-51.51,52.68-29,77.2s44.63,23.14,51.66,38.18,10.35,37.25-.29,41.36-14.38-2.29-20.78,6-2.55,13.4-10.1,15.14S210,351,213.56,350.93c-4,7.49,4.75,14.16,10.1,10.53-3.94,7.72,15.89,10.31,17.76.87s-1.53-11.14,2.63-15.22,23.05-.21,30.5-11.46-3.66-20.86-2.23-30.1c4.4-28.54,12.59-28.22,11.33-37.52-1.67-12.44-5.21-16.24-18.51-15.1s-19.75-8.77-14.86-18.13S279.92,172.89,223.1,162.47Z"/></clipPath><clipPath id="clip-path-6"><path class="cls-1" d="M150.63,100.46c-36,2.69-23.7,34-42.08,40.23s-36.32-4.22-52.65,14.53-4.11,34.63-9.06,39.62S41,213.34,49,209.54c-.24,7,6.36,9.65,11.07,4.64,5.26,8.13,13.3,4.08,14.44-1.9s-4.93-9.32-6.65-16-.6-8.77,6.18-12.18,5.84-10.75,3.87-17.19,30.85,8.22,57.78,2.32c27.58-6,55.25-33,40-56.14C172.18,107.78,165.74,99.33,150.63,100.46Z"/></clipPath><clipPath id="clip-path-7"><path class="cls-1" d="M100.63,75.57c-7.91,4.09-1.22,15.27,11.57,15s22.38-3.46,26-13.23,1.85-12.64,5.75-13,9.2,2.58,16.66-.13,13.81-12.65,12.21-17.58c9.07,2.08,14.37.35,16.64-6.77S181,25.29,169.08,28C164.37,19.06,145,7.53,130,11c-1.8-9-10.65-11.89-14.83-9.92s-5.6,8.5-4,13.3C104.08,23.6,89.78,41,90.55,48.52s13.61,13.55,13.92,16S104.49,73.57,100.63,75.57Z"/></clipPath></defs><title>Asset 11</title><g id="Layer_2" data-name="Layer 2"><g id="tiger7"><g id="_tail_" data-name="&lt;tail&gt;"><path class="cls-2" d="M238,187.43c38.32-42,24.45,36.62,55.46,27.78,20.67-5.89,23.11-49.38-9-61.72-35.89-13.81-50.38-28.72-51.35-47.22-.94-17.78,16.18-32.82,26.29-29.53,25.68,8.35-12.67,38.24,26.39,52.92s54.67,60.05,37,86.3-47.88,34.69-78.5-5.46A31.22,31.22,0,0,1,238,187.43Z"/><g class="cls-3"><path class="cls-4" d="M259.4,63.91a57.41,57.41,0,0,0-30.34,20.41c-4.19,5.49-7.46,12.39-6,19.15.53,2.52,2.09,5.19,4.63,5.58a6.42,6.42,0,0,0,3.85-.89c3.09-1.64,5.48-4.33,8.3-6.4s6.55-3.53,9.8-2.23c3.53,1.42,5.25,5.57,8.61,7.36a9.92,9.92,0,0,0,8.89-.27,23.52,23.52,0,0,0,7-5.92c1.17-1.32,2.39-2.75,4.07-3.28,1.05-.33,2.18-.28,3.22-.62,2.33-.74,3.71-3.27,3.84-5.71a16.54,16.54,0,0,0-1.7-7c-1.5-3.59-3.41-7.35-6.87-9.12-1.9-1-4.12-1.26-5.94-2.38-4.13-2.53-5.88-9-10.71-9.2"/><path class="cls-4" d="M298.38,120c-5.46-.69-10.88-2.15-16.38-1.93s-11.37,2.51-13.93,7.39c-.88,1.68-1.4,3.67-2.92,4.79-2.3,1.71-5.49.57-8.32.11a16.18,16.18,0,0,0-15.34,6.38,10.59,10.59,0,0,0-2.12,8.36c.72,3.11,3.27,5.48,6,7.2a29.49,29.49,0,0,0,8.06,3.56c3.94,1.07,9.26.61,10.6-3.25.83-2.4-.36-5.08.1-7.59.5-2.7,2.89-4.75,5.5-5.61a22,22,0,0,1,8.18-.61c2.21.13,4.54.25,6.49-.79,4.05-2.14,4.27-7.76,3.95-12.33"/><path class="cls-4" d="M323.41,146.57c-2.8-1.5-5.16-4.63-8.3-4.16-2.44.37-4,2.91-4.37,5.35s.11,4.92,0,7.39a4.71,4.71,0,0,1-1.25,3.37c-1.92,1.7-4.83.09-7.29-.64-4.21-1.24-8.77.47-12.36,3a14.31,14.31,0,0,0-5.47,6.4c-1,2.67-.57,6,1.58,7.88s5.65,1.84,8.65,1.49,6.44-.93,8.74-3.07a22.33,22.33,0,0,1,2.09-2c2.56-1.87,6.35-.7,8.61,1.53a13.5,13.5,0,0,0,2.78,2.52,5.4,5.4,0,0,0,5.75-.82,10.61,10.61,0,0,0,3.19-5.15,21.77,21.77,0,0,0-.06-13.59"/><path class="cls-4" d="M298.5,194.62c2.89-2.94,7.3-5.44,11-3.54,3.39,1.76,4.12,6.21,4.43,10,1.71-1.86,3.48-3.77,5.79-4.78s5.32-.9,7,1c1.51,1.65,1.88,4.42,3.94,5.29a4.69,4.69,0,0,0,3.48-.25c3.16-1.26,6.22-4,9.51-3,2.34.66,3.84,3.13,4,5.55a13.3,13.3,0,0,1-1.89,7A33,33,0,0,1,334.51,224a10.65,10.65,0,0,1-5.72,2.06,8.56,8.56,0,0,1-6.45-3.75,25.09,25.09,0,0,1-3.21-7,9,9,0,0,1-5.42-5.69c-1.7,3-6.27,2.49-9.16.64a16.34,16.34,0,0,1-5.88-6.59"/><path class="cls-4" d="M287,204.66c2.13,2.45,4.33,5,5.14,8.15s-.23,7-3.17,8.38a3.12,3.12,0,0,0-1.13.66,2.3,2.3,0,0,0-.2,2.1c1.52,5.67,6.64,9.5,11.44,12.88l9,6.32a38.71,38.71,0,0,0-1.4-9.26c-.62-2.25-1.77-4.76-4-5.29-.7-.17-1.62-.25-1.82-.95a1.43,1.43,0,0,1,0-.71c.4-1.68,1.52-3.09,2.29-4.64s1.16-3.52.14-4.92-3.15-1.72-4.27-3.09c-1.63-2-.86-5.89-3.32-6.68"/><path class="cls-4" d="M279.12,198.37a8.92,8.92,0,0,1,3.06.9,5.06,5.06,0,0,0-8.3,4c.06,2.36,1.71,4.34,2.85,6.41s1.65,5-.15,6.54a7.39,7.39,0,0,1-2.45,1.12,21,21,0,0,0-9.68,6.9c-3,3.84-4.4,9.68-1.29,13.41a9.35,9.35,0,0,0,3.3,2.43c3.93,1.82,9.05,1.35,12.07-1.77s3-8.89-.45-11.49a5.73,5.73,0,0,1-1.83-1.62,3,3,0,0,1,.82-3.4,30.29,30.29,0,0,1,3-2.23,13.74,13.74,0,0,0,3.9-6.24,8.91,8.91,0,0,0,.66-4.94,10,10,0,0,0-2.1-3.72l-5.82-7.52"/><path class="cls-4" d="M261.25,172.53c1.34,1.8,3.34,3,4.63,4.88s1.54,4.81-.36,6a8.22,8.22,0,0,1-2.7.76c-4.1.87-7.07,4.4-9.17,8a27,27,0,0,0-3.87,11.47A15.58,15.58,0,0,0,253.3,215a3.19,3.19,0,0,0,2.56,1.35c1.41-.16,2.07-1.8,2.38-3.19a46.51,46.51,0,0,0,1.12-9.26c.07-3.34.21-7.47,3.22-8.93,1.89-.91,4.21-.32,6.14-1.13a6.25,6.25,0,0,0,2.18-1.63A10.34,10.34,0,0,0,263.65,175"/></g></g><g id="_2paw-back_" data-name="&lt;2paw-back&gt;"><path class="cls-2" d="M173.5,155.15C128.06,147.06,105,177.79,120.29,209c8.22,16.73,24.85,28.56,15.12,33.7s-23.71,1.58-28.31,11.93S101,278.43,95,280.28s-13.61,8.08-7.9,15c2.6,3.16,5.66,2.34,9,.63-5.26,8.2,6.59,14.52,9.08,4.27,1.75,12,14.83,5.15,16.06-3.17s-1-17.69,9.66-22.77,25.75,6.12,33.54-6.65c5.91-9.68-2.66-19-1.81-31.23s8.84-24.76,28.95-30.48S200.32,159.92,173.5,155.15Z"/><g class="cls-5"><path class="cls-4" d="M113,168.83c4.37,1.57,4.07,8.66,8.2,10.78,2.08,1.07,4.57.49,6.89.21a19.42,19.42,0,0,1,13.11,2.74,13.5,13.5,0,0,1,6.18,11.53c-2.22-4-7.58-5.13-12.15-4.63s-9,2.17-13.62,1.93c-6.33-.33-12-4.3-16.06-9.16"/><path class="cls-4" d="M101.36,218.06c1.19-5.05,5.77-8.86,10.81-10.13s10.42-.31,15.24,1.61a47.06,47.06,0,0,0,7.08,2.61c5.43,1.17,11-.86,15.88-3.6a24.85,24.85,0,0,1-15.86,9.91c-2.81.48-5.71.48-8.46,1.23a16.08,16.08,0,0,0-11.22,11.88"/><path class="cls-4" d="M126.46,236.24a10.09,10.09,0,0,1,6.39-3.8,26.08,26.08,0,0,1,7.59,0c2.9.3,6,.8,8.11,2.84,1.61,1.58,2.34,3.83,3.41,5.82s2.82,3.94,5.08,4c-1.12,1.3-2.45,2.7-4.17,2.74a5.14,5.14,0,0,1-2-.44c-2.45-.94-4.66-2.4-7-3.55a29.94,29.94,0,0,0-19.69-2.22"/><path class="cls-4" d="M101.23,249.21c1.84-1.08,4.17-.26,6.13.59,3.08,1.32,6.28,2.72,8.45,5.27,1.58,1.87,2.5,4.23,4.06,6.12,3.88,4.66,10.87,5.43,16.79,4.1L129.07,261c-2.75-1.56-5.81-3.55-6.22-6.69-.16-1.27.15-2.57-.09-3.82-.44-2.25-2.49-3.79-4.5-4.87a31.75,31.75,0,0,0-13.18-3.78"/><path class="cls-4" d="M184,266.71a54.45,54.45,0,0,0-27.5-6.25,23.55,23.55,0,0,1-5-.08c-2.94-.51-5.46-2.32-7.8-4.16a50.37,50.37,0,0,0,12.22,11.26c2.65,1.73,5.48,3.23,7.8,5.38s4.12,5.14,3.94,8.3"/><path class="cls-4" d="M179.84,235c-1.35-4.13-5.39-6.87-9.57-8s-8.58-1.09-12.91-1.38-8.82-1-12.32-3.62a7.06,7.06,0,0,1,5.18-4,22.33,22.33,0,0,1,6.78-.08c4.31.37,8.81.59,12.8-1.1,2.58-1.09,4.79-2.93,7.38-4a14.33,14.33,0,0,1,14.76,2.5"/></g><path class="cls-6" d="M96.15,295.9c2.31-4.73,3.24-9.39,9.81-13.3s6-10.5,5.07-11.77"/><path class="cls-6" d="M105.23,300.17c-1.14-4.61,1.93-11.55,5.38-12.64s8.24-7.19,7.57-9.78"/></g><g id="_1paw-back_" data-name="&lt;1paw-back&gt;"><path class="cls-2" d="M127.77,124.4c-7.54-35.27-36.89-18.87-45.56-36.24S81.47,51.61,60.68,38s-34.11-.63-40.48-3.6c-12.95-6.06-24,1.88-15,6.41C-2,43.26-.2,51,5.73,52,.46,54.5,2.19,62.12,8.28,62.44s7-4.48,13.32-7.09,8.61-1.78,12.91,4.48S46,64.16,52.06,61.33s-4,31.68,5.53,57.56c9.73,26.51,40.18,50.27,61,32.06C123.44,146.75,130.94,139.22,127.77,124.4Z"/><g class="cls-7"><path class="cls-4" d="M98.85,80.16c-1.46,2.26-4.15,3.43-6.8,3.92s-5.37.42-8,.88a20.58,20.58,0,0,0-15.71,27.63c1.26,3.31,3.6,6.43,6.94,7.57.07-1.44-1-2.62-1.82-3.83a9.89,9.89,0,0,1,2.93-13.22c2-1.26,4.53-1.85,5.89-3.76a20.46,20.46,0,0,0,1.36-2.83c1.75-3.64,5.63-5.72,9.38-7.22a110.12,110.12,0,0,1,13-4.09"/><path class="cls-4" d="M86.75,63.76A5.82,5.82,0,0,1,83,67.13a35.06,35.06,0,0,1-5.09,1,23.41,23.41,0,0,0-14,8.54c-2.23,2.87-3.73,7.08-1.61,10,1.59-1.69,2.5-3.93,4.07-5.65,3.23-3.52,8.46-4.1,13.22-4.54s10-1.24,13-5"/><path class="cls-4" d="M73.5,39.17a30.85,30.85,0,0,0-4.91,5.65c-2.57,3.48-5.17,7-6.71,11.06s-1.94,8.73-.08,12.64c1.35-4.44,3.11-9.38,7.33-11.3,1.05-.48,2.18-.73,3.26-1.11A14.53,14.53,0,0,0,81.52,46"/><path class="cls-4" d="M48.79,26.35A60.45,60.45,0,0,0,41.7,37.11a20.22,20.22,0,0,0-1.93,12.55,7.44,7.44,0,0,0,1.82,3.79,3.71,3.71,0,0,0,3.91,1,6.92,6.92,0,0,1-.45-6.53,20.41,20.41,0,0,1,3.87-5.6,11.94,11.94,0,0,1,2.78-2.58c.91-.54,2-.88,2.59-1.76a4.52,4.52,0,0,0,.55-1.66l1.71-9.21"/><path class="cls-4" d="M59.18,143.48c-.85-.27-.78-1.49-.47-2.32a16.61,16.61,0,0,1,11-10c1.7-.47,3.46-.66,5.19-1A27.43,27.43,0,0,0,91.2,119.58l-5.14,10.65a19.47,19.47,0,0,1-2.41,4.08c-3.33,4-9.4,4.74-12.69,8.74-3,3.63-2.84,8.81-2.54,13.49"/></g><path class="cls-6" d="M5.17,40.77c4.17-.68,6.07,1.63,7.7,2.59s5-1.59,7.73-1.28a9.19,9.19,0,0,1,4.81,2.32"/><path class="cls-6" d="M5.73,52c2.69-2.12,5.37-1.45,7.55-.45S18,48.85,20.77,48.4c1.2-.2,3.41-.25,4.3.9"/></g><g id="_body_" data-name="&lt;body&gt;"><path class="cls-2" d="M127.53,35.09c10.19-19.58,41-5.09,56.64,24.74,12.7,24.2-9.17,59.08-.82,72.24,17,26.89,61.29,14.76,71.12,41.31,11.6,31.36-6,54.14-34.34,57.38s-43.61-28.36-65.08-26.46-65.66-18.14-71.36-61.7C78.48,102.8,112.42,64.1,127.53,35.09Z"/><g class="cls-8"><path class="cls-4" d="M190.73,125.49c-3.35,1.45-5.3,5-6.1,8.57s-.69,7.24-1.23,10.84c-1.34,9-6.68,16.92-13.31,23.08s-14.56,10.74-22.4,15.27a45.88,45.88,0,0,0,27.86-8.3c2.41-1.71,4.73-3.74,5.94-6.44,1.12-2.5,1.18-5.36,2.11-7.94,2.34-6.52,9.6-10.13,12.45-16.44,2.7-5.95,1-13.24,3.85-19.11"/><path class="cls-4" d="M209.3,136.94c-1.78-.31-2.57,2.17-2.57,4,0,7.24,1,14.69-1.27,21.59-2,6.08-6.22,11.19-11.1,15.31s-10.4,7.4-15.72,10.94c-2.15,1.43-4.34,3-5.63,5.23,4.48-2.28,9.81-1.46,14.83-1.58a37.84,37.84,0,0,0,19.65-6.14,10,10,0,0,0,2.83-2.51c1.23-1.79,1.34-4.09,1.73-6.22,1.42-7.82,7-14.28,9.23-21.9,1.48-4.94,1.93-10.89,6.21-13.78"/><path class="cls-4" d="M197.3,76.57a21.76,21.76,0,0,1-14.4,9.88c-5.56,1-11.28-.15-16.94-.12a39.5,39.5,0,0,0-28.35,12.5,40.08,40.08,0,0,1,25.61-2.77c5.93,1.27,11.65,3.8,17.71,3.93,8.61.19,16.5-4.44,23.86-8.91"/><path class="cls-4" d="M76,112.75c2,4.22,6.82,6.59,11.49,6.94s9.29-1,13.73-2.51c8.09-2.75,16.17-6.21,22.41-12l-17.92,18.47a15.71,15.71,0,0,1-2.43,2.18c-4.48,3-10.44.78-15.84.5a21.09,21.09,0,0,0-14,4.45"/><path class="cls-4" d="M76.91,98.89c3.15,2,7.21,1.89,10.93,1.38a74.24,74.24,0,0,0,20.67-6,27.39,27.39,0,0,1-27.79,14.19"/><path class="cls-4" d="M90.1,191.29c4.12-3.13,8.51-6.26,13.62-7.08,3-.49,6.09-.14,9.14-.05a51,51,0,0,0,29.65-8.66l-16.2,14.86a31.24,31.24,0,0,1-6.94,5.25c-4.61,2.28-10.07,2.13-14.9,3.91"/><path class="cls-4" d="M237.08,149.68c-1.7,5,.07,10.46.69,15.73a35.9,35.9,0,0,1-6.52,25c-4.37,6-10.59,10.62-14.47,17a162.14,162.14,0,0,0,15.83-6.75c3-1.49,6.2-3.22,7.9-6.15,2.15-3.7,1.47-8.31,2-12.56.7-6,3.78-11.34,6.15-16.85s4.07-11.85,1.92-17.46"/></g></g><g id="_2paw-front_" data-name="&lt;2paw-front&gt;"><path class="cls-2" d="M223.1,162.47c-46.32-8.48-51.51,52.68-29,77.2s44.63,23.14,51.66,38.18,10.35,37.25-.29,41.36-14.38-2.29-20.78,6-2.55,13.4-10.1,15.14S210,351,213.56,350.93c-4,7.49,4.75,14.16,10.1,10.53-3.94,7.72,15.89,10.31,17.76.87s-1.53-11.14,2.63-15.22,23.05-.21,30.5-11.46-3.66-20.86-2.23-30.1c4.4-28.54,12.59-28.22,11.33-37.52-1.67-12.44-5.21-16.24-18.51-15.1s-19.75-8.77-14.86-18.13S279.92,172.89,223.1,162.47Z"/><g class="cls-9"><path class="cls-4" d="M183.93,177.39c-.17,4.94,3.47,10.58,9.88,14.19s15.47,4.76,21,2.26c3.38-1.52,5.8-4.31,10.33-4.13,6.06.24,10.47,5.43,16.33,7.57.5-3.48-2.83-7.63-7.84-9.78-4.83-2.08-11.41-2.76-14.08-6.14-1.26-1.59-1.2-3.38-2.56-5a14.37,14.37,0,0,0-3.7-2.65A79.48,79.48,0,0,0,199,166.81c-5.19-1.72-11.11-2.43-15.41-1"/><path class="cls-4" d="M177.55,233a14.88,14.88,0,0,0,24.29-1c1-1.61,1.79-3.43,3.09-4.85,2.33-2.52,6-3.26,9.36-3.76,4-.59,8-1,11.94-1.31a65.32,65.32,0,0,0-9.11,4.69c-2.6,1.61-5.41,4.65-3.85,7.29.43.73,1.2,1.42,1,2.26-.12.68-.81,1.08-1.42,1.4-7.32,3.76-15,8-18.95,15.19-1.44,2.6-2.28,5.91-.8,8.49"/><path class="cls-4" d="M261.3,224.91c-1.58,2-4.58,2.19-7.05,1.57s-4.79-1.87-7.33-2.15a12.25,12.25,0,0,0-8.56,2.61,22.77,22.77,0,0,0-5.82,7,13.52,13.52,0,0,1-2.56,3.67,11.6,11.6,0,0,1-1.9,1.26,11.66,11.66,0,0,0-4.32,3.39c-1,1.55-1,3.93.48,5,4.78-3.94,10-8.06,16.21-8.37,1.77-.09,3.59.13,5.28-.39,4.1-1.28,6.42-6.61,10.7-6.69"/><path class="cls-4" d="M212.68,274.24a20.57,20.57,0,0,1,14.2-20.16c5-1.5,11-1.35,14.24-5.4-1.67.45-2.3,2.42-2.88,4a20.26,20.26,0,0,1-3.15,5.7c-1.42,1.79-3.13,3.35-4.39,5.26-3,4.54-2.93,10.35-2.79,15.77"/><path class="cls-4" d="M261.7,243.71a26.47,26.47,0,0,1-8.09,9.49c-1.7,1.23-3.55,2.26-5.19,3.58a10.08,10.08,0,0,0-3.64,5,5.38,5.38,0,0,0,1.69,5.69,10.3,10.3,0,0,1,4.1-6.89c2-1.42,4.34-2.09,6.52-3.12a22.29,22.29,0,0,0,11.74-13.57"/><path class="cls-4" d="M291.59,270.62a15.93,15.93,0,0,0-21.07.46c-2.3,2.28-3.92,5.3-6.7,7-3.33,2-7.53,1.58-11.37,1,1.77,2.41,5,3.16,7.92,3.73l8.42,1.64a11.21,11.21,0,0,0,4.88.23c1.78-.44,3.21-1.69,4.81-2.59a13,13,0,0,1,14.38,1.41"/><path class="cls-4" d="M236.87,302c4.5-5.34,12.19-7,19.12-6.15,2.11.27,4.25.74,6.35.37s4.19-1.9,4.4-4c-.87.53-.73,1.78-.76,2.79-.09,3.77-3.67,6.41-7.05,8.09a20.35,20.35,0,0,1-8,2.45c-1.54.07-3.09-.15-4.63,0a5.66,5.66,0,0,0-4.11,1.86"/><path class="cls-4" d="M288,319.92a54,54,0,0,0-10.63-1.64,17.92,17.92,0,0,0-10.28,2.63,14.22,14.22,0,0,1-3.58,2.14,8.11,8.11,0,0,1-2.91.18,32,32,0,0,1-7.73-1.56c.86,3.3,4,5.68,7.29,6.47a20.12,20.12,0,0,0,10.11-.69,27,27,0,0,1,5-1.16,15.42,15.42,0,0,1,5,.57,31.71,31.71,0,0,1,8.53,3.53"/><path class="cls-4" d="M170,213.07a1.47,1.47,0,0,1-.28,1.25c2.19-3.08,4.76-6.4,8.48-7.07,2.56-.47,5.15.45,7.74.68,4.39.39,8.72-1.17,13.13-1.36,2.33-.1,4.67.18,7,.09a21.3,21.3,0,0,0,9.59-2.75c-4.66,4.32-11.77,5-16.69,9-3.81,3.11-6.12,8.07-10.58,10.13-2.52,1.16-5.4,1.23-8,2.12-3.09,1.05-5.67,3.17-8.18,5.26"/></g><path class="cls-6" d="M213.56,350.93c2.77-5,4.77-5.81,10.1-5.76s5.55-7.86,8.59-12,9-3.58,9-3.58"/><path class="cls-6" d="M223.66,361.46c3.05-6.7,4.78-6.1,9-8.23s1.92-6.66,3.15-10.45,6.32-7.16,8.54-6.52"/></g><g id="_1paw-front_" data-name="&lt;1paw-front&gt;"><path class="cls-2" d="M150.63,100.46c-36,2.69-23.7,34-42.08,40.23s-36.32-4.22-52.65,14.53-4.11,34.63-9.06,39.62S41,213.34,49,209.54c-.24,7,6.36,9.65,11.07,4.64,5.26,8.13,13.3,4.08,14.44-1.9s-4.93-9.32-6.65-16-.6-8.77,6.18-12.18,5.84-10.75,3.87-17.19,30.85,8.22,57.78,2.32c27.58-6,55.25-33,40-56.14C172.18,107.78,165.74,99.33,150.63,100.46Z"/><g class="cls-10"><path class="cls-4" d="M195.32,133.2a17.66,17.66,0,0,0-17.11-2.38c-2.08.84-4,2.08-6.12,2.77-5.22,1.68-10.9-.21-15.84-2.61s-9.77-5.37-15.22-6c-.19,3.59,2.46,6.72,5.33,8.9s6.18,3.91,8.37,6.78a30.29,30.29,0,0,0,2.63,3.51c3.18,3.09,8.3,2.34,12.7,1.72A87,87,0,0,1,200.58,147"/><path class="cls-4" d="M173.26,164.17a21.85,21.85,0,0,0-13.82-6c-5.38-.3-11.1,1.37-16-.88-7.29-3.35-9.43-13.88-17-16.53a29.15,29.15,0,0,1,.91,14.15,5.22,5.22,0,0,0-.13,2c.3,1.49,1.88,2.3,3.28,2.9L148,167.23c3.52,1.5,7.11,3.05,9.86,5.71s4.49,6.7,3.38,10.36"/><path class="cls-4" d="M123.3,183.41a19.89,19.89,0,0,1-8.81-20.26c.36-1.79,1-3.58.79-5.4-.41-4.1-4.73-7.26-4.39-11.36a75.66,75.66,0,0,1,7.72,9.23,10.92,10.92,0,0,1,2,3.76,15,15,0,0,1,.12,3.85,15.52,15.52,0,0,0,2.2,9c3.5,5.26,10.59,6.44,16.87,7.15"/><path class="cls-4" d="M86.49,141.47c4.42,1.54,9.41,3.66,10.75,8.14.33,1.11.39,2.28.61,3.42a13.17,13.17,0,0,0,7.72,9.49,1.58,1.58,0,0,0,1.49.06c.59-.42.4-1.32.15-2l-2.55-6.9a13.31,13.31,0,0,1-1-4,18.91,18.91,0,0,1,.69-4.46,22.08,22.08,0,0,0-4.58-18.1"/><path class="cls-4" d="M59,142.69c2.86,1.84,5.9,3.9,7,7.1.61,1.67.63,3.52,1.38,5.13A8.39,8.39,0,0,0,72.19,159a24.56,24.56,0,0,0,6.33,1.16c.48.05,1.1,0,1.25-.46a1,1,0,0,0-.23-.83c-1.26-1.93-3.13-3.35-4.8-4.93s-3.21-3.51-3.49-5.79.72-4.44,1.09-6.68a12.41,12.41,0,0,0-1-7.21"/><path class="cls-4" d="M35.92,169.17l2.4-1.65a20.53,20.53,0,0,1,6.07-3.23c4.1-1.12,8.4.38,12.43,1.74s8.49,2.59,12.43,1c-2.63,2-5.43,4.15-8.73,4.61-2.59.35-5.19-.37-7.8-.55A19.56,19.56,0,0,0,36.54,178"/></g><path class="cls-6" d="M49,209.54c.68-4.56,3.84-4.71,4.81-6.34s-2.81-8.44-1.39-11.49"/><path class="cls-6" d="M60,214.18c-.92-4.18,2.61-4.42,3.58-7.87s-3-2.51-3.66-6.56a6.49,6.49,0,0,1,2.54-6.25"/></g><g id="_head_" data-name="&lt;head&gt;"><path class="cls-2" d="M172.79,46.64C182.5,56.81,181.51,67.77,180,69s-4.28-5.77-6.09-5.35-.07,12.68-4.09,14.66-3.39-9.07-6.47-6.92c-1.7,1.18,4.36,9.36-1,14.48s-7.28,4.83-7.86,3.82,2.09-4.54-.16-7-6.6,6.49-4.46,8.26-7.38,3.85-8.85-2.88-1,4.22-6.2,7.81c-3.4,2.35.86-12.38-5-11.66s10-23,10-23Z"/><path class="cls-2" d="M95.48,45C81.61,49.19,78.73,65,79.92,66.54s5-5.48,7.16-4.36-6.66,9.49-3.62,14.94c.66,1.18,6.77-7.77,7.59-5.61s-2.92,9.67-1.3,14.13c.54,1.49,1.36-3.3,3.08-2.53S91.27,87,92.4,89.3s4.87-9.12,7.84-6.81S115,62,115,62Z"/><path class="cls-2" d="M100.63,75.57c-7.91,4.09-1.22,15.27,11.57,15s22.38-3.46,26-13.23,1.85-12.64,5.75-13,9.2,2.58,16.66-.13,13.81-12.65,12.21-17.58c9.07,2.08,14.37.35,16.64-6.77S181,25.29,169.08,28C164.37,19.06,145,7.53,130,11c-1.8-9-10.65-11.89-14.83-9.92s-5.6,8.5-4,13.3C104.08,23.6,89.78,41,90.55,48.52s13.61,13.55,13.92,16S104.49,73.57,100.63,75.57Z"/><path class="cls-11" d="M109.58,58.41c2.13,6.61,25.14,3.52,25.8,10.2s-5.72,10.27-13,12.19-21.8,0-23.38-4.13c4.7-5.15,6.38-13.86-10.51-22.15C97.36,58.14,104.43,60.14,109.58,58.41Z"/><path class="cls-2" d="M116.37,64.8c1,7.23-2,11.73-.84,12s11.26-6.94,9.36-9.71S116.37,64.8,116.37,64.8Z"/><path class="cls-2" d="M91.25,53.58c2.47,7.44.37,12,1.37,12.85s9-6.79,8.52-8.61S91.25,53.58,91.25,53.58Z"/><path class="cls-2" d="M109.58,58.41c6.63-9.24,22.61-7.48,26.84-2.82S140.13,65,133,67.68,109.89,68,109.58,58.41Z"/><path class="cls-2" d="M109.58,58.41c-2-8.25-9.67-22.48-18.51-18.73S85,54.31,92.36,57.57C100.31,61.08,104.89,60.62,109.58,58.41Z"/><path class="cls-11" d="M102.87,44.72c4.79-.51,16.08,3.57,19.91,7.12-7-.6-13.2,6.57-13.2,6.57A30,30,0,0,0,102.87,44.72Z"/><circle class="cls-6" cx="139.52" cy="42.79" r="7.1"/><circle class="cls-6" cx="108.43" cy="28.79" r="6.62"/><path class="cls-2" d="M122.78,51.84c3.32-14.08,16.61-15.25,28.71-12.65s12.47-9.63,5.2-12.09-23.26-.17-29.16,12.67S122.78,51.84,122.78,51.84Z"/><path class="cls-2" d="M102.87,44.72c15.26-9.32,20-15.13,18.65-22.34s-8.77-9.5-14.31-7.38c-7.25,2.76-3.25,7.59,2.57,10.29C114.76,27.59,117.53,35.34,102.87,44.72Z"/><g class="cls-12"><path class="cls-11" d="M144,68.12c4.35-8.43,2.95-16.29,4.09-16.93s9,13.47,5.14,18.54S144,68.12,144,68.12Z"/><path class="cls-11" d="M165.26,66.08c-2-16.27-8.65-16.61-8.66-19.15s15.28,3.63,16.06,10.39S165.26,66.08,165.26,66.08Z"/><path class="cls-11" d="M176.94,32.34c-3.42-.17-8.09,3.07-5.55,6.64s6.93,4.89,9.18,2.23S183.22,32.65,176.94,32.34Z"/><path class="cls-11" d="M118.87,6.12c-3.13,1-4.11,5.68-1.3,6.57,5.34,1.71,8.37-.14,7-2.85S122.6,4.92,118.87,6.12Z"/></g><circle class="cls-11" cx="139.52" cy="42.79" r="2.22"/><circle class="cls-11" cx="108.43" cy="28.79" r="2.38"/></g></g></g></svg>