<?xml version="1.0" encoding="utf-8"?>
<!-- Generator: Adobe Illustrator 22.1.0, SVG Export Plug-In . SVG Version: 6.00 Build 0)  -->
<svg version="1.1" id="Layer_1" xmlns="http://www.w3.org/2000/svg" xmlns:xlink="http://www.w3.org/1999/xlink" x="0px" y="0px"
	 viewBox="0 0 1000 1000" style="enable-background:new 0 0 1000 1000;" xml:space="preserve">
<style type="text/css">
	.st0{fill:none;stroke:#010101;stroke-miterlimit:10;}
	.st1{fill:#F8BAC5;stroke:#40BA88;stroke-linecap:round;stroke-linejoin:round;stroke-miterlimit:10;}
	.st2{fill:none;stroke:#40BA88;stroke-linecap:round;stroke-linejoin:round;stroke-miterlimit:10;}
	.st3{clip-path:url(#SVGID_2_);fill:#40BA88;stroke:#40BA88;stroke-linecap:round;stroke-linejoin:round;stroke-miterlimit:10;}
	.st4{clip-path:url(#SVGID_4_);fill:#40BA88;stroke:#40BA88;stroke-linecap:round;stroke-linejoin:round;stroke-miterlimit:10;}
	.st5{clip-path:url(#SVGID_6_);fill:#40BA88;stroke:#40BA88;stroke-linecap:round;stroke-linejoin:round;stroke-miterlimit:10;}
	.st6{clip-path:url(#SVGID_8_);fill:#40BA88;stroke:#40BA88;stroke-linecap:round;stroke-linejoin:round;stroke-miterlimit:10;}
	.st7{clip-path:url(#SVGID_10_);fill:#40BA88;stroke:#40BA88;stroke-linecap:round;stroke-linejoin:round;stroke-miterlimit:10;}
	.st8{clip-path:url(#SVGID_12_);fill:#40BA88;stroke:#40BA88;stroke-linecap:round;stroke-linejoin:round;stroke-miterlimit:10;}
	.st9{fill:#40BA88;stroke:#40BA88;stroke-linecap:round;stroke-linejoin:round;stroke-miterlimit:10;}
	.st10{fill:#F7F6F0;stroke:#40BA88;stroke-linecap:round;stroke-linejoin:round;stroke-miterlimit:10;}
</style>
<line class="st0" x1="620" y1="607.2" x2="620" y2="607.2"/>
<path class="st0" d="M528.2,531.9C528.2,531.9,528.2,531.9,528.2,531.9"/>
<line class="st0" x1="586.1" y1="428.7" x2="586.1" y2="428.7"/>
<path class="st0" d="M442.1,31.7c-0.2-0.2-0.4-0.5-0.6-0.7"/>
<g id="_x3C_1-back-paw_x3E__2_">
	<path class="st1" d="M664.4,321c23,0,59.1-30.5,42.1-77.2c-19.2-52.7-5.5-55.2-12.8-84.5c-9.9-39.4-53.2-24.9-64.5-57.6
		s2-46.9,0-65.9s-15.1-26.9-24.9-14.7c-11.2-16.1-21.5-5.4-22,2c-8.8-14-35.7-9-30.8,8.7s9.8,12.8,8.3,26.5
		c-1.5,13.7-13.7,16.6-5.4,41s23,17.1,32.2,28.8s42.6,15.8,39.1,49.8C614.6,286.3,640.9,321,664.4,321z"/>
	<path class="st2" d="M582.3,23c4.4,8.3-3.3,11.6-3.1,19.8c0.2,8.2,8.6,13.9,8.2,22.2s-6,16.9-6,16.9"/>
	<path class="st2" d="M604.3,21.1c4.2,5.1-3.1,14.3-2,23.1s7.7,14.3,8.8,19.8c1.5,7.3,0.1,10.3-4.4,15.4"/>
	<g>
		<defs>
			<path id="SVGID_1_" d="M664.4,321c23,0,59.1-30.5,42.1-77.2c-19.2-52.7-5.5-55.2-12.8-84.5c-9.9-39.4-53.2-24.9-64.5-57.6
				s2-46.9,0-65.9s-15.1-26.9-24.9-14.7c-11.2-16.1-21.5-5.4-22,2c-8.8-14-35.7-9-30.8,8.7s9.8,12.8,8.3,26.5
				c-1.5,13.7-13.7,16.6-5.4,41s23,17.1,32.2,28.8s42.6,15.8,39.1,49.8C614.6,286.3,640.9,321,664.4,321z"/>
		</defs>
		<clipPath id="SVGID_2_">
			<use xlink:href="#SVGID_1_"  style="overflow:visible;"/>
		</clipPath>
		<path class="st3" d="M635.4,98c1.9,16.6-16,14.3-11.6,31.1c4.4,16.9,7.3,25.6,9.2,24.9c1.8-0.7-3.4-19.1,0.7-20.2
			c4.1-1.1,13.6,4.8,17.6-4.3c4-9.2-1.8-20.5-1.8-20.5L635.4,98z"/>
		<path class="st3" d="M673.2,124.4c0.7,12.8-12.9,14.3-20.6,27.1c-7.6,12.8-6.9,21.2-4,22c0,0,7.5-12.4,13.7-11.7
			c6.2,0.7,15.5,3.2,21.4-4.9c5.9-8.1,5.6-27,5.6-27L673.2,124.4z"/>
		<path class="st3" d="M658.2,187.8c0.7-0.7,14.3,37.7,27.8,35.9c13.6-1.7,21.2-1.1,28.9,16.5c7.7,17.6-10.3,68.9-10.3,68.9
			s-3.8,5.5-11.8-0.7c-8-6.2-8-24.9,0.8-38.1c8.8-13.2-9.2-39.9-19.1-41.4C664.7,227.3,658.2,187.8,658.2,187.8z"/>
	</g>
</g>
<g id="_x3C_body_x3E__2_">
	<path class="st1" d="M311.2,151.5C447,34.3,635.5,101.6,661.9,239.4c23,119.7-59.1,141.2-69.9,202.2s8.2,87.5-1,115.8
		c-16.1,49.8-81.4,82.4-147.6,79.3c-52.2-2.4-115.3-50.1-101.5-98.4c13.7-48,57.6-53.2,82.1-102.6c59.9-120.9,15.3-140.7-75.2-179.8
		C256.4,216.1,311.2,151.5,311.2,151.5z"/>
	<g>
		<defs>
			<path id="SVGID_3_" d="M311.2,151.5C447,34.3,635.5,101.6,661.9,239.4c23,119.7-59.1,141.2-69.9,202.2s8.2,87.5-1,115.8
				c-16.1,49.8-81.4,82.4-147.6,79.3c-52.2-2.4-115.3-50.1-101.5-98.4c13.7-48,57.6-53.2,82.1-102.6
				c59.9-120.9,15.3-140.7-75.2-179.8C256.4,216.1,311.2,151.5,311.2,151.5z"/>
		</defs>
		<clipPath id="SVGID_4_">
			<use xlink:href="#SVGID_3_"  style="overflow:visible;"/>
		</clipPath>
		<path class="st4" d="M359.2,109c35.2,1.8,37.4,7,38.8,15.4s-2.9,20.4,0,24.9c9.5,14.7,33,8.8,31.9,22.3
			c-1.1,13.6,11.4-2.6,5.9-16.1c-5.5-13.6-15-9.5-16.1-18c-1.1-8.4,11.7-6.6,10.6-18.7c-1.1-12.1-19.5-24-32.1-27.6
			C385.6,87.8,359.2,109,359.2,109z"/>
		<path class="st4" d="M518.6,267.3c-1.8,1.5-17.6-50.4,2.9-69.1c20.5-18.8-1.8-36.3,18.3-49.5c7.9-5.2,19.3-1.5,37.7,9.8
			c18.4,11.3,21.7-0.3,34.1,5.2s27.8,45.9,22.7,54.2c-3.4,5.5-8.4-27.1-22-27.5c-13.6-0.4-21.2,7.8-31.9-6.6
			c-5.3-7.1-16.1-16.9-23.1-11c-12.9,10.9,1.5,18.4-9.8,31.5c-4.8,5.5-15.8,9.3-22.8,18.7C513.1,238.7,521.8,264.7,518.6,267.3z"/>
		<path class="st4" d="M548.6,329.9c3.4,1.4-5.6-23.8,2.3-33.3s21.8-6.2,28.1-17.6s0.4-15.4,4.8-21.6s6.6,0,9.5-3.7
			c2.9-3.7,2.6-12.5,7.7-11.4c5.1,1.1,4.8,20.6,17.6,24.9s23.4,14.3,24.9,26c1.5,11.7-1.5,35.9-4.4,40.7c-2.9,4.8,37.4-35.1,18-66.6
			s-15.4-6.6-29.3-23.1s-20.5-27.5-32.2-23.4c-11.7,4-6.6,18.7-13.6,20.9c-7,2.2-20.9,1.5-27.8,17.6c-7,16.1-2.9,33.7-9.9,31.1
			C537.3,287.8,544.2,328.1,548.6,329.9z"/>
		<path class="st4" d="M499.5,379.8c-2.8-0.9,10.1-39.2,30.1-36.3c20,2.9,33.2,3.3,38.4-5.5c5.1-8.8,10.6-43.6,21.2-41.4
			c10.6,2.2,2.2,29,9.2,37.8c7,8.8,13.6,29.7,10.3,45.4c-4.8,22.7-33.2,46.2-35.5,43.6c-2.3-2.6,17.8-21.2,12.9-31.5
			c-4.9-10.3-10-6.6-8.6-23.4c0.5-5.5,9.5-16.5,4.8-20.5c-4.8-4-17.2,5.9-23.4,12.1c-6.2,6.2-27.2,1.2-34.4,1.2
			C513.4,361.2,501.7,380.5,499.5,379.8z"/>
		<path class="st4" d="M442.7,467.9c2.4,2.8,27.1-44.6,41-28.8c13.9,15.8,0.4,46.2,2.9,46.9c2.6,0.7,22.7-18.3,22.4-25.1
			c-0.4-6.8-7.3-9-6.2-16.7c1.1-7.7,31.1-23.8,30-36.3c-1.1-12.5-32.2,23.1-45,9.2C475,403.2,439.8,464.5,442.7,467.9z"/>
	</g>
</g>
<g id="_x3C_1-front-paw_x3E__2_">
	<path class="st1" d="M402.5,214.5c-59.5,39.3-45.9,109.9,8.8,137.3c54.7,27.3-84.6,10.7-119,42s-13.4,34.2-26.6,43
		s-28.3,4.9-39.1,15.1c-10.7,10.3,3.1,15.8-7.8,19.5c-25,8.6-23.1,31.9-2.9,29.3c-11,11.4,8.6,21.1,15.6,13.2
		c5.9,15.1,23.8,12.2,26.4-0.5c3.1-14.9-2.9-17.6,6.4-23.9c9.3-6.4,21.5,1,30.8-10.7c9.3-11.7-0.3-23.9,10.7-38.6
		c35.2-46.9,92.9-4.9,154.9-24.9C586.1,374.7,524.7,133.9,402.5,214.5z"/>
	<path class="st2" d="M231.6,514c-1.3-14,3.4-29.1,15.9-34.6c12.5-5.5,27.5-6.6,27.8-19.1"/>
	<path class="st2" d="M215.9,500.8c4-9.6,8.6-6.3,12.3-13.6c3.7-7.3-1.6-12.5,10.8-19.8c12.5-7.3,21.2-2.9,20.9-10.6"/>
	<g>
		<defs>
			<path id="SVGID_5_" d="M402.5,214.5c-59.5,39.3-45.9,109.9,8.8,137.3c54.7,27.3-84.6,10.7-119,42s-13.4,34.2-26.6,43
				s-28.3,4.9-39.1,15.1c-10.7,10.3,3.1,15.8-7.8,19.5c-25,8.6-23.1,31.9-2.9,29.3c-11,11.4,8.6,21.1,15.6,13.2
				c5.9,15.1,23.8,12.2,26.4-0.5c3.1-14.9-2.9-17.6,6.4-23.9c9.3-6.4,21.5,1,30.8-10.7c9.3-11.7-0.3-23.9,10.7-38.6
				c35.2-46.9,92.9-4.9,154.9-24.9C586.1,374.7,524.7,133.9,402.5,214.5z"/>
		</defs>
		<clipPath id="SVGID_6_">
			<use xlink:href="#SVGID_5_"  style="overflow:visible;"/>
		</clipPath>
		<path class="st5" d="M259.9,429.2c12.4,12.8,20.9,7.3,26,0c5.1-7.3,18.7,1.8,20.5,0c1.8-1.8-14.7-23.1-37-12.1
			S259.9,429.2,259.9,429.2z"/>
		<path class="st5" d="M282,391.5c8.7,11.4,30.3,1.5,35.4,6.2s23.1,17,36.3,7.6c0,0-20.6-1.4-23.4-13.8s-30.8-16.9-35.2-13.2
			C290.7,382,282,391.5,282,391.5z"/>
		<path class="st5" d="M339,366.9c7.7,14.3,30,3.3,33,17.6s4.8,21,12.1,20.8c7.3-0.2,30.8-9.8,35.5-4.3s22.3,8.5,24.5,4.3
			c0,0-13.9-4.7-18.3-12.4c-4.5-8-24.2,1.9-29.3-5.8s-4.8-17.9-17.6-24.3C366.2,356.3,339,366.9,339,366.9z"/>
		<path class="st5" d="M405.7,356.3c5.9-10.3,9.9-18.7,21.6-11c11.7,7.7,16.5,24.1,30,18.8s22.5-9.5,23.1-12.3
			c0.7-2.8-34.1,7.8-36.3-6.9s-14.3-40.8-30-38.7c-15.8,2.1-31.9-3.2-34.1-14.5s-26.4-6.9-26.4-6.9s17.2,57.9,24.5,60.1
			S405.7,356.3,405.7,356.3z"/>
		<path class="st5" d="M529.7,255.6c-0.1,0.7-0.2,1.4-0.3,2.1c-1.4,8.3-10.9,37.2-21.1,42.5c-16.7,8.7-21.5,17.7-25.5,21.3
			c-1.2,1.1-0.4,3.1,1.2,3.1c8.5,0.1,18.7-5.3,23.5-5.3c6.2,0,19.1,14.7,25.3,8.4c6.2-6.2-3.3-71.5-3.3-71.5"/>
		<path class="st5" d="M380.8,222.2c10.6,32.2,4.7,61.9,17.4,64.8c12.7,2.9,23.7-21.8,32.1-13.1c8.4,8.7,18.3,45.3,19.8,43.9
			c1.5-1.5,11-52-7.5-59.7c-18.5-7.7-37.6-24.8-36.5-38.2s3.3-21.8,3.3-21.8L380.8,222.2z"/>
	</g>
</g>
<g id="_x3C_2-right-paw_x3E__1_">
	<path class="st1" d="M568.4,467.9c94-18.4,131.9,11.3,134.1,48.2s8.8,86-57.2,138.8c70.3-61.6,108.4-39.6,115.8-33
		c7.3,6.6,24.4-0.1,31.9,4.8c10.5,6.7,12,14.8,0.4,21.6c8.5-1.1,14.7,20.9-2.9,19.8c10.3,6.6-3.7,29.3-19.1,24.2
		c-15.4-5.1-10.3-30.3-27.8-22.7c-52.8,22.9-40.9-6-77.5,10.1s-64.7,46.3-85.2,31C546.8,685,574.3,630,635.1,586
		c-98.2,87.2-137,79.9-166.3,62.3S389.6,503,568.4,467.9z"/>
	<path class="st2" d="M744.3,640.2c17.3-9,18.8,4.4,26.1,6.4s14-0.4,23,1.7"/>
	<path class="st2" d="M747.4,654.7c14.2-4.9,16.4,6.8,22.7,12.5c10.1,9,11.5-3.2,20.3,1"/>
	<g>
		<defs>
			<path id="SVGID_7_" d="M568.4,467.9c94-18.4,131.9,11.3,134.1,48.2s8.8,86-57.2,138.8c70.3-61.6,108.4-39.6,115.8-33
				c7.3,6.6,24.4-0.1,31.9,4.8c10.5,6.7,12,14.8,0.4,21.6c8.5-1.1,14.7,20.9-2.9,19.8c10.3,6.6-3.7,29.3-19.1,24.2
				c-15.4-5.1-10.3-30.3-27.8-22.7c-52.8,22.9-40.9-6-77.5,10.1s-64.7,46.3-85.2,31C546.8,685,574.3,630,635.1,586
				c-98.2,87.2-137,79.9-166.3,62.3S389.6,503,568.4,467.9z"/>
		</defs>
		<clipPath id="SVGID_8_">
			<use xlink:href="#SVGID_7_"  style="overflow:visible;"/>
		</clipPath>
		<path class="st6" d="M528.2,467.9c23.4,8.9,40.9,28.9,35.6,42.1s-24.9,20-22.5,32.7c2.4,12.7,11.8,11.2,5.2,22.5
			s-27.6,33.7-25.2,35.2c2.4,1.5,54.7-29.3,54.7-44c0-14.7-7.8-17.6,0-28.3c7.8-10.7,26.9-16.6,26.9-28.3s-8.3-36.6-22.5-40.5
			C566.2,455.4,528.2,467.9,528.2,467.9z"/>
		<path class="st6" d="M622.9,453.9c29.8,18.6,36.1,29.3,36.1,38.6s-1,28.1-18.1,37c-17.1,8.9-15.1,29.4-9.8,29.9
			c0,0,1.5-22.5,20-23.4c18.6-1,30.8-3.9,31.3-14.7c0.5-10.7-9.6-26.4-5.9-35.3c3.7-8.9,13.7-24.4,2.9-27.5
			C668.8,455.4,622.9,453.9,622.9,453.9z"/>
		<path class="st6" d="M707.9,516.1c-1.5,19.8-14.2,30.6-25.9,35c-11.7,4.4-19.5-3.4-25.9,3.9s-9.8,17.6-8.3,18.6
			s14.2-14.7,24.9-9.3c10.7,5.4,47.9,5.9,43.5-4.9C711.8,548.7,707.9,516.1,707.9,516.1z"/>
		<path class="st6" d="M705.9,579.4c-19.4,30.3-64.5,22-77.2,32.7c-12.7,10.7-19.2,25-16.1,58.4c11.7-17.3,4.9-33.9,27.8-42.2
			c23-8.3,10.3,16.1,52.8-15.1C735.7,581.9,705.9,579.4,705.9,579.4z"/>
		<path class="st6" d="M709.8,607.2c-16.1,21.5-22.5,48.9-19.1,49.9c3.4,1,35.7-55.2,46.4-52.8C747.9,606.8,709.8,607.2,709.8,607.2
			z"/>
	</g>
</g>
<g id="_x3C_2-left-paw_x3E__1_">
	<path class="st1" d="M401.3,490.8C310.3,481.6,257,640.2,320,751.6c-15.4,27.1,22.1,115.9,67.1,162.7
		c32.6,33.9-33.1,16.4-51.4,20.9c-16.7,4.1-17.6,17-6.2,20.7c-15,10.6-13,26.4,2.9,29.9c17.9,3.9,24.5-15,45.1-12.8
		c20.5,2.2,47.3,20.5,60.1-3.3s11.4-45.8-11.4-66.3c-22.7-20.5,5.3-81.3-39.1-137.8C418.5,745,473.9,498.1,401.3,490.8z"/>
	<path class="st2" d="M380.3,948c-7.3,6.4-7.6,5.9-17.3,8.1c-9.8,2.2-20.8-7.2-33.5-0.2"/>
	<g>
		<defs>
			<path id="SVGID_9_" d="M401.3,490.8C310.3,481.6,257,640.2,320,751.6c-15.4,27.1,22.1,115.9,67.1,162.7
				c32.6,33.9-33.1,16.4-51.4,20.9c-16.7,4.1-17.6,17-6.2,20.7c-15,10.6-13,26.4,2.9,29.9c17.9,3.9,24.5-15,45.1-12.8
				c20.5,2.2,47.3,20.5,60.1-3.3s11.4-45.8-11.4-66.3c-22.7-20.5,5.3-81.3-39.1-137.8C418.5,745,473.9,498.1,401.3,490.8z"/>
		</defs>
		<clipPath id="SVGID_10_">
			<use xlink:href="#SVGID_9_"  style="overflow:visible;"/>
		</clipPath>
		<path class="st7" d="M306.6,534.5c29.5-23.4,50.5-27.4,55.4-23.9c4.9,3.4,1.5,19.3,7.1,34.3c5.6,15,24.3,26.7,22.5,38
			c-1.8,11.2-20.3,50.3-22.5,49.8c-2.2-0.5,16.3-40.1,9.5-47.9c-6.8-7.8-19.5,2-24.9-5.4c-5.4-7.3-1-29.8-10.3-31.8
			S298,571.1,298,571.1L306.6,534.5z"/>
		<path class="st7" d="M298,575.5c22.5,4.9,12.9,61.6,31.5,73.3c18.6,11.7,29.1,6.5,37.4,21.7c16.1,29.8-12.2,70.6-16.6,71.1
			c-4.4,0.5,16.1-42-2.9-45.9c-5.8-1.2-15,6.8-19,3.9s-5.3-17.1-10.5-15.1s-14.5,31.8-22.8,22c-8.3-9.8-23.2-103.1-13.1-113.3
			C292.1,582.8,298,575.5,298,575.5z"/>
		<path class="st7" d="M308.8,759.7c7.7,8.3,23.4-2.8,27.4,0c20.8,14.7,11.8,38.9,29.8,46.2c29,11.7,40.1,44.2,39.1,46.6
			c-1,2.4-17.6-18.5-28.8-22c-6.1-1.9-22.5,4.9-24.9-2s-2-16.1-14.2-25.4s-28.3,2.7-28.3,2.7V759.7z"/>
		<path class="st7" d="M347.8,873.5c13.2-5.4,56.3,21,57.2,24.9c0.9,3.9-12-7.4-22-3.9s-21.9,10.7-26.1,2.4S347.8,873.5,347.8,873.5
			z"/>
	</g>
</g>
<g id="_x3C_tail_x3E__1_">
	<path class="st1" d="M450.4,483.4c53.4,11.7-23,101.9,9.5,164.9c45.4,87.9,95.3,66.7,167.1,109.2c59.7,35.3,82.8,120.2,38.8,180.3
		c-45.5,62.2-130.4,40.3-156.1,9.5c-25.6-30.8-38.6-87-5.1-97.5c23.6-7.3,27.3,18.5,37.4,44c9.3,23.6,33.8,50.7,68.9,27.1
		c68-45.7,32.2-134.1-124.2-170.7S390.3,470.2,450.4,483.4z"/>
	<path class="st1" d="M450.4,483.4c53.4,11.7-23,101.9,9.5,164.9c45.4,87.9,95.3,66.7,167.1,109.2c59.7,35.3,82.8,120.2,38.8,180.3
		c-45.5,62.2-130.4,40.3-156.1,9.5c-25.6-30.8-38.6-87-5.1-97.5c23.6-7.3,27.3,18.5,37.4,44c9.3,23.6,33.8,50.7,68.9,27.1
		c68-45.7,32.2-134.1-124.2-170.7S390.3,470.2,450.4,483.4z"/>
	<g>
		<defs>
			<path id="SVGID_11_" d="M450.4,483.4c53.4,11.7-23,101.9,9.5,164.9c45.4,87.9,95.3,66.7,167.1,109.2
				c59.7,35.3,82.8,120.2,38.8,180.3c-45.5,62.2-130.4,40.3-156.1,9.5c-25.6-30.8-38.6-87-5.1-97.5c23.6-7.3,27.3,18.5,37.4,44
				c9.3,23.6,33.8,50.7,68.9,27.1c68-45.7,32.2-134.1-124.2-170.7S390.3,470.2,450.4,483.4z"/>
		</defs>
		<clipPath id="SVGID_12_">
			<use xlink:href="#SVGID_11_"  style="overflow:visible;"/>
		</clipPath>
		<path class="st8" d="M476.3,865.7c18.1,27.4,15.1,44.5,25.4,46.4s32.8,16.6,36.2,16.6s-10.3-10.3-9.3-23.9
			c1-13.7,19.1-31.8,9.3-46.4c-9.8-14.7,41.2,80,36.4,89.6c-4.2,8.4-3.7-14.9-32.1-5.6s-43.2-22-55.6-18.6
			C474.4,927.2,476.3,865.7,476.3,865.7z"/>
		<path class="st8" d="M593.1,919.4c12.2,12.2,28,9.8,27.5,13.2c-0.6,3.4-5.4,29.8-13.7,28.8s-26.4-0.3-25.9,7.8s0,26.4,7.8,25.4
			c7.8-1,47.4-17.1,49.3-20s-8.3-1.8-3.4-18.2c4.9-16.5,17.6-19.9,13.7-31.6c-3.9-11.7,1-10.7-11.2-8.8s-20-9.8-25.2-9.8
			S593.1,919.4,593.1,919.4z"/>
		<path class="st8" d="M625.8,894.5c9,2.6,27.4-2.7,29.8-7.7c2.4-5,8.4-7.4,8.4-4c-0.1,3.4,13.6,16.6,10.7,23.4
			c-2.9,6.8,9,22,14,19.5c5-2.4,4.5-42.5,4.5-42.5s-18.1-1.9-22.5-10.5c-4.4-8.6-8.3-25.7-15.1-25.2c-6.8,0.5,7.3,20.5-6.6,22
			c-13.9,1.5-15.9,4.4-16.4,8.3C632.1,881.8,625.8,894.5,625.8,894.5z"/>
		<path class="st8" d="M625.8,832c9.8-13.2,10.3-22.2,7.8-26c-2.4-3.8-16.4-9.1-13.1-12.6s29.2,13.2,36.5,9.8
			c7.3-3.4,24.9-3.9,21.5-13.2c-3.4-9.3-22.7-31.6-26.4-23.9c-3.7,7.7-0.5,16.1-12.7,13.2s-50.8-20.5-51.3-11.2
			c-0.3,5.4,16.6,7.8,17.6,19.1c1,11.2-12.7,4.4-11.7,15.6S625.8,832,625.8,832z"/>
		<path class="st8" d="M550.1,777.3c3.9-13.2-2.4-27.4-7.3-29.3c-4.9-2-18.1-6.1-17.3-9.6c0.7-3.6,34.9,5.5,40.3,0
			c5.4-5.5,0-21.6,0-21.6l-34.2-4.9c1.5,12.2-39.6-1-40.5,0s2.4,21.8,8.8,26.5c6.4,4.7,28.3,20.4,22.5,28.2
			C516.4,774.3,550.1,777.3,550.1,777.3z"/>
		<path class="st8" d="M449.4,744.5c6.8-24.9-11.4-43.4-10.1-55.2c0.6-5.1,0.6-9.9,0.5-13.6c-0.1-2.8,3.2-4.4,5.4-2.6
			c7.4,6.1,20,15.5,28.6,15.3c12.8-0.3,27.4-2.4,29.3,3.4s-34.7-34.7-34.7-34.7s-22.1-2-24.9-11.2c-2.9-9.3-17.1-24.4-19.1-23.9
			c-2,0.5,1.5,17.6-2.9,23c-4.4,5.4-11.3,21.8-6.4,33.2c5,11.4,12.7,34.7,6.8,40.1S449.4,744.5,449.4,744.5z"/>
		<path class="st8" d="M385,648.3c6.4-23.9,22.5-59.6,28.6-64s7.6-17.1,12-17.6c4.4-0.5,17.9,13.7,20.2,26.4
			c2.3,12.7,16,11.2,16,11.2s13-25.5,2.9-33.2c-30.8-23.4-16.6-44.4-31.4-41.6c-3.6,0.7-30.7,33.2-33.1,41.6
			c-2.4,8.4-20.8,26.8-20.8,26.8L385,648.3z"/>
	</g>
</g>
<g id="_x3C_head_x3E__1_">
	<path class="st9" d="M256.8,284c4.6-12.9,12.9-10.6,12.4,0c-0.5,10.6-5.3,29.2,0,38.4c5.4,9.3-9.7,23.6,5.2,29.3
		c2.2-5.4,20.6-18.6,17.5-29.8s-9.1-7.9-8.9-13.7s6.2-23.9,4.7-30.2c-1.6-6.3-6-23.4-26.7-15.2C250,267.2,256.8,284,256.8,284z"/>
	<path class="st10" d="M203.4,312.8c2.4,13.8,14.2,20,15.2,19.8c1.1-0.2-6.4-16-4-19.8"/>
	<path class="st10" d="M243.8,311.3c2,7.9,15.4,15.2,16.9,14.6c1.5-0.6-5.4-13.1-5.9-21.7"/>
	<path class="st10" d="M283.8,340.6c-2.6-6.7-11.2-15.8-10.3-17.1c0.9-1.3,15.6,2.1,17.2,7.3"/>
	<path class="st1" d="M294.6,138.8c8.8-10.3,8.3-37.6-9.3-33.7c-17.6,3.9-22.5,27.8-24.9,41s-34.2,17.1-45.9,55.7
		c-11.7,38.6-10.3,70.8-9.3,77.7c-12.2,9.8-10.3,45.4,11.7,31.3c10.3,9.3,41.5-0.5,41.5-15.1s-9.8-25.9,2.4-32.7
		c12.2-6.8,35.6,2.1,23.4,35.2c-6.8,18.6,9.5,14.5,7.3,26.9c-3.4,19.1-23,23-16.6,33.7c6.4,10.7,33.1-0.8,40.1-18.6
		c5.6-14.2-5.4-21.5-2.9-37.6c2.4-16.1,36.8-25.3,51.3-40.5c17.6-18.6,11.7-21.5,4.4-28.8s11.7-19.1,14.2-25.9s-3.9-1.5-7.3-7.6
		c-3.4-6.1,13.2-12.9,12.2-19.3s-24.4,2-27.8-5.4c17.6-9.8,31.2-36.5,15.1-46.4c-20.5-12.7-44.5,9.8-47.4,15.1
		C315.1,133.9,294.6,138.8,294.6,138.8z"/>
	<path class="st9" d="M216.9,310.8c1-27,24.4-32.4,17.7-35.8c-9-4.6-32.7-1.5-29.4,4.5C206.7,282.2,218.1,286.7,216.9,310.8z"/>
	<path class="st2" d="M229.5,273.4c-1.1-21.5,10.8-53.4,36.6-68.9s21.2-29.3,21.2-29.3"/>
	<path class="st2" d="M211.5,274c6.2-21,12.8-40.4-0.5-59.6"/>
	<path class="st10" d="M239.3,234.1c3.6,5.4,9.8,8.9,16.8,8.9c11.2,0,20.2-9.1,20.2-20.2c0-7.8-4.4-14.6-10.9-17.9
		c0,0-11.2,7.9-15.3,13.1C245.9,223.2,239.3,234.1,239.3,234.1z"/>
	<path class="st9" d="M321.8,169.8c-5.9,12.5,7.7,23.3,1.8,35.1c-5.9,11.8-27.9,27.2-28.6,25.4c-0.7-1.8,15-15.9,15-27.1
		C310.1,195.4,303.9,180.8,321.8,169.8z"/>
	<path class="st9" d="M339,193.6c11,10.2,15.7,29.2,4.7,41.7c-11,12.5-19.7,8.8-25.9,29.4c-3-31,10.7-28.2,17.2-44.8
		C341.5,203.3,339.9,198.1,339,193.6z"/>
	<path class="st9" d="M335.4,154.1c8.1-15.4,22.7-24.6,29.7-16.9s-5.9,24.1-12.8,29.6C352.2,166.8,345.3,154.9,335.4,154.1z"/>
	<path class="st9" d="M258.6,200.1c-9.3-12.3-36-6.5-36-6.5s8.8,4.8,9.2,16.1C237.6,199.9,258.6,200.1,258.6,200.1z"/>
	<path class="st9" d="M292.3,169.8c-20.7-19.2-51.8-5.1-51.8-5.1s14.2,5.1,7.2,20.1C260.8,166.8,292.3,169.8,292.3,169.8z"/>
	<circle class="st10" cx="257.8" cy="224" r="4.1"/>
</g>
</svg>
