<?xml version="1.0" encoding="utf-8"?>
<!-- Generator: Adobe Illustrator 22.1.0, SVG Export Plug-In . SVG Version: 6.00 Build 0)  -->
<svg version="1.1" id="Layer_1" xmlns="http://www.w3.org/2000/svg" xmlns:xlink="http://www.w3.org/1999/xlink" x="0px" y="0px"
	 viewBox="0 0 1000 1000" style="enable-background:new 0 0 1000 1000;" xml:space="preserve">
<style type="text/css">
	.st0{fill:#F7F6F0;}
	.st1{fill:#F8BAC5;}
	.st2{fill:#DD3D4E;}
	.st3{fill:none;stroke:#DD3D4E;stroke-linecap:round;stroke-linejoin:round;stroke-miterlimit:10;}
	.st4{clip-path:url(#SVGID_2_);}
	.st5{clip-path:url(#SVGID_4_);}
	.st6{clip-path:url(#SVGID_4_);fill:#DD3D4E;stroke:#EE2D30;stroke-miterlimit:10;}
	.st7{fill:#DD3D4E;stroke:#DD3D4E;stroke-linecap:round;stroke-linejoin:round;stroke-miterlimit:10;}
</style>
<g>
	<g>
		<g id="XMLID_1_">
			<g>
				<path class="st0" d="M635.2,776.2c0,0,12,2.8,12,20.8c-7.3-9.7-13.5-4.9-19.7-5.7c0,0,0,0,0,0
					C623.6,782.4,626.9,776.7,635.2,776.2z"/>
				<path class="st0" d="M623.4,796c0.6,0.4,11.9,7.2,7.9,22.3c-5.4-8-10.6-9.1-16.4-9.3c0,0-0.1,0-0.1,0c0,0,0,0-0.1,0
					c-0.4,0-0.7,0-1,0C609,797.7,617.2,795.3,623.4,796C623.4,796,623.4,796,623.4,796z"/>
				<path class="st0" d="M625.8,677.5L625.8,677.5c-11.9,1-14.6,0.1-15.5,13.1c-7.9-9.7-6.2-16.3-1.1-25.1c0,0,0.1,0,0.1,0
					C614.7,664,625.3,663.9,625.8,677.5z"/>
				<path class="st0" d="M609.4,813.8c0,0,5.8,12.7,2.3,22.1c-4.6-9.2-13.2-9.4-18.8-12v0C589.7,812,602.7,807.1,609.4,813.8z"/>
				<path class="st0" d="M604.3,652.6L604.3,652.6c-8.5,0.8-10.8,1-11.4,12c-5.6-8.2-4.4-13.8-0.8-21.2c0,0,0,0,0,0
					C595.9,642.1,604,641,604.3,652.6z"/>
				<path class="st1" d="M458.6,962.9c1.1,3,0.9,6.3-0.2,9.2c-10.6-2.8-15.5,3.8-16.6,10.1c-4.2-0.6-8.7-3.2-12.7-8.6
					c-5.9-7.9-0.1-18-11.4-21.8c-5.7-1.9-41.6-0.7-44.7-22.4c-5.1-36,0.2-35-23.3-57.3c-23.4-22.3-94.9-31.6-107.8-72.7
					c-12.9-41,20.5-59.8,25.8-86.1c5.3-26.4-18.8-36.3-16.9-85.5c1.9-49.2,36.8-76,56.8-111.7c20-35.7,18.1-60.6,49.1-95.1
					c30.1-33.5,111.6-44.3,116.7-44.9v0c9.9-0.9,21.8-4.3,36.6-11.3c64.1-30.7,60.2-113.6,20.7-163c-30-37.4-84.1-46.5-123.5-51.6
					c-89-11.5-97.5-94.7-51.4-126.8C382.3,4.6,403.1,2,445.5,13c42,10.9,19.6,58.9-14.6,39.6s-105.8,44.8,6.6,59.3
					C570.1,129,631.2,213,611.3,313.9c-12.7,64.3-48.1,72.1-32.2,98.4c15.8,26.4,97.3-7,137.1-14.7c39.9-7.6,58,36,39.9,64.5
					c-18.2,28.4-38.1,88.2-30.8,118.1s19,45.1-7.9,59.3c-26.9,14.2-43.5-13.8-68.1,20.4c-8.6,12-16.7,17-23.4,17.6
					c-0.5-13.6-11.1-13.5-16.5-12c-1.4-4-1.7-8.5-0.7-12.9c-1.3,0.2-2.8,0.3-4.4,0c-0.3-11.7-8.4-10.5-12.1-9.2c0,0,0,0,0,0
					c-1-3.6-0.2-8.3,3.6-14c-1.1-0.4-2.1-0.9-2.9-1.5c-2.4-1.8-3.5-4.3-3.5-6.7c0-3.6,2.3-7,6.1-8.2c9.7-3,11.9,1.4,21.8-4
					c8.4-4.5,5.3-13.7,14.7-17.6c10.9-4.5,16.8,6,30.3,1.5c17.3-5.9,37.5-99.4-21.8-100.6c-72.9-1.5-29.2,146.3-157.9,68.3
					c-4-2.4-8.4-4.1-13.1-4.7c-34.5-4.1-42.3,50.8-1.9,48.2c43.4-2.8,94,5.9,109.7,31.8c2,3.3,3.4,6.8,4.1,10.7
					c6.9,34.3-9.7,48.5-8.2,63.4s24.9,5.3,27.5,19.9c2.6,14.6-4.6,14.8-1.3,25.8c3.2,11,22.1,3.2,30.3,10.3
					c2.8,2.4,4.8,6.2,5.4,10.1c-8.3,0.5-11.6,6.1-7.7,15.1c-1.5,0.6-3.2,1.1-5.2,1.2c0.6,1.1,1,2.3,1.2,3.5c0,0,0,0,0,0
					c-6.2-0.7-14.4,1.7-9.6,13c0.4,0,0.7,0,1,0c-1.7,0.2-3.5-0.2-5.4-1.2h0c0.6,1.9,0.6,3.9,0.1,5.9c-6.8-6.6-19.7-1.8-16.5,10
					c-10.2-1.5-18.9-12.8-17.4-22.1c-24.3,2.9-38.4-13.5-41-28.1c-3.6-19.9,0.9-41-1.2-60.1c-2-19-9.1-41.3-39-54.2
					c-29.9-12.9-46.3-0.8-47.2-0.8c-2.4-5.2-6.4-9.2-12.3-10c-15.5-2.1-30.4,15.3-34.3,26.7l0,0.5c-22.1,1.8-48.5,11.7-76.7,35.9
					c-25.3-9.6-37.7,2.1-41.3,16.2c-4.2,16.7,8,18.7,13.9,20.6c16.4,5.2,30.5,8.5,36,23.4c5.6,14.9-10.3,41.3-7.3,52.2
					c2.9,10.8,10-2.4,14.1,2.6c4.1,5-4.4,13.2,1.8,18.5c6.2,5.3,16.1-7,22.6-2.6c6.5,4.4-4.1,14.7,2.4,16.1
					c6.4,1.5,18.2-11.1,22.9-7c4.7,4.1-2.6,13.2,2.6,14.6c2.7,0.8,8.8-4.7,16-9.6c10.5,38.2,31.2,31.2,47.1,35.2
					c5.3,1.3,10.1,3.9,13.8,9.8c13.9,21.9,14,16.5,24.3,21.3c4.9,2.3,7.4,9.1,6.6,15.3c0,0,0,0,0,0c-11-0.6-13.2,6.1-13,12.4
					c-1.8,0.1-3.7-0.1-5.9-0.5c2.2,3.2,2.8,6,2.3,8.5c-0.2-0.4-0.4-0.6-0.4-0.6c-10.7-0.9-14.2,3.2-14.2,9.6
					C464.6,967.4,461,965.9,458.6,962.9z"/>
				<path class="st0" d="M592.9,628c-7.5-0.3-9,1.5-11,6.3c-2.9-9.1,7-12.8,7.5-13C589.4,623.7,590.5,626.2,592.9,628z"/>
				<path class="st1" d="M479.8,778.8c2.6,1.6,5.2,3.1,7.8,4.2c-4.8,3.3-22.9,19.7-22.9,19.7c-0.2-1.7-0.9-3.9-2.2-6.4h0v0
					c-3.9-7.6-12.5-18.4-23-28c-0.4-0.4-0.8-0.7-1.1-1c-14.4-12.9-32-22.6-46.2-22.1c-22.1,0.8-35.4,9.6-36.5,19.6l-0.1,0
					c-20.1,31.2-25.3,101.2,78,64.5c1.6,1.6,3.7,2.8,6,3.7c3.5,1.6,6.2,3.2,8.4,4.9c7.1,5.5,9,11.6,15.9,18.7
					c1.5,1.6,3.4,2.9,5.4,3.8c3.3,1.6,7.2,2.4,11.1,2.4c14,0.1,29.7-9.2,29.3-25.8c-0.1-4-1.1-8.3-3.2-13.1
					c19,18.8,15.6,28.6,6.7,40.1c-11.3,14.6-19.9,8.5-20.2,11.4c-0.3,2.9-11.4,16.4-14.6,15.2c-3.2-1.2,2.9-11.7,0-13.5
					c-2.9-1.8-16.4,13.5-19,12c-0.1-0.1-0.2-0.1-0.2-0.2c-2.2-1.6,0.9-5.7,3.8-13.9c2.9-8.5-19.6-21.7-34-25.5
					c-6.9-1.8-14.6,2.2-21.2,6.8c-7.2,4.9-13.2,10.4-16,9.6c-5.3-1.5,2-10.5-2.6-14.6c-4.7-4.1-16.4,8.5-22.9,7
					c-6.5-1.5,4.1-11.7-2.4-16.1c-6.4-4.4-16.4,7.9-22.6,2.6c-6.2-5.3,2.3-13.5-1.8-18.5c-4.1-5-11.1,8.2-14.1-2.6
					c-2.9-10.8,12.9-37.2,7.3-52.2c-5.6-14.9-19.6-18.2-36-23.4c-5.9-1.9-18.1-3.9-13.9-20.6c3.5-14.2,16-25.9,41.3-16.2
					c28.2-24.2,54.6-34,76.7-35.9c3.9-0.3,7.6-0.4,11.2-0.3c9.8,0.4,18.6,2.3,25.9,5.2c2.7,1,5.2,2.1,7.5,3.4
					c-27.8,18.1-11.5,52.6,12,76.6c0,0,0,0,0,0C464.5,767.9,472.3,774.2,479.8,778.8z M336.8,758.8c15.4-21.3-30.2-45-38.2-29
					c-8.2,16.3,25.8,8.2,28.1,17.6C329.6,759.4,334.9,761.4,336.8,758.8z"/>
				<path class="st2" d="M480.4,858.3c-1.5-4.5-6.8-7.8-6.8-7.8l-1.2-4.6c0,0-0.1,0-0.1,0l0.1-0.1c3.7-7.3,3.4-17.9,3.4-17.9
					s18.8-8.9,31.1-24.4c-5.3,10.2-3.5,13.8-0.5,20.5c2.1,4.8,3.1,9.1,3.2,13.1c-0.1-0.1-1.4-0.8-6.7-3.3
					c-2.3,3.3-2.2,10.5-2.2,10.5S484.3,854.6,480.4,858.3z"/>
				<path class="st0" d="M499.4,938.3c0.5,0.6,12.1,14.7,1.4,24.4c-1.3-8-5.2-10.7-14.5-12c0,0,0,0,0,0
					C486.1,944.4,488.4,937.7,499.4,938.3C499.3,938.2,499.3,938.2,499.4,938.3z"/>
				<path class="st2" d="M487.5,783c3.4,6.4-3.8,21-3.8,21s-7.2,2.3-19-1.3C464.7,802.7,482.7,786.3,487.5,783z"/>
				<path class="st0" d="M516.1,788.8c-7.2,9.3-20.2,16.2-32.4,15.3c0,0,7.2-14.6,3.8-21c-2.5-1.2-5.1-2.6-7.8-4.2
					c3.4-9.8,12.2-17.2,21-19.7v0c2.2-0.6,4.4-0.9,6.6-0.8c5.6,0.2,10.5,2.9,13,9C523.3,774.5,521.1,782.2,516.1,788.8z"/>
				<path class="st0" d="M471.7,825.5c6.2-5.1,10.8-12.3,12-21.4c12.3,0.9,25.3-6,32.4-15.3c4.2,6,2.8,18.2,0,24
					c-2-1.8-6.1-4.8-9.2-9.2c-12.4,15.5-31.1,24.4-31.1,24.4L471.7,825.5z"/>
				<path class="st0" d="M482.8,958.7c1.7,2.8,7.9,14.7-1.7,23c-3.9-8-6.2-11.2-12.8-14.1c-0.1-6.3,3.5-10.5,14.2-9.6
					C482.5,958.1,482.6,958.3,482.8,958.7z"/>
				<path class="st0" d="M480.4,858.3c4-3.7,20.3-14,20.3-14s-0.1-7.2,2.2-10.5c5.3,2.4,6.6,3.2,6.7,3.3
					c0.4,16.6-15.3,25.9-29.3,25.8L480.4,858.3z"/>
				<path class="st0" d="M473.6,850.5c0,0,5.2,3.3,6.8,7.8l-0.1,4.5c-4,0-7.8-0.8-11.1-2.4C470.6,851.2,473.6,850.5,473.6,850.5z"/>
				<path class="st0" d="M464.7,720.9c8.4,0,15.2,6.8,15.2,15.2c0,8.4-6.8,15.2-15.2,15.2s-15.2-6.8-15.2-15.2
					C449.5,727.7,456.3,720.9,464.7,720.9z M467.6,736.1c0-1.6-1.3-2.9-2.9-2.9s-2.9,1.3-2.9,2.9c0,1.6,1.3,2.9,2.9,2.9
					S467.6,737.7,467.6,736.1z"/>
				<path class="st2" d="M473.6,850.5c0,0-3,0.7-4.4,9.9c-2-1-3.8-2.3-5.4-3.8c-6.9-7.1-8.8-13.2-15.9-18.7
					c8.1,0.9,13.1-2.4,13.1-2.4s3.5,7.5,11.4,10.5c0,0,0.1,0,0.1,0L473.6,850.5z"/>
				<circle class="st2" cx="464.7" cy="736.1" r="2.9"/>
				<path class="st2" d="M463.6,706.2c24.9-0.3,48.2,27.8,37.1,52.9v0c-8.7,2.4-17.5,9.8-21,19.7c-7-17.4,3.8-24.4,8.6-37.6
					c4.4-12,0.8-30.1-18.7-34.2c0,0-0.1,0-0.1,0C467.8,706.6,465.8,706.3,463.6,706.2z"/>
				<path class="st0" d="M500.7,759.1c11.1-25.2-12.2-53.2-37.1-52.9c14.2-5.4,61.8,10.5,43.6,52.1
					C505.1,758.2,502.9,758.5,500.7,759.1z"/>
				<path class="st0" d="M463.6,706.2c-16,11.9-20.7,32.7-6.3,54.4c-23.5-24-39.8-58.6-12-76.6C458,690.7,464.9,700,463.6,706.2z"/>
				<path class="st0" d="M462.5,796.4c1.3,2.5,2,4.7,2.2,6.4c11.9,3.7,19,1.3,19,1.3c-1.1,9.1-5.8,16.3-12,21.4
					c-9.7,8-23,10.8-32.2,7.4c-2.3-0.8-4.3-2.1-6-3.7c-1.1-1.1-2-2.2-2.6-3.4c-1.2-2.3-1.6-4.7-1.4-7.2
					C430.8,807.5,445,795.7,462.5,796.4L462.5,796.4z"/>
				<path class="st0" d="M458.4,972.1c0,0,7.3,16.6-5.4,24.1c-2.5-8.6-2.4-10.8-11.1-14C442.9,975.9,447.8,969.3,458.4,972.1z"/>
				<path class="st1" d="M457.3,760.6c-14.4-21.7-9.6-42.5,6.3-54.4l6,0.8c0,0,0.1,0,0.1,0c19.5,4.1,23.1,22.2,18.7,34.2
					c-4.9,13.2-15.7,20.2-8.6,37.6C472.3,774.2,464.5,767.9,457.3,760.6C457.3,760.6,457.3,760.6,457.3,760.6z M449.5,736.1
					c0,8.4,6.8,15.2,15.2,15.2s15.2-6.8,15.2-15.2c0-8.4-6.8-15.2-15.2-15.2S449.5,727.7,449.5,736.1z"/>
				<path class="st0" d="M447.9,837.8c-2.2-1.7-4.9-3.3-8.4-4.9c9.1,3.3,22.5,0.6,32.2-7.4l4,2.4c0,0,0.3,10.5-3.4,17.9l-0.1,0.1
					c-7.9-3.1-11.4-10.5-11.4-10.5S456,838.7,447.9,837.8z"/>
				<path class="st1" d="M447.2,658.5c3.9,8.5,3.2,20.1-1.8,25.3c-0.1,0-0.1,0.1-0.2,0.1c-2.3-1.2-4.8-2.4-7.5-3.4l0.1-0.2
					c0,0,6.5-18.1-7.1-21.3c-13.6-3.3-18,12.1-18.9,16.2l0,0.2c-3.6-0.1-7.3-0.1-11.2,0.3l0-0.5c3.8-11.4,18.7-28.8,34.3-26.7
					C440.8,649.3,444.9,653.3,447.2,658.5z"/>
				<path class="st2" d="M430.8,659c13.6,3.3,7.1,21.3,7.1,21.3l-0.1,0.2c-7.4-2.8-16.1-4.8-25.9-5.2l0-0.2
					C412.8,671.1,417.2,655.7,430.8,659z"/>
				<path class="st0" d="M368.6,783c-4.8,18.8,10.3,46.3,61,35.5h0.1c-0.2,2.5,0.2,5,1.4,7.2c-34.9,9.9-97.3-4.9-70.5-48.9
					C362.5,779,365.2,781.1,368.6,783z"/>
				<path class="st0" d="M360.5,776.9c-3.7-3.9-5.3-8.1-4.8-12.1c1.1-9.9,14.4-18.8,36.5-19.6c14.2-0.5,31.8,9.2,46.2,22.1
					c-12.9-4.9-24.9-5.9-35.2-4.5c-19.2,2.5-32.5,12.8-34.5,20.3C365.2,781.1,362.5,779,360.5,776.9z"/>
				<path class="st0" d="M409.9,793.1c-8.4,0-15.2-6.8-15.2-15.2s6.8-15.2,15.2-15.2c8.4,0,15.2,6.8,15.2,15.2
					S418.3,793.1,409.9,793.1z M412.8,778c0-1.6-1.3-2.9-2.9-2.9c-1.6,0-2.9,1.3-2.9,2.9s1.3,2.9,2.9,2.9
					C411.5,780.9,412.8,779.6,412.8,778z"/>
				<path class="st2" d="M409.9,775.1c1.6,0,2.9,1.3,2.9,2.9s-1.3,2.9-2.9,2.9c-1.6,0-2.9-1.3-2.9-2.9S408.3,775.1,409.9,775.1z"/>
				<path class="st1" d="M393.2,801.2c-13-4.7-16-26.4,10-38.4c10.3-1.3,22.3-0.4,35.2,4.5c0.4,0.3,0.8,0.7,1.1,1
					c10.5,9.7,19.1,20.4,23,28C451.2,786.5,405.5,805.6,393.2,801.2z M409.9,762.8c-8.4,0-15.2,6.8-15.2,15.2s6.8,15.2,15.2,15.2
					c8.4,0,15.2-6.8,15.2-15.2S418.3,762.8,409.9,762.8z"/>
				<path class="st2" d="M403.1,762.8c-26,12-23,33.7-10,38.4c12.3,4.4,58.1-14.7,69.3-4.8v0c-17.4-0.7-31.7,11.1-32.8,22.2h-0.1
					c-50.6,10.8-65.8-16.7-61-35.5C370.7,775.6,384,765.2,403.1,762.8z"/>
				<path class="st2" d="M433.6,829.3c-103.3,36.6-98.1-33.3-78-64.5l0.1,0c-0.5,4,1.1,8.2,4.8,12.1c-26.8,44,35.6,58.8,70.5,48.9
					C431.6,827,432.5,828.2,433.6,829.3z"/>
				<path class="st2" d="M298.5,729.8c8.1-16,53.6,7.7,38.2,29c-1.9,2.6-7.2,0.6-10.1-11.4C324.4,738,290.3,746.1,298.5,729.8z"/>
				<path class="st0" d="M289.3,297.4c6,1.8,10.9,8,10.9,13.4c-2.7-0.5-5.5-0.2-8,0.9C293.8,307.6,291.6,302.6,289.3,297.4z"/>
				<path class="st0" d="M275.6,313.7c-2.8-0.2-5.7,0.8-7.8,2.5c2.3-5.6-4.4-14-4.8-14.5C263.4,301.9,275.8,307.1,275.6,313.7
					L275.6,313.7z"/>
				<path class="st1" d="M266.7,331.9c-4-7.2-2.4-12.7,1.1-15.7c2.1-1.8,5-2.7,7.8-2.5c3.9,0.2,7.8,2.5,9.5,7.2
					c0.7-4.4,3.5-7.7,7.1-9.3c2.4-1.1,5.3-1.4,8-0.9v0c4,0.8,7.9,3.6,10.1,8.7c10.4,24-2.4,38.2-1.6,45.7c0.7,7.5,7.6,7,11.4,17.4
					c5.6,14.9,2.8,24.5-1.6,35.6c-4.4,11.1,13.9,13.2,19.1-9.7c5.2-22.9,7.5-56.1,53.7-66.1c34.3-7.5,38.4,37.4,82.1,33.5v0
					c-5.1,0.6-86.6,11.4-116.7,44.9c-31,34.6-29.1,59.4-49.1,95.1c-38.5-12.7-14.7-46.7-25.3-61.9c-20.2-29-9.9-37.8-14.3-64.4
					c-2.7-16.4-9.1-12.1-15.5-31.4c-2.6-8-2-14.3,0.1-18.9l0,0c1.8-3.8,4.5-6.3,7.3-7.5c2.9-1.2,5.8-0.9,7.4,1
					C267.1,332.6,266.9,332.2,266.7,331.9z"/>
				<path class="st0" d="M259.9,331.9c-2.7,1.2-5.5,3.7-7.3,7.5c2.6-5.6-4.7-17.9-4.7-17.9C252.4,321.4,259.5,327.2,259.9,331.9z"/>
			</g>
			<g>
				<path class="st3" d="M560.8,776.1c0,0,21.3-3.1,27.2,9.2c7.4,15.4,13.7,12.7,18.1,17.1c1.6,1.6,2.7,3.4,3.2,5.4
					c0.6,1.9,0.6,3.9,0.1,5.9"/>
				<path class="st3" d="M447.2,658.5c0.9,0,17.3-12.1,47.2,0.8c29.9,12.9,36.9,35.2,39,54.2c2.1,19-2.4,40.1,1.2,60.1
					c2.6,14.6,16.7,31,41,28.1c-1.6,9.3,7.2,20.6,17.4,22.1"/>
				<path class="st3" d="M609.4,807.9c1.9,1,3.8,1.4,5.4,1.2"/>
				<path class="st3" d="M623.4,796c-0.2-1.2-0.6-2.4-1.2-3.5c-1.3-2.5-3.7-4.7-7.3-6.2c-14.7-6-11.4-12.9-21-19
					c-9.5-6.2-22.9-3.1-22.9-3.1"/>
				<path class="st3" d="M635.2,776.2c0,0,12,2.8,12,20.8c-7.3-9.7-13.5-4.9-19.7-5.7c0,0,0,0,0,0
					C623.6,782.4,626.9,776.7,635.2,776.2z"/>
				<path class="st3" d="M627.4,791.3c-1.5,0.6-3.2,1.1-5.2,1.2"/>
				<path class="st3" d="M638,616.9c-11.4,18-27.4-2.5-42.3,12.6c-1.1-0.4-2.1-0.9-2.9-1.5c-2.4-1.8-3.5-4.3-3.5-6.7
					c0-3.6,2.3-7,6.1-8.2c9.7-3,11.9,1.4,21.8-4c8.4-4.5,5.3-13.7,14.7-17.6c10.9-4.5,16.8,6,30.3,1.5
					c17.3-5.9,37.5-99.4-21.8-100.6c-72.9-1.5-29.2,146.3-157.9,68.3c-4-2.4-8.4-4.1-13.1-4.7c-34.5-4.1-42.3,50.8-1.9,48.2
					c43.4-2.8,94,5.9,109.7,31.8c2,3.3,3.4,6.8,4.1,10.7c6.9,34.3-9.7,48.5-8.2,63.4s24.9,5.3,27.5,19.9c2.6,14.6-4.6,14.8-1.3,25.8
					c3.2,11,22.1,3.2,30.3,10.3c2.8,2.4,4.8,6.2,5.4,10.1"/>
				<path class="st3" d="M592.1,643.4c-1-3.6-0.2-8.3,3.6-14"/>
				<path class="st3" d="M604.3,652.6c1.6,0.2,3.1,0.2,4.4,0"/>
				<path class="st3" d="M300.2,310.7c4,0.8,7.9,3.6,10.1,8.7c10.4,24-2.4,38.2-1.6,45.7c0.7,7.5,7.6,7,11.4,17.4
					c5.6,14.9,2.8,24.5-1.6,35.6c-4.4,11.1,13.9,13.2,19.1-9.7c5.2-22.9,7.5-56.1,53.7-66.1c34.3-7.5,38.4,37.4,82.1,33.5
					c9.9-0.9,21.8-4.3,36.6-11.3c64.1-30.7,60.2-113.6,20.7-163c-30-37.4-84.1-46.5-123.5-51.6c-89-11.5-97.5-94.7-51.4-126.8
					C382.3,4.6,403.1,2,445.5,13c42,10.9,19.6,58.9-14.6,39.6s-105.8,44.8,6.6,59.3C570.1,129,631.2,213,611.3,313.9
					c-12.7,64.3-48.1,72.1-32.2,98.4c15.8,26.4,97.3-7,137.1-14.7c39.9-7.6,58,36,39.9,64.5c-18.2,28.4-38.1,88.2-30.8,118.1
					s19,45.1-7.9,59.3c-26.9,14.2-43.5-13.8-68.1,20.4c-8.6,12-16.7,17-23.4,17.6"/>
				<path class="st3" d="M292.8,352c1.9-9.6-4-16.3-6.6-22.7c-1.2-3.1-1.5-6-1.2-8.5c0.7-4.4,3.5-7.7,7.1-9.3c2.4-1.1,5.3-1.4,8-0.9
					"/>
				<path class="st3" d="M609.4,665.5c-1.4-4-1.7-8.5-0.7-12.9c4.3-18.9,31.3-1.3,41.5-22.1"/>
				<path class="st3" d="M267.3,332.9c6.5,11.1,9.5,7,9.5,25.3"/>
				<path class="st3" d="M285.1,320.9L285.1,320.9c-1.7-4.7-5.6-7-9.5-7.2c-2.8-0.2-5.7,0.8-7.8,2.5c-3.6,3-5.1,8.5-1.1,15.7
					c0.2,0.4,0.4,0.7,0.6,1"/>
				<path class="st3" d="M252.6,339.4c-2.1,4.6-2.7,10.9-0.1,18.9c6.4,19.3,12.8,15,15.5,31.4c4.4,26.6-5.9,35.4,14.3,64.4
					c10.6,15.2-13.2,49.2,25.3,61.9"/>
				<path class="st3" d="M267.3,333C267.3,332.9,267.3,332.9,267.3,333C267.3,332.9,267.3,332.9,267.3,333c-1.6-2-4.5-2.3-7.4-1.1
					c-2.7,1.2-5.5,3.7-7.3,7.5"/>
				<path class="st3" d="M458.6,962.9c1.1,3,0.9,6.3-0.2,9.2"/>
				<path class="st3" d="M421.3,924.8c35.9,1.6,21.6,24.2,31.9,31.5c2.7,1.9,4.5,4.2,5.3,6.6"/>
				<path class="st3" d="M473.6,375.9c0,0-0.1,0-0.2,0c-5.1,0.6-86.6,11.4-116.7,44.9c-31,34.6-29.1,59.4-49.1,95.1
					c-20,35.8-55,62.5-56.8,111.7c-1.8,49.2,22.2,59.2,16.9,85.5c-5.3,26.4-38.7,45.1-25.8,86.1c12.9,41,84.4,50.4,107.8,72.7
					c23.4,22.3,18.2,21.3,23.3,57.3c3.1,21.7,38.9,20.5,44.7,22.4c11.3,3.8,5.6,13.9,11.4,21.8c4,5.4,8.5,8,12.7,8.6"/>
				<path class="st3" d="M458.6,962.9L458.6,962.9c2.4,3,6,4.5,9.7,4.7"/>
				<path class="st3" d="M482.8,958.7c0.4-2.5-0.2-5.3-2.3-8.5c-5.7-8.3-11.5,1.5-14.9-19.3c-2.3-14.3-6.8-20.9-28.1-19.5"/>
				<path class="st3" d="M480.5,950.2c2.1,0.4,4.1,0.6,5.9,0.5"/>
				<path class="st3" d="M407.5,856.6c10.5,38.2,31.2,31.2,47.1,35.2c5.3,1.3,10.1,3.9,13.8,9.8c13.9,21.9,14,16.5,24.3,21.3
					c4.9,2.3,7.4,9.1,6.6,15.3"/>
				<path class="st3" d="M324,711.6c28.2-24.2,54.6-34,76.7-35.9c3.9-0.3,7.6-0.4,11.2-0.3c9.8,0.4,18.6,2.3,25.9,5.2
					c2.7,1,5.2,2.1,7.5,3.4c12.7,6.8,19.5,16,18.3,22.3c1.7,0.2,3.7,0.4,6,0.8l-6-0.8c14.2-5.4,61.8,10.5,43.6,52.1"/>
				<path class="st3" d="M506.4,824c19,18.8,15.6,28.6,6.7,40.1c-11.3,14.6-19.9,8.5-20.2,11.4c-0.3,2.9-11.4,16.4-14.6,15.2
					c-3.2-1.2,2.9-11.7,0-13.5c-2.9-1.8-16.4,13.5-19,12c-0.1-0.1-0.2-0.1-0.2-0.2c-2.2-1.6,0.9-5.7,3.8-13.9
					c2.9-8.5-19.6-21.7-34-25.5c-6.9-1.8-14.6,2.2-21.2,6.8c-7.2,4.9-13.2,10.4-16,9.6c-5.3-1.5,2-10.5-2.6-14.6
					c-4.7-4.1-16.4,8.5-22.9,7c-6.5-1.5,4.1-11.7-2.4-16.1c-6.4-4.4-16.4,7.9-22.6,2.6c-6.2-5.3,2.3-13.5-1.8-18.5
					c-4.1-5-11.1,8.2-14.1-2.6c-2.9-10.8,12.9-37.2,7.3-52.2c-5.6-14.9-19.6-18.2-36-23.4c-5.9-1.9-18.1-3.9-13.9-20.6
					c3.5-14.2,16-25.9,41.3-16.2c4.5,1.7,9.5,4.1,14.9,7.3"/>
				<path class="st3" d="M445.5,683.8c4.9-5.2,5.6-16.8,1.8-25.3c-2.4-5.2-6.4-9.2-12.3-10c-15.5-2.1-30.4,15.3-34.3,26.7"/>
				<path class="st3" d="M298.5,729.8c-8.2,16.3,25.8,8.2,28.1,17.6c2.9,12,8.2,14.1,10.1,11.4C352.1,737.5,306.6,713.8,298.5,729.8
					z"/>
				<path class="st3" d="M437.9,680.4c0,0,6.5-18.1-7.1-21.3c-13.6-3.3-18,12.1-18.9,16.2"/>
				<path class="st3" d="M464.7,802.7c0,0,18-16.5,22.9-19.7"/>
				<path class="st3" d="M438.3,767.3c-12.9-4.9-24.9-5.9-35.2-4.5c-19.2,2.5-32.5,12.8-34.5,20.3c-3.4-1.9-6.1-4-8.2-6.2
					c-3.7-3.9-5.3-8.1-4.8-12.1c1.1-9.9,14.4-18.8,36.5-19.6C406.3,744.7,424,754.4,438.3,767.3c0.4,0.3,0.8,0.7,1.1,1
					c10.5,9.7,19.1,20.4,23,28"/>
				<path class="st3" d="M457.3,760.6c-23.5-24-39.8-58.6-12-76.6c0.1,0,0.1-0.1,0.2-0.1"/>
				<path class="st3" d="M479.8,778.8c-7.5-4.6-15.3-10.9-22.4-18.2"/>
				<path class="st3" d="M500.7,759.1c2.2-0.6,4.4-0.9,6.6-0.8c5.6,0.2,10.5,2.9,13,9c3,7.2,0.8,14.9-4.2,21.5"/>
				<path class="st3" d="M483.7,804.1c0,0,7.2-14.6,3.8-21c-2.5-1.2-5.1-2.6-7.8-4.2c3.4-9.8,12.2-17.2,21-19.7"/>
				<path class="st3" d="M462.4,796.4c-17.4-0.7-31.7,11.1-32.8,22.2c-0.2,2.5,0.2,5,1.4,7.2c0.6,1.2,1.5,2.4,2.6,3.4
					c1.6,1.6,3.7,2.8,6,3.7"/>
				<path class="st3" d="M464.7,802.7c-0.2-1.7-0.9-3.9-2.2-6.4h0v0c-11.2-9.8-57,9.3-69.3,4.8c-13-4.7-16-26.4,10-38.4"/>
				<path class="st3" d="M457.3,760.6C457.3,760.6,457.3,760.6,457.3,760.6c-14.4-21.7-9.7-42.5,6.3-54.4c2.1,0.1,4.1,0.4,6,0.8
					c0,0,0.1,0,0.1,0c19.5,4.1,23.1,22.2,18.7,34.2c-4.9,13.2-15.7,20.2-8.6,37.6"/>
				<path class="st3" d="M464.7,802.7c11.9,3.7,19,1.3,19,1.3"/>
				<path class="st3" d="M368.6,783c-4.8,18.8,10.3,46.3,61,35.5"/>
				<path class="st3" d="M516.1,788.8c4.2,6,2.8,18.2,0,24c-2-1.8-6.1-4.8-9.2-9.2c-5.3,10.2-3.5,13.8-0.5,20.5
					c2.1,4.8,3.1,9.1,3.2,13.1c0.4,16.6-15.3,25.9-29.3,25.8c-4,0-7.8-0.8-11.1-2.4c-2-1-3.8-2.3-5.4-3.8
					c-6.9-7.1-8.8-13.2-15.9-18.7c-2.2-1.7-4.9-3.3-8.4-4.9c9.1,3.3,22.5,0.6,32.2-7.4c6.2-5.1,10.8-12.3,12-21.4
					C496,804.9,509,798.1,516.1,788.8z"/>
				<path class="st3" d="M355.6,764.7c-20.1,31.2-25.3,101.2,78,64.5"/>
				<path class="st3" d="M360.5,776.9L360.5,776.9c-26.8,44.1,35.6,58.9,70.5,49h0"/>
				<path class="st3" d="M463.6,706.2c24.9-0.3,48.2,27.8,37.1,52.9v0"/>
				<path class="st3" d="M472.4,845.8c3.7-7.3,3.4-17.9,3.4-17.9s18.8-8.9,31.1-24.4"/>
				<path class="st3" d="M472.4,846C472.4,846,472.4,846,472.4,846c-7.9-3.1-11.4-10.6-11.4-10.6s-5,3.3-13.1,2.4"/>
				<path class="st3" d="M469.2,860.4c1.4-9.2,4.4-9.9,4.4-9.9s5.2,3.3,6.8,7.8c4-3.7,20.3-14,20.3-14s-0.1-7.2,2.2-10.5
					c5.3,2.4,6.6,3.2,6.7,3.3c0,0,0,0,0,0"/>
				<path class="st3" d="M458.4,972.1c0,0,7.3,16.6-5.4,24.1c-2.5-8.6-2.4-10.8-11.1-14C442.9,975.9,447.8,969.3,458.4,972.1z"/>
				<path class="st3" d="M482.8,958.7c1.7,2.8,7.9,14.7-1.7,23c-3.9-8-6.2-11.2-12.8-14.1c-0.1-6.3,3.5-10.5,14.2-9.6
					C482.5,958.1,482.6,958.3,482.8,958.7z"/>
				<path class="st3" d="M499.4,938.3c0.5,0.6,12.1,14.7,1.4,24.4c-1.3-8-5.2-10.7-14.5-12c0,0,0,0,0,0
					C486.1,944.4,488.4,937.7,499.4,938.3C499.3,938.2,499.3,938.2,499.4,938.3z"/>
				<path class="st3" d="M609.4,813.8c0,0,5.8,12.7,2.3,22.1c-4.6-9.2-13.2-9.4-18.8-12v0C589.7,812,602.7,807.1,609.4,813.8z"/>
				<path class="st3" d="M623.4,796c0.6,0.4,11.9,7.2,7.9,22.3c-5.4-8-10.6-9.1-16.4-9.3c0,0-0.1,0-0.1,0c0,0,0,0-0.1,0
					c-0.4,0-0.7,0-1,0C609,797.7,617.2,795.3,623.4,796C623.4,796,623.4,796,623.4,796z"/>
				<circle class="st3" cx="409.9" cy="778" r="15.2"/>
				<path class="st3" d="M412.8,778c0,1.6-1.3,2.9-2.9,2.9c-1.6,0-2.9-1.3-2.9-2.9s1.3-2.9,2.9-2.9
					C411.5,775.1,412.8,776.4,412.8,778z"/>
				<circle class="st3" cx="464.7" cy="736.1" r="15.2"/>
				<circle class="st3" cx="464.7" cy="736.1" r="2.9"/>
				<path class="st3" d="M589.4,621.2C589.4,621.2,589.4,621.2,589.4,621.2c-0.6,0.2-10.4,3.9-7.5,13c2-4.8,3.4-6.6,11-6.3h0"/>
				<path class="st3" d="M604.3,652.6L604.3,652.6c-8.5,0.8-10.8,1-11.4,12c-5.6-8.2-4.4-13.8-0.8-21.2c0,0,0,0,0,0
					C595.9,642.1,604,641,604.3,652.6z"/>
				<path class="st3" d="M625.8,677.5L625.8,677.5c-11.9,1-14.6,0.1-15.5,13.1c-7.9-9.7-6.2-16.3-1.1-25.1c0,0,0.1,0,0.1,0
					C614.7,664,625.3,663.9,625.8,677.5z"/>
				<path class="st3" d="M300.2,310.7L300.2,310.7c0-5.4-4.9-11.6-10.9-13.4c2.3,5.3,4.4,10.3,2.9,14.2"/>
				<path class="st3" d="M263,301.7c0.4,0.4,7.1,8.9,4.8,14.5"/>
				<path class="st3" d="M275.6,313.6c0.2-6.6-12.2-11.8-12.6-11.9c0,0,0,0,0,0"/>
				<path class="st3" d="M259.9,331.9c-0.4-4.7-7.5-10.5-11.9-10.5c0,0,7.3,12.3,4.7,17.9l0,0"/>
			</g>
		</g>
	</g>
	<g>
		<defs>
			<path id="SVGID_1_" d="M473.6,375.9c0,0-0.1,0-0.2,0c-5.1,0.6-86.6,11.4-116.7,44.9c-31,34.6-29.1,59.4-49.1,95.1
				c-38.5-12.7-14.7-46.7-25.3-61.9c-20.2-29-9.9-37.8-14.3-64.4c-2.7-16.4-9.1-12.1-15.5-31.4c-2.6-8-2-14.3,0.1-18.9l0,0
				c2.6-5.6-4.7-17.9-4.7-17.9c4.5,0,11.6,5.8,11.9,10.5c2.9-1.2,5.8-0.9,7.4,1c-0.2-0.3-0.4-0.7-0.6-1c-4-7.2-2.4-12.7,1.1-15.7
				c2.3-5.6-4.4-14-4.8-14.5c0.4,0.1,12.8,5.3,12.6,11.9c3.9,0.2,7.7,2.5,9.4,7.2c0.7-4.4,3.5-7.7,7.1-9.3c1.6-3.9-0.6-8.9-2.9-14.2
				c6,1.8,10.9,8,10.9,13.4v0c4,0.8,7.9,3.6,10.1,8.7c10.4,24-2.4,38.2-1.6,45.7c0.7,7.5,7.6,7,11.4,17.4
				c5.6,14.9,2.8,24.5-1.6,35.6c-4.4,11.1,13.9,13.2,19.1-9.7c5.2-22.9,7.5-56.1,53.7-66.1c34.3-7.5,38.4,37.4,82.1,33.5
				C473.4,375.9,473.5,375.9,473.6,375.9z"/>
		</defs>
		<clipPath id="SVGID_2_">
			<use xlink:href="#SVGID_1_"  style="overflow:visible;"/>
		</clipPath>
		<g class="st4">
			<path class="st2" d="M374.5,342.1c-10.7,10.3-13.7,25.9-16.1,40.5c-1.2,7-2.3,14.8,1.5,20.9c0.4,0.7,0.9,1.3,1.6,1.6
				c1.8,0.7,3.5-1.2,4.3-3c2.7-6,3.3-13.1,7.6-18c4.7-5.2,12.2-6.3,19-8.2c8.4-2.3,16.3-6.3,23.2-11.7c4.2-3.3,8.1-7.2,10.1-12.1
				c2-4.9,1.8-11-1.5-15.1c-5-6.1-14.4-5.7-22.2-4.6"/>
		</g>
		<g class="st4">
			<path class="st2" d="M274.9,486.1c2.5-7.4,5.6-14.6,9.2-21.5c2.6-4.9,5.5-9.7,9.4-13.5s9.1-6.7,14.6-7c1.2-0.1,2.5,0,3.3,0.9
				c0.9,1.1,0.6,2.7,0.2,4c-1.3,4.7-3.1,9.2-5.3,13.5c-1.1,2.2-2.3,4.4-2.4,6.8c-0.1,3.7,2.2,6.9,3.6,10.3c4,10.3-1.9,21.8-9.3,29.9
				c-3.2,3.5-6.8,6.8-11.3,8.3c-4.5,1.5-9.9,0.9-13.1-2.6"/>
		</g>
	</g>
	<g>
		<defs>
			<path id="SVGID_3_" d="M756,462.2c-18.2,28.4-38.1,88.2-30.8,118.1s19,45.1-7.9,59.3c-13.4,7.1-24.3,3.7-34.8,2.7
				c-5.3-17-12.6-33.5-21.6-48.9c0.4-0.1,0.9-0.3,1.4-0.4c17.3-5.9,37.5-99.4-21.8-100.6c-72.9-1.5-29.2,146.3-157.9,68.3
				c-4-2.4-8.4-4.1-13.1-4.7c-34.5-4.1-42.3,50.8-1.9,48.2c43.4-2.8,94,5.9,109.7,31.8c2,3.3,3.4,6.8,4.1,10.7
				c6.9,34.3-9.7,48.5-8.2,63.4s24.9,5.3,27.5,19.9c1.4,7.9,0,11.6-1.1,15c-6.2,2.4-12.3,5.2-17.9,8.7c-11.4,7-21.4,16.8-27.1,29
				c-1.8,3.7-3.1,7.7-3.2,11.9c0,0.9,0,1.8,0.1,2.7c-9.7-5.5-15.4-15-17-23.8c-3.6-19.9,0.9-41-1.2-60.1c-2-19-9.1-41.3-39-54.2
				c-29.9-12.9-46.3-0.8-47.2-0.8c3.9,8.5,3.2,20.1-1.8,25.3c-0.1,0-0.1,0.1-0.2,0.1c-2.3-1.2-4.8-2.4-7.5-3.4
				c-7.4-2.8-16.1-4.8-25.9-5.2c-3.6-0.1-7.3-0.1-11.2,0.3c-22.1,1.8-48.5,11.7-76.7,35.9c-25.3-9.6-37.7,2.1-41.3,16.2
				c-4.2,16.7,8,18.7,13.9,20.6c16.4,5.2,30.5,8.5,36,23.4c5.6,14.9-10.3,41.3-7.3,52.2c2.9,10.8,10-2.4,14.1,2.6
				c4.1,5-4.4,13.2,1.8,18.5s16.1-7,22.6-2.6c6.5,4.4-4.1,14.7,2.4,16.1c6.4,1.5,18.2-11.1,22.9-7c4.7,4.1-2.6,13.2,2.6,14.6
				c2.7,0.8,8.8-4.7,16-9.6c6.4,23.2,16.5,29.7,27,32.2c-5.7,4.6-11.5,9.1-17.2,13.6c-4.5,3.6-9.1,7.2-12,12.2
				c-1.6,2.8-2.6,5.8-3.6,8.9c-2.5,8.2-4.5,16.5-6,24.8c-10.6-2.5-21.1-7.6-22.8-19c-5.1-36,0.2-35-23.3-57.3
				c-23.4-22.3-94.9-31.6-107.8-72.7c-12.9-41,20.5-59.8,25.8-86.1s-18.8-36.3-16.9-85.5c1.9-49.2,36.8-76,56.8-111.7
				c20-35.7,18.1-60.6,49.1-95.1c30.1-33.5,111.6-44.3,116.7-44.9c0.2,0,0.2,0,0.2,0c9.8-0.9,21.7-4.3,36.3-11.3
				c64.1-30.7,60.2-113.6,20.7-163c-30-37.4-84.1-46.5-123.5-51.6c-89-11.5-97.5-94.7-51.4-126.8C382.3,4.6,403.1,2,445.5,13
				c42,10.9,19.6,58.9-14.6,39.6s-105.8,44.8,6.6,59.3C570.1,129,631.2,213,611.3,313.9c-12.7,64.3-48.1,72.1-32.2,98.4
				c15.8,26.4,97.3-7,137.1-14.7C756,390.1,774.2,433.7,756,462.2z"/>
		</defs>
		<clipPath id="SVGID_4_">
			<use xlink:href="#SVGID_3_"  style="overflow:visible;"/>
		</clipPath>
		<g class="st5">
			<path class="st2" d="M540.8,310.6c0.1-1.6,0.9-3,1.9-4.3c7.4-9.7,21.4-12.8,33-9.3c11.7,3.4,21.1,12.4,27.5,22.7
				c0.3,0.4,0.5,0.9,0.4,1.4c-0.2,1.1-1.9,1-3,0.4c-5.1-2.5-9.5-6.4-14.6-9.1c-5-2.7-11.3-4.2-16.5-1.8c-2.8,1.3-5,3.7-7.3,5.8
				c-4.4,4.2-9.4,8-15.2,9.9c-5.8,1.9-12.5,1.6-17.6-1.7"/>
		</g>
		<g class="st5">
			<path class="st2" d="M527.4,341c6.8-6.4,17.1-8.8,26-6.1c12.3,3.7,20.5,15.7,32.3,20.7c5.9,2.5,12.5,3.2,18.9,3.8
				c1.8,0.2,3.9,0.5,4.9,2.1c0.9,1.5,0.5,3.4-0.2,5c-3.5,7.9-12.4,13.1-21.1,12.2c-17.9-1.8-27.4-25.1-45.2-27.5
				c-5.3-0.7-10.6,0.5-15.9,1.2c-5.3,0.7-11,0.6-15.4-2.4"/>
		</g>
		<g class="st5">
			<path class="st2" d="M492.4,361.9c9.2-1.3,18.7,1.1,26.8,5.7c8.1,4.5,15,11,21.1,18.1c7.1,8.3,13.6,19.2,10.2,29.6
				c-0.4,1.3-1.3,2.8-2.7,2.9c-1.1,0.1-2-0.6-2.8-1.3c-14.9-12.5-27.3-28.7-45-36.7c-13-5.9-29.2-7.8-37.7-19.4"/>
		</g>
		<g class="st5">
			<path class="st2" d="M331.8,456c0.9,2.9,4.4,4.3,7.3,3.8c3-0.5,5.5-2.3,8-4c8.8-6.3,17.5-12.7,26.3-19c4.3-3.1,8.7-6.3,13.8-7.7
				c5.1-1.4,11.1-0.7,14.9,3c4.1,4.2,4.6,11.1,9.4,14.5c3.1,2.2,7.4,2.3,11.1,1.5c3.8-0.8,7.3-2.5,11.1-3.3
				c13.3-3.1,27.7,4.3,35,15.9c7.3,11.5,8.3,26.3,5.1,39.6c-1.9,7.8-5.1,15.4-5.8,23.4c-0.1,1.6,0.3,3.7,1.9,3.8
				c0.6,0,1.1-0.3,1.5-0.6c5.7-3.7,9.9-9.2,13.8-14.7c9.2-13,17.2-26.9,23.8-41.3c4.4-9.6,8.3-19.8,8.1-30.4
				c-0.2-10.6-5.4-21.6-15-26.1c-8.2-3.8-17.8-2.3-26.5,0.4c-5.4,1.7-10.8,3.8-16.4,4c-5.7,0.2-11.8-1.8-14.7-6.7
				c-2.8-4.7-2-10.8-4.9-15.4c-3.2-4.9-9.6-6.4-15.5-6.8c-7.1-0.4-83.1-2.1-90-0.4"/>
		</g>
		<g class="st5">
			<path class="st2" d="M487.5,573.6c-3.3-5.3-1.1-12.6,3.3-17.1c4.4-4.5,10.4-6.8,16.1-9.4c5.4-2.4,10.7-5.1,15.8-8
				c4.8-2.7,9.8-6.1,11.6-11.3c1.6-4.6,0.3-9.6-1.7-14c-2.1-4.4-4.9-8.3-6.8-12.7c-3.3-7.5-3.7-16.3-0.6-24s9.5-13.9,17.4-16.3
				c-7.8,7.5-8.3,21.2-1.2,29.3c2.1,2.4,4.7,4.3,7.1,6.5c9,8.2,14.1,20.2,14.5,32.3c0.5,12.1-3.5,24.2-10.5,34.2
				c-5.8,8.4-14,15.9-15.5,26"/>
		</g>
		<g class="st5">
			<path class="st2" d="M602.5,420c-0.3,6-5,10.9-10.2,13.9c-5.1,3.1-11,4.9-16,8.2c-5.2,3.4-9.4,8.5-11.1,14.5
				c-1.7,6-0.4,12.9,3.7,17.5c3.5,3.9,8.8,5.9,11.7,10.2c3.9,5.8,2.5,13.4,1.4,20.3c-1.7,10.4-2.2,21.5,2.2,31.1
				c4.4,9.6,15.1,16.9,25.4,14.4c1-0.2,1.9-0.6,2.6-1.2c0.8-0.8,1.1-2,1.4-3.1c0.9-4.5,0.7-9.1-0.5-13.5
				c-2.3-8.6-8.2-15.7-12.5-23.5c-4.2-7.8-6.5-17.9-1.6-25.3c4.6-6.8,14.5-9.7,17-17.6c1.2-4,0.1-8.6-2.9-11.5
				c-2.2-2.1-5.3-3.5-6.3-6.4c-1.2-3.4,1.3-6.9,3.9-9.3c6.7-6.3,15.4-10.2,22.3-16.3s12-16,8.5-24.5"/>
		</g>
		<g class="st5">
			<path class="st2" d="M637.2,505.6c-3.3-8.3-6.6-16.8-7.4-25.7c-0.8-8.9,1.2-18.5,7.4-25c2.8-2.9,6.3-5.1,9.4-7.8
				c5.7-4.9,9.9-11.4,15.7-16.2c5.8-4.8,14.3-7.7,20.8-4c2.6,1.5,4.7,4.4,3.9,7.3c-0.3,1-0.9,1.9-1.7,2.7
				c-4.2,4.6-10.8,5.9-16.5,8.3c-5.7,2.4-11.6,7.5-10.6,13.6c0.5,3.5,3.1,6.2,4.8,9.3c3.7,6.7,3.2,15.2-0.5,21.9
				c-3.7,6.7-10.3,11.5-17.6,13.8"/>
		</g>
		<g class="st5">
			<path class="st2" d="M689.7,399.3c-0.9,1.8,0.3,4,1.6,5.7c5.5,7.4,11.1,14.9,13.9,23.7s2.2,19.2-3.8,26.2c-2.6,3-6,5.2-9,7.7
				c-6.4,5.4-11.1,12.6-13.5,20.5c-1.8,6-1.4,14.1,4.3,16.6c3.4-9.5,11.2-17.3,20.6-20.8c4.6-1.7,9.6-2.5,14.2-4.2
				c4.6-1.8,9.1-4.8,10.8-9.5c1.1-3.1,0.8-6.5,0.6-9.8c-1-12.7-1.1-26.7,6.9-36.7c3.7-4.6,8.7-7.9,12.8-12.1
				c1.9-1.9,3.6-4.4,3.3-7.1c-0.4-3-3.2-5.1-5.9-6.5c-10.2-5.4-22.3-7-33.6-4.5"/>
		</g>
		<g class="st5">
			<path class="st2" d="M666.8,542.1c4.5-8.3,17.4-7.7,23.3-15c1.5-1.9,2.4-4.1,3.6-6.1c5.2-8.8,16.4-13.5,26.3-11.1
				c-7.3,4.6-15.3,10.1-17.2,18.5c-0.6,2.6-0.5,5.4-1.3,8c-2.2,7.5-10.5,11-17.8,13.7c-2.9,1.1-5.8,2.1-8.7,3.2"/>
		</g>
		<g class="st5">
			<path class="st2" d="M735.8,555.8c-1.8-0.5-3.7-1-5.6-1.4c-12.5-2.5-26.2,2.4-34.3,12.2c-2.4,2.9-4.4,6.8-3,10.2
				c4.7-4.9,11.2-8,17.9-8.7c6.8-0.6,13.7,1.2,19.3,5.1"/>
		</g>
		<g class="st5">
			<path class="st2" d="M538.2,605.7c-1.6,1.3-1.7,3.8-1,5.8c0.7,2,2,3.6,2.9,5.5c2.5,5.1,1.7,11.4-1.1,16.3c-2.7,5-7.2,8.7-12,11.8
				c-2.2,1.4-4.5,2.7-6,4.9c-1.2,1.8-1.6,4-1.7,6.2c-0.3,6.9,2.7,14,8,18.4c-1.1-6.2,0.9-12.8,5.3-17.3c3.6-3.6,8.4-5.7,12.9-7.9
				c8.7-4.2,17.4-9.5,22.2-17.9c4.8-8.4,4.3-20.5-3.5-26.3"/>
		</g>
		<g class="st5">
			<path class="st2" d="M520.8,695.4c2.4-2.1,5.7-2.4,8.9-2.7c8.1-0.8,16.1-2.5,23.8-5c3.9-1.3,8.1-3.1,9.6-6.9
				c-1.3,8.8-5.7,17.1-12.3,23.1c-6.6,6-15.3,9.6-24.1,10.1"/>
		</g>
		<g class="st5">
			<path class="st2" d="M478.3,667.3c-4.4-5.2-3.2-13.5,1.1-18.8c4.3-5.3,10.8-8.2,17.3-10.4c6.5-2.1,13.2-3.7,19.1-7.2
				c5.9-3.4,10.9-9.3,11.2-16.1c-7.7,8-19.9,8.8-31,9.2c-11.1,0.4-23.4,1.5-30.7,9.7c-3.9,4.3-5.8,10.1-7.1,15.7
				c-1.8,8.3-1.9,18.3,4.6,23.8"/>
		</g>
		<g class="st5">
			<path class="st2" d="M307.7,701.1c0.8-5,3.6-9.4,6.6-13.5c2.7-3.7,5.8-7.4,10-9.6c6.4-3.3,14.7-2.6,20.2-7.2
				c1.9-1.6,3.3-3.6,4.8-5.5c11.9-15.1,31.8-21.6,50.9-23.8c1.6-0.2,3.2-0.4,4.6-1.2c1.3-0.9,2.2-2.7,1.6-4.1
				c-0.5-1.1-1.7-1.7-2.9-2c-7-2.4-14.7-1.5-22-0.3c-16,2.6-33.1,7.4-43,20.2c-0.8,1.1-1.6,2.2-2.7,2.9c-1.6,1-3.7,1.1-5.6,1.3
				c-9.5,1-18.3,6.9-22.9,15.2c-4.6,8.4-4.7,19-0.4,27.5"/>
		</g>
		<g class="st5">
			<path class="st2" d="M244.5,679.3c6.1,5.3,15.3,5.5,23,2.9c8.6-3,16.1-9.2,20.6-17.1c3.4-6,5.1-12.8,8.2-19
				c6.7-13.1,20.5-22.6,35.2-23.1c3.7-0.1,7.4,0.3,11.2,0.3c14.1,0,27.5-5.7,41.1-9.8c13.5-4.1,28.7-6.6,41.4-0.3
				c2.5,1.2,5,2.9,7.8,3c2.8,0.1,6-2.1,5.6-4.9c-0.2-1.1-0.9-2.1-1.6-2.9c-8.3-9.7-22.6-11.5-35.3-10.9c-12.8,0.7-25.9,3-38.1-0.9
				c-7.2-2.3-13.6-6.7-20.8-8.9c-5.7-1.8-11.7-2.2-17.6-2.2c-8.9-0.1-17.8,0.7-26.2,3.7s-16,8.5-20.3,16.2c-2.8,5-4.1,10.7-4.8,16.4
				c-0.7,5.2-1.1,10.6-3.2,15.4c-3.4,7.5-10.5,12.4-17.7,16.3c-7.2,3.9-14.9,7.2-20.7,13"/>
		</g>
		<g class="st5">
			<path class="st2" d="M451.5,583.9c-2.4-2.4-4.9-4.8-7.3-7.3c-1.9-1.9-3.9-3.9-5-6.5c-1-2.3-1.1-4.8-1.7-7.3
				c-1.3-6-5.2-11.5-10.4-14.7c-5.4-3.4-12-4.4-17.5-7.7c4.1-3.6,10.3-3.2,15.6-2c7.8,1.8,15.5,5,21.5,10.3s10.1,13.1,10,21.1"/>
		</g>
		<g class="st5">
			<path class="st2" d="M249.6,589.3c5.3,4.3,13.3,1.7,19.1-1.9c7.7-4.6,14.7-10.5,22.6-15c7.8-4.5,16.9-7.6,25.8-6.2
				c5.5,0.9,10.9,3.5,16.3,2.4c7.4-1.4,12.1-9,19.1-11.9c4-1.7,8.5-1.7,12.8-1.4c12.9,0.7,26.2,3.4,36.5,11.1
				c-3.6-15.7-19.1-27.8-35.2-27.7c-8.9,0.1-17.4,3.5-26.3,3.7c-10.5,0.3-20.6-3.9-31.1-5.2c-16.4-2-33.6,3.5-45.8,14.6"/>
		</g>
		<g class="st5">
			<path class="st2" d="M297.8,524.8c1.4,1.2,3.4,1.6,5.2,1.7c10.8,0.6,20.3-6.3,29.2-12.5c8.9-6.1,19.6-12,30-9
				c7.4,2.2,13.1,8.6,20.7,9.9c7.4,1.3,14.7-2.6,21.9-4.6c15.1-4.1,32.3,0.5,43.4,11.6c-2.4-7.6-4.9-15.3-9.3-22
				c-4.3-6.7-10.8-12.4-18.6-14c-8.4-1.8-17,1.3-25.6,2.2c-8.6,0.9-18.9-1.5-21.9-9.6c-0.6-1.6-0.9-3.4-1.8-4.8
				c-2-3.1-6.2-3.8-9.9-3.9c-14.4-0.2-28.8,4.4-40.3,13"/>
		</g>
		<g class="st5">
			<path class="st2" d="M251.3,715.7c9.8,2.9,17.1,12.8,16.9,23.1c-0.1,5.1-1.9,10.5-0.1,15.3c2.3,6.2,9.5,8.8,15.7,11.1
				c5.5,2,11,4.5,15.3,8.5c4.3,4,7.3,9.8,6.6,15.6c-5.1-6-12.6-9.6-20.4-11.2c-7.7-1.6-15.7-1.3-23.6-0.7c-5.1,0.4-10.3,1-15.2-0.4
				c-6.1-1.7-10.9-6.1-15.5-10.3c-3.1-2.9-6.5-6.3-6.6-10.5"/>
		</g>
		<g class="st5">
			<path class="st2" d="M235,813.2c-0.3-6.3,5.6-11.4,11.7-13.1c6.1-1.7,12.6-1.2,18.8-2.4c6.1-1.1,11.8-3.8,18-4.5
				c6.1-0.7,13.3,1.1,16.1,6.6c-15.2-2.5-31.6,5.6-38.9,19.1c-1.2,2.2-2.2,4.6-3.7,6.6c-3.4,4.5-9.7,6.7-15.2,5.3"/>
		</g>
		<g class="st5">
			<path class="st2" d="M333.6,802.2c-2.8-1.2-6-0.3-8.6,1.4s-4.6,3.9-6.9,5.8c-3,2.4-6.4,4-10.1,4.9c-6,1.4-12.7,0.8-18,3.8
				c6,4.9,13.7,7.6,21.5,7.7c7.7,0,15.5-2.7,21.5-7.5"/>
		</g>
		<g class="st5">
			<path class="st2" d="M329.4,874.4c2.3-5.8,8.1-9.6,14.2-10.9s12.4-0.7,18.6,0c5.4,0.6,10.9,1.3,15.5,4.1
				c-12.3,2.8-23.2,10.9-29.6,21.8"/>
		</g>
		<path class="st6" d="M589.4,621.3C589.4,621.2,589.4,621.2,589.4,621.3"/>
		<g class="st5">
			<path class="st2" d="M614.6,226.9c-0.3,8.9-8.8,16.6-17.7,16.1c-3.7-0.2-7.2-1.6-10.8-2.7c-18.3-5.3-39.3,0.4-52.5,14.1
				c-3.7,3.9-7,9.4-5,14.4c2.5,6.4,11.8,6.9,17.9,3.7c4.5-2.4,8.4-6.2,13.5-7c8.4-1.2,15.1,6.4,22.9,9.8c4.8,2.1,10.2,2.6,15.4,2.6
				c9.1-0.1,18.4-1.8,26-6.8s13.1-13.8,12.4-22.8c-0.6-9.1-8.5-17.5-17.6-17.2"/>
		</g>
		<g class="st5">
			<path class="st2" d="M588.4,151.1c-2.6,6.4-9.3,10-15.8,12.2c-6.5,2.2-13.5,3.7-18.9,8c-8,6.4-10.6,17.2-12.7,27.3
				c-0.4,1.7-0.7,3.6,0,5.3c1,2.4,4.1,3.5,6.6,3c2.6-0.5,4.7-2.3,6.5-4.3c4.9-5.4,7.7-12.3,12.5-17.7c6.8-7.7,17.5-11.8,27.7-10.6"
				/>
		</g>
		<g class="st5">
			<path class="st2" d="M489,200.1c-8.3-12.3-10.1-28.9-4.5-42.7c3.8-9.4,11.6-17.9,21.6-19.6c1.9-0.3,3.9-0.4,5.6,0.5
				c4.5,2.3,4,8.9,2,13.5c-2,4.6-5,9.6-3.3,14.3c0.6,1.6,1.6,3,2.5,4.4c3.4,6,3.1,13.6,0.4,20c-2.7,6.4-7.4,11.6-12.5,16.3"/>
		</g>
		<g class="st5">
			<path class="st2" d="M484.4,112.3c-0.7-2-3.6-1.9-5.7-1.3c-18.3,5.2-35.8,13-51.9,23.1c-4.7,3-9.5,6.4-12,11.4
				c-2.7,5.5-2,12.2,0.4,17.8c2.4,5.6,6.3,10.5,10.2,15.2c1.8-2,3.3-4.4,4.3-6.9c2.1-5.2,2.3-10.9,3.6-16.3c1.3-5.4,4.1-11,9.2-13.2
				c5.6-2.4,12.5-0.1,17.7-3.2c1.9-1.2,3.4-3,4.9-4.7c9.9-10.8,25.1-16.3,39.6-14.2"/>
		</g>
		<g class="st5">
			<path class="st2" d="M439.2,92.9c-7.8,2.3-14.8-4.8-22.4-7.8c-7-2.7-15.3-1.5-21.3,3c-6,4.5-9.4,12.2-8.8,19.6
				c-4.2,0.9-8.3-1.4-12.4-2.9c-13.6-4.8-30.2,2.5-35.9,15.7c-5.7,13.2,0.4,30.3,13.2,36.9c2.8-2.4,2.9-6.7,2.2-10.4
				c-0.7-3.6-2.1-7.4-1.2-11c1.6-6.7,9.9-9.6,16.8-8.6c6.8,1,13,4.6,19.8,5.9c6.8,1.4,15.2-0.5,17.8-6.9c1.8-4.4,0.3-9.5,1.7-14
				c2.8-8.6,14-10.3,23-9.8"/>
		</g>
		<g class="st5">
			<path class="st2" d="M402.9,68.3c-9.1-18.8-30.6-30.9-51.4-29c-3.8,0.4-8.6,2.5-8,6.3c0.2,1.3,1.1,2.3,2,3.2
				c4.7,4.5,11.5,5.7,17.5,8.4c8.1,3.5,14.8,9.9,18.8,17.8"/>
		</g>
		<g class="st5">
			<path class="st2" d="M384.2,3.1c2.6,0.3,4.7,2.4,6.5,4.3c3.3,3.4,6.7,7,8.8,11.2c3.4,6.9,3.2,15,3.7,22.7c0.5,7.7,2.2,16,8.1,21
				c0.6,0.5,1.3,1,2.1,1.2c1.3,0.3,2.7-0.3,3.7-1.1c3.5-2.6,4.6-7.3,4.6-11.7c-0.1-4.3-1.2-8.6-1.3-12.9c-0.1-3.4,0.4-6.9,1-10.3
				c1-6.6,2.1-13.2,3.1-19.8"/>
		</g>
		<g class="st5">
			<path class="st2" d="M483.2,21.9c0.3-3.2-2.8-5.6-5.7-6.9c-8.3-3.7-18.2-3.8-26.6-0.2c-5.8,2.5-10.9,6.9-13.4,12.7
				c-1.1,2.7-1.7,5.6-2.1,8.5c-0.7,5.4-1,11.1,0.6,16.3s5.1,10.2,10.1,12.3c5.7,2.4,12.3,0.9,17.9-1.6c4.1-1.8,7.9-4.1,11-7.3
				c7.8-8.3,8.8-20.7,9.4-32.1"/>
		</g>
	</g>
	<path class="st7" d="M425.7,710.3c-13.8-11.1-25.5-6.7-27,5c-14.2-1.5-23.4,4.1-15.3,23.3c2-17,15.3-14,26.5-10.4
		C409.9,714.4,413.6,709.2,425.7,710.3z"/>
	<path class="st7" d="M425.1,692.7c-10.7-14.3-40.6-17.4-46,1.5c-19.2-2.9-45.1,22-23.5,51c0.7-20.6-2.7-39,33.2-37.8
		C389.1,685.9,414.4,690,425.1,692.7z"/>
</g>
</svg>
