<svg xmlns="http://www.w3.org/2000/svg" xmlns:xlink="http://www.w3.org/1999/xlink" viewBox="0 0 312.9 372.33"><defs><style>.cls-1,.cls-5{fill:none;}.cls-2{fill:#fdbe14;}.cls-11,.cls-12,.cls-2,.cls-5{stroke:#dc3c4d;stroke-linecap:round;stroke-linejoin:round;}.cls-3{clip-path:url(#clip-path);}.cls-11,.cls-4{fill:#dc3c4d;}.cls-6{clip-path:url(#clip-path-2);}.cls-7{clip-path:url(#clip-path-3);}.cls-8{clip-path:url(#clip-path-4);}.cls-9{clip-path:url(#clip-path-5);}.cls-10{clip-path:url(#clip-path-6);}.cls-12{fill:#f5f5ef;}.cls-13{clip-path:url(#clip-path-7);}</style><clipPath id="clip-path"><path class="cls-1" d="M257,6.49a4.05,4.05,0,0,1,7.07-1c3.9,6.14,1.77,20-8.82,27.55-15.9,11.29-27.09,7.85-34.87,24.88s5.23,40.55-20.93,62.73S127.1,141,121.58,116,135.64,77.8,153.35,77.2s38-17.65,41.33-29.45,8.31-13.63,15-12.94,28.17-12.55,28.38-19.89-6.12-7.93-1.67-13c2.18-2.46,7.2-1.7,9.3,1.89C247.11,0,256-2.06,257,6.49Z"/></clipPath><clipPath id="clip-path-2"><path class="cls-1" d="M85,239.81c-21.46,25.3,2.28,43.4,26.47,47.15s11.57,24.08-8.79,15.35-29-7.71-35.49-1.11-13.52-.38-18.09,3.86,1.39,7.15,1.39,7.15c-5.7,4.23-1.06,9.76,3.18,10.08-2.74,3.94-1.25,7.95,3.92,7.51,4-.34,6.12-2.56,8.69-6.25,5-7.16,13.61,4.41,26.18-5.05,3.33-2.5,8.6,4.17,15.55,6.66,9.28,3.32,34.59,10.12,47.92-4.59s19.67-45.07,1.09-62.09S85,239.81,85,239.81Z"/></clipPath><clipPath id="clip-path-3"><path class="cls-1" d="M81.49,240.24C107.21,321.7,219,309.31,207.22,228.75,202.29,195,191.9,192.24,186.61,175s11.71-34-2.4-73.6C175.73,77.6,135,62.43,115.44,90.76c-25.45,36.87-4.63,74.52,8.87,91.85s8.05,27.85-5.06,30.48-11.7-7.4-16.2-9.59S81.49,240.24,81.49,240.24Z"/></clipPath><clipPath id="clip-path-4"><path class="cls-1" d="M304.25,143.28c3.85.23,8.12,3.9,5.3,7.2-3.83,4.47-8.59,4-13.33.7s-15.11.86-27.26-.07-18-19.31-37.58-22S216.16,171.42,167,177.23,97.4,128,125.06,92.53C141.8,71,172.58,65.22,187.94,87.19c32.1,45.95,32.27-6.32,45.64-3.59,19.1,3.91,15.33,33.38,34.28,35.36,11.5,1.2,15.4,7.35,18.06,8.29,6.95,2.47,5.27-4.82,15.5-5.39,8.83-.49,7.13,7.89,3.56,10.13a7.19,7.19,0,0,1,6.92,3.24C314,138.64,309.22,143.37,304.25,143.28Z"/></clipPath><clipPath id="clip-path-5"><path class="cls-1" d="M125.42,222.62c-13.83,42.13,26.9,74.52,54.25,70.25-14.76,19.58-.27,32.81-8.39,39s-9.37,2.3-14.15,4.57-3.7,9.39-7.62,9.67c-8.48.6-8.43,10.6-1.33,9.78-3.79,5.32-.42,10.34,5.55,9.69-1.61,5,5.94,8.46,10.44,4.54s4.52-14.95,11.37-15.33,16.25.11,21-6.47c11.57-16.2-3.64-29,1-36.35S226,292.1,224.36,271.32s-4-17.44-21.23-22.06S192.71,223,192.71,223Z"/></clipPath><clipPath id="clip-path-6"><path class="cls-1" d="M115.6,102.91c-5.78-19.14-5-32.59.88-36.09,11.09-6.65-.49-44.78,44-49C240.24,10.12,240.9,123.55,184.4,144s-84.11-20.09-104.18-12.38C55,141.29,59.28,170.13,32,167.92c-18.4-1.5-25.7-25.09-23.13-36.52s16.42-16,20.16-11.43-.78,12.58-2.2,16.56c-4,11.26,14.3,27.89,23.21-.31,4.6-14.57,19.44-27.4,39.36-22.43,12.89,3.21,67.19,35.17,99.8,7.62s7.43-95.64-26.18-84.9-21.93,52.16-21.93,52.16Z"/></clipPath><clipPath id="clip-path-7"><path class="cls-1" d="M103.35,196.57c9.09-4.87,18.25-5.7,21.36.86S122.8,218.1,104.38,218c22.36,39.64-36.72,42.69-41.75,38.24s-4.06,4.69-14.69,7.58-21.33,5.94-23.67-1-.76-7.14-.76-7.14c1.25,2.31.27,2.74,3.46,3s17.48.5,22.83-3.77.55-4.81,4.56-8.5,11.42-6.86,16.49-9.78,5.61-2.11,6-4.07S75,222.44,67.88,223.4s-16,6.37-24.2-1.44-10.71-4.56-12.22-4-13.62,4.44-12.74-1.31,9.06-12.25,19.12-10.44,2-12.84,15.6-19.17C61.66,183.18,88,178.78,103.35,196.57Z"/></clipPath></defs><title>Asset 13</title><g id="Layer_2" data-name="Layer 2"><g id="tiger5"><g id="_2paw-back_" data-name="&lt;2paw-back&gt;"><path class="cls-2" d="M257,6.49a4.05,4.05,0,0,1,7.07-1c3.9,6.14,1.77,20-8.82,27.55-15.9,11.29-27.09,7.85-34.87,24.88s5.23,40.55-20.93,62.73S127.1,141,121.58,116,135.64,77.8,153.35,77.2s38-17.65,41.33-29.45,8.31-13.63,15-12.94,28.17-12.55,28.38-19.89-6.12-7.93-1.67-13c2.18-2.46,7.2-1.7,9.3,1.89C247.11,0,256-2.06,257,6.49Z"/><g class="cls-3"><path class="cls-4" d="M201.87,131c-10.38-11.69-6.89-16.31-9.59-24.45A165.37,165.37,0,0,0,185,88.29c-.52-.71,7.57,2.28,9.51,7.42s-.8,17.77,6.91,16.09S201.87,131,201.87,131Z"/><path class="cls-4" d="M219.61,99c-.37-.56-.7-1.15-1-1.74-4.39-8.35-3.79-19.7-9.82-17.87-6.46,1.95-16.48,0-17.08-4.51s.06-10.59,1.89-11.52-1.84,6.58,1,8,5.7,4.6,9.43,2,6.8-12.12,8.7-10.94,6.24,13.49,7.9,15.51S219.61,99,219.61,99Z"/><path class="cls-4" d="M228.16,59.09C217.55,48,214.06,46.4,216.6,43.26s-.48-7.57.29-7.79,5.62,3.81,4.77,5.5.24,7.37,2.34,6.12,8.68-1.52,7.56,1.27S228.16,59.09,228.16,59.09Z"/><path class="cls-4" d="M187.78,43c2.27,3.42,8.66,3,9.52,6.1s-1.43,6.84,1.6,6.73,4.37-6.72,8.17-3.29c4.45,4,7.67,5.88,7.34,4.79-1.75-5.66-5.52-11.06-8.48-9.81s-4.83-11.32-3.77-12.38-2.81-2.83-4.25-3S187.78,43,187.78,43Z"/></g><path class="cls-5" d="M257,6.49c.41,3.46.7,4.57-1.25,7.19-2.11,2.84-4.41,6.45-2.79,8.2"/><path class="cls-5" d="M245.68,3.83c2.61,2.83,2,5.46,1,8.06s-.68,7,.09,8.28"/></g><g id="_1paw-back_" data-name="&lt;1paw-back&gt;"><path class="cls-2" d="M85,239.81c-21.46,25.3,2.28,43.4,26.47,47.15s11.57,24.08-8.79,15.35-29-7.71-35.49-1.11-13.52-.38-18.09,3.86,1.39,7.15,1.39,7.15c-5.7,4.23-1.06,9.76,3.18,10.08-2.74,3.94-1.25,7.95,3.92,7.51,4-.34,6.12-2.56,8.69-6.25,5-7.16,13.61,4.41,26.18-5.05,3.33-2.5,8.6,4.17,15.55,6.66,9.28,3.32,34.59,10.12,47.92-4.59s19.67-45.07,1.09-62.09S85,239.81,85,239.81Z"/><path class="cls-5" d="M53.7,322.29c1.47-2.54,2.5-3.87,4.91-4.23s3.09.39,4.88-.07c5.39-1.39,6.31-5.74,8.16-6.29"/><path class="cls-5" d="M50.52,312.21c1.82-2.12,5.35-1.42,6.23-1.2s5.25.71,7.62-.49,3.27-4.62,4.94-5"/><g class="cls-6"><path class="cls-4" d="M75.17,276.14c.89-5.67.21-16.79,9.75-13.44s24.55-1.17,26.47.68-.33,1.15-5,2.28.6,3.14-5.8,5.78-15.62-5.5-17.34-1.32S75.17,276.14,75.17,276.14Z"/><path class="cls-4" d="M110.21,294.34c3.78-6.9,1.12-12.31,3.84-14s9-4.75,14.71-5.25,12.27-7.85,13-7.15,3.07,1.07-1.57,5.4-13.89,2.25-13.69,7.68-1.12,6.82-4.64,9.82S110.21,294.34,110.21,294.34Z"/><path class="cls-4" d="M116.15,297.58c6.45-1.67,10.74-5.48,13.38,1.26,1.92,4.91,10.29,1.69,14.32,2.31,5.72.88,7.17,8.83,6.7,9.28s-2.26-4-6.33-3.42-14.14,4.15-15.07.82-3.3-5.29-9.05-6.16S116.15,297.58,116.15,297.58Z"/><path class="cls-4" d="M74.83,295c3,3.07,2.83,1.5,3.53,7.24s7.88,10.83,7.26,7.65-2.34-6.2-1.3-7.49,6.19-9.06,3.49-10.58S74.83,295,74.83,295Z"/><path class="cls-4" d="M101.8,299.17c.63,5.12,7,7.25,6.06,10.54s4,13,5.7,12-2.16-6.88-1-8.08,4.13-11.64,1.34-12.88S101.8,299.17,101.8,299.17Z"/></g></g><g id="_body_" data-name="&lt;body&gt;"><path class="cls-2" d="M81.49,240.24C107.21,321.7,219,309.31,207.22,228.75,202.29,195,191.9,192.24,186.61,175s11.71-34-2.4-73.6C175.73,77.6,135,62.43,115.44,90.76c-25.45,36.87-4.63,74.52,8.87,91.85s8.05,27.85-5.06,30.48-11.7-7.4-16.2-9.59S81.49,240.24,81.49,240.24Z"/><g class="cls-7"><path class="cls-4" d="M126.49,200.43c8.27-5.94,18.07-14.49,23.37-10.14s13.84,2.86,18.46,3.84,6.53,5.77,6.91,8.9-1.53.51-7-1-11.94,4-14.47,5,2.89-6.69-5.08-7-14.2,8-18.42,6.6S126.49,200.43,126.49,200.43Z"/><path class="cls-4" d="M198.66,182.64c-13.37-5.45-21.72-13.15-29-5.65s-14.06,5.18-13.17,7.57-.27,1.48,4.39.65S177,176.54,181,181.12s5.59,14.9,11.14,15.34,15.25-.78,15.25-.78Z"/><path class="cls-4" d="M216.58,223.1c-12.16-8.6-16.8-14.08-19.84-10.8s-16.55,5.33-17.82,1.45-17.43-5.07-19.22-3,7.8-1.69,10,1.32,3.12,10.23,7.91,10.53,12.68-6.6,17.24-4S205,232.2,207.64,232.14,216.58,223.1,216.58,223.1Z"/><path class="cls-4" d="M116.18,181c3.54-4.77,8.88-8.88,14-9s11.87-5.7,16.25-6.09,12.48-3.4,14.88-1.1,6.27,7.94.75,6.08-12.41-4-13.74.18-.54,10.7-5.49,9.18-19.25,2.58-18.19,5.91S116.18,181,116.18,181Z"/><path class="cls-4" d="M97.73,110.39c1.71-3.39,39.07-15.9,44.33-7.55s-7.69-3.55-13.36,3.75S114,112,112.46,109.67,101,115.8,101,115.8Z"/><path class="cls-4" d="M104.66,167c3.12-9.12,8.27-15.93,18.19-17.84s22.78-11.52,28.18-6.89-.43-1-7.12,3.25-3.43,8-9.06,11.26-18.71-1.53-19.47,4.83-13.06,5.67-13.06,5.67Z"/><path class="cls-4" d="M97.21,138.5c3.83-7.61,4.26-14.55,11.05-13.26s12.76,6.34,16.25,4.09,10-11.8,16.75-5.49,4.6,5.56-1.22,5.71-13.77,4.6-14.51,8.13-6.54,5.83-13.49,2S97,141,97.85,143.76,97.21,138.5,97.21,138.5Z"/><path class="cls-4" d="M112,289.88c-6.69-12-6.54-14.54-4-19.88s5.48-7.5,3.37-15.49-1.47-12.24.31-10.62S120,257.42,118.31,259s-8,8.12-6.52,13.76,7.39,10.19,6.82,14.37S112,289.88,112,289.88Z"/><path class="cls-4" d="M146.89,312.07c-5.14-8.63-5.56-13.87-6-18.84s-3.75-8.16-7.64-9.73-6.08-2.08-5.7-9.8.16-13.78-.9-18.15-1-8.34.47-6.94,5.89,15.69,5.1,17.9S145,275,145.65,279.11s4.88,14.67,4.25,18.91S146.89,312.07,146.89,312.07Z"/></g></g><g id="_2paw-front_" data-name="&lt;2paw-front&gt;"><path class="cls-2" d="M304.25,143.28c3.85.23,8.12,3.9,5.3,7.2-3.83,4.47-8.59,4-13.33.7s-15.11.86-27.26-.07-18-19.31-37.58-22S216.16,171.42,167,177.23,97.4,128,125.06,92.53C141.8,71,172.58,65.22,187.94,87.19c32.1,45.95,32.27-6.32,45.64-3.59,19.1,3.91,15.33,33.38,34.28,35.36,11.5,1.2,15.4,7.35,18.06,8.29,6.95,2.47,5.27-4.82,15.5-5.39,8.83-.49,7.13,7.89,3.56,10.13a7.19,7.19,0,0,1,6.92,3.24C314,138.64,309.22,143.37,304.25,143.28Z"/><g class="cls-8"><path class="cls-4" d="M115.89,160.74c-2.16-13.39-4.44-23.34,2.1-24.67s10.17-.75,8.35-8.27,4.19-21,7.07-21.67-2.77,7.92-.39,12.93,8.32,16.08,2.93,18.16-14.57,1.88-12.82,6.91,7.36,12.73,5.37,16.4-4.49,8.84-4.49,8.84Z"/><path class="cls-4" d="M154.4,187.09c-6.61-5-10.5-6.57-7.58-10.1s6.8-3.23,4.58-9.26-5.41-9.68-4.51-16.94,13.46-18.85,10.78-23.46-4.71-11.07-4.25-11.66,18.6,13.6,16,20.81S153.19,146,157.29,153.3s8.2,4.58,9.59,10.12,5,20-.68,20.72A61.14,61.14,0,0,0,154.4,187.09Z"/><path class="cls-4" d="M191.38,176c-6.93-7.15-11.46-9.59-8.11-13.88s3.66-3.28,3.39-8.36-.08-3.52-3.53-11.56-5.2-15.06-3.79-16.47S178,131,182.2,133.32s9.43,3.43,9.31,8.21-2.62,13.3.41,16.4,13.83.46,12.64,5.15-13,13.7-13,13.7Z"/><path class="cls-4" d="M184.7,75.86c-5.4,4.89-15,4.48-12,11.71s9.55,6.76,6.47,14.73-1,10.34-1,10.34-.13-5.44,2.15-5.54,5.54-6.78,5.26-11.1-2.58-3-3.72-6.55,7.62.3,8.28-3S184.7,75.86,184.7,75.86Z"/><path class="cls-4" d="M219,151.29c-4.39-4.13-3.1-8.16-7.82-12s-11.32-14.64-8.83-18.84-3.46-8-2-8.76,7.73,5,8.14,11.52,6.83,2.7,8.32,4.81,10.46,9,8.74,12.29S219,151.29,219,151.29Z"/><path class="cls-4" d="M244.89,142.4c-6.19-7.36-15.34-12.94-11.4-16.77s6.61-3.62,3.26-9.39-6.23-13.36-5.75-13.77,6.54,7.31,9.12,8.23,5.14,5.9,3.26,7.89,1.41,3.89,1.85,7.71-2.15,3.68-3.19,6.25S244.89,142.4,244.89,142.4Z"/><path class="cls-4" d="M266.51,160.53c-3.56-13.29-.65-12.57-.37-17.46s-5.67-5.93-5.37-10.73,2.86-5.47,3.49-5.37-1.9,3.94-.17,5.14,10.58,5.74,9.78,9.29-4.34,9.17-.14,13.21S266.51,160.53,266.51,160.53Z"/><path class="cls-4" d="M214.4,87.92c-1,6.64-3.27,9.92.36,13s8.16,2.72,8.05,10.75,1.28,9.27,2.54,9.47-.33-7,1.72-7.62,1.54-9-1.43-11.64-9-13-8.46-14.31S214.4,87.92,214.4,87.92Z"/></g><path class="cls-5" d="M304.25,143.28c-5.13.81-5-1-7.49-2.21a10.72,10.72,0,0,0-9.64.12"/><path class="cls-5" d="M305,132c-2.9,1.73-7.18,3.18-9.44,2.35S289.9,131.81,287,133"/></g><g id="_1paw-front_" data-name="&lt;1paw-front&gt;"><path class="cls-2" d="M125.42,222.62c-13.83,42.13,26.9,74.52,54.25,70.25-14.76,19.58-.27,32.81-8.39,39s-9.37,2.3-14.15,4.57-3.7,9.39-7.62,9.67c-8.48.6-8.43,10.6-1.33,9.78-3.79,5.32-.42,10.34,5.55,9.69-1.61,5,5.94,8.46,10.44,4.54s4.52-14.95,11.37-15.33,16.25.11,21-6.47c11.57-16.2-3.64-29,1-36.35S226,292.1,224.36,271.32s-4-17.44-21.23-22.06S192.71,223,192.71,223"/><g class="cls-9"><path class="cls-4" d="M113.86,246.31c2.44-7.58,3.79-11.23,11.43-9.31s11.28-6.42,15-5.86,16.67-3.43,19-1.86-8.75,2.63-11.58,5c-3.92,3.26-3.78.68-6.53,3.86-5.12,5.91-14.28.42-14.91,6.44-.68,6.62-4.77,8.91-6.51,9.33S113.86,246.31,113.86,246.31Z"/><path class="cls-4" d="M136.87,283.06c-1.82-10.25-5.53-11.62-.53-12.4s11.19.85,11.71-6.09a58,58,0,0,1,1.58-11.24c.67-3.1,3.5-9.18,10.3-7.41,3.49.9,6.24-2.36,3.6-.18s-8.5.63-8,6.27,3.25,3,3.24,8.19.71,8.52-2.87,10.81-8,.19-11.12,6.39S136.87,283.06,136.87,283.06Z"/><path class="cls-4" d="M202.55,238.18c-9.9,5.58-11.41,6.22-15.66,3.87s-9.57-2.5-9.71,2.81,1,12.09-2.15,12.7c-7.7,1.5-3.86,4.17.41,3.38,1.06-.2,9.48-6.89,7.15-10.75s8.61,1.17,12.68,2,12.47-5.06,12.47-5.06Z"/><path class="cls-4" d="M230.53,270c-8.06-5.25-19.73-10.18-18.85-5s-1.54,7.07-5.54,6.76-11-6-13.44-1.77-6.57,4.81-7,5.5-.38,1.23,2,1.45,3.3-5.6,8.6-1.14,11.26,10.07,13,7.75,3-11.48,7.52-8.86,9.86,4.88,10.81,4,3.11-7,3.11-7Z"/><path class="cls-4" d="M164.2,303.07c4.21-2.36,4.66-9.43,9.32-3.85s8.4,1.68,11.92,4.43,3,7.3,3,7.3-3.93-4-6.12-2.42-3,5.66-9.4,4.32S164.2,303.07,164.2,303.07Z"/><path class="cls-4" d="M155,290.6c-2.42-3.44-8.8-8.63,2.35-8.12s14.36.42,15.41-5.43,4.61-9.17,7.14-10.15,4.69-3.34,3.29-.4-5.18,4.46-4.44,8.34,6.11,6.66.34,9.21-14,3.38-13.65,6.7S155,290.6,155,290.6Z"/><path class="cls-4" d="M209.65,339.31c-5.85-6.69-7.54-9.66-11.78-7.55s-6.56,6.88-11.51,1-3.8-3.64-3.74.46,2.34,11.87,5,11.88,9.33-1.59,12.16,2S209.65,339.31,209.65,339.31Z"/></g><path class="cls-5" d="M147.88,356.34c1-3.06,4.9-4.85,6.58-5.33,2.93-.84,4.08-4.11,5.57-6.33s4.85-2.88,6.47-3.35"/><path class="cls-5" d="M153.73,365.59c.29-3.06,2-4.73,5.91-6.13s2.31-6.37,6.84-10.36c3.2-2.81,4.63-1.8,5.85-2"/></g><g id="_tail_" data-name="&lt;tail&gt;"><path class="cls-2" d="M115.2,98c-5.78-19.14-4.57-27.7,1.28-31.2,11.09-6.65-.49-44.78,44-49C240.24,10.12,240.9,123.55,184.4,144s-84.11-20.09-104.18-12.38C55,141.29,59.28,170.13,32,167.92c-18.4-1.5-25.7-25.09-23.13-36.52s16.42-16,20.16-11.43-.78,12.58-2.2,16.56c-4,11.26,14.3,27.89,23.21-.31,4.6-14.57,19.44-27.4,39.36-22.43,12.89,3.21,67.19,35.17,99.8,7.62s7.43-95.64-26.18-84.9S139.22,75.8,139.22,75.8"/><g class="cls-10"><path class="cls-4" d="M8.47,113.56c-5.05,4.5-10.26,11-7.88,14.55s10.89-.45,12.52,4.28,2.84,9,5.64,6.55,7.53-7.1,11.06-4.18,15.19,3.08,10.93-4.34S29.42,111.17,27.84,110,8.47,113.56,8.47,113.56Z"/><path class="cls-4" d="M33.48,141.89c-6.75,1.17-13.34-4.36-10.94,1.7S24.62,156,21,157.18s-12.55,1.89-8.19,7.18,9.7,10.1,12.53,8.7,7.85-3.61,5.21-7.87-5.59-5.32-2.09-7,6.35-5.36,5.95-8.84S33.48,141.89,33.48,141.89Z"/><path class="cls-4" d="M40.34,141.41c.4,6.3-.7,7.4,2.51,9.08s5.67-2.68,4.39,2.77-4.24,4.23-2.14,7.85,3.34,10.53,7,7.6,6.88-11.48,2.51-15.5-4.11-4.72-4-8.37S40.34,141.41,40.34,141.41Z"/><path class="cls-4" d="M48.82,124.32c1.22,7.08,2.13,8.2,4.85,8.4s5.41-5.75,6.73,1.66.72,9.24,4.72,11.22,14.5,3.45,10.43-2.86-8.87-4-8.64-9.16,5.08-8,.37-9.41-7.94,4-11.69-.68S48.82,124.32,48.82,124.32Z"/><path class="cls-4" d="M70.61,109.3c2,5.93,4.15,6.5,6.18,8.66s2.24,1.77,1.93,5.34-2.93,3.78,4.2,8.7,8.75,6.76,8.85,3.11-5.84-3-3.31-8.24,1.62-4.08,4.23-5.81,6.16-3,0-8.47S70.61,109.3,70.61,109.3Z"/><path class="cls-4" d="M115.28,118.94c-2.92,3.84-.29,7,2.56,10.14s3.75,0,1,10.17-2.12,11.85.5,12.59,10.24,0,7.25-3.73-8.33-5.26-5-8.19,4-1.17,6.37-2.72.68-3.09-2-7.52S115.28,118.94,115.28,118.94Z"/><path class="cls-4" d="M135.62,123c3.33,5.59,10.75,9.18,12.35,12.56s.67.68-.48,5.4-3,5,2.31,9.59,14.75,12.79,14.4,7-2.68-9.52-5.85-11.78-8.29-2.87-3.38-5.94,5.23-2,4.07-5.66a14.83,14.83,0,0,0-6.36-8.7C149,123,135.62,123,135.62,123Z"/><path class="cls-4" d="M177.13,122c6.31,9.81,8.77,4.27,10.77,8.73s-2.49,6,1.62,9.82,4.58,6.23,8,2.35,3.73-4.1-.32-8.36-3.56-4.25-2.49-8.32,3.92-3.48-.88-7.14S177.13,122,177.13,122Z"/><path class="cls-4" d="M187.37,96.23c4.88,5.23,15.36,10.12,16.3,4.89s5.22-9.28,6.31-3.24-4.36,7.63,2.88,9.11,15-.06,13.5-4.44a19.35,19.35,0,0,0-8.48-10.69c-4.76-3.14.52-10.19-5.89-7.81s-10.72,14.72-14.45,11.64S187.37,96.23,187.37,96.23Z"/><path class="cls-4" d="M230.08,66.13c-7.12-.2-5.87-4.3-11.53-2.51s-6.38,1.71-8.3,4.76-2.95,7.6-8.09,4.52-10.81-1.67-4.36,3.36,6.82,9.57,10.87,5.19,2-9.24,8-7.67,10.78,5.2,11.23.21A19.26,19.26,0,0,1,230.08,66.13Z"/><path class="cls-4" d="M220.84,38.57c-2.45,2.71-8.56-1.13-14.78,1.4s-8.51,6.86-7.23,10.06-15.31-1.13-7.93,7.32,15.7,8.66,13.79,3.07-7.18-6.7,1.13-10.9,15.56-4.83,15.58-7.45a7.38,7.38,0,0,0-1.2-4.25Z"/><path class="cls-4" d="M179.51,9c-.42,3.76,6.17,6.9,5,8.56s-9.25-1.27-11.15,3.36-2.51,8.36-.37,12.86-4,10.24,1.72,11.1,9.78-6.51,7.4-10.1-5.41-7.1.43-7.46,13.42.74,10.91-4.47S179.51,9,179.51,9Z"/><path class="cls-4" d="M139.37,13.92c-1.44,2.64-10.53,7.44-2.24,11.81s12.85,1.35,12.4,6.34-5.1,5.22.54,9.82,9.63,7,11.45,3.12,2.06-4.78-2-10.46-3.07-7.8-1.78-11.72,2.24-6.15-3.83-9.64S139.37,13.92,139.37,13.92Z"/><path class="cls-4" d="M106.91,92.4c0-2.72-29.42-1.89-22.94-6.92s29.42-7.63,31.07-12.6,7.71-9.54,11.42-10.93,7.7-2.33,8.76-.87-4.44.17-6.68,4.85-.15,5.42-3.26,7.74-5.57,4.39-5.65,7.75-8.76,6.54-9.1,9.23S106.91,92.4,106.91,92.4Z"/><path class="cls-4" d="M117.63,41.63c6.16,2.06,9.76-7.37,14.88-3.06s1,4.88,6.09,9.25,2.29,7,.69,5.62-1.54-8-5-5.09-7.8,6.88-10.25,2.75S117.63,41.63,117.63,41.63Z"/></g></g><g id="_head_" data-name="&lt;head&gt;"><path class="cls-5" d="M65.9,186.12c6.66-7,14-11.26,17.28-10.08s3.83,8.79,1.45,11.83S65.9,186.12,65.9,186.12Z"/><path class="cls-2" d="M65.9,186.12c6.66-7,14-11.26,17.28-10.08s3.83,8.79,1.45,11.83S65.9,186.12,65.9,186.12Z"/><path class="cls-4" d="M73.11,185.14c3.91-5.61,6.56-6.9,9.07-5.86s.92,7.12-.25,9.57C78.91,186.74,73.11,185.14,73.11,185.14Z"/><path class="cls-11" d="M18.72,216.63c5,7.78,12.76-1,18.45.63s7.41,8.5,15,9.44,19-9.39,24.43,2.22C80,236,67,236.46,58.37,242.73s-4,9.16-8.57,12.19-27.41,7-26.29.76,24.38-3,24.63-13.87S41.92,225.36,34,225.89,18.72,216.63,18.72,216.63Z"/><path class="cls-12" d="M104.41,218c12.09,3,16.63,11.73,15.06,11.92s-4.41-.54-3.71.45,5.23,10.81,4,10.34-6.25-2-5.71-.85,3.56,9.31,2.74,8.48-3.88-2.15-4.91-1.1,1.88,8.28.46,8.45-3.87-4.39-5.21-3.57.27,10.52-1,9.9-5.06-5.88-6.09-4.82-.56,8.42-1.58,8.39-4.76-4.68-5.28-4.15.19,5.08-2.14,6.14,0-3.09-2.07-3.61-1.51,6.21-2.9,6.69-4-7.48-5.44-6.64.88,6.43-.17,6.56-4-5.39-5.88-5.16S72,272.73,70.17,273s-2.74-6.19-3.8-6.53-2,6.36-4.12,6.78,1.18-7.19-.46-7.61-5.64,6.85-8.23,5.78,8.69-12.35,6.16-16.24c-1.16-1.79.83-4.39,1.66-4.65S95,236.94,95,236.94Z"/><path class="cls-12" d="M49.49,256.94c-4.42-2.31-1.6-10-.35-10.48s6.25,6.18,5.55,7.57S49.49,256.94,49.49,256.94Z"/><path class="cls-12" d="M24.12,258c-1.07-6.66.35-11.61,1.49-11.75s5.34,14.1,4.47,14.06S24.12,258,24.12,258Z"/><path class="cls-2" d="M103.35,196.57c9.09-4.87,18.25-5.7,21.36.86S122,216.61,104.38,218c22.36,39.64-36.72,42.69-41.75,38.24s-4.06,4.69-14.69,7.58-21.33,5.94-23.67-1-.76-7.14-.76-7.14c1.25,2.31.27,2.74,3.46,3s17.48.5,22.83-3.77.55-4.81,4.56-8.5,11.42-6.86,16.49-9.78,5.61-2.11,6-4.07S75,222.44,67.88,223.4s-16,6.37-24.2-1.44-10.71-4.56-12.22-4-13.62,4.44-12.74-1.31,9.06-12.25,19.12-10.44,2-12.84,15.6-19.17C61.66,183.18,88,178.78,103.35,196.57Z"/><g class="cls-13"><path class="cls-4" d="M82.31,257.5c7-16.42.66-29.33.65-33.54s13.08,8,11.28,26.21S82.31,257.5,82.31,257.5Z"/><path class="cls-4" d="M103,252.87c.71-22.57-7.44-34.75-13.23-35.32s-3.56-3.16-1.68-3.16,10.14-2.84,21.78,18.45S103,252.87,103,252.87Z"/><path class="cls-4" d="M105.31,199.18c8.41-.83,11.72.66,12.69,3.95s-6.06,6.72-9.32,7.6C108.33,206.09,105.31,199.18,105.31,199.18Z"/></g><path class="cls-5" d="M18.77,217.91c-3-6.74,11.22-14,16.77-12s9,5.13,6,14.15c8.57-8,16-10.22,21.28-7s7.4,5.54,8.72,10.69-22.61,7-27.25,3.33S26.45,221,24,220.33,19.36,219.22,18.77,217.91Z"/><path class="cls-5" d="M93.59,200.81c-17.39-1.49-41.52,11.74-41.52,11.74,8.69-12.93,22.41-17.79,29.06-17.88S93.59,200.81,93.59,200.81Z"/><path class="cls-5" d="M42.25,211.58C59,200.7,61.1,191.12,56.86,185.74c-6.16,2.88-8.13,4.54-8.13,4.54C53,196.24,42.25,211.58,42.25,211.58Z"/><path class="cls-5" d="M52.07,212.55c-2.64-3.88-9.82-1-9.82-1,1.69,4.28-.69,8.49-.69,8.49A23.41,23.41,0,0,1,52.07,212.55Z"/><circle class="cls-5" cx="76.44" cy="209.56" r="7.47"/><circle class="cls-5" cx="45.81" cy="195.38" r="4.87"/><path class="cls-5" d="M21.43,217.46c1.35,8.65,1.22,8.81,2.38,8.82s5.78-10.69,4.32-10.8S21.43,217.46,21.43,217.46Z"/><path class="cls-5" d="M49.22,223.17c-.69,5.43.64,11.45,2,11.53s6.7-9,5.27-10.07S49.22,223.17,49.22,223.17Z"/><path class="cls-12" d="M21.43,217.46c1.35,8.65,1.22,8.81,2.38,8.82s5.78-10.69,4.32-10.8S21.43,217.46,21.43,217.46Z"/><path class="cls-12" d="M49.22,223.17c-.69,5.43.64,11.45,2,11.53s6.7-9,5.27-10.07S49.22,223.17,49.22,223.17Z"/><path class="cls-12" d="M18.77,217.91c-3-6.74,11.22-14,16.77-12s9,5.13,6,14.15c8.57-8,16-10.22,21.28-7s13.79,9.07,8.72,10.69c-18.33,5.83-26.72,3.68-30.71-3.64-2.83-5.2-14.4.83-16.9.17S19.36,219.22,18.77,217.91Z"/><circle class="cls-12" cx="76.44" cy="209.56" r="7.47"/><circle class="cls-12" cx="45.81" cy="195.38" r="4.87"/><path class="cls-12" d="M93.59,200.81c-17.39-1.49-41.52,11.74-41.52,11.74,8.69-12.93,22.41-17.79,29.06-17.88S93.59,200.81,93.59,200.81Z"/><path class="cls-12" d="M42.25,211.58C59,200.7,61.1,191.12,56.86,185.74c-6.16,2.88-8.13,4.54-8.13,4.54C53,196.24,42.25,211.58,42.25,211.58Z"/><path class="cls-11" d="M52.07,212.55c-2.64-3.88-9.82-1-9.82-1,1.69,4.28-.69,8.49-.69,8.49A23.41,23.41,0,0,1,52.07,212.55Z"/><circle class="cls-11" cx="45.81" cy="195.38" r="1.36"/><circle class="cls-11" cx="76.44" cy="209.56" r="2.86"/></g></g></g></svg>