<svg xmlns="http://www.w3.org/2000/svg" viewBox="0 0 312.96 63.47"><defs><style>.cls-1{fill:#f5f5ef;}</style></defs><title>Asset 20</title><g id="Layer_2" data-name="Layer 2"><g id="Layer_1-2" data-name="Layer 1"><path class="cls-1" d="M11.8,13.69h.3c1,0,1.46.6,1.46,1.79V16q0,2-2.36,7.22A18.26,18.26,0,0,0,10,29v.23q0,3.56,2.69,3.55c2.54,0,4.46-1.53,5.77-4.61A57.06,57.06,0,0,0,20.15,22q2.09-7.62,6.47-7.63a3.17,3.17,0,0,1,3.14,2.06,6,6,0,0,1,.44,2.35V19a16.3,16.3,0,0,1-2.89,8.82c-1,1.12-1.71,1.69-2.22,1.69h-.5a3.32,3.32,0,0,1-.49-1.1c-.2-.33-.4-.5-.6-.5h-.07c-.51,0-1,2.44-1.46,7.3Q19.72,48,17.5,52.43q-3.59,7.47-9,9.72A10.05,10.05,0,0,1,6,62.61q-3.81,0-5.7-5.24A10.87,10.87,0,0,1,0,54.79v-.07a7.71,7.71,0,0,1,3.18-6.46,5.22,5.22,0,0,0,4.91,3c2.12,0,4-1.42,5.6-4.24a29.76,29.76,0,0,0,2-6.7V40q-4.27,8.06-8.82,8.05H6.53a5.46,5.46,0,0,1-3.95-1.46,8.66,8.66,0,0,1-1.72-5.7q0-6.19,4.41-14.75a7.75,7.75,0,0,0,.3-1.82A1.28,1.28,0,0,0,4.64,23c-.66-.26-1-.44-1-.53a28,28,0,0,1,2.68-4.64,16.94,16.94,0,0,1,3.81-3.58A5.63,5.63,0,0,1,11.8,13.69Z"/><path class="cls-1" d="M48,14.15a7.23,7.23,0,0,1,7.33,5.21A18.27,18.27,0,0,1,56,24.2v.92q0,7.5-5.63,16.34a15.26,15.26,0,0,1-13.16,7.06q-6.1,0-7.92-7.35a22.76,22.76,0,0,1-.3-3.25q0-6.63,4.57-14a32.22,32.22,0,0,1,4-4.78Q42.83,14.16,48,14.15ZM39.75,29.07A4.91,4.91,0,0,0,43.23,34a5,5,0,0,0,1.09.16h.43c2.23,0,3.91-1.34,5-4h-.07a5.6,5.6,0,0,1-3.58,1.39A3.13,3.13,0,0,1,43,29.13a5,5,0,0,1-.1-.89v-.37a5.14,5.14,0,0,1,.7-2.61,3.74,3.74,0,0,0,2.65,1.52h.23q2.12,0,3.74-3.78a5.6,5.6,0,0,0,.14-.93V22a2.36,2.36,0,0,0-1.83-2.35,4.57,4.57,0,0,0-1.06-.17q-3.57,0-6.33,4.71A10.11,10.11,0,0,0,39.75,29.07Z"/><path class="cls-1" d="M69,13.79h0c.62,0,1,.4,1.3,1.19a4,4,0,0,1,.13,1q0,2.41-2.59,8.38a18,18,0,0,0-1.22,5.54v.39a2.33,2.33,0,0,0,1.22,2.36,2.23,2.23,0,0,0,.7.13h.46a9.52,9.52,0,0,0,4.64-2,5.37,5.37,0,0,0,1.73-2.23,10,10,0,0,0,1.39-4.24,1.66,1.66,0,0,0-1.33-1.66c-.17-.11-.26-.18-.26-.23a28.07,28.07,0,0,1,2.19-4.14q3.34-4.54,5.7-4.54h.06c.78,0,1.24.61,1.4,1.82v.3q0,2.41-2.36,7.92a28.06,28.06,0,0,0-1.69,7.46c0,1,.28,1.49.83,1.49.8,0,1.38-.73,1.76-2.19a7.66,7.66,0,0,1,.59-1.36A5.88,5.88,0,0,1,85,33v.86q0,4.27-3.88,10.07c-2.45,3.1-4.53,4.64-6.23,4.64h-.23q-3.82,0-3.82-5.13c0-.2,0-.53,0-1a14.65,14.65,0,0,1-7.53,5.84,6.52,6.52,0,0,1-1.85.29h-.67a3.76,3.76,0,0,1-3.87-3,9.58,9.58,0,0,1-.24-2q0-5.51,5.64-17.2a8.47,8.47,0,0,0,.36-2,1.67,1.67,0,0,0-1.36-1.66c-.15-.11-.23-.18-.23-.23a24.71,24.71,0,0,1,2.19-4.14Q66.66,13.79,69,13.79Z"/><path class="cls-1" d="M119.35,14.15a6,6,0,0,1,5.53,3,5.35,5.35,0,0,1,.63,2.52V20a5.8,5.8,0,0,1-2.05,4.27,7,7,0,0,1-4.58,2h-.23c-1.92-.29-2.88-1.19-2.88-2.72a2.37,2.37,0,0,1,.76-1.46,2.62,2.62,0,0,0,1,.24h.27a3.11,3.11,0,0,0,2.75-1.53l.07-.36c0-.44-.69-.7-2.06-.76q-5.56,0-8.28,6.66a8.61,8.61,0,0,0-.5,2.58A3.69,3.69,0,0,0,112,32.51a7.68,7.68,0,0,0,3.28.5q6.66,0,8.42-5.14c.06,0,.09-.08.09-.26h.2a5.23,5.23,0,0,1,2.36,4.51q0,5.84-6,11.63a17,17,0,0,1-11.1,4.34h-.54q-7,0-8.94-5.5a14.71,14.71,0,0,1-.57-4q0-6.3,4.58-13.75a34.74,34.74,0,0,1,4.5-5.34Q114.07,14.15,119.35,14.15Z"/><path class="cls-1" d="M148.46,14.15A7.59,7.59,0,0,1,154,16.44c1.66-1.52,2.88-2.29,3.65-2.29h.2c1,0,1.66.59,2,1.76,0,.33,0,.61,0,.83,0,1.17-1,4-2.92,8.45a20.48,20.48,0,0,0-1.66,6.1c0,.86.33,1.29,1,1.29,1.08,0,1.55-1,1.42-3q1.39,5-.71,11.78t-7.41,7.54q-3.65,0-4.57-1.66a5.61,5.61,0,0,1-.6-1.32,13.64,13.64,0,0,1-7.46,2.58q-5.73,0-7.62-6.36a13.17,13.17,0,0,1-.43-3.22V38q0-5.86,4.24-13A32.18,32.18,0,0,1,138,19.12Q143.52,14.16,148.46,14.15ZM138.81,29a3.47,3.47,0,0,0,2.78,3.48,7,7,0,0,0,1.76.23q4.52,0,7-5.76a8.28,8.28,0,0,0,.4-2.29,3.88,3.88,0,0,0-3.18-4.18q-.6-.06-.93-.06-4.57,0-7.06,5.23A9.31,9.31,0,0,0,138.81,29Z"/><path class="cls-1" d="M170.44,13.79h.06c1,.18,1.53.9,1.53,2.19v.46a13.47,13.47,0,0,1-.4,2.82q4.11-5.18,9.38-5.17c2.67,0,4.52,1.07,5.53,3.21a5,5,0,0,1,.34,1.79v.17c0,2.18-.84,5.33-2.46,9.44a7.45,7.45,0,0,0-.46,2.36v.46a.77.77,0,0,0,.56.83c1.15-.24,1.73-1.08,1.73-2.52l-.07-.23h.07a8.4,8.4,0,0,1,1.82,5.5q0,5.67-4.48,10.77-2.68,2.66-5.23,2.65h-.17a3.56,3.56,0,0,1-3.71-2.88,9,9,0,0,1-.17-1.76q0-5.57,5.84-17.3a5.32,5.32,0,0,0,.23-1.29c0-1-.86-1.68-2.59-2a8,8,0,0,1-1-.07A8,8,0,0,0,170.44,26a8.16,8.16,0,0,0-1.6,5c0,.75.24,1.2.7,1.36.91,0,1.44-.71,1.59-2.12v0l0-.59h0a9.5,9.5,0,0,1,2.19,6.53A15.28,15.28,0,0,1,169.44,46q-2.55,2.55-4.87,2.55h-.17q-3.37,0-4.31-3.54a11.31,11.31,0,0,1-.16-1.76v-.7q0-5.3,4.57-16.1a7.82,7.82,0,0,0,.23-1.46V24.2c0-.69-.54-1.22-1.62-1.6a16.41,16.41,0,0,1,2.62-5.33Q168.42,13.79,170.44,13.79Z"/><path class="cls-1" d="M213.5,0h.3q3.48,0,4.94,4.11a11.68,11.68,0,0,1,.33,2.59q0,3.65-2.45,10.2l.13.07a13.54,13.54,0,0,1,8.16-2.78h.39q5,0,6.3,2a8.41,8.41,0,0,1,1.16,3.91q0,2.28-1.86,9.48a10.27,10.27,0,0,0-.36,2.35c0,.71.22,1.06.66,1.06h.17c1.15,0,1.91-.85,2.29-2.55a3.12,3.12,0,0,0,.13-.56h.1a11.39,11.39,0,0,1,.89,4.44q0,5.67-5.23,10.8c-2.43,2.12-4.63,3.19-6.6,3.19q-3.28,0-3.28-4a21.62,21.62,0,0,1,2.52-9c2.38-4.09,3.58-6.77,3.58-8.06v-.69c0-.86-.62-1.57-1.86-2.12a9.81,9.81,0,0,0-2.42-.33h-.86a8.62,8.62,0,0,0-6.83,3.58,6.37,6.37,0,0,0-1.19,3.34,1.35,1.35,0,0,0,1.26,1.53h0c1.15-.18,1.73-.51,1.73-1a10.25,10.25,0,0,0,.86-1.82h.13a11,11,0,0,1,1.13,4.71v.16q0,6.33-7.3,12-3,2-4.54,2a3.71,3.71,0,0,1-3.81-2.82,9.35,9.35,0,0,1-.3-2.35q0-5.73,5.08-14.88a71.44,71.44,0,0,0,3.87-8.52,15.35,15.35,0,0,0,1-5.11q0-4.39-2.49-5.63c-1.06-.35-2-.64-2.85-.86V7.09q0-3.18,3.12-5.8A7.24,7.24,0,0,1,213.5,0Z"/><path class="cls-1" d="M257.46,14.15c3.25,0,5.47,1.2,6.66,3.58a5.94,5.94,0,0,1,.4,2.12v.27q0,3.7-4.34,7.89a7.89,7.89,0,0,1-4.54,1.89H255a3.93,3.93,0,0,1-3.48-2.12,3.6,3.6,0,0,1-.4-1.76q0-2.62,2.82-5.3H254a3.67,3.67,0,0,0,1.76,2.18,3.43,3.43,0,0,0,1.23.33c1.12,0,1.91-.86,2.35-2.58,0-.64-.69-1.21-2.06-1.69a3.54,3.54,0,0,0-1-.13H256q-4.87,0-7.22,5.83a7.25,7.25,0,0,0-.47,2.59v.16c0,2.48,1.32,4.12,3.95,4.94a9.6,9.6,0,0,0,2.28.3h1.3a8.41,8.41,0,0,0,6.39-2.95l.33-.27a8,8,0,0,1,1.26,4.34v.3q0,5.61-6.46,11a16.52,16.52,0,0,1-9.88,3.29h-.29q-6.16,0-8.46-4.75a14.79,14.79,0,0,1-.89-5.13q0-7.07,5.53-15.22a28.77,28.77,0,0,1,6.53-6.39A14,14,0,0,1,257.46,14.15Z"/><path class="cls-1" d="M270.26,48.62c-3.2,0-4.81-1.65-4.81-5s2-8.82,5.9-16.24q3.91-7.82,3.91-12.13,0-4.57-2.61-5.9c-1.09-.35-2-.64-2.89-.86a4,4,0,0,0-.1-1v-.2a7.4,7.4,0,0,1,3.88-6.6A6.78,6.78,0,0,1,276.46,0h.46q3.31,0,4.94,3.75a10.78,10.78,0,0,1,.47,2.35l0,1.42q0,3.59-3.52,13.43a69.14,69.14,0,0,0-2.25,9.34,6,6,0,0,0-.2,1.46l0,.23c0,.69.33,1,1,1,.92,0,1.53-.7,1.82-2.12.15-.71.28-1.06.36-1.06a28.29,28.29,0,0,1,.73,6.1q0,7.51-5.5,11.3A8.79,8.79,0,0,1,270.26,48.62Z"/><path class="cls-1" d="M291.78,13.26c1.08,0,1.62.88,1.62,2.65,0,.26,0,.81-.1,1.62q5.18-4.11,9.68-4.11h.76a9,9,0,0,1,6.47,3A12.12,12.12,0,0,1,313,24.73a26.29,26.29,0,0,1-3,11.27A29.88,29.88,0,0,1,305,42.82Q299.6,48,294.3,48a8.5,8.5,0,0,1-6.07-2.62,10.45,10.45,0,0,0-.4,2.75,2.58,2.58,0,0,0,1.53,2.68,3.61,3.61,0,0,0,1.22.27h.7c.22,0,.7,0,1.43-.13l.06.13V52q0,5-5.17,9.64a8,8,0,0,1-4.34,1.79h-.43q-2.49,0-3.28-3.81a11.77,11.77,0,0,1-.13-1.76v-.16q0-6.57,4.4-16.11a58.63,58.63,0,0,0,3-10.8,17.53,17.53,0,0,0,.76-4.71v-.07c0-.82-.2-1.22-.6-1.22s-1,.49-1.59,1.49h-.1l-.06-.43v-.7a1.47,1.47,0,0,0-.07-.46A15.56,15.56,0,0,1,287.77,16C289.27,14.16,290.61,13.26,291.78,13.26Zm2.82,15.15a4.64,4.64,0,0,0,2.35,4.3,4.21,4.21,0,0,0,1.82.47H299q4.63,0,7.12-5.84a10.28,10.28,0,0,0,.63-3.34v-.33A3.71,3.71,0,0,0,304,19.79c-.12,0-.5-.05-1.16-.13A8.08,8.08,0,0,0,297,22.24,9.26,9.26,0,0,0,294.6,28.41Z"/></g></g></svg>